<svg xmlns="http://www.w3.org/2000/svg" viewBox="0 0 960 576"><path d="m0 0h960v576h-960z" style="fill:#ac7c35"/><g style="stroke-linejoin:round;stroke-width:.7"><path d="m959 576h1v-1.5-1.5-.5-.5h-.5-.5-2.5-2.5l-1.5-.5-1.5-.5h-2-2l-2-.5-2-.5h-2-2-2.5-2.5l-2-.5-2-.5h-.5-.5-23-23-25-25-.5-.5-1.5-1.5l-.5.5-.5.5h-34.5-34.5l-22.5 3-22.5 3h22.5 22.5 22.5 22.5 22 22 22.5 22.5 22 22 11 11" style="fill:#eccd96;stroke:#eccd96"/><path d="m959 572h1v-.5-.5h-.5-.5l-1-.5-1-.5-2-.5-2-.5h-2-2l-2-.5-2-.5-1.5-.5-1.5-.5h-2-2-2.5-2.5-2-2-.5-.5-24-24-23.5-23.5v.5.5h23 23l25.5.5 25.5.5 2 .5 2 .5h2.5 2.5 2 2l2 .5 2 .5h2 2l1.5.5 1.5.5h2.5 2.5" style="fill:#7a5a28;stroke:#7a5a28"/><path d="m959 571h1v-1.5-1.5h-.5-.5l-1-.5-1-.5h-1.5-1.5-1-1-1-1l-.5-.5-.5-.5h-1.5-1.5-1-1-1-1-1-1l-.5-.5-.5-.5h-1.5-1.5-1-1-1-1-1-1-1-1-1.5-1.5-1-1l-.5-.5-.5-.5h-1.5-1.5-.5-.5-22.5-22.5l-21.5.5-21.5.5-33.5-1.5-33.5-1.5 9-13.5 9-13.5 12.5-9.5 12.5-9.5 18.5-3.5 18.5-3.5 20.5-.5 20.5-.5 19.5 3 19.5 3 17 2 17 2-18.5-4.5-18.5-4.5-20-2-20-2-36 2-36 2-2 1-2 1-.5.5-.5.5-17.5 5-17.5 5h-20-20l-29.5 1.5-29.5 1.5-1 .5-1 .5h-1-1l-.5.5-.5.5h-1-1-1-1l-1 .5-1 .5h-1-1l-.5.5-.5.5h-1-1l-1 .5-1 .5h-1-1-1-1l-.5.5-.5.5h-1.5-1.5l-.5.5-.5.5h-1-1l-.5.5-.5.5h-2-2l-17.5 5.5-17.5 5.5-18.5 16-18.5 16h1.5 1.5.5.5l20-15 20-15 17-5.5 17-5.5 17.5-4.5 17.5-4.5 22-.5 22-.5 31.5 1 31.5 1-9.5 13.5-9.5 13.5-15.5 6.5-15.5 6.5-19.5 3-19.5 3h-34.5-34.5-.5-.5l-1.5.5-1.5.5h-2-2-1-1-1.5-1.5-2-2l-.5.5-.5.5h-1.5-1.5-2-2-3.5-3.5v.5.5h23.5 23.5 22 22 4 4l19.5-3 19.5-3 19.5-1.5 19.5-1.5h31.5 31.5l22.5-.5 22.5-.5 25.5.5 25.5.5h2 2 2.5 2.5 2 2l1.5.5 1.5.5 2 .5 2 .5h2 2l2 .5 2 .5 1 .5 1 .5" style="fill:#180b00;stroke:#180b00"/><path d="m959 568h1v-.5-.5h-.5-.5l-1.5-1-1.5-1h-2.5-2.5l-1.5-.5-1.5-.5h-1.5-1.5-1-1-1-1-1-1-1.5-1.5-1-1-1-1-1-1-1-1l-.5-.5-.5-.5h-1.5-1.5-1-1-1.5-1.5v.5.5h1.5 1.5l.5.5.5.5h1 1 1.5 1.5 1 1 1 1 1 1 1 1 1.5 1.5l.5.5.5.5h1 1 1 1 1 1 1.5 1.5l.5.5.5.5h1 1 1 1 1.5 1.5l1 .5 1 .5" style="fill:#5c4327;stroke:#5c4327"/><path d="m959 567h1v-1.5-1.5-2-2-2.5-2.5-2-2-2.5-2.5-2-2-2.5-2.5-2-2-2-2-1.5-1.5h-.5-.5l-28.5-7.5-28.5-7.5 5 9.5 5 9.5 16.5 4.5 16.5 4.5-13 1-13 1 4.5 5 4.5 5 12.5 7 12.5 7h-1-1 2.5 2.5l1.5 1 1.5 1" style="fill:#7a5a28;stroke:#7a5a28"/><path d="m959 526h1v-1.5-1.5-2-2-2.5-2.5-2-2-2.5-2.5-2-2-2.5-2.5-2-2-2-2-1.5-1.5h-.5-.5v-2-2-2-2-1-1-1.5-1.5l-.5-.5-.5-.5-.5.5-.5.5v1 1 1 1 1.5 1.5l.5.5.5.5v1 1l-.5.5-.5.5v1.5 1.5 2 2 1 1 1.5 1.5 1.5 1.5l-.5 1-.5 1 .5 1.5.5 1.5v1 1 1.5 1.5l-.5 2-.5 2v.5.5l.5 1 .5 1v1.5 1.5l-17-2-17-2-19.5-3-19.5-3-20.5.5-20.5.5-18.5 3.5-18.5 3.5-12.5 9.5-12.5 9.5-9 13.5-9 13.5 1.5.5 1.5.5h1 1 1.5 1.5 2.5 2.5l-1-1-1-1-1.5-.5-1.5-.5v-1-1l1-1 1-1 5-10.5 5-10.5 16-9 16-9 1.5-.5 1.5-.5h1 1 1 1l1-.5 1-.5 1.5-.5 1.5-.5h1 1l.5-.5.5-.5h1 1l1.5-.5 1.5-.5 33.5-.5 33.5-.5 28.5 7.5 28.5 7.5" style="fill:#5c4327;stroke:#5c4327"/><path d="m959 485h1v-1.5-1.5-2-2-2.5-2.5-2-2-2.5-2.5-2-2-2.5-2.5-2-2-2-2-1-1h-.5-.5v1.5 1.5 1.5 1.5 2.5 2.5 2 2 2.5 2.5l-.5-1.5-.5-1.5v-2.5-2.5l-.5-1.5-.5-1.5-.5-1.5-.5-1.5h-.5-.5l-9 12-9 12-2.5 8-2.5 8-13 7-13 7-17-2-17-2-9.5 1-9.5 1-22.5 3-22.5 3 36-2 36-2 20 2 20 2 18.5 4.5 18.5 4.5v-1.5-1.5l-.5-1-.5-1 .5-7.5.5-7.5v-1.5-1.5-1.5-1.5-1-1-2-2-1.5-1.5l.5-.5.5-.5v-1-1l-.5-.5-.5-.5v-1.5-1.5-1-1-1-1l.5-.5.5-.5.5.5.5.5v1.5 1.5 1 1 2 2 2 2" style="fill:#4e2300;stroke:#4e2300"/><path d="m959 445h1v-1.5-1.5-2-2-2.5-2.5-2-2-2.5-2.5-.5-.5h-.5-.5l-1 .5-1 .5v1 1l-1 1.5-1 1.5.5 1 .5 1v1.5 1.5l1 1.5 1 1.5v2 2l-.5 1.5-.5 1.5-.5 2-.5 2v1.5 1.5l.5 1.5.5 1.5.5 1.5.5 1.5v2.5 2.5l.5 1.5.5 1.5v-2.5-2.5-2-2-2.5-2.5-1.5-1.5-1.5-1.5" style="fill:#5c4327;stroke:#5c4327"/><path d="m959 423h1v-23.5-23.5-4.5-4.5h-.5-.5-.5-.5-1.5-1.5l-1.5-.5-1.5-.5h-1.5-1.5l-1.5.5-1.5.5-.5.5-.5.5h-.5-.5v1.5 1.5l-20-1.5-20-1.5-28.5-1-28.5-1-6.5 2-6.5 2-15 5.5-15 5.5-1 5-1 5 12.5-7.5 12.5-7.5v7.5 7.5l5.5-3.5 5.5-3.5-10.5 12-10.5 12 6-4 6-4 5 1 5 1 1.5 1 1.5 1 5.5 3.5 5.5 3.5v5.5 5.5l6.5-3.5 6.5-3.5h2 2l5-.5 5-.5 11.5-10.5 11.5-10.5 7-3.5 7-3.5-8.5 10.5-8.5 10.5-8.5 11-8.5 11 8-1 8-1-8 10-8 10-7 11.5-7 11.5 11.5-10.5 11.5-10.5 11-8.5 11-8.5-10.5 11.5-10.5 11.5-6.5 9.5-6.5 9.5 13-8.5 13-8.5 4.5 1.5 4.5 1.5-11 11.5-11 11.5 6.5-3.5 6.5-3.5 11.5-10.5 11.5-10.5 13-13 13-13 1-1.5 1-1.5v-1-1l1-.5 1-.5" style="fill:#4e2300;stroke:#4e2300"/><path d="m959 367h1v-23.5-23.5-22.5-22.5-22-22-22.5-22.5-22-22-22-22-22.5-22.5-22-22-4.5-4.5h-18-18-22-22-22-22-22.5-22.5-9.5-9.5l2 21.5 2 21.5 1.5 21 1.5 21 2 19 2 19v21.5 21.5l-.5 20.5-.5 20.5.5 20.5.5 20.5-.5 20-.5 20 .5 19 .5 19-4.5 16-4.5 16 22 1 22 1 21.5.5 21.5.5 28.5 1.5 28.5 1.5 1.5-.5 1.5-.5h2.5 2.5l1.5.5 1.5.5h2.5 2.5l1.5.5 1.5.5h2.5 2.5l1.5-.5 1.5-.5h2 2 2.5 2.5l1.5.5 1.5.5 1 1 1 1" style="fill:#ac7c35;stroke:#ac7c35"/><path d="m958 417v-42l-.5 20-.5 20 .5 1 .5 1" style="fill:#5c4327;stroke:#5c4327"/><path d="m958 367h1l-1-1-1-1-1.5-.5-1.5-.5h-2.5-2.5-2-2l-1.5.5-1.5.5h-2.5-2.5l-1.5-.5-1.5-.5h-2.5-2.5l-1.5-.5-1.5-.5h-2.5-2.5l-1.5.5-1.5.5 1.5.5 1.5.5h1.5 1.5 2 2 1 1l1 .5 1 .5h2 2 1 1l1 .5 1 .5h3 3l1.5-.5 1.5-.5h1.5 1.5l1.5.5 1.5.5h1.5 1.5" style="fill:#7a5a28;stroke:#7a5a28"/><path d="m957 444l1-3v-2-2l-1-1.5-1-1.5-11.5 11-11.5 11-11.5 10.5-11.5 10.5-10.5 11.5-10.5 11.5 12-9 12-9 21.5-17 21.5-17 .5-2 .5-2" style="fill:#4e2300;stroke:#4e2300"/><g style="fill:#7b3901;stroke:#7b3901"><path d="m956 512l1-4v-1.5-1.5-1-1l-.5-1.5-.5-1.5.5-1 .5-1-.5 7.5-.5 7.5v-.5-.5"/><path d="m955 451h1v-1.5-1.5l-21.5 17-21.5 17-12 9-12 9 10.5-11.5 10.5-11.5 11.5-10.5 11.5-10.5 11.5-11 11.5-11v-1.5-1.5l-.5-1-.5-1-13 13-13 13-11.5 10.5-11.5 10.5-6.5 3.5-6.5 3.5 11-11.5 11-11.5-4.5-1.5-4.5-1.5-13 8.5-13 8.5 6.5-9.5 6.5-9.5 10.5-11.5 10.5-11.5-11 8.5-11 8.5-11.5 10.5-11.5 10.5 7-11.5 7-11.5 8-10 8-10-8 1-8 1 8.5-11 8.5-11 8.5-10.5 8.5-10.5-7 3.5-7 3.5-11.5 10.5-11.5 10.5-5 .5-5 .5h-2-2l-6.5 3.5-6.5 3.5v-5.5-5.5l-5.5-3.5-5.5-3.5-1.5-1-1.5-1-5-1-5-1-6 4-6 4 10.5-12 10.5-12-5.5 3.5-5.5 3.5v-7.5-7.5l-12.5 7.5-12.5 7.5 1-5 1-5 15-5.5 15-5.5 6.5-2 6.5-2-1.5.5-1.5.5-.5-.5-.5-.5h-1-1-1-1-1-1l-1-.5-1-.5h-1-1-1-1-1-1-1-1-1.5-1.5-1-1-2-2-.5-.5l-12 10-12 10 6-9 6-9h-2-2-2.5-2.5l-1 1-1 1-.5-1-.5-1-.5-.5-.5-.5-2-.5-2-.5h-2-2-2.5-2.5l-1.5-.5-1.5-.5-40 1.5-40 1.5h-.5-.5l-21.5-1.5-21.5-1.5-38.5-1-38.5-1-6-2.5-6-2.5h20.5 20.5l21 1 21 1h21.5 21.5l3-19 3-19 .5-21.5.5-21.5 1.5-21 1.5-21 1-20 1-20 .5-22 .5-22 1-20 1-20 .5-21.5.5-21.5 1-34.5 1-34.5h-2.5-2.5-2-2-1.5-1.5l-.5 38.5-.5 38.5-21.5 2.5-21.5 2.5-20 2.5-20 2.5-19.5 1.5-19.5 1.5-5.5-16.5-5.5-16.5 2-28.5 2-28.5h-3-3-2-2v2.5 2.5l-.5 2-.5 2v22 22l-1 20-1 20-.5 20-.5 20v21 21 21 21l-.5 22-.5 22-1 21-1 21-5.5 28-5.5 28 1 .5 1 .5.5.5.5.5-25.5-.5-25.5-.5h-21.5-21.5-21-21l-11 8-11 8-7.5 3-7.5 3-11.5 10.5-11.5 10.5-9.5 12-9.5 12-10.5 6.5-10.5 6.5 10.5-10.5 10.5-10.5 11-11.5 11-11.5 11.5-10.5 11.5-10.5 6-6.5 6-6.5-15.5 4.5-15.5 4.5 3 2.5 3 2.5-8 11-8 11-11 11-11 11-10 7.5-10 7.5-.5 19.5-.5 19.5 1.5 12 1.5 12-5.5 13.5-5.5 13.5-4.5 9.5-4.5 9.5-14 16-14 16h2.5 2.5 2 2 2.5 2.5 2 2 2.5 2.5l21.5-19.5 21.5-19.5-11 12.5-11 12.5-.5 2.5-.5 2.5 2.5 4.5 2.5 4.5h2.5 2.5 2 2 1 1l12-11.5 12-11.5 16.5-14 16.5-14-11 12.5-11 12.5-11.5 13-11.5 13h2 2l11.5-11 11.5-11 12.5-10 12.5-10-17 21-17 21h3 3 .5.5l25-14.5 25-14.5-11 14.5-11 14.5h1.5 1.5l20.5-17 20.5-17-12.5 17-12.5 17h1.5 1.5 2 2 1.5 1.5l1-1.5 1-1.5 1-1 1-1 1.5-1 1.5-1 1-1 1-1 1-1.5 1-1.5 1-1 1-1 1.5-1 1.5-1 1.5-.5 1.5-.5v1 1l-.5 1-.5 1-1 .5-1 .5-.5.5-.5.5-.5.5-.5.5-.5.5-.5.5-.5 1-.5 1-.5.5-.5.5-.5.5-.5.5-.5.5-.5.5-.5 2-.5 2h3.5 3.5 2 2 2 2 2.5 2.5 2 2 2.5 2.5 2 2 1 1l.5-1 .5-1 1-1 1-1 1.5-1 1.5-1 1.5-.5 1.5-.5.5-1.5.5-1.5.5-.5.5-.5 1-.5 1-.5h1 1l.5.5.5.5h1.5 1.5l.5 1 .5 1-1 .5-1 .5-1-1-1-1h-2-2l.5 2 .5 2h2 2l-1 1.5-1 1.5-.5 1.5-.5 1.5h3 3 2 2 1 1l1-.5 1-.5 1-1 1-1 1-1 1-1 1.5-1 1.5-1 1-1 1-1 1-1.5 1-1.5 1.5-.5 1.5-.5v.5.5l-.5 1.5-.5 1.5-1.5 1-1.5 1-1 1-1 1-1 1-1 1-1 1.5-1 1.5h24.5 24.5 16.5 16.5l18.5-16 18.5-16 17.5-5.5 17.5-5.5 26-6 26-6 19-.5 19-.5 1-.5 1-.5 1.5-.5 1.5-.5h2 2 2.5 2.5 2 2 2.5 2.5 2 2l.5 1 .5 1 2.5-.5 2.5-.5 1.5.5 1.5.5 1.5-1 1.5-1h2 2l1.5 1 1.5 1h1 1 2.5 2.5l1.5.5 1.5.5h2 2l1-.5 1-.5.5-1 .5-1 1-1 1-1 1-1 1-1 1.5-1 1.5-1 1-1 1-1 2-.5 2-.5 1-1 1-1 1.5-.5 1.5-.5 1 .5 1 .5-1.5.5-1.5.5-.5.5-.5.5-1 1-1 1h1 1l2-1 2-1 22.5-3 22.5-3 9.5-1 9.5-1 17 2 17 2 13-7 13-7 2.5-8 2.5-8 9-12 9-12"/></g><path d="m953 565l-25-14-4.5-5-4.5-5 13-1 13-1-16.5-4.5-16.5-4.5-5-9.5-5-9.5-33.5.5-33.5.5 27.5 3 27.5 3-16 5.5-16 5.5-4 9-4 9-13.5 6.5-13.5 6.5-23 1.5-23 1.5h32 32 .5.5 38.5 38.5 1.5 1.5 1 1 1.5 1.5l.5.5.5.5h1 1 1 1 1 1 1 1 1.5 1.5 1 1 1 1 1 1 1.5 1.5l1.5.5 1.5.5h1 1" style="fill:#ac7c35;stroke:#ac7c35"/><path d="m949 421l-23 21 8-6.5 8-6.5 3.5-4 3.5-4" style="fill:#7b3901;stroke:#7b3901"/><path d="m945 368l1-1h-3-3l-1-.5-1-.5h-1-1-2-2l-1-.5-1-.5h-1-1-2-2-1.5-1.5l-1.5-.5-1.5-.5-28.5-1.5-28.5-1.5-21.5-.5-21.5-.5-22-1-22-1h-20.5-20.5l-1-20.5-1-20.5 1-21 1-21 1-21 1-21 1.5-19 1.5-19-.5-17.5-.5-17.5 1-21.5 1-21.5 1-4 1-4 .5-19.5.5-19.5 2.5-35 2.5-35h-2-2l-.5 21.5-.5 21.5-1.5 20.5-1.5 20.5-1 21.5-1 21.5-1 21-1 21-.5 21.5-.5 21.5-.5 22-.5 22-1.5 20.5-1.5 20.5-1 21.5-1 21.5 9.5 9.5 9.5 9.5 21.5.5 21.5.5 21 1.5 21 1.5h22 22l34 2.5 34 2.5h.5.5" style="fill:#5c4327;stroke:#5c4327"/><path d="m944 371v-3l-34-2.5-34-2.5h-22-22l-21-1.5-21-1.5-21.5-.5-21.5-.5-9.5-9.5-9.5-9.5 1-21.5 1-21.5 1.5-20.5 1.5-20.5.5-22 .5-22 .5-21.5.5-21.5 1-21 1-21 1-21.5 1-21.5 1.5-20.5 1.5-20.5.5-21.5.5-21.5h-2-2v1.5 1.5 1 1 1 1 1 1 1 1l-.5 1-.5 1v1 1 1 1l.5.5.5.5v1.5 1.5 1 1 1 1 1 1 1.5 1.5 1 1 1 1 1 1l-.5 1.5-.5 1.5-1.5 22-1.5 22-.5 22-.5 22-1.5 20.5-1.5 20.5-.5 21-.5 21-1 21-1 21-1.5 20.5-1.5 20.5v22.5 22.5l-10 12-10 12-2-19.5-2-19.5.5-21.5.5-21.5 1-21 1-21 1-21.5 1-21.5 1-21 1-21v-22-22l1-21.5 1-21.5.5-33 .5-33h-1.5-1.5v2.5 2.5 2 2 2 2 2.5 2.5 2 2l-.5 2-.5 2v2 2l.5 2 .5 2v2 2l-.5 1.5-.5 1.5-.5 22-.5 22-.5 21.5-.5 21.5-.5 22-.5 22-1 21-1 21-1 21-1 21-1 21.5-1 21.5-1 21-1 21-11.5 10-11.5 10-21.5-.5-21.5-.5-27.5 1-27.5 1h23.5 23.5l37 2.5 37 2.5 20-1.5 20-1.5 41 .5 41 .5h2 2 1 1 1.5 1.5 1 1 1 1 1 1 1 1l1 .5 1 .5h1 1 1 1 1 1l.5.5.5.5 1.5-.5 1.5-.5 28.5 1 28.5 1 20 1.5 20 1.5" style="fill:#180b00;stroke:#180b00"/><path d="m929 569h1l-25.5-.5-25.5-.5h-23-23v.5.5h25 25 23 23" style="fill:#dbb878;stroke:#dbb878"/><g style="fill:#3c2e23;stroke:#3c2e23"><path d="m928 567h1l-25.5-.5-25.5-.5-22.5.5-22.5.5h23.5 23.5 24 24"/><path d="m918 564h1v-.5-.5h-.5-.5-38-38-.5-.5l-.5.5-.5.5-38.5-1-38.5-1 33.5 1.5 33.5 1.5 21.5-.5 21.5-.5h22.5 22.5"/></g><path d="m918 563h1-38.5-38.5 38 38" style="fill:#7a5a28;stroke:#7a5a28"/><path d="m890 518l-55-6-1.5.5-1.5.5h-1-1l-.5.5-.5.5h-1-1l-1.5.5-1.5.5-1 .5-1 .5h-1-1-1-1l-1.5.5-1.5.5-.5.5-.5.5-20.5 19-20.5 19 12.5-10 12.5-10 14-6.5 14-6.5 2.5 15 2.5 15-28.5 4-28.5 4 1 1 1 1h.5.5l23-1.5 23-1.5 13.5-6.5 13.5-6.5 4-9 4-9 16-5.5 16-5.5" style="fill:#dbb878;stroke:#dbb878"/><path d="m840 564l1-1h-32-32-.5-.5-2.5-2.5-1.5-1.5-1-1l-1.5-.5-1.5-.5 38.5 1 38.5 1" style="fill:#7a5a28;stroke:#7a5a28"/><path d="m832 569h1v-.5-.5-.5-.5h-31.5-31.5l-19.5 1.5-19.5 1.5-19.5 3-19.5 3h2 2 2.5 2.5 2 2 2.5 2.5 2 2l22.5-3 22.5-3 35-.5 35-.5h1.5 1.5" style="fill:#3c2e23;stroke:#3c2e23"/><path d="m831 553l-5-30-14 6.5-14 6.5-12.5 10-12.5 10-1 1-1 1v1 1l1.5.5 1.5.5 28.5-4 28.5-4" style="fill:#eccd96;stroke:#eccd96"/><path d="m828 570l1-1-35 .5-35 .5h34.5 34.5" style="fill:#dbb878;stroke:#dbb878"/><path d="m817 365h1l-41-.5-41-.5-20 1.5-20 1.5 40-1.5 40-1.5h1.5 1.5 2.5 2.5 2 2 2.5 2.5 2 2 2.5 2.5 2 2l.5 1 .5 1-1 .5-1 .5-6 9-6 9 12-10 12-10" style="fill:#4e2300;stroke:#4e2300"/><path d="m814 518l1-1-16 9-16 9-5 10.5-5 10.5 20.5-19 20.5-19" style="fill:#ac7c35;stroke:#ac7c35"/><path d="m808 507l-2-1-1.5.5-1.5.5-1 1-1 1-2 .5-2 .5-1 1-1 1-1.5 1-1.5 1-1 1-1 1-1 1-1 1-.5 1-.5 1 2-1 2-1 1-1 1-1 1.5-1 1.5-1 1.5-.5 1.5-.5 1.5-1 1.5-1 1-1 1-1 .5-.5.5-.5 1.5-.5 1.5-.5" style="fill:#96520c;stroke:#96520c"/><path d="m807 366l-1-2h-2-2-2.5-2.5-2-2-2.5-2.5-2-2-2.5-2.5-1.5-1.5l1.5.5 1.5.5h2.5 2.5 2 2l2 .5 2 .5.5.5.5.5.5 1 .5 1 1-1 1-1h2.5 2.5 2 2l1-.5 1-.5" style="fill:#5c4327;stroke:#5c4327"/><path d="m803 512l1-1h-1-1l-1.5 1-1.5 1-1.5.5-1.5.5-1.5 1-1.5 1-1 1-1 1-2 1-2 1-1 .5-1 .5h-2-2l-1.5-.5-1.5-.5h-2.5-2.5-1-1l-1.5-1-1.5-1h-2-2l-1.5 1-1.5 1-1.5-.5-1.5-.5-2.5.5-2.5.5h-.5-.5-2.5-2.5l-1.5.5-1.5.5h-1-1l-1-.5-1-.5h-2-2-1-1-1.5-1.5-3-3l-19 .5-19 .5h-.5-.5l-2.5.5-2.5.5-1.5.5-1.5.5h-2.5-2.5l-2 1-2 1 29.5-1.5 29.5-1.5h20 20l17.5-5 17.5-5" style="fill:#4e2300;stroke:#4e2300"/><path d="m783 527l-63-2-22 .5-22 .5-17.5 4.5-17.5 4.5-17 5.5-17 5.5h1.5 1.5l17.5-5 17.5-5 21-4.5 21-4.5 23.5-.5 23.5-.5 23 .5 23 .5-7.5 11-7.5 11-18.5 8.5-18.5 8.5h-2-2-1.5-1.5l-1.5.5-1.5.5h-1-1-1.5-1.5l-1.5.5-1.5.5-.5.5-.5.5h-1.5-1.5-2-2l-.5.5-.5.5h-1.5-1.5-2-2-1-1l-1 .5-1 .5-.5.5-.5.5h-27-27-1.5-1.5-1.5-1.5-2-2v.5.5h34.5 34.5l19.5-3 19.5-3 15.5-6.5 15.5-6.5 9.5-13.5 9.5-13.5" style="fill:#5c4327;stroke:#5c4327"/><g style="fill:#7a5a28;stroke:#7a5a28"><path d="m783 326l-1-38 .5-20 .5-20-.5-20.5-.5-20.5.5-20.5.5-20.5v-21.5-21.5l-2-19-2-19-1.5-21-1.5-21-2-21.5-2-21.5h-2.5-2.5-2.5-2.5-2-2-2.5-2.5-2-2-1-1l-2.5 35-2.5 35-.5 19.5-.5 19.5-1 4-1 4-1 21.5-1 21.5.5 17.5.5 17.5-1.5 19-1.5 19-1 21-1 21-1 21-1 21 1 20.5 1 20.5h20.5 20.5l4.5-16 4.5-16"/><path d="m780 527l-46-1-23.5.5-23.5.5h22.5 22.5l-13 1-13 1-19 3.5-19 3.5.5 3.5.5 3.5-5.5 8-5.5 8 11 5 11 5 32.5-4 32.5-4-.5 1-.5 1-1.5.5-1.5.5h-2-2l-2 .5-2 .5-2.5.5-2.5.5 18.5-8.5 18.5-8.5 7.5-11 7.5-11"/></g><path d="m752 520h1l-.5-1-.5-1h-2-2-2.5-2.5-2-2-2.5-2.5-2-2l-1.5.5-1.5.5-1 .5-1 .5h3 3 1.5 1.5 1 1 2 2l1 .5 1 .5h1 1l1.5-.5 1.5-.5h2.5 2.5" style="fill:#96520c;stroke:#96520c"/><path d="m745 561l-65 8-11-5-11-5 5.5-8 5.5-8-.5-3.5-.5-3.5 19-3.5 19-3.5 13-1 13-1h-22.5-22.5l-21 4.5-21 4.5-17.5 5-17.5 5-.5.5-.5.5-17 14.5-17 14.5h2.5 2.5 2.5 2.5 2 2 2 2v-.5-.5-.5-.5l-1-.5-1-.5-1.5 1-1.5 1v-2-2l-.5-1-.5-1 1.5-.5 1.5-.5 1.5-.5 1.5-.5h2.5 2.5l1 1 1 1 .5 1 .5 1h2 2l1 .5 1 .5h-2-2-1.5-1.5-1-1l-1 1-1 1 1.5-.5 1.5-.5h1.5 1.5 1 1 1 1 1 1 1.5 1.5l.5-.5.5-.5h1 1 1 1 1.5 1.5 1 1 2 2 2 2 1.5 1.5 1.5 1.5l27.5-.5 27.5-.5 1-.5 1-.5h1 1 2 2 1.5 1.5l.5-.5.5-.5h2 2 1.5 1.5l.5-.5.5-.5 1.5-.5 1.5-.5h1.5 1.5 1 1l1.5-.5 1.5-.5h1.5 1.5 2 2l2.5-.5 2.5-.5 2-.5 2-.5h2 2l1.5-.5 1.5-.5.5-1 .5-1" style="fill:#ac7c35;stroke:#ac7c35"/><g style="fill:#4e2300;stroke:#4e2300"><path d="m738 39l1-3v-1-1-1-1-1-1-1.5-1.5-1-1-1-1-1-1-1.5-1.5l-.5-.5-.5-.5v-1-1-1-1l.5-1 .5-1v-1-1-1-1-1-1-1-1-1.5-1.5h-3-3-2.5-2.5-2-2-2.5-2.5-2-2-2-2l-.5 33-.5 33-1 21.5-1 21.5v22 22l-1 21-1 21-1 21.5-1 21.5-1 21-1 21-.5 21.5-.5 21.5 2 19.5 2 19.5 10-12 10-12v-22.5-22.5l1.5-20.5 1.5-20.5 1-21 1-21 .5-21 .5-21 1.5-20.5 1.5-20.5.5-22 .5-22 1.5-22 1.5-22"/><path d="m707 41l1-3v-2-2l-.5-2-.5-2v-2-2l.5-2 .5-2v-2-2-2.5-2.5-2-2-2-2-2.5-2.5h-.5-.5l-1 34.5-1 34.5-.5 21.5-.5 21.5-1 20-1 20-.5 22-.5 22-1 20-1 20-1.5 21-1.5 21-.5 21.5-.5 21.5-3 19-3 19h-21.5-21.5l-21-1-21-1h-20.5-20.5l6 2.5 6 2.5 27.5-1 27.5-1 21.5.5 21.5.5 11.5-10 11.5-10 1-21 1-21 1-21.5 1-21.5 1-21 1-21 1-21 1-21 .5-22 .5-22 .5-21.5.5-21.5.5-22 .5-22"/><path d="m701 137l-23-15v13.5 13.5l-14 4-14 4-22-.5-22-.5-19.5 2.5-19.5 2.5-5 17-5 17v21.5 21.5l-.5 21.5-.5 21.5.5 20.5.5 20.5 12.5 10 12.5 10h20 20l20 .5 20 .5 8.5-13.5 8.5-13.5v-22-22l1.5-21 1.5-21 1-20 1-20 3.5-15 3.5-15 4.5-5.5 4.5-5.5.5-6 .5-6"/></g><path d="m699 138l-2-4-11.5 1-11.5 1-1-2-1-2 10.5 9 10.5 9-1.5 4.5-1.5 4.5 4.5-10.5 4.5-10.5" style="fill:#180b00;stroke:#180b00"/><g style="fill:#4e2300;stroke:#4e2300"><path d="m695 367h1l-37-2.5-37-2.5h-23.5-23.5l38.5 1 38.5 1 21.5 1.5 21.5 1.5"/><path d="m694 77l1-77h-1-1l-.5 38.5-.5 38.5-21 2-21 2-20 2-20 2-21 1.5-21 1.5-2.5-19.5-2.5-19.5 1.5-24.5 1.5-24.5h-.5-.5l-2 28.5-2 28.5 5.5 16.5 5.5 16.5 19.5-1.5 19.5-1.5 20-2.5 20-2.5 21.5-2.5 21.5-2.5"/></g><path d="m692 77l1-77h-1.5-1.5l-.5 37-.5 37-22.5 1.5-22.5 1.5-20 2-20 2-18.5.5-18.5.5.5-41 .5-41h-1-1l-1.5 24.5-1.5 24.5 2.5 19.5 2.5 19.5 21-1.5 21-1.5 20-2 20-2 21-2 21-2" style="fill:#180b00;stroke:#180b00"/><path d="m691 154l1-3-1-1-1-1-2 .5-2 .5h-2-2l.5 2 .5 2 1.5.5 1.5.5h1.5 1.5l1-.5 1-.5" style="fill:#96520c;stroke:#96520c"/><path d="m689 572l1-1-27.5.5-27.5.5h27 27" style="fill:#7a5a28;stroke:#7a5a28"/><path d="m689 74l1-74h-22.5-22.5-22-22-16.5-16.5l-.5 41-.5 41 18.5-.5 18.5-.5 20-2 20-2 22.5-1.5 22.5-1.5" style="fill:#4e2300;stroke:#4e2300"/><path d="m686 521h1l-26 6-26 6h2 2l.5-.5.5-.5h1 1l.5-.5.5-.5h1.5 1.5l.5-.5.5-.5h1 1 1 1l1-.5 1-.5h1 1l.5-.5.5-.5h1 1l1-.5 1-.5h1 1 1 1l.5-.5.5-.5h1 1l1-.5 1-.5 2-1 2-1h2.5 2.5l1.5-.5 1.5-.5 2.5-.5 2.5-.5" style="fill:#96520c;stroke:#96520c"/><path d="m684 172l-33-13-22-.5-22-.5-20 2-20 2-4.5 18-4.5 18v22 22l.5 21.5.5 21.5v22.5 22.5l16.5 5.5 16.5 5.5h22 22l20-1.5 20-1.5.5-21.5.5-21.5 1-21.5 1-21.5.5-21.5.5-21.5 2-18.5 2-18.5" style="fill:#180b00;stroke:#180b00"/><path d="m680 177l-31-15h-21.5-21.5l-20 2-20 2-1.5 20-1.5 20v22 22 22 22l2 20.5 2 20.5 21.5.5 21.5.5 20 1 20 1 11.5-9 11.5-9 .5-21.5.5-21.5 1-21.5 1-21.5 1-21 1-21 1-7.5 1-7.5" style="fill:#4e2300;stroke:#4e2300"/><path d="m624 573h1v-.5-.5h-2-2-1-1-1.5-1.5-1-1-1-1l-.5.5-.5.5h-1.5-1.5-1-1-1-1-1-1-1.5-1.5l-1.5.5-1.5.5h-1.5-1.5v.5.5h3.5 3.5 2 2 1.5 1.5l.5-.5.5-.5h2 2 1.5 1.5 1 1 2 2l1.5-.5 1.5-.5" style="fill:#7a5a28;stroke:#7a5a28"/><path d="m623 365h-42 20.5 20.5.5.5" style="fill:#96520c;stroke:#96520c"/><path d="m609 547l1-1h-1.5-1.5l-.5.5-.5.5-17 14.5-17 14.5h1.5 1.5l17-14.5 17-14.5" style="fill:#7a5a28;stroke:#7a5a28"/><path d="m607 572l-2-1h-2-2l-.5-1-.5-1-1-1-1-1h-2.5-2.5l-1.5.5-1.5.5-1.5.5-1.5.5.5 1 .5 1v2 2l1.5-1 1.5-1 1 .5 1 .5h1.5 1.5l1-1 1-1h1 1 1.5 1.5 2 2" style="fill:#dbb878;stroke:#dbb878"/><path d="m606 547l1-1-20 15-20 15h1.5 1.5 1 1l17-14.5 17-14.5" style="fill:#5c4327;stroke:#5c4327"/><path d="m554 9l1-4v-2.5-2.5h-1.5-1.5l.5 1.5.5 1.5-.5 1.5-.5 1.5v22.5 22.5l-1.5 20.5-1.5 20.5v20.5 20.5 21 21 21.5 21.5l-.5 21.5-.5 21.5-1 21-1 21-12 27-12 27 1 .5 1 .5h2 2 2 2l2.5.5 2.5.5 5.5-28 5.5-28 1-21 1-21 .5-22 .5-22v-21-21-21-21l.5-20 .5-20 1-20 1-20v-22-22" style="fill:#4e2300;stroke:#4e2300"/><path d="m552 6l1-3-.5-1.5-.5-1.5h-2.5-2.5-1.5-1.5l.5 22.5.5 22.5.5 21.5.5 21.5v22.5 22.5 22 22l-.5 28.5-.5 28.5-1 21.5-1 21.5-.5 20.5-.5 20.5-2.5 19-2.5 19-9-13-9-13v-22-22l-.5-22-.5-22 .5-20.5.5-20.5v-19.5-19.5l.5-21.5.5-21.5.5-21 .5-21v-38.5-38.5h-2-2v.5.5 30.5 30.5 2.5 2.5 2.5 2.5 2 2 2.5 2.5 2 2l-.5 1.5-.5 1.5v.5.5 23.5 23.5 35 35 1 1 32 32 22.5 22.5l-3.5 18.5-3.5 18.5-26.5 1-26.5 1h-.5-.5-28.5-28.5-1.5-1.5-1.5-1.5-1-1-1.5-1.5-2-2l-.5-.5-.5-.5h-1-1-1-1-1.5-1.5-1-1-1-1l-.5.5-.5.5h-1.5-1.5l-2-.5-2-.5h-2.5-2.5-2.5-2.5-2-2-2.5-2.5-2-2l-.5.5-.5.5-20.5-3-20.5-3 4-23 4-23-.5 1-.5 1-12.5 10-12.5 10-16 10.5-16 10.5-.5 1-.5 1-1 .5-1 .5-1-1-1-1v-1-1-1.5-1.5l1-1 1-1 14.5-8.5 14.5-8.5 13.5-8.5 13.5-8.5-25 12.5-25 12.5-17.5 3.5-17.5 3.5-21-1.5-21-1.5-14.5-.5-14.5-.5 20 2 20 2 21 1.5 21 1.5-2.5 3.5-2.5 3.5-21.5-1-21.5-1h-17-17l20.5 1.5 20.5 1.5 21.5 1 21.5 1 14.5-4.5 14.5-4.5 14-8.5 14-8.5 4.5 7.5 4.5 7.5-.5 22-.5 22v22 22 21 21l1.5-15 1.5-15v-22-22l2-19.5 2-19.5 20 1 20 1 20.5-.5 20.5-.5h22.5 22.5 22 22l25.5-1 25.5-1 12-27 12-27 1-21 1-21 .5-21.5.5-21.5v-21.5-21.5-21-21-20.5-20.5l1.5-20.5 1.5-20.5v-22.5-22.5" style="fill:#180b00;stroke:#180b00"/><path d="m545 234l1-57v-22-22-22.5-22.5l-.5-21.5-.5-21.5-.5-22.5-.5-22.5h-2.5-2.5-2-2-2.5-2.5-2-2-2.5-2.5v38.5 38.5l-.5 21-.5 21-.5 21.5-.5 21.5v19.5 19.5l-.5 20.5-.5 20.5.5 22 .5 22v22 22l9 13 9 13 2.5-19 2.5-19 .5-20.5.5-20.5 1-21.5 1-21.5" style="fill:#4e2300;stroke:#4e2300"/><path d="m540 361l-1-1-1-.5-1-.5-2.5-.5-2.5-.5h-2-2-2-2l-1-.5-1-.5-.5.5-.5.5h-2-2-2-2-2-2-2.5-2.5l-1.5.5-1.5.5h-2.5-2.5-2-2l-1.5.5-1.5.5 25.5.5 25.5.5" style="fill:#96520c;stroke:#96520c"/><path d="m521 358l1-1-25.5 1-25.5 1h-22-22-22.5-22.5l-20.5.5-20.5.5-20-1-20-1-2 19.5-2 19.5v22 22l-1.5 15-1.5 15v-21-21-22-22l.5-22 .5-22-4.5-7.5-4.5-7.5-14 8.5-14 8.5-14.5 4.5-14.5 4.5-21.5-1-21.5-1-20.5-1.5-20.5-1.5h17 17l21.5 1 21.5 1 2.5-3.5 2.5-3.5-21-1.5-21-1.5-20-2-20-2 14.5.5 14.5.5 21 1.5 21 1.5 17.5-3.5 17.5-3.5-.5-1-.5-1 1-1 1-1-1-1.5-1-1.5v-1.5-1.5l-19 3-19 3-21-1.5-21-1.5-5-1-5-1 21.5 1 21.5 1 24.5-5 24.5-5-2 .5-2 .5-1 1-1 1-1.5 1-1.5 1-1 1-1 1-.5-1-.5-1-1-1-1-1-2-.5-2-.5h-2-2-2.5-2.5l-2-1-2-1h-18-18l-17.5-4.5-17.5-4.5.5-1.5.5-1.5 17.5 5 17.5 5 8-12 8-12v-22.5-22.5l.5-21.5.5-21.5v19 19l.5 22 .5 22 3 18 3 18 14-8.5 14-8.5 8-8 8-8-15.5 6.5-15.5 6.5-3.5-15-3.5-15 .5-21.5.5-21.5v-21.5-21.5l19.5-2.5 19.5-2.5-12.5-4-12.5-4-13 6-13 6-14.5-.5-14.5-.5-16.5 6-16.5 6 4-3 4-3 9-13.5 9-13.5.5-21.5.5-21.5v-22-22l1.5-9 1.5-9v22 22l-.5 22.5-.5 22.5h.5.5l1-22.5 1-22.5-.5-20.5-.5-20.5 16-5.5 16-5.5-9.5 2-9.5 2-1.5 19.5-1.5 19.5-1.5 20.5-1.5 20.5-3 22.5-3 22.5h-.5-.5l-1 1-1 1 5.5-17.5 5.5-17.5 1-21.5 1-21.5.5-21.5.5-21.5 16 4 16 4 .5 21 .5 21 .5 21.5.5 21.5 3.5-1 3.5-1v-20-20l-.5-21-.5-21-10.5-11.5-10.5-11.5-7.5-4.5-7.5-4.5v-.5-.5h-1.5-1.5l-.5-.5-.5-.5h-1-1-1-1-1.5-1.5-1-1l-1.5.5-1.5.5h-1.5-1.5l-1 .5-1 .5v1.5 1.5l-.5 1.5-.5 1.5v2 2l-.5 2-.5 2 .5 1.5.5 1.5v2.5 2.5 2 2l-.5 2-.5 2v39 39l-3.5 19-3.5 19-20 1-20 1-12.5-10.5-12.5-10.5-20 1-20 1-5.5 13-5.5 13-7 12-7 12-7.5 12-7.5 12 16 12 16 12 1 1 1 1-.5 1-.5 1v2 2 1 1 1.5 1.5l-.5 1.5-.5 1.5.5.5.5.5-.5 1-.5 1-1 1-1 1-.5 1.5-.5 1.5-1.5.5-1.5.5-5.5 27.5-5.5 27.5.5 1.5.5 1.5 1 1 1 1v1 1l.5 1 .5 1 1 1 1 1v1 1l.5 1 .5 1 .5 1.5.5 1.5v1 1l-1 .5-1 .5-1 .5-1 .5-.5.5-.5.5-1 .5-1 .5-1.5.5-1.5.5-.5.5-.5.5-1 .5-1 .5-1.5.5-1.5.5-.5.5-.5.5-1 .5-1 .5-1.5.5-1.5.5-1.5.5-1.5.5-.5.5-.5.5-1 .5-1 .5-1.5.5-1.5.5-.5.5-.5.5-1 .5-1 .5h-2-2v1.5 1.5l16-6.5 16-6.5-15 7.5-15 7.5-1 1-1 1v2 2 1.5 1.5l1.5-1.5 1.5-1.5 1-1.5 1-1.5-1.5-.5-1.5-.5 1.5-.5 1.5-.5h1 1l.5-.5.5-.5.5-.5.5-.5 1-.5 1-.5 1.5-.5 1.5-.5.5-.5.5-.5 1-.5 1-.5 1.5-.5 1.5-.5.5-.5.5-.5h1.5 1.5l1-1 1-1 .5-.5.5-.5 1-.5 1-.5 1 1 1 1 1.5-.5 1.5-.5 1.5-.5 1.5-.5 1-.5 1-.5 1 1 1 1 .5 1 .5 1 .5 1.5.5 1.5v1 1l-1 2-1 2-.5 1.5-.5 1.5-.5 1.5-.5 1.5.5.5.5.5v2 2h.5.5v-2-2-2-2l1-1 1-1 .5-.5.5-.5.5-1 .5-1 .5-1 .5-1 6.5 2 6.5 2 20.5-.5 20.5-.5 14.5-15.5 14.5-15.5-9 14-9 14-21 .5-21 .5-10-17.5-10-17.5h-1-1-.5-.5l-.5.5-.5.5-3.5-1.5-3.5-1.5-2-18.5-2-18.5 12.5-19.5 12.5-19.5h1 1l1.5 1 1.5 1 1-.5 1-.5 26-3 26-3v2 2l-.5 1.5-.5 1.5v2.5 2.5l.5 2 .5 2v1.5 1.5l.5 2 .5 2v1 1l1 .5 1 .5.5 1.5.5 1.5.5.5.5.5.5 1 .5 1v1.5 1.5.5.5l.5.5.5.5v2 2h2.5 2.5l-1.5.5-1.5.5v1.5 1.5l1 1 1 1 1.5 1 1.5 1 .5 1.5.5 1.5-.5 1.5-.5 1.5-.5 1-.5 1 1 .5 1 .5.5-.5.5-.5v-1-1l.5-1 .5-1-6.5-15.5-6.5-15.5-4.5-14.5-4.5-14.5-30 3.5-30 3.5 27.5.5 27.5.5-27.5-.5-27.5-.5-4.5-6-4.5-6h8.5 8.5l21.5-.5 21.5-.5 20-2 20-2-4-12.5-4-12.5 8 13 8 13-5.5-14-5.5-14v-11.5-11.5l29.5-8 29.5-8v1.5 1.5 1 1l-1 .5-1 .5v1 1 1 1 1 1l.5 2 .5 2v-2-2l.5-1 .5-1v2 2 1 1 1 1 1 1 1.5 1.5l.5-.5.5-.5.5-.5.5-.5v1 1l-.5 1.5-.5 1.5v32.5 32.5l-.5 2-.5 2v2 2 2.5 2.5l.5 1.5.5 1.5v2.5 2.5 2 2l-.5 1.5-.5 1.5-11.5-2-11.5-2-14.5-13.5-14.5-13.5 2-10.5 2-10.5-20 2.5-20 2.5 12.5 5.5 12.5 5.5 12 10 12 10 17.5 13.5 17.5 13.5h-1.5-1.5l-1.5-.5-1.5-.5-1.5-1-1.5-1-1.5-.5-1.5-.5-1-1.5-1-1.5-1.5-.5-1.5-.5-1-1.5-1-1.5-1.5-.5-1.5-.5-1.5-1-1.5-1-1-1-1-1-1-.5-1-.5v.5.5l16 9.5 16 9.5-17.5-4-17.5-4-3-9-3-9 1.5.5 1.5.5-.5-1-.5-1-1.5-1-1.5-1-1-1-1-1-2.5-1-2.5-1-.5.5-.5.5v2.5 2.5l-.5.5-.5.5v1 1l-.5.5-.5.5h-1.5-1.5l-.5.5-.5.5.5.5.5.5h1 1l-.5.5-.5.5-1.5.5-1.5.5-1.5 15-1.5 15-5 16.5-5 16.5-7.5 13.5-7.5 13.5-34-1.5-34-1.5 3.5 8 3.5 8 3 8 3 8 15-7 15-7 17-4 17-4 10.5-8.5 10.5-8.5-.5-4.5-.5-4.5 1 .5 1 .5h1.5 1.5l.5.5.5.5h1.5 1.5l1.5.5 1.5.5 2 .5 2 .5 2 .5 2 .5h2 2l2 .5 2 .5 1.5.5 1.5.5h2.5 2.5l1 .5 1 .5h2.5 2.5l1.5.5 1.5.5v1 1l-1.5 1-1.5 1-.5.5-.5.5h-1-1l-.5.5-.5.5-1 .5-1 .5-1.5.5-1.5.5-.5.5-.5.5-1 .5-1 .5-1.5.5-1.5.5-.5.5-.5.5-1 .5-1 .5-1.5.5-1.5.5-2 1-2 1-.5.5-.5.5-20 14.5-20 14.5-1 .5-1 .5-.5.5-.5.5-.5.5-.5.5-1 1-1 1h-.5-.5l-1 1-1 1-.5.5-.5.5-.5.5-.5.5-.5-.5-.5-.5-1 .5-1 .5-.5.5-.5.5-.5.5-.5.5h-1-1l-.5.5-.5.5-.5 1-.5 1-.5.5-.5.5-1 .5-1 .5-.5.5-.5.5-.5.5-.5.5-.5.5-.5.5-1 .5-1 .5-1 1-1 1-.5.5-.5.5-.5.5-.5.5h-1-1l-.5 1-.5 1h-1-1l-.5.5-.5.5-.5.5-.5.5-1 .5-1 .5-.5.5-.5.5-1.5.5-1.5.5-1.5 1-1.5 1v1 1l-1 1-1 1-2-.5-2-.5-1 1-1 1-.5 1-.5 1-1 .5-1 .5-1 .5-1 .5-1.5 1-1.5 1-1 .5-1 .5-15 11.5-15 11.5h-.5-.5l-.5 1-.5 1-.5.5-.5.5-.5.5-.5.5-.5.5-.5.5-.5 1-.5 1h-2-2v1.5 1.5.5.5.5.5l13.5-9.5 13.5-9.5 12.5-10 12.5-10 13-9 13-9 13-9.5 13-9.5 13-9 13-9 13.5-9 13.5-9 11-8 11-8-19-3-19-3-2.5-2-2.5-2 18.5 3.5 18.5 3.5 10 10.5 10 10.5-.5 19.5-.5 19.5-.5 21.5-.5 21.5-1 21.5-1 21.5 3 18 3 18 10-7.5 10-7.5 1-21 1-21 .5-21.5.5-21.5 1.5-21 1.5-21 1-21 1-21v21.5 21.5l-1 21-1 21-.5 22-.5 22-1 21-1 21 2.5 4.5 2.5 4.5 7-5.5 7-5.5 8-14 8-14 9.5-13 9.5-13 6.5 8 6.5 8-15.5 8-15.5 8-8.5 13.5-8.5 13.5-4 12.5-4 12.5-20.5-5-20.5-5h1.5 1.5l.5 1.5.5 1.5v1 1 1.5 1.5 2 2 1 1l.5 1 .5 1v1.5 1.5.5.5h3.5 3.5 2 2 2.5 2.5 2 2 2.5 2.5l11.5-11 11.5-11 11-11.5 11-11.5 11-10 11-10-11 12-11 12-19.5 20.5-19.5 20.5h2.5 2.5 2 2 2.5 2.5.5.5l14-16 14-16 4.5-9.5 4.5-9.5 5.5-13.5 5.5-13.5-1.5-12-1.5-12 .5-19.5.5-19.5 10-7.5 10-7.5 11-11 11-11 8-11 8-11-3-2.5-3-2.5 15.5-4.5 15.5-4.5-6 6.5-6 6.5-11.5 10.5-11.5 10.5-11 11.5-11 11.5-10.5 10.5-10.5 10.5 10.5-6.5 10.5-6.5 9.5-12 9.5-12 11.5-10.5 11.5-10.5 7.5-3 7.5-3 11-8 11-8h21 21 21.5 21.5l1.5-.5 1.5-.5h2 2 2.5 2.5l1.5-.5 1.5-.5h2.5 2.5 2 2 2 2 2 2" style="fill:#4e2300;stroke:#4e2300"/><path d="m516 88l1-3v-2-2-2.5-2.5-2-2-2.5-2.5-2.5-2.5-30.5-30.5-.5-.5h-.5-.5l-.5 30.5-.5 30.5-.5 22.5-.5 22.5v22 22 22 22l.5 22 .5 22v22 22l-.5 8-.5 8 .5 21.5.5 21.5-15.5 6-15.5 6-35 1-35 1h2.5 2.5 2 2 2 2 2.5 2.5 2 2 2.5 2.5 2 2 2.5 2.5 2 2l1 .5 1 .5 26.5-1 26.5-1 3.5-18.5 3.5-18.5v-22.5-22.5-32-32-1-1h-.5-.5v-23-23l.5-35.5.5-35.5v-.5-.5" style="fill:#7a5a28;stroke:#7a5a28"/><path d="m515 206h1v-35-35-23.5-23.5l-.5 35.5-.5 35.5v23 23" style="fill:#4e2300;stroke:#4e2300"/><path d="m515 61l1-61h-2-2-2.5-2.5-2-2-2-2v.5.5l-.5 1-.5 1-20.5 2-20.5 2-21 1-21 1-20 1-20 1-22 1.5-22 1.5-.5.5-.5.5h-27-27l-1.5.5-1.5.5h-2-2l-2-.5-2-.5h-2-2-2-2l-4.5 11.5-4.5 11.5-3 11-3 11 9.5 33 9.5 33-1.5 20-1.5 20 1 1 1 1 1.5.5 1.5.5.5.5.5.5v1.5 1.5l.5 2.5.5 2.5.5 23 .5 23 11 4.5 11 4.5 2.5 7.5 2.5 7.5 11.5 7.5 11.5 7.5 9.5 12 9.5 12 9 9 9 9 1.5 24.5 1.5 24.5h1.5 1.5 1 1 2 2 2.5 2.5l1.5-.5 1.5-.5h2 2l2 .5 2 .5h2 2 2.5 2.5 2 2 2.5 2.5 2 2 2 2l1.5.5 1.5.5h2 2l35-1 35-1 15.5-6 15.5-6-.5-21.5-.5-21.5.5-8 .5-8v-22-22l-.5-22-.5-22v-22-22-22-22l.5-22.5.5-22.5" style="fill:#ac7c35;stroke:#ac7c35"/><path d="m498 3l1-2h-.5-.5l-21.5 2-21.5 2-20.5 1.5-20.5 1.5-21 1.5-21 1.5-20 1-20 1h-22.5-22.5l-20.5.5-20.5.5-6 15-6 15-2.5-16-2.5-16 1 1 1 1v2 2l-.5 2-.5 2-20 5.5-20 5.5v.5.5l17 7 17 7 3.5 26 3.5 26v1.5 1.5 2 2 2.5 2.5 2 2 2.5 2.5 2 2 2 2 2.5 2.5 2 2 2.5 2.5 2.5 2.5l.5-22.5.5-22.5-.5-21-.5-21 13-23 13-23h2 2 2 2l2 .5 2 .5h2 2l1.5-.5 1.5-.5 27.5-.5 27.5-.5 22-1.5 22-1.5 20-1 20-1 21-1 21-1 20.5-2 20.5-2" style="fill:#5c4327;stroke:#5c4327"/><path d="m498 1h1v-.5-.5h-3-3-2.5-2.5-2-2-1-1l-.5.5-.5.5h-1.5-1.5l-.5.5-.5.5h-1-1-1.5-1.5-2-2-1-1-2-2l-.5.5-.5.5-21.5 1-21.5 1-20.5.5-20.5.5-20 2-20 2h-22.5-22.5l-36.5-5-36.5-5h-3.5-3.5-1-1v.5.5l1.5.5 1.5.5.5.5.5.5h1 1l.5.5.5.5.5.5.5.5 1 .5 1 .5.5.5.5.5.5.5.5.5h1 1l.5.5.5.5 1 .5 1 .5 1 1 1 1 2.5 16 2.5 16 6-15 6-15 20.5-.5 20.5-.5h22.5 22.5l20-1 20-1 21-1.5 21-1.5 20.5-1.5 20.5-1.5 21.5-2 21.5-2" style="fill:#180b00;stroke:#180b00"/><path d="m491 564v-1l-1.5.5-1.5.5-1 1.5-1 1.5-1 1-1 1-1.5 1-1.5 1-1 1-1 1-1 1-1 1-1 .5-1 .5h2.5 2.5.5.5l1-1.5 1-1.5 1-1 1-1 1-1 1-1 1.5-1 1.5-1 .5-1.5.5-1.5" style="fill:#4e2300;stroke:#4e2300"/><path d="m483 363l-45-1 19 .5 19 .5h3.5 3.5" style="fill:#96520c;stroke:#96520c"/><path d="m481 1l1-1h-3-3-2.5-2.5-2-2-2.5-2.5-2-2-2.5-2.5-2-2l-1 .5-1 .5h-2-2l.5.5.5.5h1.5 1.5 2 2 1 1 1.5 1.5 3 3 2 2 1 1 2 2 1.5 1.5 1 1l.5-.5.5-.5h1.5 1.5" style="fill:#5c4327;stroke:#5c4327"/><g style="fill:#4e2300;stroke:#4e2300"><path d="m469 567l-1-2h-1.5-1.5l-.5-.5-.5-.5h-1-1l-1 .5-1 .5-.5.5-.5.5-.5 1.5-.5 1.5-1.5.5-1.5.5-1.5 1-1.5 1-1 1-1 1-.5 1-.5 1h2.5 2.5 2 2 2.5 2.5l.5-1.5.5-1.5 1-1.5 1-1.5h-2-2l-.5-2-.5-2h2 2l1 1 1 1 1-.5 1-.5"/><path d="m461 3l1-1h-3-3-1.5-1.5-1-1-2-2-1.5-1.5l-.5-.5-.5-.5h2 2l1-.5 1-.5h-23-23-15-15l-.5.5-.5.5-1.5.5-1.5.5h-2-2-1-1-1-1-1-1-1.5-1.5-1-1-1-1-1-1l-1-.5-1-.5-1-.5-1-.5h-23-23-22-22-18.5-18.5l36.5 5 36.5 5h22.5 22.5l20-2 20-2 20.5-.5 20.5-.5 21.5-1 21.5-1"/></g><path d="m455 356h1l-1-.5-1-.5h-2-2-2.5-2.5-2-2-2.5-2.5-2-2-2.5-2.5-2-2-2-2-2.5-2.5-2-2-.5-.5-2-2-2-2l-1.5.5-1.5.5h28.5 28.5" style="fill:#5c4327;stroke:#5c4327"/><g style="fill:#4e2300;stroke:#4e2300"><path d="m425 561v-2l-1.5.5-1.5.5-1.5 1-1.5 1-1 1-1 1-1 1.5-1 1.5-1 1-1 1-1.5 1-1.5 1-1 1-1 1-1 1.5-1 1.5h2 2 2 2l.5-2 .5-2 .5-.5.5-.5.5-.5.5-.5.5-.5.5-.5.5-1 .5-1 .5-.5.5-.5.5-.5.5-.5.5-.5.5-.5 1-.5 1-.5.5-1 .5-1"/><path d="m421 542l-41 34h2.5 2.5 2 2 2.5 2.5 1 1l12.5-17 12.5-17"/></g><path d="m409 355h1l-1.5-.5-1.5-.5h-2-2-2-2-2.5-2.5-2-2-2.5-2.5-2-2l-2-.5-2-.5h-2-2l-1.5.5-1.5.5h-2.5-2.5l-.5.5-.5.5h-.5-.5l2 .5 2 .5h1.5 1.5l.5-.5.5-.5h1 1 1 1 1.5 1.5 1 1 1 1l.5.5.5.5h2 2 1.5 1.5 1 1 1.5 1.5 1.5 1.5l1.5-.5 1.5-.5h2 2 2 2" style="fill:#7a5a28;stroke:#7a5a28"/><g style="fill:#4e2300;stroke:#4e2300"><path d="m399 547l-50 29h2 2 2 2 2.5 2.5 2 2 2.5 2.5 2 2 1 1l11-14.5 11-14.5"/><path d="m376 534l-25 20-11.5 11-11.5 11h2 2 2 2 2.5 2.5.5.5l17-21 17-21"/></g><path d="m372 1l1-1h-3-3-2.5-2.5-2-2-2.5-2.5-2-2-1.5-1.5l1 .5 1 .5 1 .5 1 .5h1 1 1 1 1 1 1.5 1.5 1 1 1 1 1 1 2 2l1.5-.5 1.5-.5" style="fill:#5c4327;stroke:#5c4327"/><path d="m369 525l-33 28-12 11.5-12 11.5h2.5 2.5 2.5 2.5 1 1l11.5-13 11.5-13 11-12.5 11-12.5" style="fill:#4e2300;stroke:#4e2300"/><g style="fill:#5c4327;stroke:#5c4327"><path d="m364 355l1-1h-2-2-1-1-1.5-1.5-.5-.5l-23-.5-23-.5 1.5.5 1.5.5h1 1 1.5 1.5l1.5.5 1.5.5h2.5 2.5 2 2 2.5 2.5 3 3 2 2 2.5 2.5 2 2 2.5 2.5 2.5 2.5.5.5"/><path d="m357 8h-42 17.5 17.5 3.5 3.5"/></g><path d="m355 354h1l-1.5-24.5-1.5-24.5-9-9-9-9-9.5-12-9.5-12-11.5-7.5-11.5-7.5-2.5-7.5-2.5-7.5-11-4.5-11-4.5-.5-23-.5-23v34.5 34.5l13 19 13 19h-2-2l-1.5-.5-1.5-.5h-1-1l-1-.5-1-.5h-2-2l-.5-.5-.5-.5-.5-1-.5-1-1.5-.5-1.5-.5h-1-1l-1-.5-1-.5-1 1-1 1v1 1l-.5.5-.5.5-.5 1-.5 1 17 5 17 5 3.5 14 3.5 14 2.5 15 2.5 15 23 .5 23 .5" style="fill:#7a5a28;stroke:#7a5a28"/><path d="m344 2l-45-1 13 .5 13 .5h9.5 9.5" style="fill:#5c4327;stroke:#5c4327"/><path d="m339 356l1-1h-3-3-2.5-2.5-2-2-2.5-2.5l-1.5-.5-1.5-.5h-1.5-1.5-1-1l-1.5-.5-1.5-.5-2.5-15-2.5-15-3.5-14-3.5-14-17-5-17-5v-1.5-1.5-2-2l.5-1.5.5-1.5v-2.5-2.5-2-2-2.5-2.5-2-2-2.5-2.5l.5-2.5.5-2.5v-34.5-34.5l-.5-2.5-.5-2.5v-1.5-1.5l-.5-.5-.5-.5-1.5-.5-1.5-.5-14.5-10-14.5-10v-2.5-2.5-2.5-2.5-2-2-2.5-2.5-2-2-2-2-2.5-2.5-2-2-2.5-2.5-2-2-1.5-1.5l-.5 22.5-.5 22.5 8.5 11.5 8.5 11.5 8.5 14 8.5 14-.5 21.5-.5 21.5-.5 22-.5 22 21.5 9.5 21.5 9.5.5 1 .5 1-4 23-4 23 20.5 3 20.5 3" style="fill:#3c2e23;stroke:#3c2e23"/><path d="m335 364l-23 19-1.5 2-1.5 2 11.5-10.5 11.5-10.5 1.5-1 1.5-1" style="fill:#7b3901;stroke:#7b3901"/><path d="m330 15l1-1-27.5.5-27.5.5h27 27" style="fill:#7a5a28;stroke:#7a5a28"/><g style="fill:#4e2300;stroke:#4e2300"><path d="m319 537l-43 39h3.5 3.5 2 2 2.5 2.5 2 2 2.5 2.5l-2.5-4.5-2.5-4.5.5-2.5.5-2.5 11-12.5 11-12.5"/><path d="m305 306l1-2-.5-1-.5-1h-.5-.5l-21.5 6-21.5 6 2-.5 2-.5.5-.5.5-.5.5-.5.5-.5h1 1l.5-.5.5-.5 1-.5 1-.5.5.5.5.5.5.5.5.5-.5 1.5-.5 1.5-.5 1-.5 1-.5.5-.5.5-.5.5-.5.5-.5.5-.5.5-1 .5-1 .5-.5.5-.5.5-.5.5-.5.5h-1-1l-.5 1-.5 1-.5.5-.5.5h-1-1l-.5.5-.5.5-.5.5-.5.5-.5.5-.5.5-1 .5-1 .5-.5.5-.5.5-1 1-1 1 25-12.5 25-12.5-13.5 8.5-13.5 8.5-14.5 8.5-14.5 8.5 1-.5 1-.5h1 1l.5-.5.5-.5.5-.5.5-.5 1-.5 1-.5h1 1l.5-.5.5-.5.5-.5.5-.5.5.5.5.5-.5 1-.5 1-.5.5-.5.5-1 .5-1 .5-1 1-1 1-.5.5-.5.5-.5.5-.5.5-.5.5-.5.5-.5 1-.5 1 16-10.5 16-10.5 12.5-10 12.5-10"/></g><path d="m304 302h1l-21.5-9.5-21.5-9.5.5-22 .5-22 .5-21.5.5-21.5-8.5-14-8.5-14-8.5-11.5-8.5-11.5.5-22.5.5-22.5-3.5-26-3.5-26-17-7-17-7 7.5 4.5 7.5 4.5 10.5 11.5 10.5 11.5.5 21 .5 21v20 20l-3.5 1-3.5 1-.5-21.5-.5-21.5-.5-21-.5-21-16-4-16-4-.5 21.5-.5 21.5-1 21.5-1 21.5-5.5 17.5-5.5 17.5-.5-2-.5-2v-2.5-2.5-2-2-2-2-2.5-2.5l.5-1.5.5-1.5v-2.5-2.5-2-2l.5-22.5.5-22.5v-22-22l-1.5 9-1.5 9v22 22l-.5 21.5-.5 21.5-9 13.5-9 13.5-4 3-4 3 16.5-6 16.5-6 14.5.5 14.5.5 13-6 13-6 12.5 4 12.5 4-19.5 2.5-19.5 2.5v21.5 21.5l-.5 21.5-.5 21.5 3.5 15 3.5 15 15.5-6.5 15.5-6.5-8 8-8 8-14 8.5-14 8.5-3-18-3-18-.5-22-.5-22v-19-19l-.5 21.5-.5 21.5v22.5 22.5l-8 12-8 12-17.5-5-17.5-5-.5 1.5-.5 1.5 17.5 4.5 17.5 4.5h18 18 .5.5l26-7 26-7-1 1-1 1h-1-1l-.5.5-.5.5-1 .5-1 .5-.5.5-.5.5-.5.5-.5.5-.5.5-.5.5-1 .5-1 .5-1.5.5-1.5.5-.5.5-.5.5-.5.5-.5.5-.5.5-.5.5-1 .5-1 .5-1 .5-1 .5-24.5 5-24.5 5-21.5-1-21.5-1 5 1 5 1 21 1.5 21 1.5 19-3 19-3 1.5-.5 1.5-.5 1-1 1-1 1-1 1-1h1 1l1-1.5 1-1.5 21.5-6 21.5-6" style="fill:#180b00;stroke:#180b00"/><path d="m299 511l-22 20-11 11.5-11 11.5-11.5 11-11.5 11h2 2 1 1l19.5-20.5 19.5-20.5 11-12 11-12" style="fill:#7b3901;stroke:#7b3901"/><path d="m299 498l-13-16-9.5 13-9.5 13-8 14-8 14-7 5.5-7 5.5-2.5-4.5-2.5-4.5 1-21 1-21 .5-22 .5-22 1-21 1-21v-21.5-21.5l-1 21-1 21-1.5 21-1.5 21-.5 21.5-.5 21.5-1 21-1 21-10 7.5-10 7.5-3-18-3-18 1-21.5 1-21.5.5-21.5.5-21.5.5-19.5.5-19.5-10-10.5-10-10.5-18.5-3.5-18.5-3.5 2.5 2 2.5 2 19 3 19 3-11 8-11 8-13.5 9-13.5 9-13 9-13 9-13 9.5-13 9.5-13 9-13 9-12.5 10-12.5 10-13.5 9.5-13.5 9.5-1 1-1 1-.5.5-.5.5-1 .5-1 .5-1 1-1 1-1.5 1-1.5 1-2 .5-2 .5v2 2l13.5-10 13.5-10 19.5-14 19.5-14h1 1l.5-.5.5-.5.5-.5.5-.5.5-.5.5-.5 1-.5 1-.5 1-1 1-1 .5-.5.5-.5 1-.5 1-.5 1-1 1-1h1 1l.5-1 .5-1 13.5-9.5 13.5-9.5 13-9.5 13-9.5 16.5-11.5 16.5-11.5 2-.5 2-.5 1.5-1 1.5-1 14 5 14 5-12 11-12 11-12.5 9.5-12.5 9.5-13 9.5-13 9.5-13 9-13 9-12 10-12 10-13 9.5-13 9.5-12 10-12 10-14.5 10-14.5 10v2.5 2.5l13-9.5 13-9.5 12.5-10 12.5-10 12.5-9.5 12.5-9.5 12.5-10 12.5-10 13-9 13-9 13-9 13-9 13-9.5 13-9.5 11.5 14.5 11.5 14.5-.5 22.5-.5 22.5-1 37-1 37h1 1l.5-1 .5-1v-1-1-1-1-1.5-1.5-1-1-1-1-1-1-1-1-1.5-1.5l20.5 5 20.5 5 4-12.5 4-12.5 8.5-13.5 8.5-13.5 15.5-8 15.5-8" style="fill:#180b00;stroke:#180b00"/><path d="m291 285l-26-38-.5 2.5-.5 2.5v2.5 2.5 2 2 2.5 2.5 2 2 2.5 2.5l-.5 1.5-.5 1.5v2 2 1.5 1.5l.5-1 .5-1 .5-.5.5-.5v-1-1l1-1 1-1 1 .5 1 .5h1 1l1.5.5 1.5.5.5 1 .5 1 .5.5.5.5h2 2l1 .5 1 .5h1 1l1.5.5 1.5.5h2 2" style="fill:#5c4327;stroke:#5c4327"/><path d="m274 301l-52 14 21-5 21-5-.5 1-.5 1h-1-1l-.5.5-.5.5-.5.5-.5.5-1 .5-1 .5-.5.5-.5.5-.5.5-.5.5-.5.5-.5.5-1 1-1 1 1-.5 1-.5 1-.5 1-.5.5-.5.5-.5.5-.5.5-.5.5-.5.5-.5 1.5-.5 1.5-.5 1-.5 1-.5.5-.5.5-.5.5-.5.5-.5.5-.5.5-.5 1-.5 1-.5.5-.5.5-.5h1 1l1-1 1-1" style="fill:#4e2300;stroke:#4e2300"/><path d="m273 314l1-3-.5-.5-.5-.5-.5-.5-.5-.5-1 .5-1 .5-.5.5-.5.5h-1-1l-.5.5-.5.5-.5.5-.5.5-2 .5-2 .5-1 1.5-1 1.5h-1-1l-1 1-1 1-1 1-1 1-1.5.5-1.5.5v1.5 1.5l1 1.5 1 1.5-1 1-1 1 .5 1 .5 1 1-1 1-1 .5-.5.5-.5 1-.5 1-.5.5-.5.5-.5.5-.5.5-.5.5-.5.5-.5h1 1l.5-.5.5-.5.5-1 .5-1h1 1l.5-.5.5-.5.5-.5.5-.5 1-.5 1-.5.5-.5.5-.5.5-.5.5-.5.5-.5.5-.5.5-1 .5-1" style="fill:#7b3901;stroke:#7b3901"/><path d="m269 361l-5 17-1.5 21-1.5 21-.5 21.5-.5 21.5 1.5 7 1.5 7 1-21 1-21 .5-21.5.5-21.5 1.5-15.5 1.5-15.5" style="fill:#180b00;stroke:#180b00"/><path d="m264 305l-42 10h-.5-.5l2 1 2 1h2.5 2.5 2 2l2 .5 2 .5 1 1 1 1 .5 1 .5 1 1-1 1-1 1.5-1 1.5-1 1-1 1-1 2-.5 2-.5 1-1 1-1 .5-.5.5-.5.5-.5.5-.5.5-.5.5-.5 1-.5 1-.5.5-.5.5-.5.5-.5.5-.5h1 1l.5-1 .5-1" style="fill:#7b3901;stroke:#7b3901"/><path d="m261 126l-19-66 3-11 3-11 4.5-11.5 4.5-11.5-13 23-13 23 .5 21 .5 21-.5 22.5-.5 22.5 14.5 10 14.5 10-1-1-1-1 1.5-20 1.5-20" style="fill:#7a5a28;stroke:#7a5a28"/><path d="m260 211l-13-29-13.5 9-13.5 9-.5 21.5-.5 21.5-1 21.5-1 21.5 10 2 10 2 11-11 11-11-2-20.5-2-20.5 2.5-5.5 2.5-5.5v-2.5-2.5" style="fill:#4e2300;stroke:#4e2300"/><path d="m258 336l-1-1-.5.5-.5.5-.5.5-.5.5h-1-1l-1 .5-1 .5-.5.5-.5.5-.5.5-.5.5h-1-1l-1 .5-1 .5-1 1-1 1v1.5 1.5 1 1l1 1 1 1 1-.5 1-.5.5-1 .5-1 .5-1 .5-1 .5-.5.5-.5.5-.5.5-.5.5-.5.5-.5 1-1 1-1 1-.5 1-.5.5-.5.5-.5.5-1 .5-1" style="fill:#7b3901;stroke:#7b3901"/><path d="m257 273l-6-40-.5-1-.5-1v2 2 1 1l.5 1 .5 1v1 1 1 1l-.5 1.5-.5 1.5-8.5-16.5-8.5-16.5 6.5 17.5 6.5 17.5 5.5 12.5 5.5 12.5" style="fill:#5c4327;stroke:#5c4327"/><path d="m253 176v-2l-1.5-.5-1.5-.5h-2.5-2.5l-1.5-.5-1.5-.5h-2.5-2.5-2-2-1-1l-.5 1-.5 1 1 1 1 1 1 .5 1 .5-1.5.5-1.5.5h2 2 2.5 2.5 2 2l2-.5 2-.5 1.5-.5 1.5-.5h1 1" style="fill:#7b3901;stroke:#7b3901"/><path d="m250 246l1-3v-1-1-1-1l-.5-1-.5-1v-1-1-2-2l-7.5-15-7.5-15-1 6-1 6 8.5 16.5 8.5 16.5" style="fill:#7a5a28;stroke:#7a5a28"/><path d="m249 279l1-3v-2-2l-1-1.5-1-1.5v-2-2l-.5-2-.5-2-.5-1.5-.5-1.5-.5-1.5-.5-1.5v2.5 2.5 2 2l1 1.5 1 1.5-.5 1.5-.5 1.5v1 1 2.5 2.5l-1 .5-1 .5-1-1-1-1-.5-2-.5-2v-2-2l-.5-1.5-.5-1.5-.5-2-.5-2-.5-1.5-.5-1.5-.5-2-.5-2-.5-1.5-.5-1.5-.5-1.5-.5-1.5-1-1-1-1 5.5 17.5 5.5 17.5 2.5-1 2.5-1" style="fill:#5c4327;stroke:#5c4327"/><path d="m248 355l-1-1-1.5.5-1.5.5-1 .5-1 .5.5 2 .5 2v2 2l-.5 1.5-.5 1.5v3 3 2.5 2.5 2 2 2.5 2.5 2 2l-.5 2-.5 2v2 2 2 2l-1 1.5-1 1.5 1 4.5 1 4.5 1.5-20.5 1.5-20.5 2-9.5 2-9.5" style="fill:#7b3901;stroke:#7b3901"/><path d="m247 559l-24-2 7.5 3 7.5 3 4.5-2 4.5-2" style="fill:#4e2300;stroke:#4e2300"/><path d="m246 272v-2l.5-1.5.5-1.5-1-1.5-1-1.5v-2-2-2.5-2.5l-7-7.5-7-7.5 1 3 1 3 1 1 1 1 3 6 3 6-.5 1-.5 1v-1-1l-.5-1-.5-1-.5-1.5-.5-1.5-1-2-1-2 .5 1.5.5 1.5.5 2 .5 2 .5 1.5.5 1.5.5 2 .5 2 .5 1.5.5 1.5v2 2l.5 2 .5 2 1 1 1 1 1-.5 1-.5v-2.5-2.5" style="fill:#7a5a28;stroke:#7a5a28"/><g style="fill:#96520c;stroke:#96520c"><path d="m243 296l-28 12 13.5-5 13.5-5 .5-1 .5-1"/><path d="m242 367l1-3v-2-2l-.5-2-.5-2-1.5 23-1.5 23v2 2l1-1.5 1-1.5v-2-2-2-2l.5-2 .5-2v-2-2-2.5-2.5-2-2-2.5-2.5-3-3"/></g><path d="m241 260l-6-12 .5 1.5.5 1.5 1 2 1 2 .5 1.5.5 1.5.5 1 .5 1v1 1l.5-1 .5-1" style="fill:#ac7c35;stroke:#ac7c35"/><g style="fill:#e47b06;stroke:#e47b06"><path d="m240 335l-38-6-20.5-1-20.5-1-3 2-3 2 19 2 19 2 21.5 1 21.5 1 2-1 2-1"/><path d="m237 346l-40-4-20.5-2-20.5-2 2.5 2.5 2.5 2.5 20 1 20 1 18 .5 18 .5"/><path d="m235 364l-35-11-20-1.5-20-1.5-11.5 4.5-11.5 4.5 19 3 19 3 14.5 1 14.5 1 14.5 12.5 14.5 12.5.5-1.5.5-1.5v-2-2-2-2l.5-2 .5-2v-2-2-2.5-2.5-2-2"/></g><path d="m234 177l-2-1-1-1-1-1 .5-1 .5-1-6.5 3-6.5 3h6.5 6.5l1.5-.5 1.5-.5" style="fill:#96520c;stroke:#96520c"/><path d="m233 408l1-3v-2-2-1-1h-.5-.5v1.5 1.5l-.5 1-.5 1-.5-2-.5-2-.5-1.5-.5-1.5-1-1.5-1-1.5-1-1-1-1h-2-2-2.5-2.5l-1.5.5-1.5.5-.5-2-.5-2v-1.5-1.5l-.5-1.5-.5-1.5v-1-1l-.5-1-.5-1v-2-2-1-1-1.5-1.5l-.5-1.5-.5-1.5-1-1-1-1-.5.5-.5.5-1 .5-1 .5 2 21 2 21-1 19-1 19-.5 19.5-.5 19.5-.5 20-.5 20 6.5 9.5 6.5 9.5 2.5-18 2.5-18 2.5 1.5 2.5 1.5 1-20 1-20 1-21.5 1-21.5.5-10.5.5-10.5" style="fill:#7b3901;stroke:#7b3901"/><path d="m233 399h1v-1.5-1.5-1.5-1.5h-.5-.5-1.5-1.5l-.5-.5-.5-.5h-1-1l-.5-.5-.5-.5-1-.5-1-.5h-1-1-1-1-1-1l-1-.5-1-.5-1.5-1.5-1.5-1.5v1.5 1.5l.5 2 .5 2 1.5-.5 1.5-.5h2.5 2.5 2 2l1 1 1 1 1 1.5 1 1.5.5 1.5.5 1.5.5 2 .5 2 .5-1 .5-1v-1.5-1.5" style="fill:#96520c;stroke:#96520c"/><path d="m233 393h1l-.5-.5-.5-.5-14.5-12.5-14.5-12.5h.5.5l1-.5 1-.5.5-.5.5-.5 1 1 1 1 .5 1.5.5 1.5v1.5 1.5 1 1 2 2l.5 1 .5 1v1 1l.5 1.5.5 1.5 1.5 1.5 1.5 1.5 1 .5 1 .5h1 1 1 1 1 1l1 .5 1 .5.5.5.5.5h1 1l.5.5.5.5h1.5 1.5" style="fill:#c74f00;stroke:#c74f00"/><path d="m230 22l1-4v-2-2l-1-1-1-1-1-1-1-1-1-.5-1-.5-.5-.5-.5-.5h-1-1l-.5-.5-.5-.5-.5-.5-.5-.5-1-.5-1-.5-.5-.5-.5-.5-.5-.5-.5-.5h-1-1l-.5-.5-.5-.5-1.5-.5-1.5-.5h-1.5-1.5-1-1l.5.5.5.5 1 .5 1 .5.5.5.5.5.5.5.5.5h1 1l.5 1 .5 1 .5.5.5.5h1 1l.5.5.5.5.5 1 .5 1 .5.5.5.5.5.5.5.5.5.5.5.5-.5 1.5-.5 1.5-12 7.5-12 7.5-11 .5-11 .5 1.5-.5 1.5-.5h1 1 1.5 1.5 1 1 1 1l.5.5.5.5h1.5 1.5l20-5.5 20-5.5" style="fill:#7a5a28;stroke:#7a5a28"/><path d="m220 17l1-3-.5-.5-.5-.5-.5-.5-.5-.5-.5-.5-.5-.5-.5-1-.5-1-.5-.5-.5-.5h-1-1l-.5-.5-.5-.5-.5-1-.5-1h-1-1l-.5-.5-.5-.5-.5-.5-.5-.5-1-.5-1-.5-.5-.5-.5-.5h1 1 1.5 1.5v-.5-.5h-22.5-22.5-5.5-5.5l3.5 11 3.5 11 3 21 3 21 .5-2 .5-2v-2-2-2.5-2.5l-.5-1.5-.5-1.5.5-2 .5-2v-2-2l.5-1.5.5-1.5v-1.5-1.5l1-.5 1-.5h1.5 1.5l11-.5 11-.5 12-7.5 12-7.5" style="fill:#96520c;stroke:#96520c"/><path d="m217 150l1-3v-2-2l-.5-.5-.5-.5h-.5-.5v1.5 1.5 1.5 1.5 2.5 2.5 2 2l-.5 2-.5 2-.5 1.5-.5 1.5v1 1h-1.5-1.5l-12-5-12-5 .5-22 .5-22 5-23.5 5-23.5 2 .5 2 .5 2.5.5 2.5.5v-.5-.5l-10 7-10 7-.5 22-.5 22-.5 21.5-.5 21.5h15.5 15.5l.5-8.5.5-8.5" style="fill:#5c4327;stroke:#5c4327"/><path d="m216 142h1l-.5-23-.5-23-4.5-15-4.5-15v.5.5l4.5 37.5 4.5 37.5" style="fill:#4e2300;stroke:#4e2300"/><path d="m215 161l1-4v-2-2-2.5-2.5-1.5-1.5-1.5-1.5l-4.5-37.5-4.5-37.5-2.5-.5-2.5-.5-2-.5-2-.5 6.5 10 6.5 10 1.5 37 1.5 37-.5 1-.5 1-.5 1.5-.5 1.5-.5 1-.5 1h1.5 1.5v-1-1l.5-1.5.5-1.5" style="fill:#7a5a28;stroke:#7a5a28"/><path d="m214 232l1-47-4.5 7-4.5 7-.5 20.5-.5 20.5v21 21l4 16.5 4 16.5.5-20.5.5-20.5v-20.5-20.5-.5-.5" style="fill:#dbb878;stroke:#dbb878"/><path d="m214 159l-3-74-6.5-10-6.5-10-5 23.5-5 23.5-.5 22-.5 22 12 5 12 5 .5-1 .5-1 .5-1.5.5-1.5.5-1 .5-1" style="fill:#ac7c35;stroke:#ac7c35"/><g style="fill:#7b3901;stroke:#7b3901"><path d="m207 575v-3l-.5-1-.5-1v-1-1-2-2-1.5-1.5-1-1l-.5-1.5-.5-1.5h-1.5-1.5v1.5 1.5 1 1 1 1 1 1 1 1 1.5 1.5 1 1 1 1l-.5 1-.5 1h2 2 1 1v-.5-.5"/><path d="m206 47l-32 11 .5 20.5.5 20.5-1 22.5-1 22.5.5 1.5.5 1.5v1 1l-.5.5-.5.5.5 1 .5 1v1 1 1 1 1 1 1 1l-.5 1-.5 1v1 1 1 1 1 1 1.5 1.5 1 1 1 1l1 .5 1 .5 3-22.5 3-22.5 1.5-20.5 1.5-20.5 1.5-19.5 1.5-19.5 9.5-2 9.5-2"/></g><path d="m204 399l-28-10h1.5 1.5l1-1 1-1 1.5-.5 1.5-.5 1.5-1 1.5-1 1.5-.5 1.5-.5 2-.5 2-.5 1-1 1-1 1.5-1 1.5-1 1.5-.5 1.5-.5.5 1 .5 1-7 17-7 17-13 9.5-13 9.5-12.5 9.5-12.5 9.5-2.5.5-2.5.5 8-12.5 8-12.5-9.5 2.5-9.5 2.5-12.5 9.5-12.5 9.5-14.5 8-14.5 8-10.5 8.5-10.5 8.5-12.5 9-12.5 9-15 14-15 14v2 2 2 2 2.5 2.5 2 2 2.5 2.5 2 2l14.5-10 14.5-10 12-10 12-10 13-9.5 13-9.5 12-10 12-10 13-9 13-9 13-9.5 13-9.5 12.5-9.5 12.5-9.5 12-11 12-11" style="fill:#4e2300;stroke:#4e2300"/><path d="m203 379l-1-2-1.5.5-1.5.5-1.5 1-1.5 1-1 1-1 1-2 .5-2 .5-1.5.5-1.5.5-1.5 1-1.5 1-1.5.5-1.5.5-1 1-1 1h-1.5-1.5l-1.5 1-1.5 1-2 .5-2 .5v.5.5l.5.5.5.5-1 1-1 1-1 1-1 1-1.5 1-1.5 1-1.5.5-1.5.5-1 1-1 1-.5.5-.5.5-1 .5-1 .5-1.5.5-1.5.5-.5.5-.5.5-1 .5-1 .5-1 .5-1 .5-1 1.5-1 1.5-1.5.5-1.5.5-1.5 1-1.5 1-1 1-1 1-.5-1-.5-1-.5 1.5-.5 1.5-1 .5-1 .5-.5.5-.5.5-20 14.5-20 14.5-1.5.5-1.5.5-1.5.5-1.5.5-1.5 1-1.5 1-.5 1-.5 1h-1-1l-1 1-1 1-1 .5-1 .5-.5.5-.5.5-1 1-1 1-1 .5-1 .5-.5.5-.5.5-.5.5-.5.5-.5.5-.5.5h-1-1l-.5 1.5-.5 1.5-11.5 10-11.5 10-21 15.5-21 15.5v1.5 1.5 2 2 2 2l15-14 15-14 12.5-9 12.5-9 10.5-8.5 10.5-8.5 14.5-8 14.5-8 12.5-9.5 12.5-9.5 9.5-2.5 9.5-2.5-8 12.5-8 12.5 2.5-.5 2.5-.5 12.5-9.5 12.5-9.5 13-9.5 13-9.5 7-17 7-17" style="fill:#7b3901;stroke:#7b3901"/><path d="m202 457l-23-29-13 9.5-13 9.5-13 9-13 9-13 9-13 9-12.5 10-12.5 10-12.5 9.5-12.5 9.5-12.5 10-12.5 10-13 9.5-13 9.5v2.5 2.5 2.5 2.5 2 2 .5.5h2 2 2 2 2.5 2.5 2 2 2 2 2.5 2.5 1.5 1.5l1-1 1-1-.5-.5-.5-.5.5-1 .5-1 7-8.5 7-8.5 12-10 12-10 12.5-10 12.5-10 12-10 12-10 11.5-10.5 11.5-10.5 12.5-10 12.5-10 14-10.5 14-10.5-11 11.5-11 11.5-12 10-12 10-12.5 9.5-12.5 9.5-11.5 10.5-11.5 10.5-12.5 10-12.5 10-17 13.5-17 13.5 14 1 14 1 15 3.5 15 3.5 19 1 19 1 16.5-3 16.5-3 6.5 4 6.5 4v.5.5h1.5 1.5l-9.5-13-9.5-13-20-2-20-2-21-1-21-1-9.5 9-9.5 9 5.5-3.5 5.5-3.5-1-7-1-7 21 .5 21 .5 20.5 1.5 20.5 1.5 14-5.5 14-5.5 1-21 1-21v-21-21l1 28 1 28-.5 35-.5 35h1 1v-16.5-16.5l1-19 1-19-.5-20-.5-20-3.5-5.5-3.5-5.5 8-3.5 8-3.5-1.5 21.5-1.5 21.5-.5 21-.5 21-.5 22-.5 22h1.5 1.5l1-37 1-37 .5-22.5.5-22.5" style="fill:#4e2300;stroke:#4e2300"/><path d="m202 322l-36-10-15-4.5-15-4.5 13.5 8.5 13.5 8.5 19.5 1 19.5 1" style="fill:#e47b06;stroke:#e47b06"/><path d="m201 447l-16 7 3.5 5.5 3.5 5.5.5 20 .5 20-1 19-1 19v16.5 16.5h2.5 2.5l.5-22 .5-22 .5-21 .5-21 1.5-21.5 1.5-21.5" style="fill:#7b3901;stroke:#7b3901"/><path d="m201 206l1-3v-1-1l-.5.5-.5.5-.5.5-.5.5v-1.5-1.5-1-1-1-1-1-1-2-2l-.5 1-.5 1v2 2l-.5 25-.5 25 .5 2 .5 2v2.5 2.5 2 2 2.5 2.5 2 2l1 1.5 1 1.5v-32.5-32.5" style="fill:#7a5a28;stroke:#7a5a28"/><path d="m200 299l1-3v-2-2-2.5-2.5l-.5-1.5-.5-1.5v-2.5-2.5-2-2l.5-2 .5-2-1-1.5-1-1.5v-2-2-2.5-2.5-2-2-2.5-2.5l-.5-2-.5-2-4.5 5-4.5 5-5.5-8.5-5.5-8.5-7-3.5-7-3.5-8 18-8 18 14.5 13.5 14.5 13.5 11.5 2 11.5 2" style="fill:#96520c;stroke:#96520c"/><path d="m200 180l-59 16v11.5 11.5l5.5 14 5.5 14-2 10.5-2 10.5 8-18 8-18 7 3.5 7 3.5 5.5 8.5 5.5 8.5 4.5-5 4.5-5 .5-25 .5-25-.5-2-.5-2v-1-1-1-1-1-1l1-.5 1-.5v-1-1-1.5-1.5" style="fill:#7b3901;stroke:#7b3901"/><path d="m199 313l-32-19h-.5-.5l-.5 1-.5 1v1.5 1.5h-1-1l-2 .5-2 .5-.5-1.5-.5-1.5-.5-1.5-.5-1.5.5-2 .5-2v-1.5-1.5l3 9 3 9 17.5 4 17.5 4" style="fill:#96520c;stroke:#96520c"/><g style="fill:#180b00;stroke:#180b00"><path d="m196 310l-35-27-12-10-12-10-12.5-5.5-12.5-5.5 20-2.5 20-2.5-8-13-8-13 4 12.5 4 12.5-20 2-20 2-21.5.5-21.5.5h-8.5-8.5l4.5 6 4.5 6 30-3.5 30-3.5 4.5 14.5 4.5 14.5 6.5 15.5 6.5 15.5v1.5 1.5l-.5 2-.5 2v2 2 2 2l-.5 1.5-.5 1.5v1 1 1.5 1.5l-.5 1.5-.5 1.5-.5.5-.5.5v1.5 1.5l-.5 1.5-.5 1.5-.5 1.5-.5 1.5-14.5 15.5-14.5 15.5-20.5.5-20.5.5-6.5-2-6.5-2v.5.5l34 1.5 34 1.5 7.5-13.5 7.5-13.5 5-16.5 5-16.5 1.5-15 1.5-15-10-8-10-8 14 1 14 1 2.5 1 2.5 1 1 1 1 1 1.5 1 1.5 1 .5 1 .5 1 1 1 1 1v1.5 1.5h2 2l1 .5 1 .5 1 1 1 1 1.5 1 1.5 1 1.5.5 1.5.5 1 1.5 1 1.5 1.5.5 1.5.5 1 1.5 1 1.5 1.5.5 1.5.5 1.5 1 1.5 1 1.5.5 1.5.5h1.5 1.5"/><path d="m194 432l-28 21-12.5 10-12.5 10-11.5 10.5-11.5 10.5-12 10-12 10-12.5 10-12.5 10-12 10-12 10-7 8.5-7 8.5 1.5-.5 1.5-.5 1-1 1-1 1-.5 1-.5v-1-1h1.5 1.5v-1.5-1.5l17-13.5 17-13.5 12.5-10 12.5-10 11.5-10.5 11.5-10.5 12.5-9.5 12.5-9.5 12-10 12-10 11-11.5 11-11.5"/></g><path d="m193 403l-15 1-.5 6-.5 6 1.5-.5 1.5-.5 1-1 1-1 1.5-.5 1.5-.5 1.5-1 1.5-1 1-1 1-1-.5-2-.5-2v-1-1l1.5 1 1.5 1 .5-.5.5-.5" style="fill:#4e2300;stroke:#4e2300"/><path d="m190 506l-2-56v21 21l-1 21-1 21-14 5.5-14 5.5-20.5-1.5-20.5-1.5-21-.5-21-.5 1 7 1 7-5.5 3.5-5.5 3.5 9.5-9 9.5-9 21 1 21 1 20 2 20 2 9.5 13 9.5 13h1.5 1.5l.5-35 .5-35" style="fill:#180b00;stroke:#180b00"/><path d="m189 376v-2l-1.5-.5-1.5-.5h-2.5-2.5l-.5 2-.5 2-1 1-1 1-.5.5-.5.5-.5.5-.5.5h-1-1l-1 .5-1 .5-.5.5-.5.5-.5.5-.5.5-.5.5-.5.5h-1-1l-1 1.5-1 1.5 1.5-.5 1.5-.5 1-.5 1-.5.5-.5.5-.5 1.5-.5 1.5-.5 1-.5 1-.5.5-.5.5-.5 1.5-.5 1.5-.5 1-.5 1-.5.5-.5.5-.5h1 1l.5-.5.5-.5 1.5-1 1.5-1" style="fill:#e47b06;stroke:#e47b06"/><path d="m183 575l-13-8-16.5 3-16.5 3-19-1-19-1-15-3.5-15-3.5-14-1-14-1v1.5 1.5h-1.5-1.5v1 1l-1 .5-1 .5-1 1-1 1-1.5.5-1.5.5-.5 1-.5 1 .5.5.5.5-1 1-1 1h22.5 22.5 22 22 22.5 22.5 10 10v-.5-.5" style="fill:#7b3901;stroke:#7b3901"/><path d="m180 377l1-4-1-.5-1-.5h-2.5-2.5l-1.5-.5-1.5-.5-2-.5-2-.5h-2-2l-2-.5-2-.5-2-.5-2-.5v1 1l-.5 1-.5 1v1.5 1.5l-.5 1.5-.5 1.5-1 .5-1 .5-1 1-1 1-1 1.5-1 1.5-1.5.5-1.5.5-1.5 1-1.5 1-1 1-1 1-1.5.5-1.5.5-.5.5-.5.5-12.5 6-12.5 6-13.5 1-13.5 1-11 18-11 18v-2-2l-1-1.5-1-1.5-1.5-.5-1.5-.5-1-1-1-1h-.5-.5l-.5-1.5-.5-1.5-1-1.5-1-1.5-.5-1.5-.5-1.5-.5-1.5-.5-1.5-.5-1.5-.5-1.5v3.5 3.5l8.5 17.5 8.5 17.5 1-1 1-1 2 .5 2 .5 1-1 1-1v-1-1l1.5-1 1.5-1 12.5-8.5 12.5-8.5.5-1.5.5-1.5v-1-1-1-1l1-.5 1-.5h1 1 1 1l.5-.5.5-.5 1-.5 1-.5.5-.5.5-.5h1 1l.5 1 .5 1 1-1 1-1 .5-.5.5-.5.5-.5.5-.5 1-.5 1-.5 20.5-15 20.5-15 2-1 2-1 1-1.5 1-1.5h1 1l.5-.5.5-.5.5-.5.5-.5.5-.5.5-.5 1-.5 1-.5h1 1l.5-.5.5-.5.5-.5.5-.5 1-1 1-1" style="fill:#c74f00;stroke:#c74f00"/><path d="m176 417l1-1-3.5-6.5-3.5-6.5-7.5 15-7.5 15 10.5-8 10.5-8" style="fill:#4e2300;stroke:#4e2300"/><path d="m174 176h1l-1-.5-1-.5v-1-1-1-1-1.5-1.5-1-1-1-1-1-1l.5-1 .5-1v-1-1-1-1-1-1-1-1l-.5-1-.5-1 .5-.5.5-.5v-1-1l-.5-1.5-.5-1.5h-.5-.5v2 2 2.5 2.5l-.5 1.5-.5 1.5v2.5 2.5 2 2 2 2 2.5 2.5l.5 2 .5 2 1-1 1-1" style="fill:#5c4327;stroke:#5c4327"/><path d="m170 394l-1-1-.5.5-.5.5-2 1-2 1-1 1-1 1-1.5.5-1.5.5-.5.5-.5.5-1 .5-1 .5-1 1-1 1-.5.5-.5.5-1 .5-1 .5-1 1-1 1-1 1-1 1 1-.5 1-.5 1-.5 1-.5.5-.5.5-.5 1.5-.5 1.5-.5 1-.5 1-.5.5-.5.5-.5 1-1 1-1 1.5-.5 1.5-.5 1.5-1 1.5-1 1-1 1-1 1-1 1-1" style="fill:#96520c;stroke:#96520c"/><path d="m168 394l1-1v-.5-.5l-16.5 11.5-16.5 11.5.5 1 .5 1 1-1 1-1 1.5-1 1.5-1 1.5-.5 1.5-.5 1-1.5 1-1.5 1-1 1-1 1-1 1-1 1-.5 1-.5.5-.5.5-.5 1-1 1-1 1-.5 1-.5.5-.5.5-.5 1.5-.5 1.5-.5 1-1 1-1 2-1 2-1" style="fill:#4e2300;stroke:#4e2300"/><path d="m167 142v-78l-3-21-3-21-3.5-11-3.5-11h-3-3-2-2l-.5 16-.5 16-2 11.5-2 11.5 4.5 18 4.5 18-6 12-6 12-5 13-5 13-3 20.5-3 20.5 20-1 20-1 3.5-19 3.5-19" style="fill:#ac7c35;stroke:#ac7c35"/><path d="m166 294h1v-.5-.5h-2-2v-1.5-1.5l-1-1-1-1-1.5-.5-1.5-.5v1.5 1.5l-.5 2-.5 2 .5 1.5.5 1.5.5 1.5.5 1.5 2-.5 2-.5h1 1v-1.5-1.5l.5-1 .5-1" style="fill:#7b3901;stroke:#7b3901"/><path d="m160 391l1-1-20.5 15-20.5 15 20-14.5 20-14.5" style="fill:#e47b06;stroke:#e47b06"/><path d="m155 370v-2l-1.5-.5-1.5-.5h-1.5-1.5l-.5-.5-.5-.5h-1.5-1.5l-1-.5-1-.5h-1.5-1.5l-.5.5-.5.5.5.5.5.5h1.5 1.5l1.5.5 1.5.5.5.5.5.5.5.5.5.5h1 1 1.5 1.5v1 1l.5 1.5.5 1.5v-1.5-1.5l.5-1 .5-1" style="fill:#96520c;stroke:#96520c"/><path d="m153 378l1-3-.5-1.5-.5-1.5v-1-1h-1.5-1.5-1-1l-.5-.5-.5-.5-.5-.5-.5-.5-1.5-.5-1.5-.5h-1.5-1.5l-.5-.5-.5-.5.5-.5.5-.5h1.5 1.5l.5 4.5.5 4.5-10.5 8.5-10.5 8.5-17 4-17 4-15 7-15 7-3-8-3-8-3.5-8-3.5-8v-.5-.5l-.5 1-.5 1-.5 1-.5 1-.5.5-.5.5-1 1-1 1v2 2 2 2l6.5 18 6.5 18 1 1 1 1 1.5.5 1.5.5 1 1.5 1 1.5v2 2l6-12.5 6-12.5 11.5-9.5 11.5-9.5 20-3.5 20-3.5 1.5-.5 1.5-.5 1-1 1-1 1.5-1 1.5-1 1.5-.5 1.5-.5 1-1.5 1-1.5 1-1 1-1 1-.5 1-.5" style="fill:#7b3901;stroke:#7b3901"/><path d="m149 281l1-1-14-1-14-1 10 8 10 8 1.5-.5 1.5-.5.5-.5.5-.5h-1-1l-.5-.5-.5-.5.5-.5.5-.5h1.5 1.5l.5-.5.5-.5v-1-1l.5-.5.5-.5v-2.5-2.5" style="fill:#7a5a28;stroke:#7a5a28"/><path d="m148 91l-9-36 2-11.5 2-11.5.5-16 .5-16h-24-24-22-22-22-22-4-4v18.5 18.5 22 22 22 22 22.5 22.5 22 22 22.5 22.5 22 22 22 22 15.5 15.5h2 2l1-.5 1-.5.5-.5.5-.5 1.5-.5 1.5-.5 1-.5 1-.5.5-.5.5-.5 1.5-.5 1.5-.5 1.5-.5 1.5-.5 1-.5 1-.5.5-.5.5-.5 1.5-.5 1.5-.5 1-.5 1-.5.5-.5.5-.5 1.5-.5 1.5-.5.5-1 .5-1 1-.5 1-.5.5-.5.5-.5v-1-1-1-1-1.5-1.5l-1-1-1-1-.5-.5-.5-.5v-1.5-1.5l-.5-1.5-.5-1.5-.5-.5-.5-.5v-1.5-1.5l5.5-27.5 5.5-27.5 1-2 1-2 .5-1.5.5-1.5 1-1.5 1-1.5v-2-2l-.5-2-.5-2 .5-1.5.5-1.5-.5-1.5-.5-1.5 1-.5 1-.5-16-12-16-12 7.5-12 7.5-12 7-12 7-12 5.5-13 5.5-13 20-1 20-1 12.5 10.5 12.5 10.5 3-20.5 3-20.5 5-13 5-13 6-12 6-12" style="fill:#cf8c27;stroke:#cf8c27"/><path d="m147 283l-21-19 3 16.5 3 16.5 7.5-7 7.5-7" style="fill:#ac7c35;stroke:#ac7c35"/><path d="m144 241l-15-31-3-4.5-3-4.5-.5 1-.5 1-9 9.5-9 9.5 1 .5 1 .5 1 1 1 1 1 1 1 1 1 1.5 1 1.5 1 1 1 1 1 1.5 1 1.5.5 1.5.5 1.5-.5 1-.5 1 1 1 1 1 .5 1 .5 1 1.5 1 1.5 1h2 2 3 3l3-.5 3-.5 1.5-.5 1.5-.5 1.5-1 1.5-1v-.5-.5" style="fill:#f6c857;stroke:#f6c857"/><path d="m135 418l1-3-13 9.5-13 9.5-13.5 9.5-13.5 9.5 1.5-1 1.5-1 1.5-.5 1.5-.5 1.5-.5 1.5-.5 20.5-15 20.5-15 1-.5 1-.5" style="fill:#4e2300;stroke:#4e2300"/><path d="m135 391l1-1-20 3.5-20 3.5-11.5 9.5-11.5 9.5-6 12.5-6 12.5 11-18 11-18 13.5-1 13.5-1 12.5-6 12.5-6" style="fill:#96520c;stroke:#96520c"/><path d="m134 323l1-4v-1.5-1.5l-.5 1-.5 1v1 1l-.5.5-.5.5-1-.5-1-.5-20 4-20 4-20-1-20-1-1 10-1 10 10 17.5 10 17.5 21-.5 21-.5 9-14 9-14 .5-1.5.5-1.5.5-1.5.5-1.5v-1.5-1.5l.5-.5.5-.5.5-1.5.5-1.5v-1.5-1.5-1-1l.5-1.5.5-1.5v-2-2-2-2" style="fill:#7b3901;stroke:#7b3901"/><path d="m132 420l1-1-20.5 15-20.5 15 20-14.5 20-14.5" style="fill:#96520c;stroke:#96520c"/><path d="m132 318l1-3-.5-1.5-.5-1.5-1.5-1-1.5-1-1-1-1-1v-1.5-1.5l1.5-.5 1.5-.5h-2.5-2.5v-2-2h-.5-.5l-20 4-20 4-17.5 2.5-17.5 2.5-1 16.5-1 16.5h1 1l1-10 1-10 20 1 20 1 20-4 20-4 .5-1 .5-1" style="fill:#c74f00;stroke:#c74f00"/><path d="m131 247l1-1h-3-3-2-2-.5-.5-1.5-1.5-2.5-2.5l-1.5.5-1.5.5h-2.5-2.5l-1.5.5-1.5.5h-2-2-2.5-2.5-2-2-2.5-2.5-2-2l-1 .5-1 .5 22.5-1 22.5-1h4 4" style="fill:#dbb878;stroke:#dbb878"/><path d="m130 209l-14-32-1.5-1.5-1.5-1.5 8 16 8 16 .5 1.5.5 1.5" style="fill:#180b00;stroke:#180b00"/><path d="m124 300h1l-.5-.5-.5-.5-19 3.5-19 3.5-17.5-1.5-17.5-1.5-2.5 21.5-2.5 21.5h.5.5l1-16.5 1-16.5 17.5-2.5 17.5-2.5 20-4 20-4" style="fill:#e47b06;stroke:#e47b06"/><path d="m124 298v-3l-.5-1-.5-1-.5-.5-.5-.5-.5-1.5-.5-1.5-1-.5-1-.5v-1-1l-.5-2-.5-2h-.5-.5l-26.5-6-26.5-6-1.5-1-1.5-1v1.5 1.5 1 1l.5.5.5.5v1 1l-.5 1.5-.5 1.5-8.5 14-8.5 14 .5 20 .5 20 .5-.5.5-.5 2.5-21.5 2.5-21.5 17.5 1.5 17.5 1.5 19-3.5 19-3.5v-.5-.5" style="fill:#f0c812;stroke:#f0c812"/><path d="m122 203l1-2-7.5-15-7.5-15-6-1.5-6-1.5v1.5 1.5l.5 1.5.5 1.5.5 1.5.5 1.5 1 1.5 1 1.5.5 1.5.5 1.5-.5 1.5-.5 1.5-1 1.5-1 1.5-.5 2-.5 2v1 1l.5 2 .5 2v2 2 2 2l-1 1.5-1 1.5v3 3h1.5 1.5l.5-.5.5-.5.5 1 .5 1 .5.5.5.5.5.5.5.5.5 1.5.5 1.5 9-9.5 9-9.5" style="fill:#f9f567;stroke:#f9f567"/><path d="m121 246h1l-1.5-1-1.5-1h-.5-.5l-1 .5-1 .5h-1.5-1.5-2-2l-2-.5-2-.5-.5-.5-.5-.5 1.5-1 1.5-1 1.5-.5 1.5-.5h3 3l.5-1 .5-1-.5-1.5-.5-1.5-1-1.5-1-1.5-1-1-1-1-1-1.5-1-1.5-1-1-1-1-1-1-1-1-1-.5-1-.5-.5-1.5-.5-1.5-.5-.5-.5-.5-.5-.5-.5-.5-.5-1-.5-1-.5.5-.5.5h-1.5-1.5l-14 5.5-14 5.5-7-11-7-11-.5.5-.5.5v2 2l-.5 2-.5 2-9 15.5-9 15.5 2.5.5 2.5.5 2 .5 2 .5 1.5.5 1.5.5h2.5 2.5 2 2 2.5 2.5 2 2l2 .5 2 .5h2 2 2 2 1 1l1-.5 1-.5h2 2 2.5 2.5 2 2 2.5 2.5 2 2l1.5-.5 1.5-.5h2.5 2.5l1.5-.5 1.5-.5h2.5 2.5 1.5 1.5" style="fill:#eccd96;stroke:#eccd96"/><path d="m118 263l-52 6 25.5.5 25.5.5.5-1.5.5-1.5v-2-2" style="fill:#c74f00;stroke:#c74f00"/><path d="m118 244h1l-.5-1-.5-1-1-1-1-1h-3-3l-1.5.5-1.5.5-1.5 1-1.5 1 .5.5.5.5 2 .5 2 .5h2 2 1.5 1.5l1-.5 1-.5" style="fill:#dbb878;stroke:#dbb878"/><g style="fill:#e47b06;stroke:#e47b06"><path d="m117 282h1v-1.5-1.5l-.5-2-.5-2v-2.5-2.5l-25.5-.5-25.5-.5-1 .5-1 .5 26.5 6 26.5 6"/><path d="m113 425h1l-.5-1-.5-1h-1-1l-.5.5-.5.5-1 .5-1 .5-.5.5-.5.5h-1-1-1-1l-1 .5-1 .5v1 1 1 1l-.5 1.5-.5 1.5.5-1 .5-1 .5-.5.5-.5h1 1l.5-.5.5-.5.5-.5.5-.5 1-.5 1-.5.5.5.5.5.5-.5.5-.5.5-.5.5-.5 1-1 1-1"/></g><path d="m112 174h1l-17.5-5-17.5-5-3 1.5-3 1.5 19 1 19 1 1 2.5 1 2.5" style="fill:#180b00;stroke:#180b00"/><path d="m105 260l-43-1 15 1.5 15 1.5 6.5-1 6.5-1" style="fill:#fcfa96;stroke:#fcfa96"/><g style="fill:#7b3901;stroke:#7b3901"><path d="m104 474l-27 15-7-4.5-7-4.5-8.5 10.5-8.5 10.5 1.5 5.5 1.5 5.5-10.5 11-10.5 11 12.5-9.5 12.5-9.5 12.5-10 12.5-10 12.5-9.5 12.5-9.5.5-1 .5-1"/><path d="m102 486l-25 19-13 9.5-13 9.5-12 10-12 10 .5.5.5.5 13.5-9 13.5-9 5-5 5-5 12.5-10 12.5-10 6-5.5 6-5.5"/></g><path d="m100 186l1-3-.5-1.5-.5-1.5-1-1.5-1-1.5-.5-1.5-.5-1.5-.5-1.5-.5-1.5v-1.5-1.5h-3.5-3.5-2-2-2-2-2.5-2.5l-1.5.5-1.5.5h-2.5-2.5-1.5-1.5l-.5 1.5-.5 1.5-.5 2-.5 2-1 1.5-1 1.5-1 1-1 1-.5 1.5-.5 1.5.5 2 .5 2-.5 1.5-.5 1.5-.5 2-.5 2-.5 1.5-.5 1.5-1 1.5-1 1.5v2 2l7 11 7 11 14-5.5 14-5.5v-3-3l1-1.5 1-1.5v-2-2-2-2l-.5-2-.5-2v-1-1l.5-2 .5-2 1-1.5 1-1.5" style="fill:#fcfa96;stroke:#fcfa96"/><path d="m99 435l1-1-12.5 8.5-12.5 8.5 1.5-.5 1.5-.5.5-.5.5-.5 1-.5 1-.5.5-.5.5-.5.5-.5.5-.5h1 1l.5-1 .5-1h1 1l.5-.5.5-.5.5-.5.5-.5 1-1 1-1 1-.5 1-.5.5-.5.5-.5.5-.5.5-.5.5-.5.5-.5 1-.5 1-.5" style="fill:#e47b06;stroke:#e47b06"/><path d="m65 468l1-3-19.5 14-19.5 14-13.5 10-13.5 10v3 3l21-15.5 21-15.5 11.5-10 11.5-10" style="fill:#96520c;stroke:#96520c"/><path d="m64 172l1-3h-2-2l-1 1.5-1 1.5-.5 1.5-.5 1.5-.5 2-.5 2-.5 1.5-.5 1.5-1 1.5-1 1.5-.5 1.5-.5 1.5-1 1-1 1-.5 2-.5 2-.5 1.5-.5 1.5-1 1-1 1h1.5 1.5l1 .5 1 .5-.5 1.5-.5 1.5 1 1.5 1 1.5.5-.5.5-.5v-2-2l1-1.5 1-1.5.5-1.5.5-1.5.5-2 .5-2 .5-1.5.5-1.5-.5-2-.5-2 .5-1.5.5-1.5 1-1 1-1 1-1.5 1-1.5.5-2 .5-2" style="fill:#f9f567;stroke:#f9f567"/><path d="m63 460l1-2-8.5-17.5-8.5-17.5-.5.5-.5.5v1.5 1.5l.5 2.5.5 2.5.5 1.5.5 1.5.5 1.5.5 1.5.5 2 .5 2v2 2l.5 2 .5 2 1 1 1 1 .5 2 .5 2 .5 1.5.5 1.5-.5 1.5-.5 1.5v1.5 1.5l1-.5 1-.5 1.5-1 1.5-1 1-.5 1-.5 1-.5 1-.5" style="fill:#e47b06;stroke:#e47b06"/><path d="m61 279l1-3v-1-1l-.5-.5-.5-.5v-1-1-1.5-1.5h-1-1v1.5 1.5 1 1 1 1l-.5 1.5-.5 1.5-10 33-10 33 3.5 1.5 3.5 1.5-.5-20-.5-20 8.5-14 8.5-14" style="fill:#f9f567;stroke:#f9f567"/><path d="m58 278l1-3v-1-1-1-1-1.5-1.5l-12.5 19.5-12.5 19.5 2 18.5 2 18.5 10-33 10-33" style="fill:#fcfa96;stroke:#fcfa96"/><path d="m54 462l1-3-.5-1.5-.5-1.5-.5-2-.5-2-1-1-1-1-.5-2-.5-2v-2-2l-.5-2-.5-2-.5-1.5-.5-1.5-.5-1.5-.5-1.5-.5-2.5-.5-2.5-1-.5-1-.5-1.5-.5-1.5-.5-4-17.5-4-17.5-8-1.5-8-1.5-.5 1.5-.5 1.5h1 1l.5 1 .5 1-.5 2-.5 2v2 2l-1 1-1 1-.5.5-.5.5-1-.5-1-.5v-2-2-1-1l-.5-.5-.5-.5-.5-.5-.5-.5-1-.5-1-.5-.5 1.5-.5 1.5v1 1l-1 .5-1 .5-1.5.5-1.5.5-.5-.5-.5-.5h-1-1v1.5 1.5 2.5 2.5 2 2 2 2 2.5 2.5 2 2 2 2l7.5 5 7.5 5 4.5 25 4.5 25 15-11.5 15-11.5v-1.5-1.5" style="fill:#f0c812;stroke:#f0c812"/><path d="m53 431h1l-6.5-18-6.5-18h-.5-.5l-.5 2-.5 2v2 2 1 1 1 1 1 1l.5 1 .5 1v1 1 1 1 1 1l.5 1 .5 1v.5.5l.5-1 .5-1 .5-.5.5-.5v-1-1-1-1l.5-1 .5-1 .5-.5.5-.5v1 1l.5.5.5.5.5 1.5.5 1.5.5 1.5.5 1.5.5 1.5.5 1.5.5 1.5.5 1.5 1 1.5 1 1.5.5 1.5.5 1.5" style="fill:#96520c;stroke:#96520c"/><path d="m52 214l1-4v-2-2l-1-1.5-1-1.5.5-1.5.5-1.5-1-.5-1-.5h-1.5-1.5l-9 14.5-9 14.5 2.5 8.5 2.5 8.5 9-15.5 9-15.5" style="fill:#f6c857;stroke:#f6c857"/><path d="m48 278l-1-1 .5-1.5.5-1.5v-1.5-1.5-1-1-2-2l.5-1 .5-1-1-1-1-1-1 .5-1 .5.5 1.5.5 1.5-.5 1.5-.5 1.5.5 2 .5 2v2 2l-1 1.5-1 1.5-.5 1.5-.5 1.5-1 2-1 2 1.5-.5 1.5-.5.5-1.5.5-1.5 1-1 1-1 .5-1 .5-1" style="fill:#dbb878;stroke:#dbb878"/><path d="m46 424l1-1v-3.5-3.5l-.5-1.5-.5-1.5-.5-.5-.5-.5v-1-1l-.5.5-.5.5-.5 1-.5 1v1 1 1 1l-.5.5-.5.5-.5 1-.5 1 .5 1.5.5 1.5-.5 1-.5 1 1.5.5 1.5.5 1 .5 1 .5v-1.5-1.5" style="fill:#cf8c27;stroke:#cf8c27"/><path d="m44 197l-16 26-1 3.5-1 3.5 8-14 8-14 1-2.5 1-2.5" style="fill:#180b00;stroke:#180b00"/><path d="m43 380v-2l-.5-1.5-.5-1.5-.5-1-.5-1-1-1-1-1-1 .5-1 .5-1.5.5-1.5.5-1.5.5-1.5.5h-.5-.5l-1 .5-1 .5-1.5 1-1.5 1-1.5.5-1.5.5-1.5 1-1.5 1-1 1-1 1v2.5 2.5l8 1.5 8 1.5 4 17.5 4 17.5.5-1 .5-1-.5-1.5-.5-1.5v-.5-.5l-.5-1-.5-1v-1-1-1-1-1-1l-.5-1-.5-1v-1-1-1-1-1-1-2-2l.5-2 .5-2v-2-2l-.5-.5-.5-.5.5-1.5.5-1.5.5-1.5.5-1.5 1-2 1-2" style="fill:#e47b06;stroke:#e47b06"/><path d="m38 361v-2l-.5-1.5-.5-1.5-.5-1-.5-1v-1-1l-1-1-1-1-.5-1-.5-1v-1-1l-1-1-1-1-.5-1.5-.5-1.5v1.5 1.5l.5.5.5.5.5 1.5.5 1.5v1.5 1.5l.5.5.5.5 1 1 1 1v1.5 1.5 1 1 1 1l-.5.5-.5.5-1 .5-1 .5-.5 1-.5 1 1-.5 1-.5.5-.5.5-.5 1-.5 1-.5 1-.5 1-.5" style="fill:#f6c857;stroke:#f6c857"/><path d="m32 368l-32 13v2 2l1-1 1-1 15-7.5 15-7.5" style="fill:#180b00;stroke:#180b00"/><path d="m30 374h1l-1-1-1-1-1 .5-1 .5-.5.5-.5.5-1 1-1 1h-1.5-1.5l-.5.5-.5.5-1.5.5-1.5.5-1 .5-1 .5-.5.5-.5.5-1.5.5-1.5.5-1 .5-1 .5-.5.5-.5.5-.5.5-.5.5h-1-1l-1.5.5-1.5.5 1.5.5 1.5.5h1 1l1.5-.5 1.5-.5 1.5-1 1.5-1 1 1 1 1 1 1 1 1v-2.5-2.5l1-1 1-1 1.5-1 1.5-1 1.5-.5 1.5-.5 1.5-1 1.5-1 1-.5 1-.5" style="fill:#cf8c27;stroke:#cf8c27"/><g style="fill:#e47b06;stroke:#e47b06"><path d="m23 488h1l-4.5-25-4.5-25-7.5-5-7.5-5v3 3 2.5 2.5 1.5 1.5l7 26.5 7 26.5h2 2l.5-1 .5-1 .5-.5.5-.5.5-.5.5-.5.5-.5.5-.5.5-1 .5-1"/><path d="m18 396l1-4-.5-1-.5-1h-1-1l.5-1.5.5-1.5-1-1-1-1-1-1-1-1-1.5 1-1.5 1-1.5.5-1.5.5h-1-1l-1 1.5-1 1.5-1.5 1.5-1.5 1.5v3.5 3.5h1 1l.5.5.5.5 1.5-.5 1.5-.5 1-.5 1-.5v-1-1l.5-1.5.5-1.5 1 .5 1 .5.5.5.5.5.5.5.5.5v1 1 2 2l1 .5 1 .5.5-.5.5-.5 1-1 1-1v-2-2"/></g><path d="m14 499v-1h-.5-.5l-1.5.5-1.5.5h-1.5-1.5v-2-2l-.5-2-.5-2-1-1-1-1 .5-1.5.5-1.5-1.5-1-1.5-1-1 1.5-1 1.5v2 2 2 2 2.5 2.5 2 2 2.5 2.5l2-.5 2-.5 1.5-1 1.5-1 1-1 1-1 1-.5 1-.5.5-.5.5-.5 1-1 1-1v-.5-.5" style="fill:#96520c;stroke:#96520c"/><path d="m13 498h1v-1.5-1.5l-7-26.5-7-26.5v3 3 2 2 2.5 2.5 2 2 2 2 2.5 2.5 2 2 2.5 2.5 2 2 2 2l1-1.5 1-1.5 1.5 1 1.5 1-.5 1.5-.5 1.5 1 1 1 1 .5 2 .5 2v2 2h1.5 1.5l1.5-.5 1.5-.5" style="fill:#c74f00;stroke:#c74f00"/></g></svg>