<svg xmlns="http://www.w3.org/2000/svg" viewBox="0 0 720 896"><path d="m0 0h720v896h-720z" style="fill:#cecabe"/><g style="stroke-linejoin:round;stroke-width:.7"><path d="m0 895v1h1.5 1.5 2 2 2.5 2.5 2 2 2.5 2.5 2 2 2.5 2.5 1.5 1.5v-.5-.5l12.5-16 12.5-16 5.5-21.5 5.5-21.5-7.5-30-7.5-30-.5-.5-.5-.5.5-32 .5-32 10.5-17.5 10.5-17.5 16.5-10.5 16.5-10.5-10.5 4.5-10.5 4.5-24 17.5-24 17.5v-1.5-1.5-2-2l-.5-2-.5-2-.5 1.5-.5 1.5v2.5 2.5 2 2l-.5 1-.5 1-1 1-1 1-.5.5-.5.5-1 .5-1 .5v1 1h-1-1l-.5.5-.5.5-.5 1-.5 1v1 1 1 1 1 1l-.5 1-.5 1h-1-1l-.5.5-.5.5v1 1l-.5 1-.5 1-.5 1.5-.5 1.5v1 1 1 1 1.5 1.5 31.5 31.5l2.5 25 2.5 25-13 20-13 20v3.5 3.5 2 2 2.5 2.5 2 2 2 2" style="fill:#0c0800;stroke:#0c0800"/><path d="m33 895v1h1.5 1.5 2 2 2.5 2.5 2 2 2.5 2.5 1 1v-.5-.5-.5-.5l-1-.5-1-.5v-2-2-1-1-1.5-1.5-3-3l-.5 1.5-.5 1.5-.5 2-.5 2-.5 1.5-.5 1.5-.5 2-.5 2-1 1-1 1h-2.5-2.5l-1.5-.5-1.5-.5-.5-.5-.5-.5 1.5-1 1.5-1 .5-1.5.5-1.5 1.5-1 1.5-1 .5-1.5.5-1.5 1.5-1 1.5-1 1-1 1-1 1-1.5 1-1.5h1 1l7.5-37 7.5-37-.5-.5-.5-.5-1-1.5-1-1.5-.5-1.5-.5-1.5-.5-1.5-.5-1.5v-2.5-2.5l-.5-2.5-.5-2.5-1-.5-1-.5v-1-1-2.5-2.5-2-2l-.5-2-.5-2-1-1-1-1h-1-1l-.5-1-.5-1-.5-27-.5-27 8.5-20 8.5-20 29-20 29-20v-.5-.5l17.5-17.5 17.5-17.5-5-12-5-12-.5-.5-.5-.5 9.5-15.5 9.5-15.5 15-14 15-14 6.5-.5 6.5-.5-11.5 13.5-11.5 13.5 10 27 10 27 .5 1 .5 1 1.5.5 1.5.5.5 1 .5 1v34.5 34.5l-8.5 19.5-8.5 19.5-9 18-9 18-12.5 27-12.5 27 5.5 14 5.5 14 1.5 38 1.5 38v.5.5.5.5h2 2v-.5-.5-2-2-2-2-2.5-2.5l-.5-1.5-.5-1.5v-1.5-1.5l-.5-.5-.5-.5-.5-26.5-.5-26.5-6-13.5-6-13.5 9.5-18.5 9.5-18.5 8-19.5 8-19.5 9.5-18.5 9.5-18.5 7-20.5 7-20.5-2-24-2-24-14-13.5-14-13.5 4-22 4-22 10-14.5 10-14.5-13.5 6.5-13.5 6.5-14.5 13-14.5 13-10.5 16.5-10.5 16.5 4.5 17 4.5 17-14.5 12.5-14.5 12.5 1-5.5 1-5.5-21 5-21 5-19 8.5-19 8.5-16 12-16 12-5.5-10-5.5-10 13.5-13.5 13.5-13.5 18-9.5 18-9.5 19-9 19-9 6-11.5 6-11.5 12-16 12-16 16-7.5 16-7.5 14.5-13.5 14.5-13.5-.5-16-.5-16-15.5-12.5-15.5-12.5-9-18.5-9-18.5-2-26-2-26 10.5-16 10.5-16v-23-23-16.5-16.5l1-8 1-8 1.5-20 1.5-20 11.5-16.5 11.5-16.5 14-13.5 14-13.5 20.5-6.5 20.5-6.5 16.5-6 16.5-6 16-12 16-12 22.5-5 22.5-5 22 6 22 6 16 11.5 16 11.5 13 15 13 15 11.5 16 11.5 16 12.5 15.5 12.5 15.5 10 17.5 10 17.5-4 1-4 1-4 16.5-4 16.5 4.5 23.5 4.5 23.5 4.5 7 4.5 7 3 25 3 25-2.5 25-2.5 25-7 11-7 11-8 17.5-8 17.5 11.5 11.5 11.5 11.5 18 9.5 18 9.5 16.5 11.5 16.5 11.5 16.5 11 16.5 11 3.5 11.5 3.5 11.5-16.5-11-16.5-11-16-12-16-12-17.5-10-17.5-10-20.5-7.5-20.5-7.5v17.5 17.5l9.5 18.5 9.5 18.5 18.5 9 18.5 9 16.5 11.5 16.5 11.5 15.5 12 15.5 12 43 5 43 5v-1.5-1.5-2-2-2.5-2.5-2-2-2.5-2.5-2-2-2-2-2.5-2.5-1-1h-2.5-2.5-1-1l-.5.5-.5.5-.5.5-.5.5-.5-.5-.5-.5-16.5-11.5-16.5-11.5-11.5-15.5-11.5-15.5-16-11.5-16-11.5-16.5-11.5-16.5-11.5-34-13.5-34-13.5 10-18.5 10-18.5 11.5-.5 11.5-.5 15.5 13 15.5 13 11.5 15.5 11.5 15.5 13 15.5 13 15.5 15.5 11.5 15.5 11.5 20.5 8 20.5 8h2 2v-2-2l-.5-.5-.5-.5-21-8-21-8-15-12-15-12-13-15.5-13-15.5 12.5 12.5 12.5 12.5 37 18 37 18v-2-2h-.5-.5-2-2-1-1l-1.5-.5-1.5-.5-.5-1-.5-1-1.5-.5-1.5-.5-1.5-.5-1.5-.5-1.5-.5-1.5-.5-.5-.5-.5-.5-1-.5-1-.5-1-.5-1-.5-1-.5-1-.5-19-12-19-12-1-.5-1-.5-1-.5-1-.5-.5-.5-.5-.5-19.5-23-19.5-23-.5-1-.5-1-1-1.5-1-1.5-1-1.5-1-1.5-.5-1-.5-1-.5-.5-.5-.5-.5-.5-.5-.5-.5-.5-.5-.5-.5-1-.5-1-.5-.5-.5-.5-.5-.5-.5-.5-.5-.5-.5-.5-.5-.5-.5-.5-.5-.5-.5-.5-.5-1-.5-1v-1-1l-1-.5-1-.5-1 .5-1 .5-.5 1-.5 1-17-16.5-17-16.5.5-.5.5-.5v-3-3-2-2-2.5-2.5-2-2-2-2-2.5-2.5l1-1 1-1 1-1.5 1-1.5.5-2.5.5-2.5-.5-.5-.5-.5v-27-27l-7-20-7-20-3-24.5-3-24.5 12.5 1.5 12.5 1.5-9.5-18-9.5-18-10.5-17.5-10.5-17.5-13-14.5-13-14.5-11.5-16.5-11.5-16.5-28.5-23-28.5-23h-1.5-1.5l-1-.5-1-.5-24-2.5-24-2.5-.5-.5-.5-.5v-1.5-1.5l.5-1.5.5-1.5v-1-1l-.5-1-.5-1-.5-1.5-.5-1.5h-1-1-1-1l-.5.5-.5.5-.5 1-.5 1-1 1-1 1-.5.5-.5.5-.5 1-.5 1-.5 1.5-.5 1.5.5 1.5.5 1.5-20 8-20 8-14 17-14 17h-1.5-1.5l-1.5-.5-1.5-.5v-.5-.5-.5-.5l-21 1.5-21 1.5-16.5 12-16.5 12-12 15-12 15-6.5 19.5-6.5 19.5-5.5 19-5.5 19 6.5 30.5 6.5 30.5-11 12-11 12-2.5 20-2.5 20 9.5 32 9.5 32v1.5 1.5l18 18.5 18 18.5 1 1.5 1 1.5 1.5.5 1.5.5 1.5-1 1.5-1 1 1.5 1 1.5-14.5 17.5-14.5 17.5h-1-1l-14 11-14 11-15.5 24.5-15.5 24.5-16 8.5-16 8.5-29 13-29 13-14.5 16.5-14.5 16.5v1 1l16.5 8 16.5 8-7 19.5-7 19.5-2.5 41.5-2.5 41.5v2 2 1 1l.5.5.5.5.5.5.5.5.5 1 .5 1v1 1l.5.5.5.5v1 1 1.5 1.5 1 1 1 1 1 1 1.5 1.5l.5 1.5.5 1.5v1 1l.5 1 .5 1-10 23-10 23v2.5 2.5.5.5l13-20 13-20-2.5-25-2.5-25-.5-.5-.5-.5.5-31 .5-31v-1.5-1.5-1-1-1-1l.5-1.5.5-1.5.5-1 .5-1v-1-1l.5-.5.5-.5h1 1l.5-1 .5-1v-1-1-1-1-1-1l.5-1 .5-1 .5-.5.5-.5h1 1v-1-1l1-.5 1-.5.5-.5.5-.5 1-1 1-1v-.5-.5l1.5-1 1.5-1 24-17.5 24-17.5 10.5-4.5 10.5-4.5-16.5 10.5-16.5 10.5-10.5 17.5-10.5 17.5v32.5 32.5l7.5 30 7.5 30-5.5 21.5-5.5 21.5-12.5 16-12.5 16" style="fill:#383429;stroke:#383429"/><path d="m56 895v1h28 28 27 27 3.5 3.5v-.5-.5h-28-28-30.5-30.5" style="fill:#928e80;stroke:#928e80"/><path d="m177 895v1h1.5 1.5 2 2 2.5 2.5 2 2 2.5 2.5 2 2 2.5 2.5 2 2 2 2v-.5-.5l.5-.5.5-.5v-2-2l.5-2 .5-2 .5-1.5.5-1.5.5-1.5.5-1.5v-.5-.5l2.5-52 2.5-52 7.5-20.5 7.5-20.5 11 16 11 16 12 13.5 12 13.5 10-17 10-17 9.5-6 9.5-6 6 21 6 21-.5 24-.5 24-7 30-7 30h2 2 2.5 2.5 2 2 2.5 2.5 2 2 2.5 2.5 2 2 1.5 1.5v-.5-.5l1.5-26 1.5-26 2.5-24.5 2.5-24.5-7-20-7-20-1-23-1-23 21.5 4.5 21.5 4.5-2 23-2 23 4 24.5 4 24.5 6.5 20.5 6.5 20.5 9.5 21.5 9.5 21.5h1.5 1.5 2 2 2.5 2.5 2 2 2 2 2.5 2.5 2 2 2.5 2.5 2 2v-.5-.5l-13.5-14-13.5-14-7.5-20-7.5-20-6-22.5-6-22.5 2-25 2-25-12-21-12-21v-.5-.5l19.5-10 19.5-10 14.5-13 14.5-13 15-12.5 15-12.5 5.5-16.5 5.5-16.5 11 22.5 11 22.5 1.5.5 1.5.5 1 1.5 1 1.5v2 2l.5 2 .5 2 1 1 1 1 .5 1.5.5 1.5-.5 19-.5 19-11.5 16.5-11.5 16.5-11 16-11 16-12 15.5-12 15.5-23-24.5-23-24.5 13.5 15 13.5 15 10.5 16.5 10.5 16.5 10.5-13 10.5-13 11-16 11-16 12.5-16 12.5-16 10.5-13.5 10.5-13.5 10 19 10 19 10 20 10 20 .5 1.5.5 1.5v1 1l-.5 1-.5 1v1 1 1 1l.5.5.5.5v1 1l-.5.5-.5.5v1.5 1.5 1 1 1 1 1 1 1.5 1.5l-.5.5-.5.5v1 1l-.5.5-.5.5-1 .5-1 .5v1 1l-.5 1.5-.5 1.5-2.5 38.5-2.5 38.5v2.5 2.5 1 1 1 1 1 1l.5 1 .5 1v1 1 1 1 1 1 1.5 1.5 2 2h3.5 3.5 2 2 2 2 2.5 2.5 2 2 2.5 2.5 1 1v-.5-.5l4.5-22 4.5-22 7.5-11.5 7.5-11.5 12.5 11 12.5 11 13 1 13 1 16 16 16 16v-3.5-3.5-2-2-2.5-2.5-2-2-2-2-2.5-2.5-2-2-2.5-2.5-2-2-2-2l-2.5-.5-2.5-.5-14-14.5-14-14.5-12-15-12-15-13.5-15-13.5-15-12.5-14.5-12.5-14.5-11-17.5-11-17.5-10-17-10-17-7-21.5-7-21.5 8.5 6.5 8.5 6.5 13 15.5 13 15.5 26.5 11 26.5 11 34 1 34 1h.5.5v-3-3-2.5-2.5-.5-.5h-1.5-1.5-2-2-2-2l-1.5-.5-1.5-.5-2-1-2-1-1-1-1-1 2-.5 2-.5 1.5-.5 1.5-.5 2-.5 2-.5 1-1 1-1 .5-1.5.5-1.5 2-.5 2-.5 1 .5 1 .5v-3-3-.5-.5l-43-5-43-5-15.5-12-15.5-12-16.5-11.5-16.5-11.5-18.5-9-18.5-9-9.5-18.5-9.5-18.5v-17.5-17.5l20.5 7.5 20.5 7.5 17.5 10 17.5 10 16 12 16 12 16.5 11 16.5 11-3.5-11.5-3.5-11.5-16.5-11-16.5-11-16.5-11.5-16.5-11.5-18-9.5-18-9.5-11.5-11.5-11.5-11.5 8-17.5 8-17.5 7-11 7-11 2.5-25 2.5-25-3-25-3-25-4.5-7-4.5-7-4.5-23.5-4.5-23.5 4-16.5 4-16.5 4-1 4-1-10-17.5-10-17.5-12.5-15.5-12.5-15.5-11.5-16-11.5-16-13-15-13-15-16-11.5-16-11.5-22-6-22-6-22.5 5-22.5 5-16 12-16 12-16.5 6-16.5 6-20.5 6.5-20.5 6.5-14 13.5-14 13.5-11.5 16.5-11.5 16.5-1.5 20-1.5 20-1 8-1 8v16.5 16.5 23 23l-10.5 16-10.5 16 2 26 2 26 9 18.5 9 18.5 15.5 12.5 15.5 12.5.5 16 .5 16-14.5 13.5-14.5 13.5-16 7.5-16 7.5-12 16-12 16-6 11.5-6 11.5-19 9-19 9-18 9.5-18 9.5-13.5 13.5-13.5 13.5 5.5 10 5.5 10 16-12 16-12 19-8.5 19-8.5 21-5 21-5-1 5.5-1 5.5 14.5-12.5 14.5-12.5-4.5-17-4.5-17 10.5-16.5 10.5-16.5 14.5-13 14.5-13 13.5-6.5 13.5-6.5-10 14.5-10 14.5-4 22-4 22 14 13.5 14 13.5 2 24 2 24-7 20.5-7 20.5-9.5 18.5-9.5 18.5-8 19.5-8 19.5-9.5 18.5-9.5 18.5 6 13.5 6 13.5 1 27 1 27v1.5 1.5l.5 1.5.5 1.5v2.5 2.5 2 2 2 2" style="fill:#0c0800;stroke:#0c0800"/><path d="m215 895v1h1.5 1.5 1 1v-.5-.5l.5-1.5.5-1.5v-1-1-1.5-1.5-2-2-1-1-1-1-1-1-1.5-1.5-1-1-1-1-1-1-1.5-1.5-2-2-1-1-1.5-1.5-2-2l.5-1 .5-1-.5-.5-.5-.5v-26.5-26.5l6-21.5 6-21.5 9.5 2.5 9.5 2.5 9 18 9 18 15-9 15-9 8-19 8-19 7 20 7 20 2 25.5 2 25.5-7.5 33.5-7.5 33.5h1 1l7-30 7-30 .5-24 .5-24-6-21-6-21-9.5 6-9.5 6-10 17-10 17-12-13.5-12-13.5-11-16-11-16-7.5 20.5-7.5 20.5-2 25.5-2 25.5-.5 27.5-.5 27.5-.5 1.5-.5 1.5-.5 1.5-.5 1.5-.5 2-.5 2v2 2l-.5.5-.5.5" style="fill:#383429;stroke:#383429"/><path d="m220 895v1h28 28 21.5 21.5l7.5-33.5 7.5-33.5-2-25.5-2-25.5-7-20-7-20-8 19-8 19-15 9-15 9-9-18-9-18-9.5-2.5-9.5-2.5-6 21.5-6 21.5.5 27 .5 27-.5 1-.5 1v2 2 1.5 1.5 1 1 2 2 1.5 1.5 1 1 1 1 1 1 1.5 1.5 1 1 1 1 1 1 2 2 1.5 1.5 1 1l-.5 1.5-.5 1.5" style="fill:#595549;stroke:#595549"/><path d="m355 895v1h1.5 1.5 1.5 1.5v-.5-.5-1.5-1.5h-.5-.5l-.5-.5-.5-.5.5-36.5.5-36.5h.5.5.5.5v-23.5-23.5l-6-21.5-6-21.5 16.5.5 16.5.5v22.5 22.5l4 24 4 24 13 33 13 33-27.5 4-27.5 4h29 29 3 3l-9.5-21.5-9.5-21.5-6.5-20.5-6.5-20.5-4-24.5-4-24.5 2-23 2-23-21.5-4.5-21.5-4.5 1 23 1 23 7 20 7 20-2.5 24.5-2.5 24.5-1.5 26-1.5 26" style="fill:#211d21;stroke:#211d21"/><path d="m361 895v1h.5.5l27.5-4 27.5-4-27 2.5-27 2.5-.5-37.5-.5-37.5h-.5-.5v37 37 1.5 1.5" style="fill:#b4b08e;stroke:#b4b08e"/><path d="m464 895v1h1.5 1.5v-.5-.5l-13-15-13-15-7.5-19.5-7.5-19.5-7.5-44-7.5-44-.5 22-.5 22 6 22.5 6 22.5 7.5 20 7.5 20 13.5 14 13.5 14" style="fill:#383429;stroke:#383429"/><path d="m467 895v1h28 28 28 28v-.5-.5-28.5-28.5l5-42 5-42-10.5-17.5-10.5-17.5-11-16-11-16-10.5 17-10.5 17-12.5 15.5-12.5 15.5-17.5 26.5-17.5 26.5-11.5-16.5-11.5-16.5-15.5-17-15.5-17 7.5 44 7.5 44 7.5 19.5 7.5 19.5 13 15 13 15" style="fill:#595549;stroke:#595549"/><path d="m579 895v1h1.5 1.5v-2-2-1.5-1.5-1-1-1-1-1-1l-.5-1-.5-1v-1-1-1-1-1-1-2.5-2.5-.5-.5l2.5-38 2.5-38 .5-1.5.5-1.5v-1-1l1-.5 1-.5.5-.5.5-.5v-1-1l.5-.5.5-.5v-1.5-1.5-1-1-1-1-1-1-1.5-1.5l.5-.5.5-.5v-1-1l-.5-.5-.5-.5v-1-1-1-1l.5-1 .5-1v-1-1l-.5-1.5-.5-1.5-.5-2-.5-2-.5 1-.5 1-5 42-5 42v28.5 28.5" style="fill:#383429;stroke:#383429"/><path d="m613 895v1h1.5 1.5v-.5-.5l5-23.5 5-23.5 11.5 1.5 11.5 1.5 17.5 5 17.5 5 18 13 18 13v-1.5-1.5l-16-16-16-16-13-1-13-1-12.5-11-12.5-11-7.5 11.5-7.5 11.5-4.5 22-4.5 22" style="fill:#211d21;stroke:#211d21"/><path d="m616 895v1h.5.5v-.5-.5l5-23.5 5-23.5 11 1.5 11 1.5-11.5-1.5-11.5-1.5-5 23.5-5 23.5" style="fill:#7b776b;stroke:#7b776b"/><path d="m617 895v1h28 28 23.5 23.5v-4-4h-1.5-1.5-2-2l-1.5-.5-1.5-.5-30.5-18-30.5-18-11-1.5-11-1.5-5 23.5-5 23.5" style="fill:#928e80;stroke:#928e80"/><path d="m56 894v1h30.5 30.5 28 28v-.5-.5h-28-28-30.5-30.5" style="fill:#938f51;stroke:#938f51"/><path d="m40 893l3 1h2.5 2.5l1-1 1-1 .5-2 .5-2 .5-1.5.5-1.5.5-2 .5-2 .5-1.5.5-1.5 1-1.5 1-1.5h-1-1l-1 1.5-1 1.5-1 1-1 1-1.5 1-1.5 1-.5 1.5-.5 1.5-1.5 1-1.5 1-.5 1.5-.5 1.5-1.5 1-1.5 1 .5.5.5.5" style="fill:#615d62;stroke:#615d62"/><path d="m54 893l2 1v-.5-.5l7.5-21 7.5-21v-25-25l-7.5 37-7.5 37-1 1.5-1 1.5v3 3 1.5 1.5 1 1 2 2" style="fill:#7b776b;stroke:#7b776b"/><path d="m56 893v1h30.5 30.5 28 28v-.5-.5l-2.5-25.5-2.5-25.5-4.5-26-4.5-26 12.5-27 12.5-27 9-18 9-18 8.5-19.5 8.5-19.5v-.5-.5-34-34l-.5-1-.5-1-1.5-.5-1.5-.5-.5-1-.5-1-.5-.5-.5-.5-9.5-26.5-9.5-26.5 11.5-13.5 11.5-13.5-8 2.5-8 2.5-13 14-13 14-9.5 14-9.5 14 5 12 5 12-17.5 18-17.5 18-16.5 11.5-16.5 11.5-14.5 13-14.5 13-6 22-6 22 7 40.5 7 40.5v25 25l-7.5 21-7.5 21" style="fill:#928e80;stroke:#928e80"/><path d="m173 893v1l-1.5-38-1.5-38-5.5-14-5.5-14 4.5 26 4.5 26 2.5 25.5 2.5 25.5" style="fill:#7b776b;stroke:#7b776b"/><path d="m363 893l54-5-13-33-13-33-4-24-4-24v-22.5-22.5l-16.5-.5-16.5-.5 6 21.5 6 21.5v23.5 23.5l.5 37.5.5 37.5" style="fill:#cecabe;stroke:#cecabe"/><path d="m359 891l1 1v-.5-.5-36.5-36.5l-.5 36.5-.5 36.5" style="fill:#595549;stroke:#595549"/><g style="fill:#7b776b;stroke:#7b776b"><path d="m360 891v1h.5.5v-37-37h-.5-.5v36.5 36.5"/><path d="m710 887l3 1h2 2 1.5 1.5v-.5-.5l-18-13-18-13-17.5-5-17.5-5 30.5 18 30.5 18"/></g><g style="fill:#211d21;stroke:#211d21"><path d="m219 879v1l.5-27.5.5-27.5 2-25.5 2-25.5-2.5 53-2.5 53"/><path d="m175 875l1 1-1-27-1-27 .5 26.5.5 26.5"/><path d="m581 869v1l2.5-38.5 2.5-38.5-2.5 38-2.5 38"/></g><path d="m0 864v1l10-23 10-23-10 22.5-10 22.5" style="fill:#b4b08e;stroke:#b4b08e"/><path d="m0 863v1l10-22.5 10-22.5-.5-1-.5-1v-1-1l-.5-1.5-.5-1.5v-1.5-1.5-1-1-1-1-1-1-1.5-1.5-1-1l-.5-.5-.5-.5v-1-1l-.5-1-.5-1-.5-.5-.5-.5-.5-.5-.5-.5v-1-1-2-2l-.5-.5-.5-.5v-28-28l10-32.5 10-32.5-16.5-8-16.5-8v29 29 29 29 29 29 21 21" style="fill:#cecabe;stroke:#cecabe"/><path d="m221 849l1 1-.5-27-.5-27v26.5 26.5" style="fill:#403c42;stroke:#403c42"/><path d="m715 837l5 1v-2-2l-1-.5-1-.5-13.5-14-13.5-14-12.5-15.5-12.5-15.5-13-14.5-13-14.5-13-15-13-15-10.5-17-10.5-17-11-22.5-11-22.5-1-8.5-1-8.5 11 16 11 16 19 8 19 8 25.5 5.5 25.5 5.5.5.5.5.5h1.5 1.5 18 18v-2-2h-.5-.5l-26.5 1-26.5 1h-1.5-1.5l-1-.5-1-.5h-1-1-1.5-1.5-2-2l-.5-1.5-.5-1.5-26.5-11-26.5-11-13-15.5-13-15.5-8.5-6.5-8.5-6.5 7 21.5 7 21.5 10 17 10 17 11 17.5 11 17.5 12.5 14.5 12.5 14.5 13.5 15 13.5 15 12 15 12 15 14 14.5 14 14.5" style="fill:#383429;stroke:#383429"/><path d="m718 833l2 1v-29.5-29.5-11.5-11.5l-1 .5-1 .5-1-.5-1-.5-8.5-12-8.5-12-9-24.5-9-24.5-.5-.5-.5-.5v2.5 2.5l.5 1.5.5 1.5-.5 2-.5 2-1 1-1 1h-1-1l-19.5-9.5-19.5-9.5-19.5-7.5-19.5-7.5-13.5-11-13.5-11 11 22.5 11 22.5 10.5 17 10.5 17 13 15 13 15 13 14.5 13 14.5 12.5 15.5 12.5 15.5 13.5 14 13.5 14" style="fill:#928e80;stroke:#928e80"/><path d="m465 805l35-53 12.5-15.5 12.5-15.5 10.5-17 10.5-17 11 16 11 16 10.5 17.5 10.5 17.5.5-1 .5-1 .5 2 .5 2-10-20-10-20-10-19-10-19-10.5 13.5-10.5 13.5-12.5 16-12.5 16-11 16-11 16-10.5 13-10.5 13-10.5-16.5-10.5-16.5-13.5-15-13.5-15-2 25-2 25 .5-22 .5-22 15.5 17 15.5 17 11.5 16.5 11.5 16.5" style="fill:#211d21;stroke:#211d21"/><path d="m70 800l1 1-7-40.5-7-40.5 6-22 6-22 14.5-13 14.5-13 16.5-11.5 16.5-11.5-29 20-29 20-8.5 20-8.5 20 .5 27 .5 27 1.5.5 1.5.5h1 1 1 1 1.5 1.5l.5 1.5.5 1.5v1 1l-.5 1-.5 1-.5 1.5-.5 1.5-.5.5-.5.5v1.5 1.5 2.5 2.5l.5 2.5.5 2.5v2.5 2.5l.5 1.5.5 1.5.5 1.5.5 1.5 1 1.5 1 1.5" style="fill:#7b776b;stroke:#7b776b"/><path d="m13 784l1 1 2.5-41.5 2.5-41.5 7-19.5 7-19.5-10 32.5-10 32.5v28 28" style="fill:#b4b08e;stroke:#b4b08e"/><path d="m460 781l24-31 11-16 11-16 11.5-16.5 11.5-16.5.5-19 .5-19-.5 1.5-.5 1.5-1.5.5-1.5.5-3.5 20-3.5 20-10.5 16.5-10.5 16.5-18 27-18 27-12.5-15-12.5-15-13.5-15-13.5-15-6.5-12.5-6.5-12.5 17-11 17-11 15-13.5 15-13.5 15-12 15-12 5.5-17 5.5-17 9 23 9 23 .5-1 .5-1-11-22.5-11-22.5-5.5 16.5-5.5 16.5-15 12.5-15 12.5-14.5 13-14.5 13-19.5 10.5-19.5 10.5 12 21 12 21 23 24.5 23 24.5" style="fill:#383429;stroke:#383429"/><path d="m20 780l1 1v-31.5-31.5l-.5 31-.5 31" style="fill:#211d21;stroke:#211d21"/><path d="m63 780l2 1v-2.5-2.5-1.5-1.5l.5-.5.5-.5.5-1.5.5-1.5.5-1 .5-1v-1-1l-.5-1.5-.5-1.5h-1.5-1.5-1-1-1-1l-1.5-.5-1.5-.5.5 1 .5 1h1 1l1 1 1 1 .5 2 .5 2v2 2 2.5 2.5 1 1" style="fill:#74704e;stroke:#74704e"/><path d="m276 780l21-34 7-20 7-20 2.5-17 2.5-17-.5-1-.5-1-.5-.5-.5-.5-5 23-5 23-13.5 29.5-13.5 29.5-10-17.5-10-17.5-10.5-30.5-10.5-30.5 1-1.5 1-1.5.5-1.5.5-1.5-1.5.5-1.5.5-.5 2-.5 2v2 2 2.5 2.5 2 2 2.5 2.5 2 2 2 2 1.5 1.5l10 17.5 10 17.5 9.5 17.5 9.5 17.5 1 2 1 2" style="fill:#383429;stroke:#383429"/><g style="fill:#595549;stroke:#595549"><path d="m462 778l36-54 10.5-16.5 10.5-16.5 3.5-20 3.5-20v-.5-.5l1-1 1-1h-1-1l-.5-1-.5-1-.5-.5-.5-.5v-1-1-1-1-1.5-1.5l-.5-.5-.5-.5v-1-1l-.5-.5-.5-.5-1-1-1-1-9-23-9-23-5.5 17-5.5 17-15 12-15 12-15 13.5-15 13.5-17 11-17 11 6.5 12.5 6.5 12.5 13.5 15 13.5 15 12.5 15 12.5 15"/><path d="m277 774l27-59 5-23 5-23-17-10.5-17-10.5-11.5-9.5-11.5-9.5-10.5 24.5-10.5 24.5 10.5 30.5 10.5 30.5 10 17.5 10 17.5"/></g><path d="m53 759l1 1v-32.5-32.5l-.5 32-.5 32" style="fill:#211d21;stroke:#211d21"/><path d="m716 752l2 1 1-.5 1-.5v-1-1l-.5-.5-.5-.5-10-14.5-10-14.5-7.5-20.5-7.5-20.5h-1.5-1.5l9 24.5 9 24.5 8.5 12 8.5 12" style="fill:#b4b08e;stroke:#b4b08e"/><path d="m719 749l1 1v-27.5-27.5-8-8h-18-18l7.5 20.5 7.5 20.5 10 14.5 10 14.5" style="fill:#cecabe;stroke:#cecabe"/><path d="m234 705l1 1v-1.5-1.5-2-2-2-2-2.5-2.5-2-2-2.5-2.5-2-2l.5-2 .5-2 1.5-.5 1.5-.5-.5 1.5-.5 1.5-1 1.5-1 1.5 10.5-24.5 10.5-24.5 11.5 9.5 11.5 9.5 17 10.5 17 10.5.5.5.5.5.5 1 .5 1-16-13-16-13-2.5-10-2.5-10-.5-1-.5-1-1.5-.5-1.5-.5-.5-1-.5-1-13 1-13 1-4.5 23-4.5 23-2.5 18-2.5 18" style="fill:#211d21;stroke:#211d21"/><path d="m376 705l24-27 13.5-13.5 13.5-13.5 15-13.5 15-13.5 7-5.5 7-5.5v-.5-.5l1-1 1-1 1-1 1-1 .5-1 .5-1-.5-1-.5-1 1-1.5 1-1.5-.5-1.5-.5-1.5v-2.5-2.5l-1-.5-1-.5-9.5 5-9.5 5-23 11.5-23 11.5 1 1 1 1 29-11.5 29-11.5-11.5 9-11.5 9-12.5 12.5-12.5 12.5-14 13-14 13-15.5 12.5-15.5 12.5-9-19-9-19-17.5-19.5-17.5-19.5v-.5-.5l-.5-.5-.5-.5-1 .5-1 .5 11 1 11 1 1-1 1-1-1-1.5-1-1.5-1.5-.5-1.5-.5-2-.5-2-.5-.5-1.5-.5-1.5-2-1-2-1-8.5 12-8.5 12-.5-.5-.5-.5v-1.5-1.5l-1.5-.5-1.5-.5-1-.5-1-.5-1 1-1 1 1 .5 1 .5 1 1 1 1 1 1.5 1 1.5.5 1 .5 1 17 11.5 17 11.5 10.5 15.5 10.5 15.5 11.5 6.5 11.5 6.5" style="fill:#f2eed1;stroke:#f2eed1"/><path d="m362 698l31-25 14-13 14-13 12.5-12.5 12.5-12.5-37.5 10-37.5 10-31-10.5-31-10.5 17.5 19.5 17.5 19.5 9 19 9 19" style="fill:#fffff6;stroke:#fffff6"/><path d="m676 692h2l1-1 1-1 .5-2 .5-2-.5-1.5-.5-1.5v-2.5-2.5l-25.5-5.5-25.5-5.5-19-8-19-8-11-16-11-16 1 8.5 1 8.5 13.5 11 13.5 11 19.5 7.5 19.5 7.5 19.5 9.5 19.5 9.5" style="fill:#7b776b;stroke:#7b776b"/><g style="fill:#211d21;stroke:#211d21"><path d="m390 689v1l19.5-10.5 19.5-10.5-19.5 10-19.5 10"/><path d="m36 685v1l.5-1 .5-1v-2-2-2.5-2.5l.5-1.5.5-1.5.5 2 .5 2v2 2 1.5 1.5l-1.5 1-1.5 1"/></g><path d="m47 679h2v-1.5-1.5l-.5-.5-.5-.5 24.5-24 24.5-24-19.5 8.5-19.5 8.5-5.5 17.5-5.5 17.5" style="fill:#cecabe;stroke:#cecabe"/><path d="m666 677l53-2-34-1-34-1 .5 1.5.5 1.5h2 2 1.5 1.5 1 1l1 .5 1 .5h1.5 1.5" style="fill:#211d21;stroke:#211d21"/><path d="m48 675l1 1 14-13.5 14-13.5 6-4 6-4v-.5-.5l1-.5 1-.5.5-1 .5-1 1-1 1-1 .5-.5.5-.5 1-.5 1-.5 1.5-.5 1.5-.5.5-.5.5-.5.5-1 .5-1 1-1 1-1h1 1l.5-1 .5-1-1.5-.5-1.5-.5h-2-2l-2 .5-2 .5.5 1 .5 1-24.5 24-24.5 24" style="fill:#b4b08e;stroke:#b4b08e"/><path d="m706 662l3 1h2 2 2 2 1.5 1.5v-3.5-3.5-2-2-1-1l-1-.5-1-.5-2 .5-2 .5-.5 1.5-.5 1.5-1 1-1 1-2 .5-2 .5-1.5.5-1.5.5-2 .5-2 .5 1 1 1 1 2 1 2 1" style="fill:#211d21;stroke:#211d21"/><path d="m219 660v1-34.5-34.5 34 34" style="fill:#7b776b;stroke:#7b776b"/><path d="m526 650v1l1.5-.5 1.5-.5.5-1.5.5-1.5-.5-1.5-.5-1.5-1-1-1-1-.5-2-.5-2v-2-2l-1-1.5-1-1.5-1.5-.5-1.5-.5-.5 1-.5 1 1 1 1 1 .5.5.5.5v1 1l.5.5.5.5v1.5 1.5 1 1 1 1l.5.5.5.5.5 1 .5 1h1 1l-1 1-1 1" style="fill:#211d21;stroke:#211d21"/><path d="m689 645h2l-.5-1.5-.5-1.5h2.5 2.5.5.5l-13.5-15-13.5-15-15.5-11.5-15.5-11.5-13-14-13-14-14.5-13.5-14.5-13.5-18-9.5-18-9.5-16.5-2.5-16.5-2.5 14 28 14 28 19 10 19 10 16.5 12.5 16.5 12.5 17 12 17 12 21 5 21 5" style="fill:#928e80;stroke:#928e80"/><path d="m0 644v1l14.5-16.5 14.5-16.5v-.5-.5l18.5-9 18.5-9 26.5-12 26.5-12 15.5-24.5 15.5-24.5 14-11 14-11-26.5 1-26.5 1-25.5 1.5-25.5 1.5-37 .5-37 .5v29 29 29 29 12 12" style="fill:#fffff6;stroke:#fffff6"/><path d="m699 644l1-1v-1-1l-2-1-2-1-1.5.5-1.5.5-1-1-1-1-16.5-18.5-16.5-18.5h-1.5-1.5l-2-.5-2-.5-.5-.5-.5-.5-15-18.5-15-18.5-.5-1-.5-1-2-.5-2-.5-1-1-1-1-.5-1.5-.5-1.5-1.5-1-1.5-1-1.5-.5-1.5-.5-1-1.5-1-1.5-1.5-.5-1.5-.5-1-2-1-2-17.5-11-17.5-11-20-9-20-9-5 8.5-5 8.5 10 21 10 21 1 2 1 2h2 2 1 1l-14-28-14-28 16.5 2.5 16.5 2.5 18 9.5 18 9.5 14.5 13.5 14.5 13.5 13 14 13 14 15.5 11.5 15.5 11.5 13.5 15 13.5 15 1.5.5 1.5.5v.5.5" style="fill:#7b776b;stroke:#7b776b"/><path d="m371 642l75-20 11.5-9 11.5-9-15 9.5-15 9.5-39 8.5-39 8.5-27.5-10-27.5-10 1-.5 1-.5.5.5.5.5v.5.5l31 10.5 31 10.5" style="fill:#e1dde1;stroke:#e1dde1"/><path d="m701 641l4-23-16-11-16-11-17-11.5-17-11.5-15-12-15-12-5-3-5-3 1 2 1 2 1.5.5 1.5.5 1 1.5 1 1.5 1.5.5 1.5.5 1.5 1 1.5 1 .5 1.5.5 1.5 1 1 1 1 2 .5 2 .5.5 1 .5 1 15.5 19 15.5 19 2 .5 2 .5h1.5 1.5l17 18.5 17 18.5h-.5-.5l1 1 1 1 1.5-.5 1.5-.5 2 1 2 1h.5.5" style="fill:#615d62;stroke:#615d62"/><path d="m89 640v1l1-.5 1-.5 1.5-.5 1.5-.5 1-1.5 1-1.5 1.5-.5 1.5-.5 1.5-1 1.5-1 1-1 1-1 1.5-1 1.5-1 1-1 1-1 .5-1.5.5-1.5h-1.5-1.5v.5.5l-.5 1-.5 1h-1-1l-1 1-1 1-.5 1-.5 1-.5.5-.5.5-1.5.5-1.5.5-1 .5-1 .5-.5.5-.5.5-1 1-1 1-.5 1-.5 1-1 .5-1 .5" style="fill:#928e80;stroke:#928e80"/><path d="m361 640l78-17 15-9.5 15-9.5-29 11.5-29 11.5-23 2.5-23 2.5h-1.5-1.5-2-2l-1.5-.5-1.5-.5-1.5-1-1.5-1-1.5-.5-1.5-.5h-2-2l-2-.5-2-.5-1-1-1-1-2-.5-2-.5-1.5-.5-1.5-.5-2-.5-2-.5-11-1-11-1 27.5 10 27.5 10" style="fill:#cecabe;stroke:#cecabe"/><path d="m692 638l-34-37 16.5 18.5 16.5 18.5h.5.5" style="fill:#74704e;stroke:#74704e"/><path d="m296 637l2 1-.5-1-.5-1-1-1.5-1-1.5-1-1-1-1-1-.5-1-.5v-.5-.5l-10-26.5-10-26.5-.5-1-.5-1v-1.5-1.5-1-1-1-1-1-1-1.5-1.5-1-1-1-1-1-1-1.5-1.5l-.5 1.5-.5 1.5v1 1 1.5 1.5 3 3l2.5 26 2.5 26v1 1l.5 1 .5 1 1.5.5 1.5.5.5 1 .5 1 2 1 2 1 2 .5 2 .5 1 1 1 1 1.5 1 1.5 1 1 1 1 1 1 1 1 1" style="fill:#383429;stroke:#383429"/><path d="m298 633l1 1 8.5-12 8.5-12 15 7 15 7 21 1 21 1 22.5-6 22.5-6 20.5-11 20.5-11 1 .5 1 .5v2.5 2.5l.5 1.5.5 1.5v-18.5-18.5l-14 13-14 13-17.5 9.5-17.5 9.5-21.5.5-21.5.5-18.5-5.5-18.5-5.5-17-10.5-17-10.5-13.5-4.5-13.5-4.5 10 29.5 10 29.5 1 .5 1 .5 1.5.5 1.5.5v1.5 1.5" style="fill:#615d62;stroke:#615d62"/><path d="m365 632l46-5-1-1-1-1-24 2.5-24 2.5-1.5-1-1.5-1-2-.5-2-.5h-2-2-2.5-2.5l-1.5-.5-1.5-.5-1-1.5-1-1.5-1.5-.5-1.5-.5h-2.5-2.5l-1-1-1-1-1 1-1 1 2 .5 2 .5 1.5.5 1.5.5 2 .5 2 .5 1 1 1 1 2 .5 2 .5h2 2l1.5.5 1.5.5 1.5 1 1.5 1 1.5.5 1.5.5h2 2 1.5 1.5" style="fill:#9e9aa4;stroke:#9e9aa4"/><path d="m361 630l48-5 23-11.5 23-11.5 9.5-5 9.5-5-20.5 11-20.5 11-22.5 6-22.5 6-21-1-21-1-15-7-15-7 2 1 2 1 .5 1.5.5 1.5 2 .5 2 .5 1.5.5 1.5.5 1 1.5 1 1.5 1 1 1 1h2.5 2.5l1.5.5 1.5.5 1 1.5 1 1.5 1.5.5 1.5.5h2.5 2.5 2 2l2 .5 2 .5 1.5 1 1.5 1" style="fill:#7b776b;stroke:#7b776b"/><path d="m291 629v1l1-1 1-1-10-29.5-10-29.5 13.5 4.5 13.5 4.5 17 10.5 17 10.5 18.5 5.5 18.5 5.5 21.5-.5 21.5-.5 17.5-9.5 17.5-9.5 14-13 14-13v18.5 18.5l-1 1.5-1 1.5.5 1 .5 1 .5-1 .5-1 .5-1 .5-1 .5-.5.5-.5h1.5 1.5l1-1 1-1v-2-2l-3.5-18-3.5-18-13.5 13.5-13.5 13.5-27 13-27 13-21.5-2-21.5-2-16.5-10.5-16.5-10.5-24.5-5.5-24.5-5.5 10 26.5 10 26.5" style="fill:#595549;stroke:#595549"/><path d="m131 626v1l17.5-18 17.5-18-17.5 17.5-17.5 17.5" style="fill:#7b776b;stroke:#7b776b"/><path d="m396 612l54-26 13.5-13.5 13.5-13.5 3.5 18 3.5 18 .5-1.5.5-1.5v-2-2-2.5-2.5-2-2-2.5-2.5-2-2-2.5-2.5-2-2-2-2l.5-1.5.5-1.5-15 10.5-15 10.5-16 12.5-16 12.5-14 3.5-14 3.5-1-1-1-1h-1-1l-2 .5-2 .5-1.5.5-1.5.5h-2.5-2.5-2-2-2-2-2.5-2.5l-1.5.5-1.5.5-2-.5-2-.5h-2-2-2-2l-.5-1-.5-1-15.5-12-15.5-12-16.5-10.5-16.5-10.5-1-.5-1-.5-2-.5-2-.5-1.5-.5-1.5-.5-1-1.5-1-1.5-1-1-1-1-2 .5-2 .5v1.5 1.5 1 1 1 1 1 1 1.5 1.5 1 1 1 1 1 1 1.5 1.5l.5 1 .5 1 24.5 5.5 24.5 5.5 16.5 10.5 16.5 10.5 21.5 2 21.5 2" style="fill:#403c42;stroke:#403c42"/><path d="m471 612v1l7.5-20.5 7.5-20.5v-9-9l-.5 1.5-.5 1.5v2 2 2 2 2.5 2.5 2 2 2.5 2.5 2 2 2.5 2.5 2 2l-.5 1.5-.5 1.5v2 2l-1 1-1 1h-1.5-1.5l-.5.5-.5.5-.5 1-.5 1-.5 1-.5 1-.5 1-.5 1-1 1-1 1-1 1-1 1" style="fill:#383429;stroke:#383429"/><path d="m29 611v1l29-13 29-13 16-8.5 16-8.5-26.5 12-26.5 12-18.5 9-18.5 9" style="fill:#f2eed1;stroke:#f2eed1"/><path d="m711 609l1-1 .5-.5.5-.5h1 1 2.5 2.5v-2-2-2.5-2.5-2-2-2.5-2.5-2-2-2-2-2.5-2.5-2-2-1-1h-2-2l-20.5-8-20.5-8-15.5-11.5-15.5-11.5-13-15.5-13-15.5-11.5-15.5-11.5-15.5-15.5-13-15.5-13-11.5.5-11.5.5-10 18.5-10 18.5 20.5 4.5 20.5 4.5 17.5 10.5 17.5 10.5 16.5 11 16.5 11 15 13 15 13 25.5 25 25.5 25" style="fill:#cecabe;stroke:#cecabe"/><path d="m710 608l1 1-25.5-25-25.5-25-15-13-15-13-16.5-11-16.5-11-17.5-10.5-17.5-10.5-20.5-4.5-20.5-4.5 34 13.5 34 13.5 16.5 11.5 16.5 11.5 16 11.5 16 11.5 11.5 15.5 11.5 15.5 16.5 11.5 16.5 11.5" style="fill:#b4b08e;stroke:#b4b08e"/><path d="m360 607l4 1 1.5-.5 1.5-.5h2.5 2.5 2 2 2 2 2.5 2.5l1.5-.5 1.5-.5 2-.5 2-.5h1 1l1 1 1 1-22.5-1-22.5-1 .5 1 .5 1h2 2 2 2" style="fill:#211d21;stroke:#211d21"/><path d="m650 599l1 1-15.5-19-15.5-19 15 18.5 15 18.5" style="fill:#74704e;stroke:#74704e"/><path d="m364 598l48-7 15.5-11.5 15.5-11.5 14.5-14 14.5-14 11-16 11-16 9.5-19 9.5-19 1.5-24.5 1.5-24.5 8 7.5 8 7.5 7.5-19.5 7.5-19.5v-26.5-26.5l-11-12-11-12-4 14.5-4 14.5-6-21-6-21-7-21.5-7-21.5-6-17-6-17-4-5.5-4-5.5-8-6-8-6-19.5-9.5-19.5-9.5-16.5-6-16.5-6-11-16-11-16-12.5-16-12.5-16-3 11-3 11 14 14.5 14 14.5 7.5 13.5 7.5 13.5-13-14.5-13-14.5-7 8-7 8-12.5 10-12.5 10-22 5-22 5-14.5 14-14.5 14-6 21-6 21-2 11-2 11 .5 25 .5 25 1.5 25.5 1.5 25.5 2.5 25.5 2.5 25.5 7.5 21.5 7.5 21.5 12.5 16.5 12.5 16.5 15.5 13 15.5 13 15.5 11.5 15.5 11.5 17 11 17 11" style="fill:#211d21;stroke:#211d21"/><path d="m371 593l44-11 12-10 12-10-35.5 14-35.5 14h-2.5-2.5-2.5-2.5l2 .5 2 .5 2 .5 2 .5 1.5.5 1.5.5h1 1" style="fill:#f2eed1;stroke:#f2eed1"/><path d="m368 590l71-28 15-14 15-14 10.5-16.5 10.5-16.5 9-17.5 9-17.5-19 5.5-19 5.5h-1.5-1.5l-.5-1.5-.5-1.5-2-.5-2-.5h-2-2l-1.5-.5-1.5-.5-.5-2-.5-2-.5-1.5-.5-1.5v-2.5-2.5l.5-1.5.5-1.5.5-2 .5-2 2-.5 2-.5v-.5-.5l11-17 11-17 16-33 16-33-7.5-20.5-7.5-20.5-7.5 5.5-7.5 5.5-12 9.5-12 9.5-17 5-17 5-9 4.5-9 4.5-7-9-7-9 .5-17 .5-17 .5-15.5.5-15.5 25.5-2 25.5-2 19.5 7.5 19.5 7.5-1-12.5-1-12.5-9.5-17.5-9.5-17.5-15.5-13-15.5-13-22-5-22-5-18-5.5-18-5.5-6-4-6-4-13 14.5-13 14.5-22 5-22 5-15 14-15 14-7 21.5-7 21.5-.5 8-.5 8 .5 27.5.5 27.5 10.5 16.5 10.5 16.5 9 19.5 9 19.5 9.5 17.5 9.5 17.5 10 16.5 10 16.5-29 3.5-29 3.5 14.5 13 14.5 13 16.5 12.5 16.5 12.5 16 13 16 13 8.5 6.5 8.5 6.5h2.5 2.5 2.5 2.5" style="fill:#fffff6;stroke:#fffff6"/><g style="fill:#7b776b;stroke:#7b776b"><path d="m213 586l1 1-10-27-10-27 9.5 26.5 9.5 26.5"/><path d="m155 566l1 1 9.5-14 9.5-14 13-14 13-14 8-2.5 8-2.5-6.5.5-6.5.5-15 14-15 14-9.5 15.5-9.5 15.5"/></g><path d="m268 566l1 1v-3-3-1.5-1.5-1-1l.5-1.5.5-1.5 2-.5 2-.5 1 1 1 1 1 1.5 1 1.5 1.5.5 1.5.5 2 .5 2 .5-8.5 3.5-8.5 3.5" style="fill:#211d21;stroke:#211d21"/><path d="m719 565l1 1v-3-3-2.5-2.5l-37-18-37-18-12.5-12.5-12.5-12.5 13 15.5 13 15.5 15 12 15 12 21 8 21 8" style="fill:#0c0800;stroke:#0c0800"/><path d="m532 561l2 1-10-21-10-21 7 14.5 7 14.5 2 6 2 6" style="fill:#74704e;stroke:#74704e"/><path d="m366 552l51-4 5.5-13.5 5.5-13.5-1-.5-1-.5-.5-1-.5-1h-1.5-1.5l-27 16-27 16-3-18-3-18h-.5-.5l-1 1.5-1 1.5-1 1-1 1-1 1-1 1v3 3l-.5 1.5-.5 1.5-.5 2-.5 2 .5 1.5.5 1.5v2.5 2.5l.5 1.5.5 1.5 1 1 1 1 2 .5 2 .5.5 1.5.5 1.5 2 .5 2 .5" style="fill:#e1dde1;stroke:#e1dde1"/><path d="m368 550l54-32-28 3-28 3-1-1.5-1-1.5v-1.5-1.5-2-2l1-1 1-1h-1-1l-1 1-1 1 3 18 3 18" style="fill:#cecabe;stroke:#cecabe"/><path d="m710 550l3 1h1 1 2 2v-.5-.5l-11.5-6-11.5-6-17-10.5-17-10.5-13-14-13-14-15-14.5-15-14.5 1 1.5 1 1.5 1 1.5 1 1.5.5 1 .5 1 20 23.5 20 23.5 1 .5 1 .5 1 .5 1 .5 20 12.5 20 12.5 1 .5 1 .5 1 .5 1 .5.5.5.5.5 1.5.5 1.5.5 1.5.5 1.5.5 1.5.5 1.5.5.5 1 .5 1" style="fill:#f2eed1;stroke:#f2eed1"/><path d="m719 550v1h.5.5v-27.5-27.5-27-27-28.5-28.5-27-27-28.5-28.5-27-27-28.5-28.5-27-27-28.5-28.5-26-26h-1-1-28.5-28.5-10.5-10.5l.5 1.5.5 1.5v1 1 1 1 1.5 1.5 1 1 1 1 1 1 1 1 1.5 1.5 1 1 1 1 1 1 1 1 1.5 1.5 1 1 1 1l-.5 1.5-.5 1.5-2 26.5-2 26.5 1.5 26 1.5 26 1 27 1 27-.5 47-.5 47-7.5 21-7.5 21-12 11-12 11-19.5 9.5-19.5 9.5-.5 2.5-.5 2.5-1 1.5-1 1.5-1 1-1 1v2.5 2.5 2 2 2 2 2.5 2.5 2 2 3 3l24.5-2.5 24.5-2.5 39.5 11.5 39.5 11.5-45 7-45 7v1 1l.5 1 .5 1 .5.5.5.5.5.5.5.5.5.5.5.5.5.5.5.5.5.5.5.5.5 1 .5 1 .5.5.5.5.5.5.5.5.5.5.5.5.5 1 .5 1 15 14.5 15 14.5 13 14 13 14 17 10.5 17 10.5 11.5 6 11.5 6" style="fill:#fffff6;stroke:#fffff6"/><path d="m693 541l2 1-20-12.5-20-12.5 19 12 19 12" style="fill:#cecabe;stroke:#cecabe"/><path d="m366 524l56-6h1.5 1.5l.5 1 .5 1 1 .5 1 .5-20-6-20-6-16.5 6-16.5 6 1-1 1-1 1-1 1-1 1-1.5 1-1.5h.5.5l1-1 1-1h1 1l-1 1-1 1v2 2 1.5 1.5l1 1.5 1 1.5" style="fill:#f2eed1;stroke:#f2eed1"/><path d="m650 514l1 1-20-23.5-20-23.5 19.5 23 19.5 23" style="fill:#cecabe;stroke:#cecabe"/><g style="fill:#e1dde1;stroke:#e1dde1"><path d="m0 503v1l37-.5 37-.5 25.5-1.5 25.5-1.5 26.5-1 26.5-1h1 1l-20.5-1-20.5-1-27 2-27 2-42.5 1-42.5 1v.5.5"/><path d="m330 503l47-8 22 2 22 2-45 1.5-45 1.5-1-.5-1-.5.5 1 .5 1"/></g><g style="fill:#cecabe;stroke:#cecabe"><path d="m331 502l90-3 7-7.5 7-7.5-27-1.5-27-1.5-29 6-29 6v1.5 1.5l1 1.5 1 1.5 1.5.5 1.5.5.5.5.5.5 1 .5 1 .5"/><path d="m0 501v1l42.5-1 42.5-1 27-2 27-2 20.5 1 20.5 1 14.5-17.5 14.5-17.5-23.5-2-23.5-2-25.5 1.5-25.5 1.5-27.5 1-27.5 1-27.5 4.5-27.5 4.5h-.5-.5v2.5 2.5 2 2 2.5 2.5 2 2 2 2 2.5 2.5.5.5"/></g><path d="m246 499l1 1 29-3.5 29-3.5-.5-.5-.5-.5.5-1 .5-1v-1.5-1.5l-.5-.5-.5-.5v-1-1h-1-1l-1-.5-1-.5 1 1.5 1 1.5.5 2 .5 2-1 1-1 1-1.5 1-1.5 1-1 1-1 1h-2.5-2.5-2-2l-1.5-.5-1.5-.5-19-2.5-19-2.5v2.5 2.5 2 2" style="fill:#e1dde1;stroke:#e1dde1"/><path d="m284 495l3 1h2 2 2.5 2.5l1-1 1-1 1.5-1 1.5-1 1-1 1-1-.5-2-.5-2-1-1.5-1-1.5-1-.5-1-.5-20-34.5-20-34.5h-.5-.5l-1-.5-1-.5-12.5-26.5-12.5-26.5-2-1-2-1 .5 28 .5 28 4.5 24 4.5 24 5 14.5 5 14.5 19 2.5 19 2.5" style="fill:#cecabe;stroke:#cecabe"/><path d="m331 495l50-5 24.5 2.5 24.5 2.5-16-5.5-16-5.5-23.5 2.5-23.5 2.5-10 3-10 3" style="fill:#0c0800;stroke:#0c0800"/><g style="fill:#f2eed1;stroke:#f2eed1"><path d="m304 492l1 1-10-16.5-10-16.5-9.5-17.5-9.5-17.5-9-19.5-9-19.5-10.5-16.5-10.5-16.5-.5-27.5-.5-27.5v29.5 29.5l2 1 2 1 13.5 27 13.5 27h.5.5l9 18.5 9 18.5 12 16.5 12 16.5 1 .5 1 .5h1 1v1 1l.5.5.5.5v1.5 1.5l-.5 1-.5 1"/><path d="m323 492v1l29-6 29-6 27 1.5 27 1.5-27-2-27-2-26 3-26 3-3 3-3 3"/></g><g style="fill:#e1dde1;stroke:#e1dde1"><path d="m298 482l2 1-12-16.5-12-16.5-9-18.5-9-18.5 20 34.5 20 34.5"/><path d="m470 477l38-11 .5-1.5.5-1.5-17.5 5.5-17.5 5.5 3-25.5 3-25.5-10.5 14.5-10.5 14.5-2 .5-2 .5-.5 2-.5 2-.5 1.5-.5 1.5v2.5 2.5l.5 1.5.5 1.5.5 2 .5 2 1.5.5 1.5.5h2 2l2 .5 2 .5.5 1.5.5 1.5h1.5 1.5"/></g><path d="m474 474l35-11 2.5-24.5 2.5-24.5 6-12 6-12-6-14.5-6-14.5-.5 1.5-.5 1.5h-1-1l-1.5-1-1.5-1-1.5-1.5-1.5-1.5-10.5 29.5-10.5 29.5-1 .5-1 .5-1 2-1 2-3 25.5-3 25.5" style="fill:#cecabe;stroke:#cecabe"/><path d="m1 473l55-9 27.5-1 27.5-1 25.5-1.5 25.5-1.5 23.5 2 23.5 2-1-1.5-1-1.5-1.5 1-1.5 1-1.5-.5-1.5-.5-1-1.5-1-1.5-25-.5-25-.5-26.5 1.5-26.5 1.5-48 5.5-48 5.5v1 1h.5.5" style="fill:#f2eed1;stroke:#f2eed1"/><path d="m0 470v1l48-5.5 48-5.5 26.5-1.5 26.5-1.5 25 .5 25 .5-18-18.5-18-18.5-1.5-1-1.5-1-2-.5-2-.5-1.5.5-1.5.5h-2-2l-1 1.5-1 1.5h-2-2l-2 .5-2 .5-1.5-.5-1.5-.5-27-2-27-2h-41-41v26 26" style="fill:#fffff6;stroke:#fffff6"/><path d="m380 456l3 1h2 2l1.5-1 1.5-1 1.5-.5 1.5-.5 2-.5 2-.5h2 2 2.5 2.5l1.5-.5 1.5-.5 1-1 1-1 1.5-1 1.5-1 1-1 1-1-.5-.5-.5-.5-21 3-21 3h-2.5-2.5-2-2l-2-.5-2-.5-1.5-.5-1.5-.5h-3.5-3.5l1 .5 1 .5 2 .5 2 .5 1 1 1 1h2.5 2.5 2 2l1.5.5 1.5.5 2 .5 2 .5 1.5.5 1.5.5h1.5 1.5" style="fill:#e1dde1;stroke:#e1dde1"/><path d="m373 451l42-6-32.5 2-32.5 2h3.5 3.5l1.5.5 1.5.5 2 .5 2 .5h2 2 2.5 2.5" style="fill:#cecabe;stroke:#cecabe"/><path d="m459 451v1l10.5-14.5 10.5-14.5 1-2 1-2 1-.5 1-.5v-.5-.5l10.5-29 10.5-29 1.5 1.5 1.5 1.5 1.5 1 1.5 1h1 1l.5-1.5.5-1.5v-2.5-2.5-2.5-2.5h-.5-.5l-16 33-16 33-11 17-11 17" style="fill:#f2eed1;stroke:#f2eed1"/><path d="m346 448l3 1h.5.5l32.5-2 32.5-2 .5.5.5.5-1-22.5-1-22.5-13.5 13-13.5 13-16 2-16 2 .5-12 .5-12-12.5 13.5-12.5 13.5 7.5 7 7.5 7" style="fill:#211d21;stroke:#211d21"/><path d="m590 446l1-2v-.5-.5l25.5-2.5 25.5-2.5 20.5-9.5 20.5-9.5-22-5.5-22-5.5-41.5 2.5-41.5 2.5 17 16.5 17 16.5" style="fill:#cecabe;stroke:#cecabe"/><path d="m591 443v1l1-.5 1-.5 1 .5 1 .5 45-7 45-7-.5-.5-.5-.5.5-2.5.5-2.5-1-2.5-1-2.5-20.5 9.5-20.5 9.5-25.5 2.5-25.5 2.5" style="fill:#e1dde1;stroke:#e1dde1"/><path d="m372 437h2v-2-2l-1-1.5-1-1.5h-2-2-2.5-2.5l-.5 1.5-.5 1.5 1.5 1 1.5 1h2 2l1 1 1 1h.5.5" style="fill:#0c0800;stroke:#0c0800"/><path d="m207 435l-11-42-7.5-21.5-7.5-21.5-4 13-4 13 5.5 18 5.5 18 11.5 11.5 11.5 11.5" style="fill:#211d21;stroke:#211d21"/><path d="m408 435l3-8-3 3-3 3 1.5 1 1.5 1" style="fill:#0c0800;stroke:#0c0800"/><path d="m526 431l17-38-1-25-1-25h-7-7v23.5 23.5h-.5-.5v20.5 20.5" style="fill:#fffff6;stroke:#fffff6"/><path d="m684 429l1 1-39.5-11.5-39.5-11.5-24.5 2.5-24.5 2.5-.5.5-.5.5 41.5-2.5 41.5-2.5 22 5.5 22 5.5 1 2.5 1 2.5-.5 2.5-.5 2.5" style="fill:#f2eed1;stroke:#f2eed1"/><path d="m201 425l-15-36-5 3-5 3 12.5 15 12.5 15" style="fill:#fffff6;stroke:#fffff6"/><path d="m136 422l3 1 2-.5 2-.5h2 2l1-1.5 1-1.5h2 2l1.5-.5 1.5-.5 2 .5 2 .5 1.5 1 1.5 1v-1.5-1.5h-1.5-1.5l-1.5-.5-1.5-.5h-2.5-2.5-2-2l-2 .5-2 .5h-2-2-2.5-2.5-2-2l-2-.5-2-.5h-28-28-35.5-35.5v.5.5h41 41l27 2 27 2" style="fill:#e1dde1;stroke:#e1dde1"/><path d="m127 417l4 1h2 2 2.5 2.5 2 2l2-.5 2-.5h2 2 2.5 2.5l1.5.5 1.5.5h1.5 1.5l-9.5-32-9.5-32 2.5-20 2.5-20v-.5-.5l.5-1 .5-1 .5-.5.5-.5.5-.5.5-.5 1-.5 1-.5.5-.5.5-.5h1 1l.5-.5.5-.5 1 .5 1 .5h1 1l.5-.5.5-.5.5-.5.5-.5.5-.5.5-.5.5-.5.5-.5 1-.5 1-.5v-1-1l.5-.5.5-.5v-1-1l1-.5 1-.5v-1-1-2-2l-6.5-30.5-6.5-30.5 5.5-19 5.5-19 6.5-19.5 6.5-19.5 12-15 12-15 16.5-12 16.5-12-2-.5-2-.5v-.5-.5l2-48 2-48h-28.5-28.5-28.5-28.5-29-29-29-29-4.5-4.5v24 24 27 27 28.5 28.5 29 29 29 29 28.5 28.5 27 27 15.5 15.5h35.5 35.5 28 28" style="fill:#cecabe;stroke:#cecabe"/><g style="fill:#e1dde1;stroke:#e1dde1"><path d="m484 417v1l10.5-29.5 10.5-29.5-10.5 29-10.5 29"/><path d="m255 412l2 1-13.5-27-13.5-27 12.5 26.5 12.5 26.5"/></g><path d="m223 399v1l-1.5-25.5-1.5-25.5-.5-25-.5-25v27 27l2 23 2 23" style="fill:#383429;stroke:#383429"/><path d="m561 373l1 1v-.5-.5l18.5-9 18.5-9 11.5-13 11.5-13 7-20 7-20-1-24.5-1-24.5 1-26 1-26-1-27.5-1-27.5v-27-27l1.5-39.5 1.5-39.5h-27.5-27.5-29-29-28.5-28.5-27-27-28.5-28.5-27-27-4.5-4.5l-3 49-3 49v.5.5l14-17 14-17v-.5-.5l20-7.5 20-7.5-.5-1.5-.5-1.5.5-1.5.5-1.5.5-1 .5-1 .5-.5.5-.5 1-1 1-1 .5-1 .5-1 .5-.5.5-.5h1 1 1 1l.5 1.5.5 1.5.5 1 .5 1v1 1l-.5 1.5-.5 1.5v1.5 1.5l.5.5.5.5 26.5 3 26.5 3 28.5 23 28.5 23 11.5 16.5 11.5 16.5 13 14.5 13 14.5 10.5 17.5 10.5 17.5 9.5 18 9.5 18-12.5-1.5-12.5-1.5 3 24.5 3 24.5 7 20 7 20v27 27" style="fill:#cecabe;stroke:#cecabe"/><g style="fill:#e1dde1;stroke:#e1dde1"><path d="m562 373v1l19.5-9.5 19.5-9.5 12-11 12-11 7.5-21 7.5-21-.5-.5-.5-.5-1.5-25.5-1.5-25.5 1.5-23.5 1.5-23.5-1.5-26-1.5-26 2-50 2-50 .5-1.5.5-1.5v-1-1-1-1-1.5-1.5-1-1-1-1-1-1-1-1-1.5-1.5-1-1-1-1-1-1-1-1-1.5-1.5-1-1-1-1l-.5-1.5-.5-1.5h-1.5-1.5l-1.5 39.5-1.5 39.5v27 27l1 27.5 1 27.5-1 26-1 26 1 24.5 1 24.5-7 20-7 20-11.5 13-11.5 13-18.5 9-18.5 9"/><path d="m345 367l3 1 1.5-.5 1.5-.5 1.5-1 1.5-1 .5-1.5.5-1.5-.5-.5-.5-.5-4-21-4-21 .5 23 .5 23-1-1.5-1-1.5-1.5-1-1.5-1v-2-2-2-2l-.5-2-.5-2v-2-2l-1.5-1-1.5-1-1-1-1-1h-1-1l.5 1 .5 1v1 1l.5 1.5.5 1.5 2 .5 2 .5-.5 1.5-.5 1.5v2.5 2.5 2 2l1 1.5 1 1.5 1 1 1 1 1 1 1 1"/></g><path d="m347 365l-1-46-.5-2-.5-2-20.5.5-20.5.5.5 1 .5 1-1 .5-1 .5h-1-1-1.5-1.5l-1.5.5-1.5.5-1.5 1-1.5 1-1 1-1 1h-2-2-1-1l-1 .5-1 .5-1 1-1 1h3 3l29.5.5 29.5.5.5 1.5.5 1.5v1 1 1.5 1.5l-1 1-1 1-1.5.5-1.5.5h-1-1l-1.5.5-1.5.5 1 1 1 1 1.5 1 1.5 1v2 2l.5 2 .5 2v2 2 2 2l1.5 1 1.5 1 1 1.5 1 1.5" style="fill:#cecabe;stroke:#cecabe"/><path d="m300 364l32-23 1-.5 1-.5h1 1l1.5-.5 1.5-.5h1 1l1.5-.5 1.5-.5 1-1 1-1v-1.5-1.5-1-1l-.5-1.5-.5-1.5-2-.5-2-.5h-27.5-27.5-3-3l-2 .5-2 .5h-1.5-1.5l15.5-6 15.5-6 20.5-.5 20.5-.5h.5.5l-10.5-16.5-10.5-16.5-23.5 4-23.5 4-13.5 13.5-13.5 13.5 3 17.5 3 17.5 18.5 3.5 18.5 3.5 3 2.5 3 2.5" style="fill:#211d21;stroke:#211d21"/><path d="m354 361l1 1-4-22.5-4-22.5-.5-1-.5-1h-.5-.5l.5 2 .5 2 4 21 4 21" style="fill:#f2eed1;stroke:#f2eed1"/><path d="m303 360l30-25-18.5-2.5-18.5-2.5-15.5 10.5-15.5 10.5 19 4.5 19 4.5" style="fill:#0c0800;stroke:#0c0800"/><path d="m225 356l1 1v-29.5-29.5l-.5 1-.5 1v2.5 2.5 2 2 2 2h-.5-.5v1.5 1.5 2 2 2 2 1 1 1.5 1.5 2 2 1 1 1.5 1.5 2 2 2 2l.5 2.5.5 2.5v2.5 2.5" style="fill:#cecabe;stroke:#cecabe"/><path d="m223 352l1-1v-2-2-.5-.5-2-2-2-2-1.5-1.5-1-1-2-2-1.5-1.5-1-1-2-2-2-2-1.5-1.5l-1 1.5-1 1.5.5 18 .5 18" style="fill:#928e80;stroke:#928e80"/><path d="m433 345l36-9-15-9-15-9-12.5 6.5-12.5 6.5 9.5 7 9.5 7" style="fill:#0c0800;stroke:#0c0800"/><path d="m431 343l3 1 1-1 1-1v-2.5-2.5l-.5-1.5-.5-1.5-1.5-1-1.5-1-1 1-1 1-.5 2-.5 2v2 2l1 .5 1 .5" style="fill:#383429;stroke:#383429"/><path d="m481 336l-16-31-20 2-20 2-8.5 6.5-8.5 6.5 20.5-3 20.5-3 16 10 16 10" style="fill:#cecabe;stroke:#cecabe"/><path d="m258 329l37-18 22.5-1.5 22.5-1.5-18-9-18-9-19.5 9-19.5 9-3.5 10.5-3.5 10.5" style="fill:#0c0800;stroke:#0c0800"/><path d="m273 328h3l2-.5 2-.5 1-1 1-1 1-.5 1-.5h1 1 2 2l1-1 1-1 1.5-1 1.5-1 1.5-.5 1.5-.5h1.5 1.5 1 1l1-.5 1-.5-.5-1-.5-1-15.5 6-15.5 6" style="fill:#f2eed1;stroke:#f2eed1"/><g style="fill:#b4b08e;stroke:#b4b08e"><path d="m341 327l4 1-29.5-.5-29.5-.5h27.5 27.5"/><path d="m149 313v1l11-12 11-12v2 2 1 1l-1 .5-1 .5v1 1l-.5.5-.5.5v1 1l-1 .5-1 .5-.5.5-.5.5-.5.5-.5.5-.5.5-.5.5-.5.5-.5.5h-1-1l-1-.5-1-.5-.5.5-.5.5h-1-1l-.5.5-.5.5-1 .5-1 .5-.5.5-.5.5-.5.5-.5.5-.5 1-.5 1"/></g><path d="m399 301l50-5 16.5-.5 16.5-.5-21-8-21-8-24.5 4-24.5 4 4 7 4 7" style="fill:#0c0800;stroke:#0c0800"/><path d="m639 290l1 1 .5-46 .5-46-1-27-1-27-1.5-26-1.5-26 2-26.5 2-26.5-2 51-2 51 1.5 26 1.5 26-1.5 23.5-1.5 23.5 1.5 25.5 1.5 25.5" style="fill:#f2eed1;stroke:#f2eed1"/><path d="m316 187l9-37-3 11-3 11-.5-1.5-.5-1.5-.5-.5-.5-.5-.5-.5-.5-.5.5-1 .5-1 .5-.5.5-.5.5-.5.5-.5v-1-1l.5-.5.5-.5v-1.5-1.5-1-1-1-1-1.5-1.5l-.5 2.5-.5 2.5-.5 2-.5 2-1 1-1 1-.5 1.5-.5 1.5.5 2 .5 2 1 1 1 1v2.5 2.5 2 2l-.5 2-.5 2-1 1-1 1 .5 1 .5 1" style="fill:#211d21;stroke:#211d21"/><path d="m319 172l6-22-.5-1-.5-1-1.5-.5-1.5-.5-.5 1.5-.5 1.5v1.5 1.5 1 1 1 1 1.5 1.5l-.5.5-.5.5v1 1l-.5.5-.5.5-.5.5-.5.5-.5 1-.5 1 .5.5.5.5.5.5.5.5.5 1.5.5 1.5" style="fill:#383429;stroke:#383429"/><path d="m718 126l1-54v-29-29l-.5 15.5-.5 15.5v28.5 28.5 12 12" style="fill:#f2eed1;stroke:#f2eed1"/><g style="fill:#211d21;stroke:#211d21"><path d="m266 115l3 1h2 2l1.5-1 1.5-1 .5-1.5.5-1.5-1-1.5-1-1.5-1.5-.5-1.5-.5h-2.5-2.5l-1.5.5-1.5.5-.5 1.5-.5 1.5.5 2 .5 2h1 1"/><path d="m447 110l-12-23-24-5-24-5-4 7-4 7 23 5.5 23 5.5 11 4 11 4"/></g><path d="m436 101l3 1h2 2l-.5-1-.5-1-1-1-1-1-1.5-1-1.5-1-1-1-1-1-1-1.5-1-1.5-1.5-.5-1.5-.5-1-1-1-1v-1-1h-24.5-24.5l2.5.5 2.5.5v.5.5l23.5 5.5 23.5 5.5h1.5 1.5l1 1 1 1" style="fill:#cecabe;stroke:#cecabe"/><path d="m428 98l3 1-23.5-5.5-23.5-5.5 22 5 22 5" style="fill:#b4b08e;stroke:#b4b08e"/><g style="fill:#f2eed1;stroke:#f2eed1"><path d="m235 97l4 1 21-1.5 21-1.5h-21-21l.5-1 .5-1v-3.5-3.5l-1 .5-1 .5-.5 2-.5 2-.5 1.5-.5 1.5-.5 1.5-.5 1.5"/><path d="m281 97l3 1h1.5 1.5v-.5-.5-.5-.5l1.5-47 1.5-47-3.5 24-3.5 24-1 23.5-1 23.5v.5.5"/></g><g style="fill:#e1dde1;stroke:#e1dde1"><path d="m235 96v1l.5-1.5.5-1.5.5-1.5.5-1.5.5-2 .5-2 1-.5 1-.5.5-2 .5-2v-1-1-1-1-1-1-1.5-1.5-1-1-1.5-1.5l-.5-.5-.5-.5v-33.5-33.5h-.5-.5l-2 48-2 48"/><path d="m287 96v1l3-48 3-48h-1.5-1.5v.5.5l-1.5 48-1.5 48"/></g><path d="m239 95h42v.5.5l1-23.5 1-23.5 3.5-24 3.5-24v-.5-.5h-24.5-24.5v34 34 1.5 1.5 1 1 1.5 1.5 1 1 1 1 1 1l-.5 2-.5 2v3.5 3.5l-.5 1-.5 1" style="fill:#fffff6;stroke:#fffff6"/><path d="m376 85l3 1h24.5 24.5l-23-1-23-1-3 .5-3 .5" style="fill:#9e9aa4;stroke:#9e9aa4"/><path d="m240 67l1 1v-34-34h-.5-.5v33.5 33.5" style="fill:#f2eed1;stroke:#f2eed1"/><g style="fill:#b4b08e;stroke:#b4b08e"><path d="m315 63v1l20-8 20-8-20 7.5-20 7.5"/><path d="m415 53l2 1h1.5 1.5l-26.5-3-26.5-3 24 2.5 24 2.5"/></g></g></svg>