<svg xmlns="http://www.w3.org/2000/svg" viewBox="0 0 960 576"><g style="fill:#3b1d07"><path d="m0 0h960v576h-960z"/><path d="m959 576h1v-1.5-1.5-2-2-1-1h-.5-.5l-1 2-1 2-1 1-1 1-2 1.5-2 1.5h1.5 1.5 2 2 .5.5" style="stroke:#3b1d07;stroke-linejoin:round;stroke-width:.7"/></g><g style="stroke-linejoin:round;stroke-width:.7"><path d="m959 567h1v-15-15-15.5-15.5-15.5-15.5-15.5-15.5-8.5-8.5h-.5-.5l-15 .5-15 .5-13 .5-13 .5-14.5.5-14.5.5-12.5 1-12.5 1-12.5 1-12.5 1-11.5 2-11.5 2-12 3-12 3-11 2.5-11 2.5h5.5 5.5 12.5 12.5l14 1 14 1h13.5 13.5l10 2.5 10 2.5 12-1.5 12-1.5 4.5 5.5 4.5 5.5 8 4.5 8 4.5-7 6.5-7 6.5-11 2.5-11 2.5-11 2.5-11 2.5-12.5 2.5-12.5 2.5-11.5 2-11.5 2-12 1.5-12 1.5-11 2.5-11 2.5-11.5 3.5-11.5 3.5-10.5 3-10.5 3-10.5 3-10.5 3 4 .5 4 .5 13.5-1.5 13.5-1.5h12.5 12.5l12.5-1 12.5-1h12.5 12.5l13.5-1.5 13.5-1.5 12.5-1 12.5-1 11.5-2 11.5-2 12-1.5 12-1.5 13.5.5 13.5.5 10.5 3 10.5 3-6.5 5-6.5 5 2 8.5 2 8.5-.5 5.5-.5 5.5-7.5 7.5-7.5 7.5h3 3 2 2 2 2 2.5 2.5 1 1l2-1.5 2-1.5 1-1 1-1 1-2 1-2" style="fill:#190f00;stroke:#190f00"/><path d="m959 427h1v-1.5-1.5-2-2-1-1h-.5-.5l-11.5 2.5-11.5 2.5-12 1.5-12 1.5-12 .5-12 .5-13 1-13 1-12.5 1-12.5 1-12 1.5-12 1.5-14 .5-14 .5-13.5.5-13.5.5-12.5 1-12.5 1-12.5 1-12.5 1-13.5 1-13.5 1-13 1-13 1-12.5 1-12.5 1-12.5 1-12.5 1-13 1.5-13 1.5-11.5-.5-11.5-.5-12.5 1-12.5 1-6.5 4-6.5 4-6-1.5-6-1.5-11 .5-11 .5-12.5 1.5-12.5 1.5-12 1.5-12 1.5-11.5 2-11.5 2-13.5 1-13.5 1-13 1-13 1-12 1.5-12 1.5-12 1.5-12 1.5-13 .5-13 .5-11.5.5-11.5.5-10-1.5-10-1.5-8.5-2-8.5-2 5.5-1 5.5-1 5.5-7.5 5.5-7.5 11.5-2 11.5-2 12.5-1 12.5-1 13-1.5 13-1.5 13-1 13-1 12.5-1 12.5-1 12-1.5 12-1.5 13-1.5 13-1.5 12-2 12-2 12-1.5 12-1.5-2 2.5-2 2.5 12.5-1 12.5-1 12-2 12-2 12-1.5 12-1.5 12-1.5 12-1.5 14-.5 14-.5 13-1 13-1 10-.5 10-.5 12-1.5 12-1.5 12.5-2 12.5-2 12-2 12-2 12-1.5 12-1.5 12.5-1 12.5-1 13.5-1 13.5-1 12.5-1.5 12.5-1.5 13-.5 13-.5 10.5-1 10.5-1 12 .5 12 .5 13-1 13-1 13-.5 13-.5h13 13v-3-3-2.5-2.5-2-2-2.5-2.5-2-2-.5-.5h-.5-.5l-13 1.5-13 1.5-12 1.5-12 1.5-12 1.5-12 1.5-13.5 2-13.5 2-14 1.5-14 1.5-14 1.5-14 1.5-13.5 2-13.5 2-12 1.5-12 1.5-14.5 1-14.5 1-13 1.5-13 1.5-14.5 1-14.5 1-14.5 1-14.5 1-12.5 1-12.5 1-14 1-14 1-22 1-22 1h-1.5-1.5-1-1-1.5-1.5-2-2-1-1l-1 .5-1 .5h-2-2-2.5-2.5l-1.5.5-1.5.5h-2.5-2.5-2-2l-1.5.5-1.5.5-.5.5-.5.5-13.5 1-13.5 1-12.5 1-12.5 1-12.5 1-12.5 1-12.5 1.5-12.5 1.5-13 1.5-13 1.5-12.5 1-12.5 1-12 1.5-12 1.5-12.5 1.5-12.5 1.5-12 1.5-12 1.5-13 1.5-13 1.5-12 1.5-12 1.5-13 1-13 1-12.5 1-12.5 1-13 1.5-13 1.5-12.5 1-12.5 1-12 2-12 2-12 1.5-12 1.5-12.5-1-12.5-1-9-4.5-9-4.5-3.5-8.5-3.5-8.5-12-8-12-8v14.5 14.5 12.5 12.5l12-2.5 12-2.5 11.5.5 11.5.5 12-1.5 12-1.5 12-1.5 12-1.5 11.5-2 11.5-2 13-1.5 13-1.5 12.5-1 12.5-1v.5.5l-12.5 1.5-12.5 1.5-13 1.5-13 1.5-11.5 2-11.5 2-11.5 2-11.5 2-8.5 2.5-8.5 2.5 13-1.5 13-1.5 12.5-1 12.5-1 12-.5 12-.5 1 1 1 1-13 1.5-13 1.5-11.5 2-11.5 2-11.5 2-11.5 2-.5 3.5-.5 3.5 9.5 4 9.5 4 7.5-1 7.5-1 11-1 11-1 5.5-6 5.5-6 10-.5 10-.5h10.5 10.5l5.5-.5 5.5-.5 2.5 9 2.5 9-11.5 3-11.5 3-12 1.5-12 1.5-13 2-13 2-9 4.5-9 4.5-11 2.5-11 2.5-11.5 2-11.5 2-23.5 3.5-23.5 3.5v1.5 1.5 2.5 2.5 1.5 1.5h1.5 1.5 1 1 1 1 1.5 1.5 2 2l.5-.5.5-.5h1.5 1.5 3 3 1.5 1.5 2 2l2-.5 2-.5h2 2 2 2 2 2l-7-1-7-1-13 .5-13 .5 9.5-2.5 9.5-2.5 10.5-3 10.5-3 11-2.5 11-2.5 11-2.5 11-2.5 13-2 13-2 12-1.5 12-1.5 12.5-1 12.5-1-12.5 2.5-12.5 2.5-11 2.5-11 2.5-10 3.5-10 3.5-10 3.5-10 3.5 9.5-1.5 9.5-1.5 1-1 1-1h2 2l2-.5 2-.5 1-.5 1-.5 11.5-2.5 11.5-2.5 10.5-2 10.5-2 11-2.5 11-2.5 12.5-3 12.5-3 13-2.5 13-2.5 6-.5 6-.5-12.5 3-12.5 3-11 2.5-11 2.5-12.5 2.5-12.5 2.5-8 3.5-8 3.5 12-1.5 12-1.5 12.5-1 12.5-1 13.5-1.5 13.5-1.5 12.5-1 12.5-1 12.5-1 12.5-1 11.5-2 11.5-2 13-2 13-2 2-1.5 2-1.5 11-2.5 11-2.5h.5.5l12-2 12-2 11.5-2 11.5-2 19-1.5 19-1.5-12 2.5-12 2.5-15.5 3.5-15.5 3.5 23-2.5 23-2.5h.5.5l13 6.5 13 6.5v1.5 1.5l-.5 2-.5 2v1.5 1.5l-.5 2-.5 2v2 2l-.5 2-.5 2v1.5 1.5l1-1 1-1 1 .5 1 .5-.5 1.5-.5 1.5.5.5.5.5-.5.5-.5.5v1 1 1 1 1.5 1.5l-1 1.5-1 1.5.5 1.5.5 1.5.5 2 .5 2v2 2 1.5 1.5l-.5 2-.5 2v1 1 1.5 1.5l.5 2 .5 2v2 2l-.5 1.5-.5 1.5-.5.5-.5.5h2 2l-.5-12.5-.5-12.5 1-12.5 1-12.5 3.5-10 3.5-10 1-7.5 1-7.5 6.5-6.5 6.5-6.5 11.5-2 11.5-2 11.5-2 11.5-2 12-1.5 12-1.5 13.5-1.5 13.5-1.5 12-1.5 12-1.5h13.5 13.5l12.5 5 12.5 5-4 11.5-4 11.5-1.5 12-1.5 12-2.5 13-2.5 13-4.5 16-4.5 16h1.5 1.5 2 2 2.5 2.5 2 2 .5.5l15.5-11 15.5-11 12-2.5 12-2.5 11-3 11-3 11-2.5 11-2.5 12-2.5 12-2.5 21-1 21-1-12.5 2.5-12.5 2.5-11.5 2-11.5 2-11.5 2.5-11.5 2.5-12 2.5-12 2.5-19.5 2-19.5 2-2 6.5-2 6.5 11.5 4.5 11.5 4.5h15 15 13.5 13.5 15.5 15.5 3 3l4.5-7 4.5-7 10.5-3 10.5-3 11.5-2.5 11.5-2.5 12.5-1 12.5-1 9.5 7 9.5 7-.5 1-.5 1h-1-1v1 1h-1.5-1.5l-.5.5-.5.5h-1-1l-.5.5-.5.5-1 .5-1 .5h-1-1l-.5.5-.5.5-.5.5-.5.5-1 .5-1 .5h-1-1l-.5.5-.5.5.5 1 .5 1h15 15 13.5 13.5 3 3l7.5-7.5 7.5-7.5.5-5.5.5-5.5-2-8.5-2-8.5 6.5-5 6.5-5-10.5-3-10.5-3-13.5-.5-13.5-.5-12 1.5-12 1.5-11.5 2-11.5 2-12.5 1-12.5 1-13.5 1.5-13.5 1.5h-12.5-12.5l-12.5 1-12.5 1h-12.5-12.5l-13.5 1.5-13.5 1.5-4-.5-4-.5 10.5-3 10.5-3 10.5-3 10.5-3 11.5-3.5 11.5-3.5 11-2.5 11-2.5 12-1.5 12-1.5 11.5-2 11.5-2 12.5-2.5 12.5-2.5 11-2.5 11-2.5 11-2.5 11-2.5 7-6.5 7-6.5-8-4.5-8-4.5-4.5-5.5-4.5-5.5-12 1.5-12 1.5-10-2.5-10-2.5h-13.5-13.5l-14-1-14-1h-12.5-12.5-5.5-5.5l11-2.5 11-2.5 12-3 12-3 11.5-2 11.5-2 12.5-1 12.5-1 12.5-1 12.5-1 14.5-.5 14.5-.5 13-.5 13-.5 15-.5 15-.5" style="fill:#3b1d07;stroke:#3b1d07"/><g style="fill:#58270b;stroke:#58270b"><path d="m959 418h1v-1.5-1.5-2-2-2.5-2.5-2-2-2.5-2.5-2-2h-13-13l-13 .5-13 .5-13 1-13 1-12-.5-12-.5-10.5 1-10.5 1-13 .5-13 .5-12.5 1.5-12.5 1.5-13.5 1-13.5 1-12.5 1-12.5 1-12 1.5-12 1.5-12 2-12 2-12.5 2-12.5 2-12 1.5-12 1.5-10 .5-10 .5-13 1-13 1-14 .5-14 .5-12 1.5-12 1.5-12 1.5-12 1.5-12 2-12 2-12.5 1-12.5 1 2-2.5 2-2.5-12 1.5-12 1.5-12 2-12 2-13 1.5-13 1.5-12 1.5-12 1.5-12.5 1-12.5 1-13 1-13 1-13 1.5-13 1.5-12.5 1-12.5 1-11.5 2-11.5 2-5.5 7.5-5.5 7.5-5.5 1-5.5 1 8.5 2 8.5 2 10 1.5 10 1.5 11.5-.5 11.5-.5 13-.5 13-.5 12-1.5 12-1.5 12-1.5 12-1.5 13-1 13-1 13.5-1 13.5-1 11.5-2 11.5-2 12-1.5 12-1.5 12.5-1.5 12.5-1.5 11-.5 11-.5 6 1.5 6 1.5 6.5-4 6.5-4 12.5-1 12.5-1 11.5.5 11.5.5 13-1.5 13-1.5 12.5-1 12.5-1 12.5-1 12.5-1 13-1 13-1 13.5-1 13.5-1 12.5-1 12.5-1 12.5-1 12.5-1 13.5-.5 13.5-.5 14-.5 14-.5 12-1.5 12-1.5 12.5-1 12.5-1 13-1 13-1 12-.5 12-.5 12-1.5 12-1.5 11.5-2.5 11.5-2.5"/><path d="m959 368h1v-1.5-1.5-2-2-2.5-2.5h-.5-.5l-13 2-13 2-9 1.5-9 1.5-12.5 3-12.5 3-14 .5-14 .5-14 1.5-14 1.5-11.5-1-11.5-1 9.5-4 9.5-4 11.5-3.5 11.5-3.5 8.5-4 8.5-4 7.5-5 7.5-5 7-5.5 7-5.5 6.5-5.5 6.5-5.5v-8.5-8.5l-9-3.5-9-3.5 7-3.5 7-3.5 3-10 3-10-8-5.5-8-5.5 4-6.5 4-6.5-10-2.5-10-2.5-12-3-12-3-2.5-8-2.5-8 8.5-5 8.5-5 7.5-4 7.5-4 6-7 6-7-2.5-10-2.5-10-4.5-2-4.5-2 4.5-8 4.5-8-3.5-10.5-3.5-10.5-5.5-7-5.5-7-8-5.5-8-5.5-9 2.5-9 2.5-9 6-9 6-11-2.5-11-2.5-8.5-5-8.5-5-5-6.5-5-6.5-1.5-9.5-1.5-9.5-10 .5-10 .5-10.5 2-10.5 2-9-4.5-9-4.5-9.5-5.5-9.5-5.5-1-8.5-1-8.5-4-8.5-4-8.5h13.5 13.5l14.5.5 14.5.5 11.5 1 11.5 1 11 .5 11 .5 12.5 1 12.5 1 12 3 12 3h8.5 8.5l.5-5 .5-5h-3.5-3.5l-13-1-13-1-13-.5-13-.5-11 .5-11 .5-9.5-1-9.5-1-15.5-1-15.5-1-.5.5-.5.5-1.5.5-1.5.5h-2-2l-2-.5-2-.5h-2-2l-1.5.5-1.5.5h-1-1-1.5-1.5l-1.5.5-1.5.5h-1-1-1.5-1.5-2-2l-1.5-.5-1.5-.5h-.5-.5l-12.5 1.5-12.5 1.5-13 .5-13 .5-12 1.5-12 1.5-15 3-15 3 12.5 1.5 12.5 1.5 12.5 1.5 12.5 1.5 13 7 13 7 2 1 2 1 1.5 1 1.5 1 1.5.5 1.5.5 1-1.5 1-1.5.5 1.5.5 1.5 2 .5 2 .5v1 1l-1.5.5-1.5.5v1 1l-1 .5-1 .5h-1-1l-.5.5-.5.5-.5.5-.5.5-1 .5-1 .5-1 1-1 1h-1-1l-1-.5-1-.5-1.5.5-1.5.5 7.5 5.5 7.5 5.5 7.5 3 7.5 3 4 8.5 4 8.5 5 6.5 5 6.5h8.5 8.5l8.5-4.5 8.5-4.5 4 5.5 4 5.5-7.5 1-7.5 1 .5 6 .5 6 9 1 9 1h9.5 9.5l9.5 1 9.5 1 9 3.5 9 3.5 11.5 8 11.5 8-8.5 5.5-8.5 5.5-1 9.5-1 9.5-7.5 6-7.5 6-2.5 9.5-2.5 9.5-3 8.5-3 8.5 6 4.5 6 4.5 1.5 4 1.5 4-6.5 8.5-6.5 8.5h-9.5-9.5l-3.5 7-3.5 7 6.5 7 6.5 7 7 8 7 8-.5 6-.5 6 10 3.5 10 3.5-10.5 3-10.5 3-11.5 3.5-11.5 3.5-12 1.5-12 1.5-10.5 3-10.5 3-10.5 3-10.5 3-13.5 1.5-13.5 1.5-10.5 1-10.5 1-12 1.5-12 1.5-11.5 2-11.5 2-12.5 2.5-12.5 2.5-12 1.5-12 1.5-7.5 4-7.5 4 8 4.5 8 4.5 13.5-.5 13.5-.5 12-.5 12-.5h13.5 13.5l12-.5 12-.5 14-1 14-1 12.5 1 12.5 1 11-1.5 11-1.5-8.5 2-8.5 2-13 1-13 1-11.5 2-11.5 2-12 1.5-12 1.5-12.5 1-12.5 1-14 1-14 1-20.5 1.5-20.5 1.5 22-1 22-1 14-1 14-1 12.5-1 12.5-1 14.5-1 14.5-1 14.5-1 14.5-1 13-1.5 13-1.5 14.5-1 14.5-1 12-1.5 12-1.5 13.5-2 13.5-2 14-1.5 14-1.5 14-1.5 14-1.5 13.5-2 13.5-2 12-1.5 12-1.5 12-1.5 12-1.5 13-1.5 13-1.5"/></g><path d="m959 356h1v-15-15-15.5-15.5-15.5-15.5-15.5-15.5-1.5-1.5h-.5-.5v2 2 2 2 2.5 2.5 2 2l-.5 1.5-.5 1.5v-3-3-2-2-2.5-2.5-2-2-2.5-2.5-3-3l-6-8.5-6-8.5-1-8.5-1-8.5-3-10-3-10-3.5-7-3.5-7-2-9.5-2-9.5.5-9 .5-9-7.5-6.5-7.5-6.5-4-8.5-4-8.5-5.5 2-5.5 2 8-3.5 8-3.5h8.5 8.5l11.5 6 11.5 6-7-7.5-7-7.5-2-2.5-2-2.5 12.5 8 12.5 8v-2.5-2.5l.5-1.5.5-1.5-1.5-1-1.5-1-.5-1.5-.5-1.5-2-.5-2-.5-1-1-1-1-1-.5-1-.5-.5-.5-.5-.5-1-.5-1-.5-.5-.5-.5-.5-.5-.5-.5-.5-.5-.5-.5-.5-1-.5-1-.5-.5-.5-.5-.5-.5-1-.5-1-7-6-7-6-8.5-6-8.5-6-8-5.5-8-5.5-8.5-5.5-8.5-5.5-8.5-5-8.5-5-7-1.5-7-1.5-1 5.5-1 5.5-13-1-13-1-13-.5-13-.5-13.5-1-13.5-1-18.5-.5-18.5-.5 1.5.5 1.5.5h1.5 1.5 2 2l.5.5.5.5-13-.5-13-.5-14 .5-14 .5 2.5.5 2.5.5h2.5 2.5 2 2 2.5 2.5 2 2 2 2 2.5 2.5 2 2 3.5 3.5l15.5 1 15.5 1 9.5 1 9.5 1 11-.5 11-.5 13 .5 13 .5 13 1 13 1h3.5 3.5l-.5 5-.5 5h-8.5-8.5l-12-3-12-3-12.5-1-12.5-1-11-.5-11-.5-11.5-1-11.5-1-14.5-.5-14.5-.5h-13.5-13.5l4 8.5 4 8.5 1 8.5 1 8.5 9.5 5.5 9.5 5.5 9 4.5 9 4.5 10.5-2 10.5-2 10-.5 10-.5 1.5 9.5 1.5 9.5 5 6.5 5 6.5 8.5 5 8.5 5 11 2.5 11 2.5 9-6 9-6 9-2.5 9-2.5 8 5.5 8 5.5 5.5 7 5.5 7 3.5 10.5 3.5 10.5-4.5 8-4.5 8 4.5 2 4.5 2 2.5 10 2.5 10-6 7-6 7-7.5 4-7.5 4-8.5 5-8.5 5 2.5 8 2.5 8 12 3 12 3 10 2.5 10 2.5-4 6.5-4 6.5 8 5.5 8 5.5-3 10-3 10-7 3.5-7 3.5 9 3.5 9 3.5v8.5 8.5l-6.5 5.5-6.5 5.5-7 5.5-7 5.5-7.5 5-7.5 5-8.5 4-8.5 4-11.5 3.5-11.5 3.5-9.5 4-9.5 4 11.5 1 11.5 1 14-1.5 14-1.5 14-.5 14-.5 12.5-3 12.5-3 9-1.5 9-1.5 13-2 13-2" style="fill:#3b1d07;stroke:#3b1d07"/><path d="m959 230h1v-15-15-15.5-15.5-15.5-15.5-5-5h-.5-.5v14 14l-.5 19-.5 19v-14-14-19.5-19.5l-1.5-1.5-1.5-1.5-.5-1.5-.5-1.5-1-1.5-1-1.5-.5-1.5-.5-1.5 1.5.5 1.5.5 1.5 1 1.5 1 .5-1.5.5-1.5.5-1 .5-1v2 2l.5 1.5.5 1.5v-2.5-2.5-2.5-2.5-2-2-1.5-1.5h-.5-.5l-.5-1-.5-1-1.5-.5-1.5-.5-.5-1-.5-1-2-2-2-2-11.5-6-11.5-6h-8.5-8.5l-8 3.5-8 3.5 5.5-2 5.5-2 4 8.5 4 8.5 7.5 6.5 7.5 6.5-.5 9-.5 9 2 9.5 2 9.5 3.5 7 3.5 7 3 10 3 10 1 8.5 1 8.5 6 8.5 6 8.5v-1.5-1.5-1-1-1.5-1.5-2-2l.5.5.5.5v1.5 1.5 2 2 1 1 1 1 1 1 1.5 1.5 2.5 2.5" style="fill:#190f00;stroke:#190f00"/><path d="m959 128h1v-1.5-1.5-2-2-.5-.5l-.5-1.5-.5-1.5v-2-2l-.5 1-.5 1-.5 1.5-.5 1.5-1.5-1-1.5-1-1.5-.5-1.5-.5.5 1.5.5 1.5 1 1.5 1 1.5.5 1.5.5 1.5 1.5 1.5 1.5 1.5.5.5.5.5" style="fill:#3b1d07;stroke:#3b1d07"/><path d="m959 103h1v-1.5-1.5-2-2-2.5-2.5-2-2-2.5-2.5-2-2-2.5-2.5-2-2-2-2h-.5-.5v1.5 1.5 2.5 2.5l-.5 2-.5 2h-.5-.5l-6.5-6.5-6.5-6.5-12.5-9-12.5-9-1-.5-1-.5-1-.5-1-.5-1-1-1-1-.5-.5-.5-.5-1-.5-1-.5-.5-1.5-.5-1.5-1.5-.5-1.5-.5h-1-1l-1-.5-1-.5-1-1-1-1-.5-.5-.5-.5-.5-1-.5-1-1.5-.5-1.5-.5-.5-.5-.5-.5-1-.5-1-.5h-.5-.5l-1-.5-1-.5-1.5-1-1.5-1-1-1-1-1-1-1-1-1-.5-.5-.5-.5-1-.5-1-.5-1.5-.5-1.5-.5-.5-.5-.5-.5-1.5-1-1.5-1-1.5-.5-1.5-.5-1-.5-1-.5-1-1-1-1-1.5-.5-1.5-.5-.5-.5-.5-.5-1-.5-1-.5-.5-1-.5-1-1.5-.5-1.5-.5-1.5-1-1.5-1-2.5-1-2.5-1h-1.5-1.5-2.5-2.5-2-2-.5-.5v1 1l1 1 1 1 1 .5 1 .5 1 1.5 1 1.5 1 1 1 1v1 1l-13.5-.5-13.5-.5-13-.5-13-.5-22.5-1-22.5-1h-.5-.5-1.5-1.5-1-1-1.5-1.5l-.5.5-.5.5h-1.5-1.5-2-2-2.5-2.5-2-2-2.5-2.5-2-2-2.5-2.5-2-2-1.5-1.5-1.5-1.5-2-2-1-1-2-2-.5-.5-2.5-2.5-2-2-1-1-1.5-1.5-2-2-1-1-1.5-1.5-2-2-1-1-1.5-1.5-2.5-2.5v.5.5h2 2 1 1 1 1 1 1 1.5 1.5 1 1 1.5 1.5 15 15 14.5 14.5l18.5.5 18.5.5 13.5 1 13.5 1 13 .5 13 .5 13 1 13 1 1-5.5 1-5.5 7 1.5 7 1.5 8.5 5 8.5 5 8.5 5.5 8.5 5.5 8 5.5 8 5.5 8.5 6 8.5 6 7 6 7 6-.5-1-.5-1 .5-.5.5-.5 1 .5 1 .5 1 1 1 1 .5.5.5.5 1 .5 1 .5 1 1 1 1 .5.5.5.5 1 .5 1 .5 1 1 1 1v1 1h-1-1l1 1 1 1 2 .5 2 .5.5 1.5.5 1.5 1.5 1 1.5 1-.5 1.5-.5 1.5v2.5 2.5l-.5 1-.5 1-1.5-1.5-1.5-1.5-.5 1.5-.5 1.5.5 1.5.5 1.5 1.5 1 1.5 1-1 .5-1 .5.5 1 .5 1 1.5.5 1.5.5.5 1 .5 1" style="fill:#3a3529;stroke:#3a3529"/><path d="m959 65h1v-15-15-14.5-14.5h-.5-.5l-12-.5-12-.5h-12.5-12.5-26-26l.5 1 .5 1 1 .5 1 .5.5.5.5.5 1.5.5 1.5.5 1 1 1 1 1 .5 1 .5 1.5.5 1.5.5h1.5 1.5l.5.5.5.5 1 .5 1 .5h1 1l.5.5.5.5.5.5.5.5 1 .5 1 .5.5.5.5.5.5.5.5.5.5.5.5.5 1 .5 1 .5 1 1 1 1 .5 1 .5 1 1 .5 1 .5.5.5.5.5 1.5.5 1.5.5.5 1 .5 1 .5.5.5.5 1 1 1 1 1 .5 1 .5h1 1l1.5.5 1.5.5.5 1.5.5 1.5 1 .5 1 .5.5.5.5.5 1 1 1 1 1 .5 1 .5 1 .5 1 .5 5-9 5-9 4-9.5 4-9.5 10.5 1 10.5 1-3.5 10-3.5 10-2.5 10-2.5 10 6 13 6 13 .5-2 .5-2v-2.5-2.5-1.5-1.5" style="fill:#caad84;stroke:#caad84"/><path d="m959 6h1v-1.5-1.5h-.5-.5-15-15-13.5-13.5l-23.5.5-23.5.5 1.5.5 1.5.5h26 26 12.5 12.5l12 .5 12 .5" style="fill:#dbd7ca;stroke:#dbd7ca"/><path d="m959 3h1v-1.5-1.5h-13.5-13.5-15.5-15.5-15.5-15.5-12-12l2.5 1 2.5 1 1.5 1 1.5 1 23.5-.5 23.5-.5h13.5 13.5 15 15" style="fill:#fff9d7;stroke:#fff9d7"/><g style="fill:#3a3529;stroke:#3a3529"><path d="m958 341l1-30v-15.5-15.5l-.5-10-.5-10v15.5 15.5 15.5 15.5 9.5 9.5"/><path d="m958 250l1-3v-2-2-2.5-2.5-2-2-2-2-2.5-2.5-1.5-1.5-1-1-1-1-1-1-2-2-1.5-1.5l-.5-.5-.5-.5v2 2 1.5 1.5 1 1 1.5 1.5 3 3 2.5 2.5 2 2 2.5 2.5 2 2 3 3"/><path d="m958 194l1-38v-14-14l-.5-.5-.5-.5v19.5 19.5 14 14"/></g><path d="m957 77h1l-6-13-6-13 2.5-10 2.5-10 3.5-10 3.5-10-10.5-1-10.5-1-4 9.5-4 9.5-5 9-5 9 12.5 9 12.5 9 6.5 6.5 6.5 6.5" style="fill:#c19b67;stroke:#c19b67"/><path d="m956 92l1-2-12.5-8-12.5-8 2 2.5 2 2.5 7 7.5 7 7.5 2 2 2 2 1-.5 1-.5-1.5-1-1.5-1-.5-1.5-.5-1.5.5-1.5.5-1.5 1.5 1.5 1.5 1.5" style="fill:#58270b;stroke:#58270b"/><path d="m950 74v-2l-1-1-1-1-1-.5-1-.5-.5-.5-.5-.5-1-1-1-1-1-.5-1-.5-.5-.5-.5-.5-1-1-1-1-1-.5-1-.5-.5.5-.5.5.5 1 .5 1 .5 1 .5 1 .5.5.5.5 1 .5 1 .5.5.5.5.5.5.5.5.5.5.5.5.5 1 .5 1 .5.5.5.5.5 1 .5 1 .5h1 1" style="fill:#5a3e24;stroke:#5a3e24"/><path d="m925 67l-16-13 5 4.5 5 4.5 3 2 3 2" style="fill:#190f00;stroke:#190f00"/><path d="m891 27h1l-.5-1-.5-1-1-1-1-1-1-.5-1-.5-.5-.5-.5-.5-.5-.5-.5-.5-.5-.5-.5-.5-1-.5-1-.5-.5-.5-.5-.5-.5-.5-.5-.5h-1-1l-1-.5-1-.5-.5-.5-.5-.5h-1.5-1.5l1.5 1 1.5 1 .5.5.5.5 1.5.5 1.5.5 1 .5 1 .5.5.5.5.5 1 1 1 1 1 1 1 1 1.5 1 1.5 1 1 .5 1 .5" style="fill:#c19b67;stroke:#c19b67"/><g style="fill:#58270b;stroke:#58270b"><path d="m887 563l-19-14-12.5 1-12.5 1-11.5 2.5-11.5 2.5-10.5 3-10.5 3-4.5 7-4.5 7h15.5 15.5 13.5 13.5 9.5 9.5l-.5-1-.5-1 .5-.5.5-.5h1 1l1-.5 1-.5.5-.5.5-.5.5-.5.5-.5h1 1l1-.5 1-.5.5-.5.5-.5h1 1l.5-.5.5-.5h1.5 1.5v-1-1h1 1l.5-1 .5-1"/><path d="m879 480l-11-18-13.5 2-13.5 2-12.5 3-12.5 3-13.5 1-13.5 1-14 1.5-14 1.5-11.5 1-11.5 1 4.5-2 4.5-2 12-3.5 12-3.5 13.5-2 13.5-2-.5-1-.5-1-13 1.5-13 1.5-8-3.5-8-3.5-14 .5-14 .5-10.5 4-10.5 4-6.5-2-6.5-2-10.5 4-10.5 4-3 9.5-3 9.5v12.5 12.5l8.5 5 8.5 5 5.5-3 5.5-3 8.5-7 8.5-7 6.5 4 6.5 4 13.5-2 13.5-2 11.5-2 11.5-2 13-2.5 13-2.5 13-2.5 13-2.5 13-2.5 13-2.5 12-3.5 12-3.5 1.5-1.5 1.5-1.5"/></g><path d="m842 12v-2l-1-1-1-1-1-1.5-1-1.5-1-.5-1-.5-.5 1-.5 1-14 .5-14 .5-13-.5-13-.5-13-.5-13-.5h-13.5-13.5-14-14-12.5-12.5l-13 .5-13 .5-19-.5-19-.5h-14.5-14.5l-19.5.5-19.5.5h14 14l17.5.5 17.5.5h-1.5-1.5-1.5-1.5-1-1-1.5-1.5-2-2-1-1-1.5-1.5-2-2-2.5-2.5-2-2-2.5-2.5-2-2l-2 .5-2 .5h14 14 13.5 13.5 20.5 20.5 2 2 3 3l14-1 14-1 25 1 25 1 22.5 1 22.5 1 13 .5 13 .5 13.5.5 13.5.5" style="fill:#caad84;stroke:#caad84"/><path d="m835 6l1-2-1-1-1-1-.5 1-.5 1-14 .5-14 .5-13-.5-13-.5h-13.5-13.5l-13-.5-13-.5-13.5-.5-13.5-.5-12.5 1-12.5 1h-10.5-10.5l-20.5-1.5-20.5-1.5-.5 2-.5 2 19 .5 19 .5 13-.5 13-.5h12.5 12.5 14 14 13.5 13.5l13 .5 13 .5 13 .5 13 .5 14-.5 14-.5" style="fill:#dbd7ca;stroke:#dbd7ca"/><path d="m833 4l1-2v-1-1h-14-14-13.5-13.5-15.5-15.5-15.5-15.5-15.5-15.5-13.5-13.5-15.5-15.5-10-10l2 .5 2 .5 20.5 1.5 20.5 1.5h10.5 10.5l12.5-1 12.5-1 13.5.5 13.5.5 13 .5 13 .5h13.5 13.5l13 .5 13 .5 14-.5 14-.5" style="fill:#fff9d7;stroke:#fff9d7"/><path d="m824 155l-23-16-9-3.5-9-3.5-9.5-1-9.5-1h-9.5-9.5l-9-1-9-1-.5-6-.5-6 7.5-1 7.5-1-4-5.5-4-5.5-8.5 4.5-8.5 4.5h-8.5-8.5l-5-6.5-5-6.5-4-8.5-4-8.5-7.5-3-7.5-3-7.5-5.5-7.5-5.5-.5-1-.5-1-.5-1-.5-1v-1.5-1.5l1.5-.5 1.5-.5 1-1.5 1-1.5v-3-3l-13-7-13-7-12.5-1.5-12.5-1.5-12.5-1.5-12.5-1.5-2-3.5-2-3.5h-8.5-8.5l-8 5-8 5 1.5-6 1.5-6h-.5-.5l-8.5 5.5-8.5 5.5 4 6.5 4 6.5 14 6.5 14 6.5-4-3.5-4-3.5 11.5 1 11.5 1 9 3.5 9 3.5 10 5 10 5 10.5 3 10.5 3 4 7.5 4 7.5 7.5 6 7.5 6 10 4 10 4 1.5 10 1.5 10 7 5.5 7 5.5 7 6.5 7 6.5 3 10 3 10 2.5 6 2.5 6 5 6.5 5 6.5 8.5 5.5 8.5 5.5-5 9-5 9-4 9-4 9-1.5 10-1.5 10-10.5 4-10.5 4-9 1.5-9 1.5.5-12.5.5-12.5-2.5-11-2.5-11-3-11.5-3-11.5-4-9.5-4-9.5-6-8-6-8-7-6.5-7-6.5-9.5-4.5-9.5-4.5 8.5 5.5 8.5 5.5 4.5 10 4.5 10 5.5 1 5.5 1 5 9 5 9-10.5 2-10.5 2-1 13.5-1 13.5-1.5 12-1.5 12-1 7-1 7 20 2.5 20 2.5-1.5 13-1.5 13-5.5 8-5.5 8-7.5 6-7.5 6-10 5-10 5-9.5 4-9.5 4-10.5 3-10.5 3-11.5 2-11.5 2-13 2-13 2-11.5 2-11.5 2h-12.5-12.5l6.5-3 6.5-3 12-3 12-3 11.5-2 11.5-2 11-1.5 11-1.5 11-2.5 11-2.5 11-4 11-4 2-3.5 2-3.5-8.5-4-8.5-4-9.5-2-9.5-2-12.5 2.5-12.5 2.5-10.5 3-10.5 3-9.5 4-9.5 4-11 2.5-11 2.5-14 1-14 1-12-1.5-12-1.5-11.5-2-11.5-2-10.5-3-10.5-3-9.5-3.5-9.5-3.5-12 1.5-12 1.5-6-6.5-6-6.5-3-10.5-3-10.5 6.5-3.5 6.5-3.5-2-13.5-2-13.5-.5-1-.5-1-1-1.5-1-1.5-.5-1.5-.5-1.5-.5-1.5-.5-1.5v-2.5-2.5-2-2-2.5-2.5-1.5-1.5l-.5-1.5-.5-1.5-.5-1.5-.5-1.5v-2-2l.5-2 .5-2v-2-2l.5-2.5.5-2.5v-2-2-3-3l-2.5 12-2.5 12-4 10-4 10 .5 13 .5 13 2 11.5 2 11.5 2.5 11 2.5 11 6 8 6 8 7.5 6 7.5 6 10 4.5 10 4.5 11 2.5 11 2.5 10.5 3.5 10.5 3.5 10.5 3 10.5 3 13 1.5 13 1.5-2 3.5-2 3.5-11.5 2.5-11.5 2.5-11 2.5-11 2.5-12 2.5-12 2.5-10.5 2-10.5 2-10 4-10 4-9 2.5-9 2.5-9.5 4-9.5 4-11 2.5-11 2.5-11.5 2.5-11.5 2.5h-12.5-12.5l-13.5-1-13.5-1h-11.5-11.5l-13.5.5-13.5.5-7.5-6-7.5-6-9-5.5-9-5.5-10-1.5-10-1.5-2.5-8.5-2.5-8.5-.5-6-.5-6 9-5.5 9-5.5 4.5-8 4.5-8 5-7 5-7-.5-6-.5-6-8.5-1-8.5-1-8.5 4-8.5 4-12 2-12 2-10.5-3-10.5-3-8-6.5-8-6.5-4-9.5-4-9.5-5-9-5-9-1.5-8-1.5-8 1-9.5 1-9.5-3-10.5-3-10.5-7-7-7-7 2-6.5 2-6.5-1.5-10-1.5-10-5.5-5-5.5-5-10.5.5-10.5.5v16 16 15.5 15.5 15.5 15.5 13.5 13.5 3.5 3.5l9.5 3.5 9.5 3.5 3.5 9 3.5 9 6 6.5 6 6.5 12.5 2.5 12.5 2.5 7.5 6 7.5 6 4.5 8 4.5 8 3 9.5 3 9.5-7 7-7 7-9.5 4-9.5 4h-10.5-10.5l-7.5 6-7.5 6 11 2 11 2h11.5 11.5l12.5-1 12.5-1 12.5 1 12.5 1 6 2.5 6 2.5-11 4-11 4-11.5 2-11.5 2-10.5 2-10.5 2 5 5.5 5 5.5 23.5 1.5 23.5 1.5 11-4.5 11-4.5 11-2.5 11-2.5 12-1.5 12-1.5h12.5 12.5l13.5-.5 13.5-.5 12.5 1 12.5 1 13 .5 13 .5 12-1.5 12-1.5 13.5-1.5 13.5-1.5 12.5-1 12.5-1 12-1.5 12-1.5 12-1.5 12-1.5 14-1 14-1 12.5-1 12.5-1 15.5-1 15.5-1 1.5-.5 1.5-.5h2 2 2.5 2.5l1.5-.5 1.5-.5h2.5 2.5 2 2l1-.5 1-.5h1 1 2 2 1.5 1.5 1 1 1.5 1.5l20.5-1.5 20.5-1.5 14-1 14-1 12.5-1 12.5-1 12-1.5 12-1.5 11.5-2 11.5-2 13-1 13-1 8.5-2 8.5-2-11 1.5-11 1.5-12.5-1-12.5-1-14 1-14 1-12 .5-12 .5h-13.5-13.5l-12 .5-12 .5-13.5.5-13.5.5-8-4.5-8-4.5 7.5-4 7.5-4 12-1.5 12-1.5 12.5-2.5 12.5-2.5 11.5-2 11.5-2 12-1.5 12-1.5 10.5-1 10.5-1 13.5-1.5 13.5-1.5 10.5-3 10.5-3 10.5-3 10.5-3 12-1.5 12-1.5 11.5-3.5 11.5-3.5 10.5-3 10.5-3-10-3.5-10-3.5.5-6 .5-6-7-8-7-8-6.5-7-6.5-7 3.5-7 3.5-7h9.5 9.5l6.5-8.5 6.5-8.5-1.5-4-1.5-4-6-4.5-6-4.5 3-8.5 3-8.5 2.5-9.5 2.5-9.5 7.5-6 7.5-6 1-9.5 1-9.5 8.5-5.5 8.5-5.5" style="fill:#763513;stroke:#763513"/><g style="fill:#58270b;stroke:#58270b"><path d="m811 531l-42 2-12 2.5-12 2.5-11 2.5-11 2.5-11 3-11 3-12 2.5-12 2.5 19.5-2 19.5-2 12-2.5 12-2.5 11.5-2.5 11.5-2.5 11.5-2 11.5-2 12.5-2.5 12.5-2.5"/><path d="m768 444h-27l-14.5 1-14.5 1-14.5 1-14.5 1-6.5 5-6.5 5 13.5-1 13.5-1 12.5-1 12.5-1 12.5-3 12.5-3 10.5-2 10.5-2"/></g><path d="m748 209l-17-11-5-6.5-5-6.5-2.5-6-2.5-6-3-10-3-10-7-6.5-7-6.5-7-5.5-7-5.5-1.5-10-1.5-10-10-4-10-4-7.5-6-7.5-6-4-7.5-4-7.5-10.5-3-10.5-3-10-5-10-5-9-3.5-9-3.5-11.5-1-11.5-1 4 3.5 4 3.5 1.5 1 1.5 1 1.5.5 1.5.5 1.5 1 1.5 1 10.5 3.5 10.5 3.5 7.5 6 7.5 6 10.5 12.5 10.5 12.5-2 19-2 19 .5 1.5.5 1.5v1.5 1.5l9.5 4.5 9.5 4.5 7 6.5 7 6.5 6 8 6 8 4 9.5 4 9.5 3 11.5 3 11.5 2.5 11 2.5 11-.5 12.5-.5 12.5 9-1.5 9-1.5 10.5-4 10.5-4 1.5-10 1.5-10 4-9 4-9 5-9 5-9" style="fill:#984b20;stroke:#984b20"/><path d="m747 432l-24-5-14-.5-14-.5h-12.5-12.5l-13.5-2-13.5-2-14 1.5-14 1.5-11-.5-11-.5-14.5 1-14.5 1-14 1.5-14 1.5-14 1.5-14 1.5-13.5 2-13.5 2-12-.5-12-.5-12.5 1-12.5 1-13.5 2-13.5 2-14 1.5-14 1.5-12 3.5-12 3.5-11.5-1-11.5-1-11.5 3-11.5 3 6 4.5 6 4.5 12-.5 12-.5 7.5-1 7.5-1 6.5 4 6.5 4 14.5-1 14.5-1 12.5-1 12.5-1 13.5-2 13.5-2 13.5-2 13.5-2 10.5-3 10.5-3h12.5 12.5l12.5-1 12.5-1h14.5 14.5l13-2.5 13-2.5 13.5-2 13.5-2 14 .5 14 .5 12.5-1 12.5-1 14.5-1 14.5-1 14.5-1 14.5-1 2-1.5 2-1.5" style="fill:#763513;stroke:#763513"/><path d="m743 8h1l-25-1-25-1-14 1-14 1h1.5 1.5 1 1 1 1 1.5 1.5 1 1 1 1 1 1l1 .5 1 .5h2 2 1 1 2 2 1.5 1.5l1.5-.5 1.5-.5h1 1 1.5 1.5 2 2 1 1 1.5 1.5 2 2 1 1 1.5 1.5 2 2 1 1 1.5 1.5 1.5 1.5 1.5 1.5 1 1 1.5 1.5" style="fill:#c19b67;stroke:#c19b67"/><path d="m734 12l-1-1h-2-2-1.5-1.5l-1.5-.5-1.5-.5h-14.5-14.5-15-15l2 .5 2 .5h2.5 2.5l1 .5 1 .5h2.5 2.5l14-.5 14-.5 13 .5 13 .5" style="fill:#190f00;stroke:#190f00"/><path d="m734 9l1-1h-1.5-1.5-1.5-1.5-1-1-2-2-1.5-1.5-1-1-2-2-1.5-1.5-1-1-2-2-1.5-1.5-1-1l-1.5.5-1.5.5h1.5 1.5 2 2 2.5 2.5 2 2 2.5 2.5 2 2 2.5 2.5 2 2 1.5 1.5" style="fill:#7a6246;stroke:#7a6246"/><path d="m722 14l1-1h-3.5-3.5-2-2-2.5-2.5-2-2-2-2-2.5-2.5-2-2-2.5-2.5l-2.5-.5-2.5-.5h-2.5-2.5-.5-.5-14.5-14.5-13.5-13.5-14.5-14.5l-18.5.5-18.5.5.5.5.5.5h2 2 2 2 2.5 2.5 2 2 2.5 2.5 2 2 2.5 2.5 2 2l14-.5 14-.5h13.5 13.5l20.5 1 20.5 1 1.5.5 1.5.5h2 2 1.5 1.5 1 1l1.5-.5 1.5-.5h1.5 1.5 1 1l1.5-.5 1.5-.5h2 2l2 .5 2 .5h2 2l1.5-.5 1.5-.5" style="fill:#3a3529;stroke:#3a3529"/><g style="fill:#58270b;stroke:#58270b"><path d="m697 530l-24 3 10.5-1 10.5-1 1.5-.5 1.5-.5"/><path d="m695 576h1l-11.5-4.5-11.5-4.5 2-6.5 2-6.5-15.5 11-15.5 11h3.5 3.5 2 2 2.5 2.5 2 2 2.5 2.5 2 2 2.5 2.5 2 2 2 2 2.5 2.5 1 1"/><path d="m689 546l-26 1-1.5 3-1.5 3 12.5-3 12.5-3 2-.5 2-.5"/><path d="m684 274l-40-5 1-7 1-7 1.5-12 1.5-12 1-13.5 1-13.5 10.5-2 10.5-2-5-9-5-9-5.5-1-5.5-1-4.5-10-4.5-10-8.5-5.5-8.5-5.5v-1.5-1.5l-.5-1.5-.5-1.5-.5-1-.5-1-.5-1-.5-1v1.5 1.5l.5 1 .5 1v2 2 1 1l2 12.5 2 12.5 10 15 10 15-12 3.5-12 3.5-2 9.5-2 9.5-5.5 9.5-5.5 9.5-5.5 6-5.5 6-7 3.5-7 3.5-7.5 6-7.5 6-9 6-9 6-9.5 4-9.5 4-6 7.5-6 7.5-9 4.5-9 4.5-12 3-12 3h-12.5-12.5l-12.5-1-12.5-1-9.5-4-9.5-4-7.5-5.5-7.5-5.5-6.5-7-6.5-7-4.5-9-4.5-9-5-13.5-5-13.5-.5-1-.5-1-.5.5-.5.5-.5 2-.5 2h-.5-.5l2 13.5 2 13.5-6.5 3.5-6.5 3.5 3 10.5 3 10.5 6 6.5 6 6.5 12-1.5 12-1.5 9.5 3.5 9.5 3.5 10.5 3 10.5 3 11.5 2 11.5 2 12 1.5 12 1.5 14-1 14-1 11-2.5 11-2.5 9.5-4 9.5-4 10.5-3 10.5-3 12.5-2.5 12.5-2.5 9.5 2 9.5 2 8.5 4 8.5 4-2 3.5-2 3.5-11 4-11 4-11 2.5-11 2.5-11 1.5-11 1.5-11.5 2-11.5 2-12 3-12 3-6.5 3-6.5 3h12.5 12.5l11.5-2 11.5-2 13-2 13-2 11.5-2 11.5-2 10.5-3 10.5-3 9.5-4 9.5-4 10-5 10-5 7.5-6 7.5-6 5.5-8 5.5-8 1.5-13 1.5-13"/></g><path d="m683 15h1l-20.5-1-20.5-1h-13.5-13.5l-14 .5-14 .5h1 1 2 2 1.5 1.5 1 1 1 1 1 1 1 1 1 1 1.5 1.5 1 1 1 1 1 1 1.5 1.5 1 1 1 1 1 1 1.5 1.5 1 1 1 1l.5.5.5.5-14 .5-14 .5h-13.5-13.5l-17 1-17 1v.5.5l-1.5 6-1.5 6 8-5 8-5h8.5 8.5l2 3.5 2 3.5 15-3 15-3 12-1.5 12-1.5 13-.5 13-.5 12.5-1.5 12.5-1.5" style="fill:#5a3e24;stroke:#5a3e24"/><path d="m683 9h1l-1-.5-1-.5h-1-1-1-1-1-1-1.5-1.5-1-1-1-1-1.5-1.5-3-3-2-2-.5-.5-2-2-2-2l-.5.5-.5.5h2.5 2.5 1.5 1.5 1 1 2 2 1.5 1.5 1 1 2 2 1.5 1.5 1 1 2 2 2.5 2.5" style="fill:#7a6246;stroke:#7a6246"/><path d="m674 12h1l-1-.5-1-.5h-2.5-2.5l-2-.5-2-.5h-1.5-1.5-1-1-1.5-1.5-1-1-1-1-1-1-2-2-15-15-14-14l-18 .5-18 .5h-14-14l-13 .5-13 .5-13.5 1-13.5 1-13.5.5-13.5.5h-13.5-13.5l-1-2.5-1-2.5 14-.5 14-.5 12.5-.5 12.5-.5 12.5-1 12.5-1 23.5-1 23.5-1 25-.5 25-.5h3 3l-2-.5-2-.5h-2-2v-.5-.5h2 2l1.5-.5 1.5-.5h-2.5-2.5-2.5-2.5-2-2-2.5-2.5-2-2-2-2-2.5-2.5-1.5-1.5l2 .5 2 .5h2.5 2.5 2 2l.5.5.5.5h-27.5-27.5-15.5-15.5-13.5-13.5-24-24l-.5.5-.5.5h-15.5-15.5-13.5-13.5-13.5-13.5l-14.5.5-14.5.5-11.5 1-11.5 1-12.5 1-12.5 1-12.5 1-12.5 1-12.5 1-12.5 1-13.5 1.5-13.5 1.5-12.5 1-12.5 1h-13.5-13.5-13.5-13.5l-14.5-.5-14.5-.5-13-.5-13-.5-19.5-.5-19.5-.5v1.5 1.5l1.5-.5 1.5-.5h1 1 1.5 1.5l.5.5.5.5h1 1 1 1 1 1 1 1 1.5 1.5 1 1 1 1 1 1 1.5 1.5 1 1 1 1l.5.5.5.5h1.5 1.5 1 1 1 1l-.5 1.5-.5 1.5-1 .5-1 .5h-1-1-1-1-1.5-1.5l-1.5.5-1.5.5h-1-1-1.5-1.5-2-2-1-1l-.5.5-.5.5h-1-1-1.5-1.5-1-1-1-1-1-1-2.5-2.5v2 2 2 2 2 2h.5.5l12.5 1 12.5 1 12 .5 12 .5h14 14l12.5-1 12.5-1 13-.5 13-.5 17.5-2 17.5-2h-.5-.5l-13.5.5-13.5.5-18.5.5-18.5.5-.5.5-.5.5h-2-2-1-1-1.5-1.5-2-2-1-1-1.5-1.5l-1.5.5-1.5.5-.5-.5-.5-.5-1-.5-1-.5 1.5-.5 1.5-.5.5-.5.5-.5h1 1l.5-.5.5-.5h1.5 1.5 1.5 1.5l12.5-1.5 12.5-1.5 21-2 21-2 13.5-1 13.5-1 18-.5 18-.5 13.5.5 13.5.5 13 .5 13 .5 14.5-.5 14.5-.5 12-1.5 12-1.5 13-.5 13-.5 13-.5 13-.5h15 15 13.5 13.5l13-.5 13-.5 19.5-1 19.5-1 1.5-.5 1.5-.5h1 1 1 1 1.5 1.5 3 3 1.5 1.5 2 2 1 1 1 1 1 1 1.5 1.5 1 1 1 1 1 1 1.5 1.5 1 1 1 1 1 1 1.5 1.5 2.5 2.5l18.5-.5 18.5-.5h14.5 14.5 13.5 13.5 14.5 14.5" style="fill:#3b1d07;stroke:#3b1d07"/><path d="m671 56v-2l-2-.5-2-.5-.5-1.5-.5-1.5-1 1.5-1 1.5-1.5-.5-1.5-.5-1.5-1-1.5-1-2-1-2-1v3 3l-1 1.5-1 1.5-1.5.5-1.5.5v1.5 1.5l.5 1 .5 1 .5 1 .5 1 1.5-.5 1.5-.5 1 .5 1 .5h1 1l1-1 1-1 1-.5 1-.5.5-.5.5-.5.5-.5.5-.5h1 1l1-.5 1-.5v-1-1l1.5-.5 1.5-.5" style="fill:#5a3e24;stroke:#5a3e24"/><path d="m655 8h1-20.5-20.5-13.5-13.5-14-14l-.5.5-.5.5h-1.5-1.5-1.5-1.5-2-2-2-2-1-1-1.5-1.5-2-2-1-1-1.5-1.5-2-2-1-1-2-2v.5.5h2.5 2.5 1 1 1 1 1 1 1.5 1.5 2 2 1 1 1 1 1 1 1.5 1.5 1 1l1 .5 1 .5 18-.5 18-.5h14 14 15 15v-.5-.5l.5-.5.5-.5h2 2 2 2" style="fill:#977549;stroke:#977549"/><path d="m654 471l-25-10h-13.5-13.5l-12 1.5-12 1.5-13.5 1.5-13.5 1.5-12 1.5-12 1.5-11.5 2-11.5 2-11.5 2-11.5 2-6.5 6.5-6.5 6.5-1 7.5-1 7.5-3.5 10-3.5 10-1 12.5-1 12.5.5 12.5.5 12.5h3.5 3.5 2 2 2.5 2.5 2 2 2 2 1.5 1.5l2-12.5 2-12.5 1-12.5 1-12.5 4-9 4-9 10-3.5 10-3.5 11-2.5 11-2.5 13-.5 13-.5 13-2 13-2 17-3.5 17-3.5-2.5 13-2.5 13-1.5 12-1.5 12 1 21 1 21h2.5 2.5 1.5 1.5l4.5-16 4.5-16 2.5-13 2.5-13 1.5-12 1.5-12 4-11.5 4-11.5" style="fill:#190f00;stroke:#190f00"/><path d="m647 205l-20-30-2-12.5-2-12.5v1.5 1.5l.5.5.5.5v1.5 1.5 1 1 1 1 1 1 1 1 1.5 1.5 1 1 1 1l.5.5.5.5v1.5 1.5 1 1 1 1 1 1 1 1 1.5 1.5 1 1 1 1l-.5 1.5-.5 1.5-3 11.5-3 11.5-3.5 10-3.5 10-5 7.5-5 7.5-6.5 5-6.5 5-8.5 7-8.5 7-7.5 6-7.5 6-10.5 5-10.5 5-9.5 6-9.5 6-9 6.5-9 6.5-13 2.5-13 2.5-12.5-1-12.5-1-12-2.5-12-2.5-10-5.5-10-5.5-9-6.5-9-6.5-5-8.5-5-8.5-7-14.5-7-14.5 5 13.5 5 13.5 4.5 9 4.5 9 6.5 7 6.5 7 7.5 5.5 7.5 5.5 9.5 4 9.5 4 12.5 1 12.5 1h12.5 12.5l12-3 12-3 9-4.5 9-4.5 6-7.5 6-7.5 9.5-4 9.5-4 9-6 9-6 7.5-6 7.5-6 7-3.5 7-3.5 5.5-6 5.5-6 5.5-9.5 5.5-9.5 2-9.5 2-9.5 12-3.5 12-3.5" style="fill:#3b1d07;stroke:#3b1d07"/><path d="m633 15l-1-1h-1-1-1-1-1.5-1.5-1-1-1-1-1-1-1.5-1.5-1-1-1-1-1-1-1.5-1.5-1-1-1-1-1-1-1-1-1-1-1.5-1.5-2-2l-.5.5-.5.5-25.5 1-25.5 1 3 .5 3 .5 17-1 17-1h13.5 13.5l14-.5 14-.5" style="fill:#7a6246;stroke:#7a6246"/><g style="fill:#763513;stroke:#763513"><path d="m630 293l1-3-1.5-.5-1.5-.5-1.5 1-1.5 1-1 1-1 1-1 1.5-1 1.5.5.5.5.5 2-.5 2-.5 1-1 1-1 1-.5 1-.5"/><path d="m628 105l-21-25-7.5-6-7.5-6-10.5-3.5-10.5-3.5v1 1 .5.5l9.5 5 9.5 5 6 7.5 6 7.5 6 8.5 6 8.5 4 16 4 16v.5.5l.5 1 .5 1 .5 1 .5 1 2-19 2-19"/></g><path d="m627 484l-34 7-13 2-13 2-13 .5-13 .5-11 2.5-11 2.5-10 3.5-10 3.5-4 9-4 9-1 12.5-1 12.5-2 12.5-2 12.5h14.5 14.5 13.5 13.5 15.5 15.5 15.5 15.5 9 9l-1-21-1-21 1.5-12 1.5-12 2.5-13 2.5-13" style="fill:#3b1d07;stroke:#3b1d07"/><path d="m624 194l1-3v-1-1-1-1-1.5-1.5-1-1-1-1-1-1-1-1-1.5-1.5l-.5-.5-.5-.5v-1-1-1-1-1.5-1.5-1-1-1-1-1-1-1-1-1.5-1.5l-.5-.5-.5-.5v-1.5-1.5-1-1h-.5-.5l-4-10.5-4-10.5-3.5-10-3.5-10-6-7.5-6-7.5-6.5-7.5-6.5-7.5-8.5-5-8.5-5-14.5-4-14.5-4 1.5 1 1.5 1 1.5 1 1.5 1 1.5.5 1.5.5 1.5 1 1.5 1 1 1 1 1 1.5.5 1.5.5.5.5.5.5.5 1 .5 1 1.5 1 1.5 1 1.5 1 1.5 1v1.5 1.5l-6.5 4-6.5 4-2 10.5-2 10.5-3 11-3 11-6.5 8-6.5 8-9 4.5-9 4.5-9 1.5-9 1.5 5.5 6.5 5.5 6.5 3 11.5 3 11.5 8.5 15 8.5 15 1-.5 1-.5 1.5-.5 1.5-.5h1 1l1-.5 1-.5 1.5-.5 1.5-.5 1.5-.5 1.5-.5.5-.5.5-.5 1-.5 1-.5 1-1 1-1 .5-.5.5-.5 1-.5 1-.5 1-1 1-1 .5-1 .5-1h3 3l10.5-6.5 10.5-6.5 1-.5 1-.5 1-.5 1-.5 1 1.5 1 1.5 1.5.5 1.5.5 1-1 1-1 1.5-1 1.5-1 1-1 1-1 1-1.5 1-1.5 1.5-.5 1.5-.5v1.5 1.5l-4.5 10.5-4.5 10.5-5.5 8-5.5 8-6 7.5-6 7.5-6 7.5-6 7.5-5 8-5 8-7.5 6-7.5 6-8 5.5-8 5.5-10 .5-10 .5-12.5 2.5-12.5 2.5-11.5 1-11.5 1-18-5-18-5-7.5-6.5-7.5-6.5-6.5-7-6.5-7-6-8.5-6-8.5-4-10-4-10v9 9l.5 1 .5 1 7 14.5 7 14.5 5 8.5 5 8.5 9 6.5 9 6.5 10 5.5 10 5.5 12 2.5 12 2.5 12.5 1 12.5 1 13-2.5 13-2.5 9-6.5 9-6.5 9.5-6 9.5-6 10.5-5 10.5-5 7.5-6 7.5-6 8.5-7 8.5-7 6.5-5 6.5-5 5-7.5 5-7.5 3.5-10 3.5-10 3-11.5 3-11.5" style="fill:#190f00;stroke:#190f00"/><path d="m622 148h1v-2-2l-.5-1-.5-1v-1.5-1.5l-3.5-10.5-3.5-10.5-4.5-9-4.5-9-5.5-8-5.5-8-8-7-8-7-9-5-9-5-18-5.5-18-5.5-13-2-13-2 18.5 7 18.5 7 14.5 4 14.5 4 8.5 5 8.5 5 6.5 7.5 6.5 7.5 6 7.5 6 7.5 3.5 10 3.5 10 4 10.5 4 10.5" style="fill:#3b1d07;stroke:#3b1d07"/><path d="m622 138l-8-32-6-8.5-6-8.5-6-7.5-6-7.5-9.5-5-9.5-5-10-4.5-10-4.5-12-3.5-12-3.5-1 .5-1 .5 18 5.5 18 5.5 9 5 9 5 8 7 8 7 5.5 8 5.5 8 4.5 9 4.5 9 3.5 10.5 3.5 10.5v-.5-.5" style="fill:#58270b;stroke:#58270b"/><path d="m615 384l-25-2 3 4.5 3 4.5 9.5-3.5 9.5-3.5" style="fill:#763513;stroke:#763513"/><g style="fill:#5a3e24;stroke:#5a3e24"><path d="m615 58l-16-7-3-.5-3-.5 9.5 4 9.5 4h1.5 1.5"/><path d="m611 5l1-4-2-.5-2-.5h-1.5-1.5-2-2-.5-.5l1.5.5 1.5.5.5.5.5.5h1 1 1 1l.5.5.5.5h-.5-.5-2-2-2.5-2.5-1.5-1.5-3-3l-.5.5-.5.5h-14.5-14.5-10-10l-23.5 1-23.5 1-12.5 1-12.5 1-12.5.5-12.5.5-14 .5-14 .5 1 2.5 1 2.5h13.5 13.5l13.5-.5 13.5-.5 13.5-1 13.5-1 13-.5 13-.5h14 14l-1-.5-1-.5h-1-1-1.5-1.5-1-1-1-1-1-1-2-2-1.5-1.5-1-1-1-1-1-1-2.5-2.5-.5-.5-1.5-1.5-1-1-1.5-1.5-2-2-1-1-1.5-1.5-2-2-1-1-1-1-1-1-1.5-1.5l-.5.5-.5.5-14 .5-14 .5-7-.5-7-.5 21.5-.5 21.5-.5-2-.5-2-.5-1.5-.5-1.5-.5h1 1 1.5 1.5 2 2 2.5 2.5 2 2 2.5 2.5 2 2l1.5-.5 1.5-.5h1 1 1.5 1.5 1.5 1.5 2.5 2.5 2.5 2.5 2 2 2 2l2-.5 2-.5 19.5-.5 19.5-.5h14.5 14.5"/></g><path d="m609 3l-1-1h-1-1-1-1l-.5-.5-.5-.5-1.5-.5-1.5-.5h-1.5-1.5-1-1l-1.5.5-1.5.5h-2-2v.5.5h2 2l2 .5 2 .5h1.5 1.5 2.5 2.5 2 2 .5.5" style="fill:#3a3529;stroke:#3a3529"/><path d="m606 7l-35-1h-14-14l-2 .5-2 .5h-2-2-2-2-2.5-2.5-2.5-2.5l1 .5 1 .5h2 2 2 2 1 1 1.5 1.5 2 2 1 1 1.5 1.5 2 2 2.5 2.5 3 3l2-.5 2-.5h2 2 2.5 2.5 2 2 2.5 2.5 2 2 1.5 1.5 1 1 2 2 1.5 1.5 1 1 1.5 1.5 1.5 1.5" style="fill:#dbd7ca;stroke:#dbd7ca"/><path d="m597 191v-3l-1.5.5-1.5.5-1 1.5-1 1.5-1 1-1 1-1.5 1-1.5 1-1 1-1 1-1.5-.5-1.5-.5-1-1.5-1-1.5-1 .5-1 .5-1 .5-1 .5 2 1 2 1 .5 1.5.5 1.5h1.5 1.5l1-1 1-1 1.5-1 1.5-1 1.5-.5 1.5-.5v1 1l-5 9-5 9-6.5 9-6.5 9-6.5 9-6.5 9-8 7.5-8 7.5-6.5 7-6.5 7-10.5 5-10.5 5-13 2.5-13 2.5-12.5 3-12.5 3-23.5-3.5-23.5-3.5 18 5 18 5 11.5-1 11.5-1 12.5-2.5 12.5-2.5 10-.5 10-.5 8-5.5 8-5.5 7.5-6 7.5-6 5-8 5-8 6-7.5 6-7.5 6-7.5 6-7.5 5.5-8 5.5-8 4.5-10.5 4.5-10.5" style="fill:#3b1d07;stroke:#3b1d07"/><path d="m592 198v-2l-1.5.5-1.5.5-1.5 1-1.5 1-1 1-1 1h-1.5-1.5l-.5-1.5-.5-1.5-2-1-2-1-.5.5-.5.5-7 7-7 7-6-1-6-1-.5 1-.5 1-1 1-1 1-1 .5-1 .5-.5.5-.5.5-1 1-1 1-1 .5-1 .5-.5.5-.5.5-1.5.5-1.5.5-1.5.5-1.5.5-1 .5-1 .5h-1-1l-1.5.5-1.5.5-1 .5-1 .5-8.5-.5-8.5-.5-1.5-11-1.5-11-2.5-11-2.5-11-6.5-7-6.5-7-7.5-6-7.5-6 .5-5 .5-5 13 2 13 2 10-2.5 10-2.5 6-7.5 6-7.5 3-10.5 3-10.5 1-10 1-10 10.5-6 10.5-6-1.5-1-1.5-1-.5-1-.5-1-.5-.5-.5-.5-1.5-.5-1.5-.5-1-1-1-1-1.5-1-1.5-1-1.5-.5-1.5-.5-1.5-1-1.5-1-1.5-1-1.5-1-18.5-7-18.5-7 13 2 13 2 1-.5 1-.5-12-2.5-12-2.5-14.5-1.5-14.5-1.5-1-1-1-1-1.5 1-1.5 1-1.5.5-1.5.5-1 1-1 1h-1.5-1.5l-1 1-1 1 2-.5 2-.5 1.5.5 1.5.5.5 1 .5 1-10 4.5-10 4.5-13 6.5-13 6.5-1 .5-1 .5-.5 1-.5 1-.5.5-.5.5-.5.5-.5.5-.5.5-.5.5-1 .5-1 .5-.5.5-.5.5-.5.5-.5.5-.5.5-.5.5h-1-1v1 1l-1 .5-1 .5-.5.5-.5.5v1 1l-.5.5-.5.5-.5 1-.5 1-.5.5-.5.5-.5.5-.5.5-.5.5-.5.5-1 1.5-1 1.5h-.5-.5l-5.5 9.5-5.5 9.5-4.5 9-4.5 9-3.5 10-3.5 10-1.5 12-1.5 12-5.5 9-5.5 9-1.5 1.5-1.5 1.5-.5 1.5-.5 1.5v2 2 2 2 2 2l.5 2 .5 2v2 2l-.5 2-.5 2 .5 1.5.5 1.5v1.5 1.5 1.5 1.5l.5 1 .5 1v2 2l.5 2 .5 2 .5 1.5.5 1.5 1 1.5 1 1.5.5 1 .5 1 .5-.5.5-.5v-9-9l4 10 4 10 6 8.5 6 8.5 6.5 7 6.5 7 7.5 6.5 7.5 6.5 23.5 3.5 23.5 3.5 12.5-3 12.5-3 13-2.5 13-2.5 10.5-5 10.5-5 6.5-7 6.5-7 8-7.5 8-7.5 6.5-9 6.5-9 6.5-9 6.5-9 5-9 5-9" style="fill:#3a3529;stroke:#3a3529"/><path d="m589 15l1-1h-1-1-2-2-2.5-2.5-2-2-2.5-2.5-2-2-2.5-2.5-2-2-2-2-.5-.5-1.5-1.5-3-3l-.5.5-.5.5h-1.5-1.5-1.5-1.5-1-1-1.5-1.5-2-2-1-1-1.5-1.5-2-2-2-2-1-1-1.5-1.5-1.5-1.5-.5-.5l-14 1-14 1-18 1-18 1h-.5-.5-14.5-14.5-13.5-13.5-15-15l-2 .5-2 .5h-2.5-2.5-2-2l-2 .5-2 .5h-2-2l-1.5.5-1.5.5h-2.5-2.5l-1.5.5-1.5.5h-3-3l11 2 11 2 10.5-1.5 10.5-1.5 14.5-.5 14.5-.5 21.5-1 21.5-1 1-.5 1-.5h2.5 2.5 2 2 2.5 2.5 2 2 2.5 2.5 2 2 2.5 2.5 2 2 2 2 1.5 1.5l12.5-.5 12.5-.5 18.5-1 18.5-1 25.5-1 25.5-1" style="fill:#977549;stroke:#977549"/><path d="m589 4l1-1-25 .5-25 .5h10 10 14.5 14.5" style="fill:#3a3529;stroke:#3a3529"/><path d="m575 197l1-1-10.5 6.5-10.5 6.5h-3-3l6 1 6 1 7-7 7-7" style="fill:#3b1d07;stroke:#3b1d07"/><path d="m574 2l-1-1h-2-2-2.5-2.5l-2-.5-2-.5h-2-2-2-2-2.5-2.5-1-1l-.5.5-.5.5h-2-2-2-2-2.5-2.5-2-2-2-2l-2 .5-2 .5h27.5 27.5" style="fill:#3a3529;stroke:#3a3529"/><path d="m571 63v-2l-1.5-1-1.5-1-1.5-.5-1.5-.5-1.5-1-1.5-1-14-6.5-14-6.5-12.5-1.5-12.5-1.5h-11.5-11.5l7.5-2 7.5-2-9-1-9-1-.5 1-.5 1v.5.5l-2 .5-2 .5-.5.5-.5.5-1.5.5-1.5.5 14.5 1.5 14.5 1.5 12 2.5 12 2.5 12 3.5 12 3.5 10 4.5 10 4.5v-.5-.5" style="fill:#5a3e24;stroke:#5a3e24"/><path d="m568 415l-28-1-14.5 1-14.5 1-14 1.5-14 1.5-14.5 1-14.5 1-12.5 1-12.5 1-14 1.5-14 1.5-14 1.5-14 1.5-14 1.5-14 1.5-13.5 2-13.5 2-12 1.5-12 1.5-13.5 2-13.5 2-14 1.5-14 1.5-14 1.5-14 1.5-14.5 1-14.5 1-12 1.5-12 1.5-14 1.5-14 1.5h10.5 10.5l13.5-1 13.5-1 14.5-1 14.5-1 12-1.5 12-1.5 14-1.5 14-1.5 14-1.5 14-1.5 14-1.5 14-1.5 13.5-2 13.5-2 12.5-1 12.5-1 14-1.5 14-1.5 14-1.5 14-1.5 14-1.5 14-1.5 14.5-1 14.5-1 12.5-1 12.5-1 14-1.5 14-1.5 14-1.5 14-1.5 3.5-.5 3.5-.5" style="fill:#58270b;stroke:#58270b"/><path d="m561 79v-3l-1.5-1-1.5-1-10.5 6-10.5 6-1 10-1 10-3 10.5-3 10.5-6 7.5-6 7.5-10 2.5-10 2.5-13-2-13-2-.5 5-.5 5 7.5 6 7.5 6 6.5 7 6.5 7 2.5 11 2.5 11 1.5 11 1.5 11 8.5.5 8.5.5-8.5-15-8.5-15-3-11.5-3-11.5-5.5-6.5-5.5-6.5 9-1.5 9-1.5 9-4.5 9-4.5 6.5-8 6.5-8 3-11 3-11 2-10.5 2-10.5 6.5-4 6.5-4" style="fill:#3b1d07;stroke:#3b1d07"/><path d="m559 9l1-1h-3-3-2.5-2.5-2-2-1.5-1.5-1-1-2-2-1.5-1.5-1-1-2-2-2-2l-1-.5-1-.5h-1.5-1.5-1.5-1.5-1-1l-1.5.5-1.5.5h-2-2-2.5-2.5l1 .5 1 .5h1.5 1.5 1 1 1 1 1 1 1.5 1.5 3 3 2 2 1 1 2 2 1.5 1.5 1 1 2 2 1.5 1.5 1 1 2 2 2 2 1.5 1.5 1.5 1.5" style="fill:#caad84;stroke:#caad84"/><path d="m552 14h1l-.5-.5-.5-.5h-2.5-2.5-1.5-1.5-1-1-1-1-1-1-1.5-1.5-1-1-1-1-1-1-1.5-1.5-1-1-1-1-1-1-2-2-1.5-1.5l2.5.5 2.5.5h2.5 2.5 2 2 2.5 2.5 2 2 3.5 3.5 3 3 1.5 1.5" style="fill:#5a3e24;stroke:#5a3e24"/><path d="m544 1l1-1h-14.5-14.5-15.5-15.5-15.5-15.5-15.5-15.5-5.5-5.5l-.5.5-.5.5h-15-15-14-14-21-21l14 .5 14 .5h13.5 13.5 23.5 23.5 24 24 13.5 13.5 15.5 15.5l2-.5 2-.5h2 2 2 2 2.5 2.5 2 2 2 2" style="fill:#777266;stroke:#777266"/><path d="m543 19h1v-.5-.5l-3-.5-3-.5-18.5 1-18.5 1-12.5.5-12.5.5-.5.5-.5.5h-2-2-2-2-2.5-2.5-2-2-2-2-2.5-2.5-2-2-2.5-2.5-2-2-2.5-2.5l-21.5 1-21.5 1-14.5.5-14.5.5-10.5 1.5-10.5 1.5-11-2-11-2-11.5.5-11.5.5-22.5.5-22.5.5h2 2 1 1 1.5 1.5 1 1 1 1v1 1l-13 .5-13 .5-21-.5-21-.5-1.5-.5-1.5-.5-1.5-.5-1.5-.5v1.5 1.5l-.5.5-.5.5 1 .5 1 .5 1.5.5 1.5.5h2.5 2.5 2 2 2 2l2 .5 2 .5h2 2l2 .5 2 .5h2 2v1 1h-1.5-1.5-2-2l-1.5-.5-1.5-.5h-2.5-2.5-2-2-2.5-2.5-2-2-1.5-1.5l-.5.5-.5.5-1.5 1-1.5 1-1 1-1 1-.5.5-.5.5-.5.5-.5.5-.5.5-.5.5-.5 1-.5 1-.5.5-.5.5h-1-1l-.5-.5-.5-.5-.5-1-.5-1v-1-1-1-1l-.5-.5-.5-.5-1-.5-1-.5-2.5-.5-2.5-.5-13.5 1-13.5 1-13 .5-13 .5-12.5 1-12.5 1-15 .5-15 .5-14 1.5-14 1.5-15 5.5-15 5.5v15 15 15.5 15.5 4.5 4.5l1.5-.5 1.5-.5 2-.5 2-.5h2 2l1.5-.5 1.5-.5 2 .5 2 .5h2 2l2 .5 2 .5 1 1 1 1 1 1.5 1 1.5.5 1.5.5 1.5-.5 1.5-.5 1.5h-2-2l-1 1.5-1 1.5-1.5.5-1.5.5-2 .5-2 .5-1.5.5-1.5.5-2 .5-2 .5-1.5.5-1.5.5-.5-1.5-.5-1.5h-1.5-1.5l-1.5-.5-1.5-.5v2.5 2.5 2.5 2.5 2 2 1.5 1.5l10.5-.5 10.5-.5 5.5 5 5.5 5 1.5 10 1.5 10-2 6.5-2 6.5 7 7 7 7 3 10.5 3 10.5-1 9.5-1 9.5 1.5 8 1.5 8 5 9 5 9 4 9.5 4 9.5 8 6.5 8 6.5 10.5 3 10.5 3 12-2 12-2 8.5-4 8.5-4 8.5 1 8.5 1 .5 6 .5 6-5 7-5 7-4.5 8-4.5 8-9 5.5-9 5.5.5 6 .5 6 2.5 8.5 2.5 8.5 10 1.5 10 1.5 9 5.5 9 5.5 7.5 6 7.5 6 13.5-.5 13.5-.5h11.5 11.5l13.5 1 13.5 1h12.5 12.5l11.5-2.5 11.5-2.5 11-2.5 11-2.5 9.5-4 9.5-4 9-2.5 9-2.5 10-4 10-4 10.5-2 10.5-2 12-2.5 12-2.5 11-2.5 11-2.5 11.5-2.5 11.5-2.5 2-3.5 2-3.5-13-1.5-13-1.5-10.5-3-10.5-3-10.5-3.5-10.5-3.5-11-2.5-11-2.5-10-4.5-10-4.5-7.5-6-7.5-6-6-8-6-8-2.5-11-2.5-11-2-11.5-2-11.5-.5-13-.5-13 4-10 4-10 2.5-12 2.5-12 2.5-11.5 2.5-11.5 3.5-11 3.5-11 4-10 4-10 5-8.5 5-8.5 5-8.5 5-8.5 7-7.5 7-7.5 7.5-6.5 7.5-6.5 7.5-6 7.5-6 8.5-5 8.5-5 15-5 15-5 9 1 9 1-7.5 2-7.5 2h11.5 11.5l12.5 1.5 12.5 1.5-4-6.5-4-6.5 8.5-5.5 8.5-5.5" style="fill:#984b20;stroke:#984b20"/><path d="m542 15l1-1h-3.5-3.5-2-2-2.5-2.5-2-2-2.5-2.5l-2.5-.5-2.5-.5h-3-3-1.5-1.5-1-1-1-1l-1.5.5-1.5.5h1.5 1.5 2 2l1 .5 1 .5h1.5 1.5 1.5 1.5 1 1 2 2 2 2 1.5 1.5 1 1 2 2 1.5 1.5 1 1 1.5 1.5 1.5 1.5" style="fill:#7a6246;stroke:#7a6246"/><path d="m528 86v-19l-12.5-2-12.5-2-11.5 4-11.5 4-10 5.5-10 5.5-4 8.5-4 8.5-2 13.5-2 13.5 12 2.5 12 2.5 12.5 3 12.5 3 8-7.5 8-7.5 1.5-11 1.5-11 6-7 6-7" style="fill:#595548;stroke:#595548"/><path d="m520 10h1v-.5-.5h-3-3-1.5-1.5-1-1-1-1-1-1-1.5-1.5l-1-.5-1-.5h-2-2-2.5-2.5-2-2-1.5-1.5-1-1l1.5.5 1.5.5 2 .5 2 .5h1.5 1.5 1 1 1 1 1 1 2 2 1.5 1.5 1 1 2 2 1.5 1.5 1 1 1.5 1.5" style="fill:#c19b67;stroke:#c19b67"/><path d="m519 244l-21-6-3.5-8-3.5-8-2-12.5-2-12.5-5.5-10-5.5-10-8-5.5-8-5.5h-12.5-12.5l-9 6.5-9 6.5-4 11.5-4 11.5-3.5 12-3.5 12v11.5 11.5l5 8.5 5 8.5 10 5.5 10 5.5 13.5 2 13.5 2 13-2.5 13-2.5 8-3.5 8-3.5-11.5-1-11.5-1 10-5.5 10-5.5 10-5.5 10-5.5.5-.5.5-.5" style="fill:#595548;stroke:#595548"/><path d="m512 92l-19-8-3.5-2-3.5-2-10.5 5-10.5 5-2.5 9-2.5 9 5 8.5 5 8.5 12.5 1 12.5 1 5-10.5 5-10.5 3.5-7 3.5-7" style="fill:#777266;stroke:#777266"/><path d="m510 420l-26 1-15 .5-15 .5-14 1.5-14 1.5-14 1.5-14 1.5-5 1.5-5 1.5 14.5-1 14.5-1 14-1.5 14-1.5 14-1.5 14-1.5 14-1.5 14-1.5h4.5 4.5" style="fill:#763513;stroke:#763513"/><path d="m505 15h1l-1-.5-1-.5h-2-2-1.5-1.5l-19.5 1-19.5 1-13 .5-13 .5h-13.5-13.5-15-15l-13 .5-13 .5-13 .5-13 .5-12 1.5-12 1.5-14.5.5-14.5.5-13-.5-13-.5-13.5-.5-13.5-.5h-.5-.5-1.5-1.5-2-2-2-2l-1 .5-1 .5h1.5 1.5 2 2 2 2l2 .5 2 .5 1.5.5 1.5.5h2 2 1 1 1.5 1.5 2 2 2.5 2.5 2 2l2.5.5 2.5.5 22.5-.5 22.5-.5 11.5-.5 11.5-.5h3 3l1.5-.5 1.5-.5h2.5 2.5l1.5-.5 1.5-.5h2 2l2-.5 2-.5h2 2 2.5 2.5l2-.5 2-.5 13.5-.5 13.5-.5h13.5 13.5l16.5.5 16.5.5 18-1 18-1 14-1 14-1" style="fill:#5a3e24;stroke:#5a3e24"/><path d="m500 413l1-1-15.5 1-15.5 1-12.5 1-12.5 1-14 1-14 1-12 1.5-12 1.5-12 1.5-12 1.5-12.5 1-12.5 1-13.5 1.5-13.5 1.5-12 1.5-12 1.5-13-.5-13-.5-12.5-1-12.5-1-13.5.5-13.5.5h-12.5-12.5l-12 1.5-12 1.5-11 2.5-11 2.5-11 4.5-11 4.5h2 2 2 2v1 1l-12.5 1.5-12.5 1.5 8.5-2.5 8.5-2.5-23.5-1.5-23.5-1.5-5-5.5-5-5.5 10.5-2 10.5-2 11.5-2 11.5-2 11-4 11-4-6-2.5-6-2.5-12.5-1-12.5-1-12.5 1-12.5 1h-11.5-11.5l-11-2-11-2 7.5-6 7.5-6h10.5 10.5l9.5-4 9.5-4 7-7 7-7-3-9.5-3-9.5-4.5-8-4.5-8-7.5-6-7.5-6-12.5-2.5-12.5-2.5-6-6.5-6-6.5-3.5-9-3.5-9-9.5-3.5-9.5-3.5v14.5 14.5 13.5 13.5 3.5 3.5h1.5 1.5l1 .5 1 .5.5.5.5.5.5 1 .5 1 .5 1.5.5 1.5.5.5.5.5 1 .5 1 .5.5 1.5.5 1.5.5.5.5.5.5.5.5.5v1 1l-.5 1.5-.5 1.5v1.5 1.5l-1 1.5-1 1.5-1 1-1 1-1.5 1-1.5 1-1.5.5-1.5.5-1.5 1-1.5 1v2 2 2 2 2.5 2.5 2 2 2.5 2.5 2 2 2.5 2.5 2 2l12 8 12 8 3.5 8.5 3.5 8.5 9 4.5 9 4.5 12.5 1 12.5 1 12-1.5 12-1.5 12-2 12-2 12.5-1 12.5-1 13-1.5 13-1.5 12.5-1 12.5-1 13-1 13-1 12-1.5 12-1.5 13-1.5 13-1.5 12-1.5 12-1.5 12.5-1.5 12.5-1.5 12-1.5 12-1.5 12.5-1 12.5-1 13-1.5 13-1.5 12.5-1.5 12.5-1.5 12.5-1 12.5-1 12.5-1 12.5-1 13.5-1 13.5-1" style="fill:#58270b;stroke:#58270b"/><path d="m489 118l-10-19-5.5 8-5.5 8 9.5 3 9.5 3 1-1.5 1-1.5" style="fill:#998f7b;stroke:#998f7b"/><path d="m489 11l1-1-21.5.5-21.5.5 7 .5 7 .5 14-.5 14-.5" style="fill:#c19b67;stroke:#c19b67"/><path d="m482 37v-1l.5-1 .5-1-15 5-15 5-8.5 5-8.5 5-7.5 6-7.5 6-7.5 6.5-7.5 6.5-7 7.5-7 7.5-5 8.5-5 8.5-5 8.5-5 8.5-4 10-4 10-3.5 11-3.5 11-2.5 11.5-2.5 11.5v3 3l.5-1.5.5-1.5 1.5-1.5 1.5-1.5 2-11.5 2-11.5 3-10.5 3-10.5 4-9.5 4-9.5 5.5-9.5 5.5-9.5 6.5-8.5 6.5-8.5 1-1.5 1-1.5.5-.5.5-.5.5-.5.5-.5.5-.5.5-.5.5-1 .5-1 .5-.5.5-.5v-1-1l.5-.5.5-.5 1-.5 1-.5v-1-1h1 1l.5-.5.5-.5.5-.5.5-.5.5-.5.5-.5 1-.5 1-.5.5-.5.5-.5.5-.5.5-.5.5-.5.5-.5.5-1 .5-1 1-.5 1-.5.5-1 .5-1 1-.5 1-.5.5-.5.5-.5.5-.5.5-.5.5-.5.5-.5 1-.5 1-.5.5-.5.5-.5.5-.5.5-.5.5-.5.5-.5 1-.5 1-.5 1-1 1-1 1.5-.5 1.5-.5 1.5-1 1.5-1 .5-.5.5-.5h1 1l1-1 1-1 1-.5 1-.5.5-.5.5-.5.5-.5.5-.5h1 1l1-.5 1-.5.5-.5.5-.5h1.5 1.5l1-1 1-1h1.5 1.5l1-1 1-1 1.5-.5 1.5-.5 1.5-1 1.5-1 1 1 1 1 1.5-.5 1.5-.5.5-.5.5-.5 2-.5 2-.5" style="fill:#58270b;stroke:#58270b"/><path d="m476 220l-6-23-9-6.5-9-6.5-12.5-2-12.5-2-6 9.5-6 9.5-4 9.5-4 9.5 2 12.5 2 12.5 7.5 8 7.5 8h13.5 13.5l8-7.5 8-7.5 3.5-10 3.5-10v-2-2" style="fill:#777266;stroke:#777266"/><path d="m475 21l1-1h-1.5-1.5-2-2-2-2-2.5-2.5-2-2-2.5-2.5-2-2-2.5-2.5-2-2-2.5-2.5l-1 .5-1 .5h2.5 2.5 2 2 2.5 2.5 2 2 2.5 2.5 2 2 2 2 2.5 2.5 2 2 2 2" style="fill:#7a6246;stroke:#7a6246"/><path d="m467 47l-1-2-1.5-.5-1.5-.5-2 .5-2 .5h-1.5-1.5l-.5.5-.5.5-1 .5-1 .5h-1-1l-.5.5-.5.5-.5.5-.5.5-1 .5-1 .5 1.5-.5 1.5-.5 1.5-.5 1.5-.5h1 1l1-.5 1-.5 1 .5 1 .5-1 1-1 1-1.5.5-1.5.5-1.5 1-1.5 1-1.5.5-1.5.5-2 .5-2 .5-1.5.5-1.5.5-1-.5-1-.5-1.5.5-1.5.5-1 1-1 1-1 .5-1 .5-.5.5-.5.5-.5.5-.5.5-.5.5-.5.5-1 .5-1 .5-.5.5-.5.5-.5.5-.5.5-.5.5-.5.5-1 .5-1 .5-.5 1-.5 1 13-6.5 13-6.5 10-4.5 10-4.5" style="fill:#3b1d07;stroke:#3b1d07"/><path d="m462 224l-6-23-10.5-5-10.5-5-9 6.5-9 6.5-3.5 12-3.5 12 3.5 10 3.5 10h12.5 12.5l8.5-7 8.5-7 1.5-5 1.5-5" style="fill:#998f7b;stroke:#998f7b"/><path d="m459 48l-2-1-1 .5-1 .5h-1-1l-1.5.5-1.5.5-1.5.5-1.5.5-1 1-1 1h-1-1l-.5.5-.5.5-1.5 1-1.5 1 1 .5 1 .5 1.5-.5 1.5-.5 2-.5 2-.5 1.5-.5 1.5-.5 1.5-1 1.5-1 1.5-.5 1.5-.5 1-1 1-1" style="fill:#190f00;stroke:#190f00"/><path d="m458 6l-26-3-15 .5-15 .5h-7.5-7.5l-.5.5-.5.5h-2.5-2.5l-1.5.5-1.5.5-2 .5-2 .5 2 1 2 1 14 .5 14 .5 13-.5 13-.5 12.5-1 12.5-1 .5-.5.5-.5" style="fill:#7a6246;stroke:#7a6246"/><path d="m456 535v-2-1-1l.5-.5.5-.5-.5-.5-.5-.5.5-1.5.5-1.5-1-.5-1-.5-1 1-1 1-.5 2-.5 2-1 2.5-1 2.5v3 3l2-.5 2-.5 1-1.5 1-1.5v-1.5-1.5" style="fill:#3a3529;stroke:#3a3529"/><g style="fill:#58270b;stroke:#58270b"><path d="m456 502l-26-13h2 2 2 2 2.5 2.5l1.5.5 1.5.5.5 2 .5 2 1.5.5 1.5.5h2.5 2.5l.5 1.5.5 1.5-.5 1.5-.5 1.5v2.5 2.5 1.5 1.5l.5-2 .5-2v-1.5-1.5"/><path d="m455 575l1-3v-2-2l-.5-2-.5-2v-1.5-1.5l-1.5.5-1.5.5-.5 1.5-.5 1.5-.5-1-.5-1-.5.5-.5.5-.5.5-.5.5v-1.5-1.5l-.5 2-.5 2 2 .5 2 .5.5 1.5.5 1.5.5 2 .5 2-.5 1-.5 1h1 1l.5-.5.5-.5"/></g><path d="m455 559l1-4h-.5-.5l-.5 2-.5 2-.5-.5-.5-.5-1-.5-1-.5-1-1-1-1v1 1l-.5.5-.5.5v2 2 1.5 1.5l.5-.5.5-.5.5-.5.5-.5.5 1 .5 1 .5-1.5.5-1.5 1.5-.5 1.5-.5v-1-1" style="fill:#3a3529;stroke:#3a3529"/><g style="fill:#5a3e24;stroke:#5a3e24"><path d="m455 555h1v-1.5-1.5-2-2l-.5-2-.5-2-.5-1.5-.5-1.5-2 .5-2 .5v-3-3l-.5 1-.5 1v2 2 2 2l1 .5 1 .5.5-1.5.5-1.5 1 1.5 1 1.5.5 1.5.5 1.5-.5 1.5-.5 1.5v1.5 1.5l-.5-.5-.5-.5-.5-.5-.5-.5-1-.5-1-.5-.5-.5-.5-.5-.5.5-.5.5-.5 1-.5 1v.5.5l-.5 1.5-.5 1.5-11 3-11 3-12.5 2.5-12.5 2.5-19 3-19 3h14 14 15.5 15.5 15.5 15.5.5.5l.5-1 .5-1-.5-2-.5-2-.5-1.5-.5-1.5-2-.5-2-.5.5-2 .5-2v-2-2l.5-.5.5-.5v-1-1l1 1 1 1 1 .5 1 .5.5.5.5.5.5-2 .5-2"/><path d="m455 501l1-3-.5-1.5-.5-1.5h-2.5-2.5l-1.5-.5-1.5-.5-.5-2-.5-2-1.5-.5-1.5-.5h-2.5-2.5-2-2-2-2-.5-.5l1.5.5 1.5.5h1 1 1 1 1.5 1.5 1 1l.5.5.5.5.5 1 .5 1 1 1 1 1 1.5.5 1.5.5h2.5 2.5l1 1 1 1v1.5 1.5"/></g><path d="m454 553l1-3-.5-1.5-.5-1.5-1-1.5-1-1.5-.5 1.5-.5 1.5-1-.5-1-.5v-2-2-2-2l.5-1 .5-1 1-2.5 1-2.5.5-2 .5-2v-1.5-1.5l.5-2 .5-2v-2-2l.5-2 .5-2v-1.5-1.5-1.5-1.5-2.5-2.5-1.5-1.5l-1-1-1-1h-2.5-2.5l-1.5-.5-1.5-.5v.5.5l1 .5 1 .5h1.5 1.5l1.5.5 1.5.5v1 1 1.5 1.5 2 2l-.5 1.5-.5 1.5v2.5 2.5l-.5 1.5-.5 1.5v1 1l-.5 1-.5 1v2 2 1 1l-.5 1-.5 1-.5 1.5-.5 1.5v1 1 1.5 1.5l-.5 1.5-.5 1.5v1 1 1 1 1 1 1.5 1.5 1.5 1.5 1 1l.5-1 .5-1 .5-.5.5-.5.5.5.5.5 1 .5 1 .5.5.5.5.5.5.5.5.5v-1.5-1.5" style="fill:#7a6246;stroke:#7a6246"/><path d="m453 222l-8-21-11 .5-11 .5-4.5 11-4.5 11 4.5 11 4.5 11 10.5-3 10.5-3 4.5-9 4.5-9" style="fill:#b9b5a8;stroke:#b9b5a8"/><path d="m452 510l1-3v-2-2-1.5-1.5-1-1l-1.5-.5-1.5-.5h-1.5-1.5l-1-.5-1-.5h-.5-.5l-1.5-1-1.5-1h-1-1l-.5-.5-.5-.5-.5-.5-.5-.5h-1-1-1-1-1.5-1.5-1-1l-.5.5-.5.5h-1-1-1.5-1.5-1-1l-.5.5-.5.5h-1-1-1.5-1.5-2-2l-2.5.5-2.5.5h-2.5-2.5l-1.5.5-1.5.5h-1.5-1.5l3 2.5 3 2.5h19 19l-10-2.5-10-2.5 16 9 16 9-2.5 10.5-2.5 10.5-3 8.5-3 8.5-9 3-9 3-11 2.5-11 2.5-12 1.5-12 1.5-12.5 2-12.5 2-16 3-16 3h2 2 2 2 2.5 2.5.5.5l13-2 13-2 11.5-2.5 11.5-2.5 13-1.5 13-1.5 11.5-2 11.5-2 8.5-3.5 8.5-3.5v-1.5-1.5-1.5-1.5-1-1-1-1-1-1l.5-1.5.5-1.5v-1.5-1.5-1-1l.5-1.5.5-1.5.5-1 .5-1v-1-1-2-2l.5-1 .5-1v-1-1l.5-1.5.5-1.5v-2.5-2.5" style="fill:#c19b67;stroke:#c19b67"/><path d="m450 514l-32-18 10 2.5 10 2.5.5 1.5.5 1.5v.5.5.5.5l-12 3.5-12 3.5-10.5 3-10.5 3-10.5 3-10.5 3-11.5 2-11.5 2-13 2-13 2-12 1.5-12 1.5-11.5 1-11.5 1-13.5 1.5-13.5 1.5-12 1.5-12 1.5h-11.5-11.5l-11.5 2-11.5 2-13.5 1.5-13.5 1.5-12 1.5-12 1.5-11.5 2-11.5 2-11 2.5-11 2.5-11.5 2-11.5 2-13 2-13 2-17.5 1.5-17.5 1.5v1 1h15 15 15.5 15.5 15.5 15.5 15.5 15.5 15.5 15.5 12 12l7-7.5 7-7.5h6 6l-.5 1-.5 1-1 1-1 1-.5 1.5-.5 1.5-1 1.5-1 1.5-.5 1-.5 1-.5 1.5-.5 1.5h16 16 15.5 15.5 15.5 15.5 14 14l16-3 16-3 12.5-2 12.5-2 12-1.5 12-1.5 11-2.5 11-2.5 9-3 9-3 3-8.5 3-8.5 2.5-10.5 2.5-10.5" style="fill:#caad84;stroke:#caad84"/><path d="m446 559l1-3h-.5-.5l-11.5 3.5-11.5 3.5-11.5 2-11.5 2-12 2-12 2-14.5 2.5-14.5 2.5h2 2 2.5 2.5 2 2 .5.5l19-3 19-3 12.5-2.5 12.5-2.5 11-3 11-3" style="fill:#7a6246;stroke:#7a6246"/><path d="m446 556h1v-.5-.5-1-1l-8.5 3.5-8.5 3.5-11.5 2-11.5 2-13 1.5-13 1.5-11.5 2.5-11.5 2.5-13 2-13 2h2.5 2.5 2 2 2 2 1 1l14.5-2.5 14.5-2.5 12-2 12-2 11.5-2 11.5-2 11.5-3.5 11.5-3.5" style="fill:#977549;stroke:#977549"/><path d="m446 225l-8-21-9.5 6-9.5 6 3.5 12 3.5 12 9.5-6 9.5-6 .5-1.5.5-1.5" style="fill:#dbd7ca;stroke:#dbd7ca"/><g style="fill:#977549;stroke:#977549"><path d="m446 6l-26-1 12 .5 12 .5h1 1"/><path d="m444 496h1v-.5-.5l-1-1-1-1h-.5-.5l-.5-1-.5-1h-1.5-1.5-1-1-1-1-1-1-1.5-1.5-1-1-1-1l-.5.5-.5.5h-1.5-1.5-1-1-1-1l-.5.5-.5.5h-1-1l-2 .5-2 .5h2 2 1.5 1.5 1 1l.5-.5.5-.5h1 1 1.5 1.5 1 1l.5-.5.5-.5h1 1 1.5 1.5 1 1 1 1l.5.5.5.5.5.5.5.5h1 1l1.5 1 1.5 1"/></g><g style="fill:#7a6246;stroke:#7a6246"><path d="m442 493h1l-.5-1-.5-1-.5-.5-.5-.5h-1-1-1.5-1.5-1-1-1-1l-1.5-.5-1.5-.5-23 2.5-23 2.5.5.5.5.5 1-.5 1-.5h1.5 1.5 2 2l.5.5.5.5h-1.5-1.5l-1.5.5-1.5.5h3 3 1.5 1.5l1.5-.5 1.5-.5h2.5 2.5l2.5-.5 2.5-.5 2-.5 2-.5h1 1l.5-.5.5-.5h1 1 1 1 1.5 1.5l.5-.5.5-.5h1 1 1 1 1.5 1.5 1 1 1 1 1 1 1.5 1.5l.5 1 .5 1"/><path d="m440 19h1l-16.5-.5-16.5-.5h-13.5-13.5l-13.5.5-13.5.5h15 15 13.5 13.5 14.5 14.5"/></g><path d="m439 506v-1l-11.5 2.5-11.5 2.5-12 2-12 2-11 2.5-11 2.5-11.5 3-11.5 3-11.5 2-11.5 2-12.5 1.5-12.5 1.5-12 1.5-12 1.5-14 .5-14 .5h-13.5-13.5l-11.5-2.5-11.5-2.5 8.5-4 8.5-4 .5-2 .5-2-12 1.5-12 1.5-12 2-12 2-11.5 2-11.5 2-22 4-22 4-.5.5-.5.5-11.5 2.5-11.5 2.5-14.5.5-14.5.5h-1.5-1.5l-1.5 1-1.5 1-1.5.5-1.5.5h-1.5-1.5l-.5.5-.5.5-2 .5-2 .5-1.5.5-1.5.5-2 .5-2 .5-1.5.5-1.5.5-1.5.5-1.5.5-.5.5-.5.5-1 .5-1 .5-1.5.5-1.5.5h-1-1l-1 .5-1 .5-1.5.5-1.5.5-2 1.5-2 1.5v3.5 3.5 2 2 .5.5l17.5-1.5 17.5-1.5 13-2 13-2 11.5-2 11.5-2 11-2.5 11-2.5 11.5-2 11.5-2 12-1.5 12-1.5 13.5-1.5 13.5-1.5 11.5-2 11.5-2h11.5 11.5l12-1.5 12-1.5 13.5-1.5 13.5-1.5 11.5-1 11.5-1 12-1.5 12-1.5 13-2 13-2 11.5-2 11.5-2 10.5-3 10.5-3 10.5-3 10.5-3 12-3.5 12-3.5" style="fill:#c19b67;stroke:#c19b67"/><path d="m439 504l-1-3h-19-19l-3-2.5-3-2.5h-3-3l-13.5 2-13.5 2-12.5 1.5-12.5 1.5-12 2-12 2-21 2.5-21 2.5h-.5-.5l-12.5 2-12.5 2-12.5 1-12.5 1-12 1.5-12 1.5-12.5 1-12.5 1-11 2.5-11 2.5-13 2-13 2-11 3-11 3 22-4 22-4 11.5-2 11.5-2 12-2 12-2 12-1.5 12-1.5-.5 2-.5 2-8.5 4-8.5 4 11.5 2.5 11.5 2.5h13.5 13.5l14-.5 14-.5 12-1.5 12-1.5 12.5-1.5 12.5-1.5 11.5-2 11.5-2 11.5-3 11.5-3 11-2.5 11-2.5 12-2 12-2 11.5-2.5 11.5-2.5v-.5-.5" style="fill:#977549;stroke:#977549"/><g style="fill:#58270b;stroke:#58270b"><path d="m438 482l-38 3-11.5 2-11.5 2-12 2-12 2v2 2l15.5-1 15.5-1-.5-.5-.5-.5 15.5-3.5 15.5-3.5 12-2.5 12-2.5"/><path d="m432 473l-22-1v1.5 1.5l11-1 11-1"/></g><path d="m412 3l1-1h-23.5-23.5-13.5-13.5l-14-.5-14-.5-13.5.5-13.5.5-14 1-14 1-12.5 1-12.5 1-16 1.5-16 1.5-.5.5-.5.5h-1.5-1.5l-2-.5-2-.5-.5-1.5-.5-1.5-1.5-1-1.5-1h-2-2l-1.5.5-1.5.5-1 1.5-1 1.5-.5 1-.5 1-12.5 1.5-12.5 1.5-14 .5-14 .5h-.5-.5-1.5-1.5-1-1-1.5-1.5-1-1-1-1-1-1-1.5-1.5-1-1-1-1-1-1-1-1-1.5-1.5-1-1-1-1-1-1-1.5-1.5-1-1-1-1-1-1l-1.5-.5-1.5-.5h-1.5-1.5-2-2-2.5-2.5-2-2l-2-.5-2-.5h-2-2-2-2-3.5-3.5l-.5.5-.5.5h-2.5-2.5-2-2-2-2-2.5-2.5-2-2-2.5-2.5-2-2-2.5-2.5l-2-.5-2-.5h-.5-.5v1 1l19.5.5 19.5.5 13 .5 13 .5 14.5.5 14.5.5h13.5 13.5 13.5 13.5l12.5-1 12.5-1 13.5-1.5 13.5-1.5 12.5-1 12.5-1 12.5-1 12.5-1 12.5-1 12.5-1 11.5-1 11.5-1 14.5-.5 14.5-.5h13.5 13.5 13.5 13.5 15.5 15.5" style="fill:#3a3529;stroke:#3a3529"/><path d="m411 1l1-1h-14.5-14.5-15.5-15.5-15.5-15.5-15.5-15.5-15.5-15.5-15.5-15.5-13.5-13.5-15.5-15.5-15.5-15.5-15.5-15.5-15.5-15.5-15.5-15.5-15.5-15.5-7.5-7.5v6 6h.5.5 1.5 1.5 2 2 2.5 2.5 2 2 2.5 2.5 2 2 2.5 2.5 2 2 2 2 1.5 1.5 3.5 3.5 2 2 2 2l2 .5 2 .5h2 2 2.5 2.5 2 2 1.5 1.5 2.5 2.5 2.5 2.5 2 2 2 2 2.5 2.5 2 2 2.5 2.5 2 2 2.5 2.5 2 2l1 .5 1 .5 14-.5 14-.5 12.5-1.5 12.5-1.5-.5-1-.5-1 .5-1 .5-1 1-1 1-1 .5-.5.5-.5h1.5 1.5l1.5-.5 1.5-.5h1 1l1 .5 1 .5.5 1.5.5 1.5.5.5.5.5.5 1 .5 1h3 3l16-1.5 16-1.5 12.5-1 12.5-1 14-1 14-1 13.5-.5 13.5-.5h21 21 14 14 15 15" style="fill:#fff9d7;stroke:#fff9d7"/><path d="m397 94h1l-6.5 8.5-6.5 8.5-5.5 9.5-5.5 9.5-4 9.5-4 9.5-3 10.5-3 10.5-2 11.5-2 11.5 5.5-9 5.5-9 1.5-12 1.5-12 3.5-10 3.5-10 4.5-9 4.5-9 5.5-9.5 5.5-9.5" style="fill:#190f00;stroke:#190f00"/><path d="m394 495l-1-1h-2-2-1.5-1.5l-1 .5-1 .5-15.5 1-15.5 1v-2-2h-.5-.5l-.5.5-.5.5-7.5 4.5-7.5 4.5 12.5-1.5 12.5-1.5 13.5-2 13.5-2 1.5-.5 1.5-.5h1.5 1.5" style="fill:#5a3e24;stroke:#5a3e24"/><path d="m386 5l1-1-11.5 1-11.5 1-4-.5-4-.5-10-.5-10-.5 1 .5 1 .5h1.5 1.5l.5.5.5.5h1 1l.5.5.5.5-1 1-1 1h1.5 1.5l1.5-.5 1.5-.5 2-.5 2-.5 1.5.5 1.5.5h2.5 2.5 2 2l2-.5 2-.5 1 1 1 1h2.5 2.5 1 1l-2-1-2-1 2-.5 2-.5 1.5-.5 1.5-.5h2.5 2.5" style="fill:#3a3529;stroke:#3a3529"/><path d="m360 477h-25l-13.5 2-13.5 2-13.5 2-13.5 2-14 1.5-14 1.5-13.5 2-13.5 2-13.5 2-13.5 2 4 .5 4 .5 14-1.5 14-1.5 13-1.5 13-1.5 14-1.5 14-1.5 13.5-2 13.5-2 13.5-2 13.5-2 8.5-1.5 8.5-1.5" style="fill:#190f00;stroke:#190f00"/><path d="m358 254l1-4-.5-1-.5-1-1-1.5-1-1.5-.5-1.5-.5-1.5-.5-2-.5-2v-2-2l-.5-1-.5-1v-1.5-1.5h-.5-.5v2.5 2.5 2 2 2.5 2.5l.5 1.5.5 1.5.5 1.5.5 1.5 1 1.5 1 1.5.5 1 .5 1h.5.5" style="fill:#5a3e24;stroke:#5a3e24"/><g style="fill:#58270b;stroke:#58270b"><path d="m352 229h1v-1.5-1.5l-.5-1.5-.5-1.5.5-2 .5-2v-2-2l-.5-2-.5-2v-2-2-2-2l-.5 2.5-.5 2.5v2 2l-.5 2-.5 2v2 2l.5 1.5.5 1.5.5 1.5.5 1.5v1.5 1.5"/><path d="m351 494l1-1-11 2.5-11 2.5-2 1.5-2 1.5-13 2-13 2-11.5 2-11.5 2-12.5 1-12.5 1-12.5 1-12.5 1-13.5 1.5-13.5 1.5-12.5 1-12.5 1-12 1.5-12 1.5 8-3.5 8-3.5 12.5-2.5 12.5-2.5 11-2.5 11-2.5 12.5-3 12.5-3-6 .5-6 .5-13 2.5-13 2.5-12.5 3-12.5 3-11 2.5-11 2.5-10.5 2-10.5 2-11.5 2.5-11.5 2.5h10 10 8.5 8.5l8-1 8-1 12-1.5 12-1.5 12-1.5 12-1.5 12.5-1 12.5-1 17-1 17-1 21-2.5 21-2.5 12-2 12-2 7.5-4.5 7.5-4.5"/></g><path d="m345 7l-1-1h-1-1l-.5-.5-.5-.5h-1.5-1.5l-1-.5-1-.5-14.5.5-14.5.5-12.5 1-12.5 1-14.5 1-14.5 1 7.5 2 7.5 2 14.5-1 14.5-1 14.5-1 14.5-1h8.5 8.5l1-1 1-1" style="fill:#5a3e24;stroke:#5a3e24"/><path d="m329 8l-27-2 12.5 1 12.5 1h1 1" style="fill:#7a6246;stroke:#7a6246"/><path d="m301 17v-2l-1-1-1-1h-2.5-2.5l-1 1-1 1-1.5 1-1.5 1 1 1 1 1h2.5 2.5l1.5-.5 1.5-.5 1-.5 1-.5" style="fill:#3a3529;stroke:#3a3529"/><path d="m269 512h1l-17 1-17 1-12.5 1-12.5 1-12 1.5-12 1.5-12 1.5-12 1.5-8 1-8 1h-8.5-8.5-10-10l-1 .5-1 .5-2 .5-2 .5h-2-2l-1 1-1 1-6.5 3.5-6.5 3.5-12.5 1-12.5 1-1 1-1 1h-1-1-1-1-1.5-1.5l-1.5.5-1.5.5-.5-1-.5-1h-2-2-2-2-2-2l-2 .5-2 .5h-2-2-1.5-1.5l1.5.5 1.5.5h1 1 1.5 1.5 2 2l.5.5.5.5-1 .5-1 .5-1.5.5-1.5.5h-2-2l2 1 2 1 1 .5 1 .5h1 1 1 1l.5-.5.5-.5h1.5 1.5l.5-.5.5-.5h1 1 1 1 1.5 1.5 1 1 1 1 2 2 2.5 2.5l1.5-.5 1.5-.5h1 1 1.5 1.5 2 2l2-.5 2-.5 1.5-.5 1.5-.5 2-.5 2-.5 1.5-.5 1.5-.5h2.5 2.5l1.5-.5 1.5-.5h1.5 1.5l11-3 11-3 13-2 13-2 11-2.5 11-2.5 12.5-1 12.5-1 12-1.5 12-1.5 12.5-1 12.5-1 12.5-2 12.5-2" style="fill:#5a3e24;stroke:#5a3e24"/><path d="m261 27v-2h-1-1-1-1-1.5-1.5-1-1-2-2l-2.5-.5-2.5-.5h-2-2-2.5-2.5-2-2-1.5-1.5-1-1-2-2l-1.5-.5-1.5-.5-2-.5-2-.5h-2-2-2-2-1.5-1.5-3-3-2-2l-1 1-1 1 1 1.5 1 1.5 21 .5 21 .5 13-.5 13-.5" style="fill:#977549;stroke:#977549"/><path d="m220 35v-2h-2-2l-2-.5-2-.5h-2-2l-2-.5-2-.5h-2-2-2-2l1.5.5 1.5.5.5.5.5.5h-1.5-1.5-1.5-1.5-1-1l-1.5.5-1.5.5h1.5 1.5 2 2 2.5 2.5 2 2 2.5 2.5l1.5.5 1.5.5h2 2 1.5 1.5" style="fill:#5a3e24;stroke:#5a3e24"/><path d="m217 441v-2h-2-2l-2 .5-2 .5h-2-2l-2 .5-2 .5 1 1 1 1 2-.5 2-.5h2 2 2 2l1-.5 1-.5" style="fill:#763513;stroke:#763513"/><path d="m216 21h1l-18 .5-18 .5-13.5 1-13.5 1h1.5 1.5 1.5 1.5l.5.5.5.5h-1-1-1-1-1.5-1.5l-.5.5-.5.5h-1-1-1-1l-1.5.5-1.5.5h1 1 1.5 1.5 1.5 1.5 1 1 1 1l.5-.5.5-.5h1 1l1-.5 1-.5h1 1 1 1 1 1 1.5 1.5l.5-.5.5-.5 1.5.5 1.5.5 1.5-.5 1.5-.5h1 1l2-.5 2-.5 1 1 1 1 1.5.5 1.5.5 1.5.5 1.5.5-1-1.5-1-1.5 1-1 1-1h2 2 3 3l1-.5 1-.5h2 2 2 2 1.5 1.5" style="fill:#7a6246;stroke:#7a6246"/><path d="m204 561h-12l-7 7.5-7 7.5h.5.5l1-1 1-1v-1-1l.5-.5.5-.5 1-.5 1-.5.5-.5.5-.5.5-.5.5-.5.5-.5.5-.5 1-.5 1-.5 1.5-.5 1.5-.5.5-.5.5-.5 1-.5 1-.5 1-1 1-1 .5-.5.5-.5 1 .5 1 .5.5 2 .5 2 1-1 1-1 .5-1 .5-1" style="fill:#c19b67;stroke:#c19b67"/><path d="m200 568l1-3-.5-2-.5-2-1-.5-1-.5-.5.5-.5.5-1 1-1 1 1.5.5 1.5.5-.5 1.5-.5 1.5-.5 1-.5 1-.5 1.5-.5 1.5v2 2h.5.5l.5-1.5.5-1.5.5-1 .5-1 1-1.5 1-1.5" style="fill:#998f7b;stroke:#998f7b"/><path d="m200 33l-1-1-1.5-.5-1.5-.5h-2.5-2.5-.5-.5-1.5-1.5-1.5-1.5l-.5-.5-.5-.5.5-1 .5-1-.5-1.5-.5-1.5-.5.5-.5.5-.5.5-.5.5-.5.5-.5.5v.5.5l-1.5.5-1.5.5-.5.5-.5.5h-1.5-1.5-2-2-1-1-1.5-1.5v.5.5l-17.5 2-17.5 2-13 .5-13 .5-12.5 1-12.5 1h-14-14l-12-.5-12-.5-12.5-1-12.5-1 2.5.5 2.5.5 1.5.5 1.5.5h2.5 2.5l1.5.5 1.5.5h2.5 2.5l1.5.5 1.5.5.5.5.5.5-1.5.5-1.5.5-.5.5-.5.5h-1.5-1.5l-1.5.5-1.5.5-.5.5-.5.5-.5.5-.5.5h-1-1l-1 .5-1 .5-.5.5-.5.5h-1-1l-.5.5-.5.5-1 .5-1 .5-.5.5-.5.5-.5.5-.5.5-1 .5-1 .5v1 1l15-5.5 15-5.5 14-1.5 14-1.5 15-.5 15-.5 12.5-1 12.5-1 13-.5 13-.5 13.5-1 13.5-1h2 2l.5-.5.5-.5h1.5 1.5 1 1 1 1 1 1 1.5 1.5 1 1 2 2l1.5-.5 1.5-.5h1 1 1.5 1.5 1.5 1.5" style="fill:#58270b;stroke:#58270b"/><path d="m198 10l1-1h-3-3l-.5-1-.5-1-.5-.5-.5-.5-.5-1.5-.5-1.5-1-.5-1-.5h-1-1l-1.5.5-1.5.5h-1.5-1.5l-.5.5-.5.5-1 1-1 1-.5 1-.5 1 .5 1 .5 1 .5-1 .5-1 1-1.5 1-1.5 1.5-.5 1.5-.5h2 2l1.5 1 1.5 1 .5 1.5.5 1.5 2 .5 2 .5h1.5 1.5" style="fill:#dbd7ca;stroke:#dbd7ca"/><path d="m197 567l1-3-1.5-.5-1.5-.5-1 .5-1 .5-.5.5-.5.5-1.5.5-1.5.5-1 .5-1 .5-.5.5-.5.5-.5.5-.5.5-.5.5-.5.5-1 .5-1 .5-.5.5-.5.5v1 1l-1 1-1 1h2.5 2.5l1-1 1-1v-1-1l.5-.5.5-.5 1-.5 1-.5.5-.5.5-.5.5-.5.5-.5.5-.5.5-.5h1.5 1.5v1 1 1.5 1.5l.5-1.5.5-1.5.5-1 .5-1" style="fill:#977549;stroke:#977549"/><path d="m194 576h1v-2-2-1.5-1.5-1-1h-1.5-1.5l-.5.5-.5.5-.5.5-.5.5-.5.5-.5.5-1 .5-1 .5-.5.5-.5.5v1 1l-1 1-1 1h2.5 2.5 2 2 .5.5" style="fill:#7a6246;stroke:#7a6246"/><g style="fill:#763513;stroke:#763513"><path d="m190 31h1l-1.5-.5-1.5-.5-1-.5-1-.5.5-.5.5-.5v-1.5-1.5l-1-1-1-1-2 .5-2 .5h-1-1l-.5.5-.5.5-.5 1-.5 1-1 1-1 1-.5.5-.5.5h-1-1-1-1-1.5-1.5l-1.5.5-1.5.5h1.5 1.5 1 1 2 2 1.5 1.5l.5-.5.5-.5 1.5-.5 1.5-.5v-.5-.5l.5-.5.5-.5.5-.5.5-.5.5-.5.5-.5.5 1.5.5 1.5-.5 1-.5 1 .5.5.5.5h1.5 1.5 1.5 1.5"/><path d="m188 35l1-1h-2-2-1-1-1.5-1.5-1-1-1-1-1-1-1.5-1.5l-.5.5-.5.5h-2-2l2.5.5 2.5.5 1 .5 1 .5.5.5.5.5v1 1 1 1l.5 1 .5 1 .5.5.5.5h1 1l.5-.5.5-.5.5-1 .5-1 .5-.5.5-.5.5-.5.5-.5.5-.5.5-.5 1-1 1-1 1.5-1 1.5-1"/></g><path d="m183 491l-5-18-5.5.5-5.5.5h-10.5-10.5l-10 .5-10 .5-5.5 6-5.5 6-11 1-11 1-7.5 1-7.5 1-9.5-4-9.5-4 .5-3.5.5-3.5 11.5-2 11.5-2 11.5-2 11.5-2 13-1.5 13-1.5-1-1-1-1-12 .5-12 .5-12.5 1-12.5 1-13 1.5-13 1.5 8.5-2.5 8.5-2.5 11.5-2 11.5-2 11.5-2 11.5-2 13-1.5 13-1.5 12.5-1.5 12.5-1.5v-.5-.5l-12.5 1-12.5 1-13 1.5-13 1.5-11.5 2-11.5 2-12 1.5-12 1.5-12 1.5-12 1.5-11.5-.5-11.5-.5-12 2.5-12 2.5v2 2 1.5 1.5l12.5-1.5 12.5-1.5 10.5 2.5 10.5 2.5-23 4.5-23 4.5v2 2 2 2 2.5 2.5 2 2 2.5 2.5 2 2 2 2l2 .5 2 .5h2 2l1.5 1 1.5 1-.5 1.5-.5 1.5-2 .5-2 .5-1.5.5-1.5.5-1.5.5-1.5.5v2 2l23.5-3.5 23.5-3.5 11.5-2 11.5-2 11-2.5 11-2.5 9-4.5 9-4.5 13-2 13-2 12-1.5 12-1.5 11.5-3 11.5-3" style="fill:#190f00;stroke:#190f00"/><path d="m178 25l1-1-1.5.5-1.5.5-.5.5-.5.5-1.5.5-1.5.5h-1.5-1.5-2-2l-2 .5-2 .5h-2-2-2.5-2.5l-2-.5-2-.5h-1-1-2-2l-.5.5-.5.5-2 .5-2 .5-1.5.5-1.5.5h-2.5-2.5-2-2l-2 .5-2 .5-1.5-.5-1.5-.5-.5-1-.5-1-12 2-12 2h8.5 8.5l27-.5 27-.5 1.5-.5 1.5-.5h1.5 1.5 1 1 1 1l.5-.5.5-.5 1-1 1-1 .5-1 .5-1" style="fill:#984b20;stroke:#984b20"/><path d="m175 26l1-1-1.5-.5-1.5-.5-.5.5-.5.5h-1.5-1.5-1-1-1-1-1-1l-1 .5-1 .5h-1-1l-.5.5-.5.5h-1-1-1-1-1.5-1.5-1.5-1.5l2 .5 2 .5h2.5 2.5 2 2l2-.5 2-.5h2 2 1.5 1.5l1.5-.5 1.5-.5" style="fill:#977549;stroke:#977549"/><path d="m166 507l-25 2-12 1.5-12 1.5-13 2-13 2-11 2.5-11 2.5-11 2.5-11 2.5-10.5 3-10.5 3-9.5 2.5-9.5 2.5 13-.5 13-.5 7 1 7 1 .5 1 .5 1 1.5-.5 1.5-.5h1.5 1.5 1 1 1 1l1-1 1-1h-1.5-1.5v-1-1l-.5-.5-.5-.5h-1.5-1.5-2-2l1-1 1-1h1 1l1-.5 1-.5h2 2l.5-.5.5-.5h1.5 1.5 2 2 1 1l1-.5 1-.5 1 .5 1 .5-.5 1-.5 1h-1-1l-1 .5-1 .5h-1-1-1-1l-.5.5-.5.5-1-.5-1-.5h-1-1v1 1h1 1l-.5 1-.5 1 12.5-1 12.5-1 6.5-3.5 6.5-3.5-9.5 1.5-9.5 1.5 10-3.5 10-3.5 10-3.5 10-3.5 11-2.5 11-2.5 12.5-2.5 12.5-2.5" style="fill:#58270b;stroke:#58270b"/><path d="m163 32h1v-.5-.5l-27 .5-27 .5h-8.5-8.5l12-2 12-2h1.5 1.5 1.5 1.5 2.5 2.5 2 2l2-.5 2-.5h3 3 2 2l1.5-.5 1.5-.5h1 1 1 1l.5-.5.5-.5h1.5 1.5 1 1 1 1l-.5-.5-.5-.5h-1.5-1.5-1.5-1.5l-21 2-21 2-12.5 1.5-12.5 1.5-1 .5-1 .5-1.5.5-1.5.5.5.5.5.5h2.5 2.5 2 2 3.5 3.5l18.5-.5 18.5-.5 13.5-.5 13.5-.5" style="fill:#5a3e24;stroke:#5a3e24"/><path d="m141 28l1-1h-3-3l-2 .5-2 .5h-2-2-2.5-2.5-1.5-1.5-1.5-1.5l.5 1 .5 1 1.5.5 1.5.5 2-.5 2-.5h2 2 2.5 2.5l1.5-.5 1.5-.5 2-.5 2-.5" style="fill:#977549;stroke:#977549"/><path d="m130 449v-2h-2-2-2-2l-8.5 2.5-8.5 2.5 12.5-1.5 12.5-1.5" style="fill:#763513;stroke:#763513"/><path d="m127 53l-16-13-13.5 2-13.5 2-10 5.5-10 5.5-12 3.5-12 3.5 7.5 7 7.5 7 12.5-1 12.5-1 6.5-7 6.5-7 14.5-1 14.5-1 2.5-2.5 2.5-2.5" style="fill:#977549;stroke:#977549"/><path d="m123 14h1l-1-.5-1-.5h-2-2-2.5-2.5-2-2-2.5-2.5-2-2-2.5-2.5-2-2-2-2-2.5-2.5-2.5-2.5l1.5.5 1.5.5h1 1 1 1 1 1 1.5 1.5 1 1 1 1 1 1 1.5 1.5 1 1 1 1 1 1 1 1 1.5 1.5 1 1 1 1 1 1 1.5 1.5 1 1 1.5 1.5" style="fill:#dbd7ca;stroke:#dbd7ca"/><path d="m99 539l1-1h-1.5-1.5l-1.5.5-1.5.5h-2.5-2.5l-1.5.5-1.5.5-2 .5-2 .5-1.5.5-1.5.5-2 .5-2 .5h-2-2-1.5-1.5-1-1l-1.5.5-1.5.5h-2.5-2.5l-.5.5-.5.5h-2-2-3-3l14.5-.5 14.5-.5 11.5-2.5 11.5-2.5" style="fill:#977549;stroke:#977549"/><path d="m98 35l1-1h-3.5-3.5-2-2-2.5-2.5l-.5-.5-.5-.5 1.5-.5 1.5-.5 1-.5 1-.5h-1.5-1.5-1.5-1.5l-.5.5-.5.5h-1-1l-.5.5-.5.5-1.5.5-1.5.5 1 .5 1 .5.5.5.5.5 1.5-.5 1.5-.5h1.5 1.5 1 1 2 2 1.5 1.5 1 1 2 2" style="fill:#58270b;stroke:#58270b"/><g style="fill:#5a3e24;stroke:#5a3e24"><path d="m73 530l-2-1-1 .5-1 .5h-1-1-2-2-1.5-1.5l-.5.5-.5.5h-2-2l-1 .5-1 .5h-1-1l-1 1-1 1h2 2 1.5 1.5l.5.5.5.5v1 1h1.5 1.5l.5-1 .5-1h-1-1v-1-1h1 1l1 .5 1 .5.5-.5.5-.5h1 1 1 1l1-.5 1-.5h1 1l.5-1 .5-1"/><path d="m62 33v-2h-2-2l-2 .5-2 .5h-2-2-2.5-2.5-2-2l-1.5.5-1.5.5h-2-2l-1.5.5-1.5.5 1 .5 1 .5h2 2 2.5 2.5 2 2 2.5 2.5 3 3l1.5-.5 1.5-.5 1-.5 1-.5"/></g><path d="m57 545l1-1h-2-2-1-1-1-1-1.5-1.5-1-1-1-1l-.5.5-.5.5h-1.5-1.5l-.5.5-.5.5h-1-1-1-1l-1-.5-1-.5-1 1-1 1 2.5.5 2.5.5h1.5 1.5l1.5-.5 1.5-.5 1.5-1 1.5-1h1.5 1.5 3 3 2 2" style="fill:#7a6246;stroke:#7a6246"/><path d="m56 36l1-1h-3-3-2.5-2.5-2-2-2.5-2.5-2-2l-1-.5-1-.5 1.5-.5 1.5-.5h2 2l1.5-.5 1.5-.5-5 2-5 2h12.5 12.5" style="fill:#58270b;stroke:#58270b"/><path d="m46 477l-21-5-12.5 1.5-12.5 1.5v2 2 2.5 2.5 1 1l23-4.5 23-4.5" style="fill:#3b1d07;stroke:#3b1d07"/><path d="m41 13l1-1h-1.5-1.5-2-2-2-2-2.5-2.5-2-2-2.5-2.5-2-2-2.5-2.5-2-2-1.5-1.5l2 .5 2 .5h2.5 2.5 2 2 2.5 2.5 2 2 2.5 2.5 2 2 2 2 2.5 2.5" style="fill:#caad84;stroke:#caad84"/><path d="m40 21l1-3h-1-1-1-1-1.5-1.5l-.5-.5-.5-.5h-1-1-1-1-1.5-1.5-1-1-1-1-1-1-1.5-1.5-1-1-1-1-1-1-1-1l-.5-.5-.5-.5h-1.5-1.5-1-1l-1.5.5-1.5.5v2.5 2.5 1 1h2.5 2.5 1 1 1 1 1 1 1.5 1.5 1 1l.5-.5.5-.5h1 1 2 2 1.5 1.5 1 1l1.5-.5 1.5-.5h1.5 1.5 1 1 1 1l1-.5 1-.5" style="fill:#5a3e24;stroke:#5a3e24"/><path d="m37 541l-1-1h-2-2-1.5-1.5-1-1l-1.5-.5-1.5-.5h-3-3-1.5-1.5l-.5.5-.5.5h-2-2-1.5-1.5-1-1-1-1-1.5-1.5v1.5 1.5h1.5 1.5 1.5 1.5 1 1l1-.5 1-.5h2 2 1 1 1.5 1.5 2 2l.5.5.5.5-2 1-2 1h-2.5-2.5l-1.5.5-1.5.5-1.5.5-1.5.5 2.5.5 2.5.5 1.5-.5 1.5-.5h1 1l.5-.5.5-.5h1.5 1.5 2 2l2.5-.5 2.5-.5-2-1-2-1h2 2l1.5-.5 1.5-.5 1-.5 1-.5" style="fill:#7a6246;stroke:#7a6246"/><path d="m34 549l1-1-2.5-.5-2.5-.5 1-1 1-1-2.5.5-2.5.5.5.5.5.5-1.5.5-1.5.5-.5.5-.5.5h-1.5-1.5l-.5.5-.5.5-.5.5-.5.5h-1-1l-.5.5-.5.5-.5.5-.5.5-1 .5-1 .5h-1-1l-.5.5-.5.5-.5.5-.5.5-1 .5-1 .5h-1-1l-.5.5-.5.5-.5.5-.5.5h-1.5-1.5v1.5 1.5l2-1.5 2-1.5 1.5-.5 1.5-.5 1-.5 1-.5h1 1l1.5-.5 1.5-.5 1-.5 1-.5.5-.5.5-.5 1.5-.5 1.5-.5 1.5-.5 1.5-.5 2-.5 2-.5 1.5-.5 1.5-.5 2-.5 2-.5" style="fill:#977549;stroke:#977549"/><path d="m30 135l1-3-.5-1.5-.5-1.5-1-1.5-1-1.5-1-1-1-1-2-.5-2-.5h-2-2l-2-.5-2-.5-1.5.5-1.5.5h-2-2l-2 .5-2 .5-1.5.5-1.5.5v2.5 2.5 2 2 2.5 2.5l1.5.5 1.5.5h1.5 1.5l.5 1.5.5 1.5 1.5-.5 1.5-.5 2-.5 2-.5 1.5-.5 1.5-.5 2-.5 2-.5 1.5-.5 1.5-.5 1-1.5 1-1.5h2 2" style="fill:#763513;stroke:#763513"/><path d="m28 547l-1-1h-2-2-1.5-1.5l-.5.5-.5.5h-1-1l-1.5.5-1.5.5 1 .5 1 .5v.5.5l-1 .5-1 .5-1 .5-1 .5-1.5.5-1.5.5h-1-1l-.5.5-.5.5h-1-1l-2 .5-2 .5v2 2h1.5 1.5l.5-.5.5-.5.5-.5.5-.5h1 1l1-.5 1-.5.5-.5.5-.5.5-.5.5-.5h1 1l1-.5 1-.5.5-.5.5-.5.5-.5.5-.5h1 1l.5-.5.5-.5.5-.5.5-.5h1.5 1.5l.5-.5.5-.5 1.5-.5 1.5-.5" style="fill:#c19b67;stroke:#c19b67"/><path d="m26 41l-1-1-1.5-.5-1.5-.5h-2.5-2.5l-1.5-.5-1.5-.5h-2.5-2.5l-1.5-.5-1.5-.5-2.5-.5-2.5-.5h-.5-.5v3 3 2.5 2.5 2 2 1 1l1-.5 1-.5.5-.5.5-.5.5-.5.5-.5 1-.5 1-.5.5-.5.5-.5h1 1l.5-.5.5-.5 1-.5 1-.5h1 1l.5-.5.5-.5.5-.5.5-.5 1.5-.5 1.5-.5h1.5 1.5l.5-.5.5-.5 1.5-.5 1.5-.5" style="fill:#984b20;stroke:#984b20"/><path d="m24 543l-1-1h-2-2-1.5-1.5-1-1-2-2l-1 .5-1 .5h-1-1-1.5-1.5-1.5-1.5v.5.5l2.5.5 2.5.5-.5.5-.5.5 2.5.5 2.5.5 1.5-.5 1.5-.5 1.5-.5 1.5-.5h2.5 2.5l2-1 2-1" style="fill:#c19b67;stroke:#c19b67"/><path d="m16 550v-1l-1-.5-1-.5-2.5-.5-2.5-.5-2.5-.5-2.5-.5.5-.5.5-.5-2.5-.5-2.5-.5v1.5 1.5 2 2 2 2l2-.5 2-.5h1 1l.5-.5.5-.5h1 1l1.5-.5 1.5-.5 1-.5 1-.5 1-.5 1-.5" style="fill:#caad84;stroke:#caad84"/><path d="m13 366l1-3v-1-1l-.5-.5-.5-.5-.5-.5-.5-.5-.5-1.5-.5-1.5-1-.5-1-.5-.5-.5-.5-.5-.5-1.5-.5-1.5-.5-1-.5-1-.5-.5-.5-.5-1-.5-1-.5h-1.5-1.5v2.5 2.5 2.5 2.5 2 2 2.5 2.5 2 2 2.5 2.5 2 2l1.5-1 1.5-1 1.5-.5 1.5-.5 1.5-1 1.5-1 1-1 1-1 1-1.5 1-1.5v-1.5-1.5" style="fill:#3b1d07;stroke:#3b1d07"/><path d="m11 121l1-3-.5-1.5-.5-1.5h-2.5-2.5l-1.5.5-1.5.5-.5 2-.5 2 1.5.5 1.5.5h2.5 2.5.5.5" style="fill:#763513;stroke:#763513"/><path d="m10 522l1-3-1.5-1-1.5-1h-2-2l-2-.5-2-.5v2 2 2 2 .5.5l1.5-.5 1.5-.5 1.5-.5 1.5-.5 2-.5 2-.5" style="fill:#3b1d07;stroke:#3b1d07"/></g></svg>