<svg xmlns="http://www.w3.org/2000/svg" viewBox="0 0 960 576"><path d="m0 0h960v576h-960z" style="fill:#1c0f00"/><g style="stroke-linejoin:round;stroke-width:.7"><path d="m959 576h1v-1.5-1.5h-.5-.5-1.5-1.5l-1-.5-1-.5h-1-1l-.5-.5-.5-.5h-1-1-1.5-1.5-1-1-1-1l-.5-.5-.5-.5h-1.5-1.5-1-1-1-1-1-1-1-1l-1.5-.5-1.5-.5h-.5-.5-46-46-.5-.5l-.5.5-.5.5h-36.5-36.5l-1 .5-1 .5-1.5.5-1.5.5-2-.5-2-.5h-2-2-2-2l-2 .5-2 .5h-2-2l-2 .5-2 .5h-2-2l-2 .5-2 .5v1 1h29 29 28.5 28.5 29 29 29 29 3 3" style="fill:#6c6148;stroke:#6c6148"/><path d="m959 573h1v-1.5-1.5-2-2-2.5-2.5-2-2-2.5-2.5-2-2-2.5-2.5-2-2-2-2-2.5-2.5-2-2-.5-.5h-.5-.5l-.5.5-.5.5-2 19.5-2 19.5h-.5-.5-1.5-1.5-3-3l-.5.5-.5.5h-2.5-2.5-2-2-1-1l-1 .5-1 .5h-3-3v.5.5l1.5.5 1.5.5 1.5.5 1.5.5h1 1 1 1 1 1 1 1 1.5 1.5l.5.5.5.5h1 1 1 1 1.5 1.5 1 1l.5.5.5.5h1 1l1 .5 1 .5h1.5 1.5" style="fill:#3d2d13;stroke:#3d2d13"/><path d="m959 525h1v-1.5-1.5-2-2-2-2h-.5-.5l-22.5-2.5-22.5-2.5-49-.5-49-.5-1 .5-1 .5h-2-2l-1.5.5-1.5.5-1.5 1-1.5 1-1 1-1 1-1.5 1-1.5 1-1.5.5-1.5.5-1 1.5-1 1.5-1.5.5-1.5.5-.5.5-.5.5h-28-28l-27 .5-27 .5-23.5 6-23.5 6-34 20.5-34 20.5h1.5 1.5l15.5-14 15.5-14 36-10 36-10 26-2 26-2 30.5 2 30.5 2-.5 1-.5 1-.5.5-.5.5-.5.5-.5.5-1 .5-1 .5-.5.5-.5.5-1 1-1 1 15.5-9.5 15.5-9.5 24-5 24-5 27 1.5 27 1.5 25.5 7.5 25.5 7.5" style="fill:#0a0600;stroke:#0a0600"/><path d="m959 514h1v-30.5-30.5-28.5-28.5-13-13h-.5-.5l-22.5-2.5-22.5-2.5 1 .5 1 .5 2 .5 2 .5h2 2 2.5 2.5l1.5.5 1.5.5h2.5 2.5 2 2l2 .5 2 .5-.5 1.5-.5 1.5-26.5-2.5-26.5-2.5-26-.5-26-.5-27.5-1.5-27.5-1.5-28 1-28 1-26.5-.5-26.5-.5-50-1-50-1 29 1 29 1 28 1 28 1 24.5-.5 24.5-.5 11.5 9 11.5 9 10 7 10 7 6.5 1.5 6.5 1.5 6.5 7.5 6.5 7.5 2 2.5 2 2.5-1 6-1 6 11-7 11-7 6 6 6 6 1.5 3 1.5 3-1.5 4.5-1.5 4.5 5.5-1.5 5.5-1.5 9-.5 9-.5-9.5 12.5-9.5 12.5 5.5 6.5 5.5 6.5 10.5 11.5 10.5 11.5-35 3-35 3 50 .5 50 .5 22.5 2.5 22.5 2.5" style="fill:#1c0f00;stroke:#1c0f00"/><path d="m959 370h1v-1.5-1.5-1.5-1.5h-.5-.5l-22-1.5-22-1.5-45.5-.5-45.5-.5h-.5-.5-2-2-1-1l-.5-.5-.5-.5h-1-1-1.5-1.5-.5-.5-1.5-1.5-1-1-1.5-1.5l2.5.5 2.5.5h2 2l1.5.5 1.5.5 32.5 1 32.5 1 2 .5 2 .5h2 2 2.5 2.5l1.5.5 1.5.5h2 2 2.5 2.5 2 2 3 3l22.5 2.5 22.5 2.5" style="fill:#341e07;stroke:#341e07"/><path d="m959 364h1v-1.5-1.5-2-2-2.5-2.5-2-2-2.5-2.5-2-2-.5-.5h-.5-.5l-22 11.5-22 11.5 22 1.5 22 1.5" style="fill:#43351c;stroke:#43351c"/><path d="m959 338h1v-30.5-30.5-28.5-28.5-29-29-29-29-3.5-3.5h-.5-.5l-3.5-1.5-3.5-1.5-9-20-9-20-.5-27-.5-27h-29-29-29-29-1-1l-1 21-1 21-6 22.5-6 22.5-3 25-3 25v26 26l1.5 25.5 1.5 25.5 5.5 23 5.5 23-4 13-4 13 11.5 24 11.5 24 45.5.5 45.5.5 22-11.5 22-11.5" style="fill:#534223;stroke:#534223"/><path d="m959 97h1v-30.5-30.5-18-18h-10.5-10.5-3-3l.5 27 .5 27 9 20 9 20 3.5 1.5 3.5 1.5" style="fill:#43351c;stroke:#43351c"/><path d="m958 526l1-1h-.5-.5l-23.5-6-23.5-6 20 13.5 20 13.5-.5 11-.5 11 1.5.5 1.5.5.5 1 .5 1 2-19.5 2-19.5" style="fill:#341e07;stroke:#341e07"/><path d="m958 525h1l-25.5-7.5-25.5-7.5-27-1.5-27-1.5-24 5-24 5-15.5 9.5-15.5 9.5-1 1-1 1-.5 2-.5 2 4.5 11.5 4.5 11.5h28.5 28.5l40.5-.5 40.5-.5-1-.5-1-.5h-1.5-1.5-2-2-.5-.5l-32-.5-32-.5h-34-34v-.5-.5l-1-.5-1-.5-.5-.5-.5-.5h-1.5-1.5l.5-.5.5-.5.5-.5.5-.5 1-.5 1-.5h-1-1l21.5-19.5 21.5-19.5 2-.5 2-.5h1 1l.5-.5.5-.5h1 1l1-.5 1-.5 1.5-.5 1.5-.5h1 1 1.5 1.5 2 2l.5.5.5.5h1.5 1.5 2 2l1-.5 1-.5 18-1.5 18-1.5h1.5 1.5 1.5 1.5 1 1 1 1l.5.5.5.5h1.5 1.5 1.5 1.5 1.5 1.5l.5.5.5.5h1 1l1.5.5 1.5.5 23.5 6 23.5 6" style="fill:#1c0f00;stroke:#1c0f00"/><path d="m953 565h1l-.5-1-.5-1-1.5-.5-1.5-.5-13.5-10-13.5-10-12-15.5-12-15.5h-1.5-1.5l-.5-.5-.5-.5h-1-1-1-1-1.5-1.5-1.5-1.5l6 10.5 6 10.5 24.5 16 24.5 16-2.5.5-2.5.5-2-.5-2-.5h-2-2-2.5-2.5-2-2l-1.5-.5-1.5-.5h-2.5-2.5-3-3v.5.5h2 2 1.5 1.5l1 .5 1 .5h1 1 1.5 1.5l2 .5 2 .5h2 2 2.5 2.5 2 2 1.5 1.5 3 3 1.5 1.5" style="fill:#43351c;stroke:#43351c"/><path d="m951 540l-40-27-1.5-.5-1.5-.5h-1-1l-.5-.5-.5-.5h-1.5-1.5-1.5-1.5l12 15.5 12 15.5 13.5 10 13.5 10 .5-11 .5-11" style="fill:#3d2d13;stroke:#3d2d13"/><path d="m946 563l-49-32-6-10.5-6-10.5-18 1.5-18 1.5 1.5-.5 1.5-.5h2.5 2.5l1.5-.5 1.5-.5h2.5 2.5 2 2 2.5 2.5 2 2 2.5 2.5l.5 1.5.5 1.5.5 1 .5 1 1 1 1 1v1 1l-23 18-23 18-32 3-32 3h34 34 32.5 32.5 3 3 2.5 2.5l1.5.5 1.5.5h2 2 2.5 2.5 2 2l2 .5 2 .5 2.5-.5 2.5-.5" style="fill:#534223;stroke:#534223"/><path d="m944 372l1-3-2-.5-2-.5h-2-2-2.5-2.5l-1.5-.5-1.5-.5h-2.5-2.5-2-2l-2-.5-2-.5-1-.5-1-.5h-3-3-2-2-2.5-2.5-2-2l-1.5-.5-1.5-.5h-2.5-2.5-2-2l-2-.5-2-.5h-.5-.5l-32-1-32-1h-.5-.5l-29-1-29-1-13-12.5-13-12.5 1-28 1-28 1.5-27.5 1.5-27.5.5-28.5.5-28.5 1.5-26 1.5-26 1.5-27.5 1.5-27.5 1-28 1-28v-1.5-1.5h-2-2l-.5.5-.5.5-1.5-.5-1.5-.5h-2-2v1.5 1.5 1.5 1.5l-.5 1.5-.5 1.5-1.5 28-1.5 28-1 27-1 27-1.5 27.5-1.5 27.5v26.5 26.5l-.5 28.5-.5 28.5-1.5 27.5-1.5 27.5-8.5 4-8.5 4 .5-26.5.5-26.5 1.5-27.5 1.5-27.5 1-28 1-28 1-27.5 1-27.5.5-28.5.5-28.5 1-35.5 1-35.5h-1.5-1.5-.5-.5v1.5 1.5 2 2 2 2l-.5 1.5-.5 1.5-.5 29-.5 29-1 28-1 28-1 27-1 27-1 27.5-1 27.5-1.5 27.5-1.5 27.5-.5 28.5-.5 28.5-21 5.5-21 5.5h-46-46 2 2l2 .5 2 .5 2.5.5 2.5.5 50 1 50 1 26.5.5 26.5.5 28-1 28-1 27.5 1.5 27.5 1.5 26 .5 26 .5 26.5 2.5 26.5 2.5" style="fill:#0a0600;stroke:#0a0600"/><path d="m943 566l1-1h-1.5-1.5-2-2-2.5-2.5-2-2l-2-.5-2-.5h-1.5-1.5l2 .5 2 .5.5.5.5.5h-29-29l-28 .5-28 .5h-29-29l-31.5 4.5-31.5 4.5h2 2 2 2 2.5 2.5 2 2 2 2 2.5 2.5 2 2 .5.5v-1-1l2-.5 2-.5h2 2l2-.5 2-.5h2 2l2-.5 2-.5h2 2 2 2l2 .5 2 .5 1.5-.5 1.5-.5 1-.5 1-.5 37-.5 37-.5h.5.5l.5-.5.5-.5 44.5-.5 44.5-.5h3 3l1-.5 1-.5h1 1 2 2 2.5 2.5" style="fill:#1c0f00;stroke:#1c0f00"/><path d="m926 569h1l-1.5-.5-1.5-.5h-.5-.5-44-44l-.5.5-.5.5h46 46" style="fill:#64583f;stroke:#64583f"/><path d="m926 566l-1-1-2-.5-2-.5h-1-1l-40.5.5-40.5.5h-28.5-28.5l-4.5-11.5-4.5-11.5-.5 1.5-.5 1.5-1.5 1-1.5 1-.5 1.5-.5 1.5-1 1-1 1-1.5 2-1.5 2-.5 1-.5 1-23 6-23 6-26 1.5-26 1.5-35 1.5-35 1.5h29.5 29.5 19.5 19.5l31.5-4.5 31.5-4.5h29 29l28-.5 28-.5h29 29" style="fill:#0a0600;stroke:#0a0600"/><path d="m923 568h1v-.5-.5l-44.5.5-44.5.5h44 44" style="fill:#43351c;stroke:#43351c"/><path d="m909 563h1v-.5-.5h-32.5-32.5l32 .5 32 .5" style="fill:#3d2d13;stroke:#3d2d13"/><path d="m887 520v-2l-.5.5-.5.5-22.5 18.5-22.5 18.5 23-18 23-18" style="fill:#5c4c28;stroke:#5c4c28"/><path d="m886 519l1-1-1-1-1-1h-.5-.5l-2-.5-2-.5-1-1-1-1-1.5-.5-1.5-.5h-1-1-1.5-1.5-2-2-1-1-1.5-1.5l-1.5.5-1.5.5h-2.5-2.5-2-2l-1 .5-1 .5h-2-2-1.5-1.5l-.5-.5-.5-.5h-2-2-1.5-1.5-1-1l-1.5.5-1.5.5-1 .5-1 .5h-1-1l-.5.5-.5.5h-1-1l-2 .5-2 .5-.5.5-.5.5-21 19-21 19h1 1l1-.5 1-.5 1-1 1-1 1.5-1 1.5-1 1-1 1-1 .5-1.5.5-1.5 1.5-1 1.5-1 1-1 1-1 1.5-1.5 1.5-1.5 22.5-3 22.5-3-16 12.5-16 12.5h-2.5-2.5-2.5-2.5l-1.5.5-1.5.5-2 .5-2 .5h-2-2-2-2l-2 .5-2 .5v.5.5l32-3 32-3 22.5-18.5 22.5-18.5" style="fill:#64583f;stroke:#64583f"/><path d="m885 502l-21-23-5.5-6.5-5.5-6.5 9.5-12.5 9.5-12.5-9 .5-9 .5-5.5 1.5-5.5 1.5 1.5-4.5 1.5-4.5-1.5-3-1.5-3-6-6-6-6-11 7-11 7 1-6 1-6-2-2.5-2-2.5-6.5-7.5-6.5-7.5-6.5-1.5-6.5-1.5-10-7-10-7-11.5-9-11.5-9-24.5.5-24.5.5-28-1-28-1-29-1-29-1-2.5-.5-2.5-.5-2-.5-2-.5h-2-2l15.5-1.5 15.5-1.5 20-2 20-2-8.5-5-8.5-5-26.5-1.5-26.5-1.5-3-25-3-25v-28-28-28.5-28.5l19-10 19-10 26.5-.5 26.5-.5-1-26.5-1-26.5-17.5-8.5-17.5-8.5-24.5.5-24.5.5 1.5-43.5 1.5-43.5h-3-3-2-2v1.5 1.5l-.5 28.5-.5 28.5-1 26-1 26-.5 26.5-.5 26.5v27.5 27.5l-1 28-1 28-.5 26.5-.5 26.5-29.5 15-29.5 15-30 .5-30 .5-21.5 6.5-21.5 6.5-14 14.5-14 14.5-1 6-1 6-4 7-4 7 2 13 2 13-1.5 13-1.5 13 10.5 2.5 10.5 2.5 9.5 8.5 9.5 8.5 8.5 10.5 8.5 10.5 14.5 1 14.5 1 13 10 13 10 24 15.5 24 15.5h27.5 27.5l34-20.5 34-20.5 23.5-6 23.5-6 26.5-1 26.5-1h29 29l1.5-.5 1.5-.5 1-1.5 1-1.5 1.5-.5 1.5-.5 1.5-1 1.5-1 1-1 1-1 1.5-1 1.5-1 1.5-.5 1.5-.5h2 2l1-.5 1-.5 35-3 35-3" style="fill:#341e07;stroke:#341e07"/><path d="m884 516h1l-.5-1-.5-1-.5-1.5-.5-1.5h-2.5-2.5-2-2-2.5-2.5-2-2-2.5-2.5l-1.5.5-1.5.5h-2.5-2.5l-1.5.5-1.5.5h2 2 2.5 2.5l1.5-.5 1.5-.5h1.5 1.5 1 1 2 2 1.5 1.5 1 1l1.5.5 1.5.5 1 1 1 1 2 .5 2 .5" style="fill:#5c4c28;stroke:#5c4c28"/><path d="m878 363h1l-32.5-1-32.5-1 32 1 32 1" style="fill:#1c0f00;stroke:#1c0f00"/><path d="m838 533l-45 6 13.5 5 13.5 5-1 1-1 1v1 1l-1 1.5-1 1.5-1.5-.5-1.5-.5v-1.5-1.5l-1-1-1-1-2 .5-2 .5-1 1-1 1 1 1 1 1-.5 1.5-.5 1.5 16-12.5 16-12.5" style="fill:#6c6148;stroke:#6c6148"/><path d="m832 570l1-1-37 .5-37 .5h36.5 36.5" style="fill:#64583f;stroke:#64583f"/><path d="m823 360h1l-11.5-24-11.5-24 4-13 4-13-5.5-23-5.5-23-1.5-25.5-1.5-25.5v-26-26l3-25 3-25 6-22.5 6-22.5 1-21 1-21h-2.5-2.5-2.5-2.5-2-2-2.5-2.5-2-2-2.5-2.5-2-2-2-2-.5-.5l3 22 3 22v24.5 24.5l.5 26.5.5 26.5-.5 27-.5 27 1 28 1 28 2 24 2 24 10.5 27.5 10.5 27.5h1.5 1.5 1 1l.5.5.5.5h1 1 2 2" style="fill:#43351c;stroke:#43351c"/><path d="m820 549l-27-10-1.5 1.5-1.5 1.5-1 1-1 1-1.5 1-1.5 1-.5 1.5-.5 1.5-1 1-1 1-1.5 1-1.5 1-1 1-1 1-1 .5-1 .5-1 .5-1 .5-.5.5-.5.5-.5.5-.5.5h1.5 1.5l.5.5.5.5 1 .5 1 .5 2-.5 2-.5h2 2 2 2l2-.5 2-.5 1.5-.5 1.5-.5h2.5 2.5 2.5 2.5l.5-1.5.5-1.5-1-1-1-1 1-1 1-1 2-.5 2-.5 1 1 1 1v1.5 1.5l1.5.5 1.5.5 1-1.5 1-1.5v-1-1l1-1 1-1" style="fill:#71674f;stroke:#71674f"/><path d="m815 518l1-1-21.5 19.5-21.5 19.5 21-19 21-19" style="fill:#534223;stroke:#534223"/><path d="m813 361h1l-1.5-.5-1.5-.5h-2-2l-2.5-.5-2.5-.5h-1.5-1.5-2-2-2-2-2.5-2.5-2-2-2-2-1-1-1.5-1.5l-2-.5-2-.5-19.5-6-19.5-6 1.5-27.5 1.5-27.5 1.5-42 1.5-42-.5-1.5-.5-1.5v-1-1-1-1-1.5-1.5-1-1-1-1-1-1-1-1l.5-2 .5-2 1.5-27.5 1.5-27.5 1-27.5 1-27.5 1-36 1-36-1 28-1 28-1.5 27.5-1.5 27.5-1.5 26-1.5 26-.5 28.5-.5 28.5-1.5 27.5-1.5 27.5-1 28-1 28 13 12.5 13 12.5 29 1 29 1" style="fill:#1c0f00;stroke:#1c0f00"/><path d="m810 359h1l-10.5-27.5-10.5-27.5-2-24-2-24-1-28-1-28 .5-27 .5-27-.5-26.5-.5-26.5v-24.5-24.5l-3-22-3-22h-2-2-2-2-1-1l2 26.5 2 26.5.5 38.5.5 38.5-.5 27.5-.5 27.5v26 26l-2 25-2 25 .5 35.5.5 35.5 2 .5 2 .5h1.5 1.5 1 1 2 2 2 2 2.5 2.5 2 2 2 2 1.5 1.5 1.5 1.5 1 1 1.5 1.5" style="fill:#3d2d13;stroke:#3d2d13"/><g style="fill:#1c0f00;stroke:#1c0f00"><path d="m789 522l1-1h-29-29l-26.5 1-26.5 1 27-.5 27-.5h28 28"/><path d="m783 528l-61-4-26 2-26 2 27-1.5 27-1.5 28.5 1.5 28.5 1.5-.5 1-.5 1-1 .5-1 .5-.5.5-.5.5-.5 1-.5 1-.5 1-.5 1 1-1 1-1 .5-.5.5-.5 1-.5 1-.5.5-.5.5-.5.5-.5.5-.5.5-1 .5-1"/></g><g style="fill:#341e07;stroke:#341e07"><path d="m781 528l-57-3-27 1.5-27 1.5-36 10-36 10-15.5 14-15.5 14h1 1l36.5-19.5 36.5-19.5h2 2l2-1 2-1 25.5-4 25.5-4h29.5 29.5 1.5 1.5 1.5 1.5 2 2 1 1 1.5 1.5l1 1 1 1 .5 1 .5 1 1-.5 1-.5.5-1 .5-1"/><path d="m777 532l1-1h-.5-.5l-16.5 16.5-16.5 16.5h-.5-.5l1.5.5 1.5.5.5-.5.5-.5h1.5 1.5 2 2 1 1l.5-1 .5-1 1-1 1-1 .5-.5.5-.5 1-1.5 1-1.5 1.5-2 1.5-2 1-1 1-1 .5-1.5.5-1.5 1.5-1 1.5-1 .5-1.5.5-1.5.5-2 .5-2 1-1 1-1 .5-1 .5-1 .5-1 .5-1"/></g><path d="m777 531h1l-.5-1-.5-1-1-1-1-1h-1.5-1.5-1-1-2-2-1.5-1.5-1.5-1.5l1 .5 1 .5h1.5 1.5 1 1 1 1l.5.5.5.5-14.5 7.5-14.5 7.5 1.5 10 1.5 10 16.5-16.5 16.5-16.5" style="fill:#3d2d13;stroke:#3d2d13"/><path d="m773 130l-1-77-2-26.5-2-26.5h-3-3-2-2-2.5-2.5-2-2-2.5-2.5-.5-.5v1.5 1.5l-1 36-1 36-1 27.5-1 27.5-1.5 27.5-1.5 27.5 1 1 1 1v2.5 2.5 2 2 2.5 2.5 2 2l-.5 1.5-.5 1.5-.5-.5-.5-.5-1.5 42-1.5 42-1.5 27.5-1.5 27.5 19.5 6 19.5 6-.5-35.5-.5-35.5 2-25 2-25v-26-26l.5-27.5.5-27.5" style="fill:#341e07;stroke:#341e07"/><path d="m770 529l-1-1h-1-1-1-1-1.5-1.5l-1-.5-1-.5h-29.5-29.5l-25.5 4-25.5 4 9.5 3 9.5 3-11 15-11 15 48-3.5 48-3.5h.5.5l-1.5-10-1.5-10 14.5-7.5 14.5-7.5" style="fill:#43351c;stroke:#43351c"/><g style="fill:#1c0f00;stroke:#1c0f00"><path d="m761 558l1-2-1 1.5-1 1.5-.5.5-.5.5-1 1-1 1-.5 1-.5 1h-1-1-2-2-1.5-1.5l-.5.5-.5.5-1.5-.5-1.5-.5-48 3.5-48 3.5h-2.5-2.5-1-1-1-1-1-1-1.5-1.5-2-2-1-1-1.5-1.5-2-2-3-3l-2 .5-2 .5h-1.5-1.5-3-3-2-2l-1.5.5-1.5.5-2 1.5-2 1.5h1.5 1.5l35-1.5 35-1.5 26-1.5 26-1.5 23-6 23-6"/><path d="m738 1l1-1h-2-2l1.5.5 1.5.5"/></g><path d="m737 208l1-3v-2-2-2.5-2.5-2-2-2.5-2.5l-1-1-1-1-.5 2-.5 2v1 1 1 1 1 1 1 1 1.5 1.5 1 1 1 1l.5 1.5.5 1.5.5.5.5.5" style="fill:#3d2d13;stroke:#3d2d13"/><g style="fill:#1c0f00;stroke:#1c0f00"><path d="m730 9l1-3v-1.5-1.5-1.5-1.5h-1.5-1.5-2-2-2.5-2.5-2-2-1.5-1.5l-1 35.5-1 35.5-.5 28.5-.5 28.5-1 27.5-1 27.5-1 28-1 28-1.5 27.5-1.5 27.5-.5 26.5-.5 26.5 8.5-4 8.5-4 1.5-27.5 1.5-27.5.5-28.5.5-28.5v-26.5-26.5l1.5-27.5 1.5-27.5 1-27 1-27 1.5-28 1.5-28"/><path d="m707 14l1-3v-2-2-2-2-1.5-1.5h-3.5-3.5-2-2-2-2v38 38l-27 3-27 3-27 2-27 2-11-15-11-15 1.5-28 1.5-28h-.5-.5l-1.5 43.5-1.5 43.5 24.5-.5 24.5-.5 17.5 8.5 17.5 8.5 1 26.5 1 26.5-26.5.5-26.5.5-19 10-19 10v28.5 28.5 28 28l3 25 3 25 26.5 1.5 26.5 1.5 8.5 5 8.5 5-20 2-20 2-15.5 1.5-15.5 1.5h46 46l21-5.5 21-5.5.5-28.5.5-28.5 1.5-27.5 1.5-27.5 1-27.5 1-27.5 1-27 1-27 1-28 1-28 .5-29 .5-29"/></g><path d="m699 140l1-3v-2-2-2.5-2.5l-1-1-1-1-1-1.5-1-1.5-1-1-1-1-2 .5-2 .5v1 1l1 .5 1 .5 1.5 1.5 1.5 1.5 1 1 1 1v2.5 2.5l-.5 1.5-.5 1.5-7-6.5-7-6.5-1.5 15-1.5 15 10-7.5 10-7.5" style="fill:#0a0600;stroke:#0a0600"/><path d="m696 138l1-3v-2.5-2.5l-1-1-1-1-1.5-1.5-1.5-1.5h-1.5-1.5-2-2-1.5-1.5l7 6.5 7 6.5" style="fill:#341e07;stroke:#341e07"/><path d="m693 76v-76h-24.5-24.5l.5 37.5.5 37.5-27 3-27 3-11-40.5-11-40.5h-1.5-1.5l-1.5 28-1.5 28 11 15 11 15 27-2 27-2 27-3 27-3" style="fill:#0a0600;stroke:#0a0600"/><path d="m692 155l1-3v-2-2h-1.5-1.5-2-2-2.5-2.5v2 2l.5 2 .5 2h2 2 2 2l1-.5 1-.5" style="fill:#341e07;stroke:#341e07"/><path d="m684 181l-37-23-28 .5-28 .5-16.5 12.5-16.5 12.5v29 29l.5 28.5.5 28.5 7 20.5 7 20.5 27.5.5 27.5.5 24.5-3.5 24.5-3.5.5-28 .5-28 1-28 1-28 2-20.5 2-20.5" style="fill:#0a0600;stroke:#0a0600"/><path d="m669 541l-19-6-2 1-2 1h-2-2l-.5.5-.5.5-32.5 18.5-32.5 18.5 1-.5 1-.5h1 1l.5-.5.5-.5 1-.5 1-.5.5-.5.5-.5.5-.5.5-.5.5-.5.5-.5 1-.5 1-.5.5-.5.5-.5 1-.5 1-.5 26.5-7.5 26.5-7.5-.5 1.5-.5 1.5-.5.5-.5.5-.5.5-.5.5h-1-1l-.5.5-.5.5-1 .5-1 .5.5.5.5.5.5.5.5.5-.5.5-.5.5-.5 1-.5 1h-1-1l-.5.5-.5.5h-1-1l-.5.5-.5.5-1 .5-1 .5h-1-1l-.5.5-.5.5-.5.5-.5.5h-1-1l-1 1.5-1 1.5h2 2 1.5 1.5 1 1 2 2 1.5 1.5 1 1 1 1 1 1 2.5 2.5l11-15 11-15" style="fill:#534223;stroke:#534223"/><g style="fill:#1c0f00;stroke:#1c0f00"><path d="m648 180l-40-18-22.5 6-22.5 6v29 29 29 29l6.5 22.5 6.5 22.5 27 1.5 27 1.5v-15-15l3-25 3-25 5.5-23 5.5-23 .5-16 .5-16"/><path d="m645 75l-1-75h-29.5-29.5-8-8l11 40.5 11 40.5 27-3 27-3"/></g><path d="m644 551l-53 15h2 2 1 1 1 1 1.5 1.5l1.5.5 1.5.5.5-.5.5-.5h1.5 1.5l1.5-.5 1.5-.5h1 1 1 1 1 1l1-.5 1-.5.5-.5.5-.5h1 1l.5-.5.5-.5.5.5.5.5-1 .5-1 .5-1 .5-1 .5-.5.5-.5.5h-1.5-1.5l-1 1-1 1-.5.5-.5.5-1 .5-1 .5h-2-2l-.5 1-.5 1h1.5 1.5l2-.5 2-.5h3 3l1-1.5 1-1.5h1 1l.5-.5.5-.5.5-.5.5-.5h1 1l1-.5 1-.5.5-.5.5-.5h1 1l.5-.5.5-.5h1 1l.5-1 .5-1 .5-.5.5-.5-.5-.5-.5-.5-.5-.5-.5-.5 1-.5 1-.5.5-.5.5-.5h1 1l.5-.5.5-.5.5-.5.5-.5.5-1.5.5-1.5" style="fill:#5c4c28;stroke:#5c4c28"/><path d="m641 538l1-1-36.5 19.5-36.5 19.5h2.5 2.5 1 1v-.5-.5l32.5-18.5 32.5-18.5" style="fill:#43351c;stroke:#43351c"/><path d="m625 563l-1-1-.5.5-.5.5h-1-1l-.5.5-.5.5-1 .5-1 .5h-1-1-1-1-1-1l-1.5.5-1.5.5h-1.5-1.5l-.5.5-.5.5-1.5-.5-1.5-.5h-1.5-1.5-1-1-1-1-2-2l-1 .5-1 .5-.5.5-.5.5-1 .5-1 .5-.5.5-.5.5-.5.5-.5.5-.5.5-.5.5-1 .5-1 .5-.5.5-.5.5h-1-1l-1 .5-1 .5v.5.5h1.5 1.5 2 2 2 2 1.5 1.5l2-1.5 2-1.5 1.5-.5 1.5-.5h2 2 3 3l.5-1 .5-1h2 2l1-.5 1-.5.5-.5.5-.5 1-1 1-1h1.5 1.5l.5-.5.5-.5 1-.5 1-.5 1-.5 1-.5" style="fill:#64583f;stroke:#64583f"/><path d="m555 3v-3h-1.5-1.5l.5 2 .5 2v2 2l-.5 1.5-.5 1.5v29 29l-1 26-1 26-.5 26.5-.5 26.5v28 28l-1 27.5-1 27.5-.5 28.5-.5 28.5-28.5 8.5-28.5 8.5 29.5-15 29.5-15 .5-26.5.5-26.5 1-28 1-28v-27.5-27.5l.5-26.5.5-26.5 1-26 1-26 .5-28.5.5-28.5" style="fill:#1c0f00;stroke:#1c0f00"/><path d="m552 11l1-3v-2-2l-.5-2-.5-2h-2-2-2-2v29 29l.5 28.5.5 28.5v43.5 43.5l-.5 26-.5 26-1.5 27-1.5 27-2 24-2 24-9-20-9-20v-28.5-28.5l.5-28.5.5-28.5-.5-25.5-.5-25.5.5-28 .5-28 .5-47 .5-47h-2-2v.5.5 31 31l-.5 31-.5 31v40 40 .5.5 34.5 34.5 1.5 1.5 2 2 2.5 2.5 2 2 2 2 2.5 2.5 1.5 1.5l.5 1.5.5 1.5v1 1 1.5 1.5 2 2 1 1 1 1 1 1 1.5 1.5 1 1 1 1 1 1 1.5 1.5 2 2 1 1 1.5 1.5 2 2l-.5 1.5-.5 1.5-.5 2.5-.5 2.5h-2.5-2.5-2-2-2.5-2.5-2-2-1.5-1.5l-2.5.5-2.5.5h-2.5-2.5-2-2-2.5-2.5l-1.5.5-1.5.5h-3-3-.5-.5-28.5-28.5-2.5-2.5-2.5-2.5-2-2-2-2-2.5-2.5l-1.5-.5-1.5-.5h-2.5-2.5-2-2-1.5-1.5-26.5-26.5l-7.5-17.5-7.5-17.5 1-10 1-10-21.5-6-21.5-6 1.5-26.5 1.5-26.5-.5-28.5-.5-28.5-16.5-11.5-16.5-11.5.5-28 .5-28-4-25-4-25-21.5-7.5-21.5-7.5 18.5 7.5 18.5 7.5 5 22.5 5 22.5v25 25l-3.5-.5-3.5-.5v-28-28l-12.5-15-12.5-15-5.5 21.5-5.5 21.5-1 27-1 27-5.5 3-5.5 3 1-28 1-28 .5-28.5.5-28.5-2 17-2 17v28.5 28.5l-6 23-6 23-6 4-6 4 29-3 29-3v1.5 1.5l.5 1 .5 1v-2-2l.5-1.5.5-1.5v-1-1-1.5-1.5-2-2-1-1l1-.5 1-.5 1.5-.5 1.5-.5 2-.5 2-.5h2 2l2-.5 2-.5 1 .5 1 .5h2.5 2.5 1 1 1.5 1.5 2 2l2 .5 2 .5h2 2 2.5 2.5l1.5.5 1.5.5 2 .5 2 .5 1 1 1 1-.5 2-.5 2-21.5 16-21.5 16v2.5 2.5 29 29l1-14.5 1-14.5 1-26 1-26 19.5-2.5 19.5-2.5-10.5 7.5-10.5 7.5 9 20 9 20-21 25-21 25v2 2l.5 1.5.5 1.5v1 1h1.5 1.5l1-1 1-1 1.5-1 1.5-1 1-1 1-1 2-.5 2-.5 1.5-.5 1.5-.5 2-.5 2-.5 2-.5 2-.5 1.5-1 1.5-1 1.5-.5 1.5-.5 1.5-.5 1.5-.5 1.5-1 1.5-1 1.5-.5 1.5-.5 1 .5 1 .5v1 1l-.5 1.5-.5 1.5-1.5.5-1.5.5-1 1.5-1 1.5-1.5.5-1.5.5-2 1-2 1-2 1-2 1-.5.5-.5.5-18-9-18-9h-.5-.5v-2.5-2.5-2-2l-.5-2-.5-2v2 2 2.5 2.5 2 2 3.5 3.5 2.5 2.5 1 1 1.5 1.5 2 2l-.5 2-.5 2 .5 1.5.5 1.5-.5 1.5-.5 1.5-25-14-25-14-1 1-1 1-.5 1.5-.5 1.5v2.5 2.5 2 2 1.5 1.5l.5 1 .5 1 27 6.5 27 6.5 1 1.5 1 1.5h1.5 1.5 1.5 1.5l1.5-1 1.5-1 1-1 1-1 2.5-1 2.5-1 1-.5 1-.5 25-6.5 25-6.5-.5 1-.5 1-1.5.5-1.5.5-.5.5-.5.5-1 .5-1 .5-1 1-1 1-1.5.5-1.5.5-.5.5-.5.5-1 .5-1 .5-1 1-1 1-1.5.5-1.5.5-18.5 6-18.5 6h-.5-.5l-35-1-35-1 27.5 2 27.5 2 30.5-7 30.5-7 16-6 16-6-20 14.5-20 14.5-21 3.5-21 3.5-36-8.5-36-8.5-.5-2-.5-2-.5-1.5-.5-1.5-.5-.5-.5-.5v-1.5-1.5l-.5-1.5-.5-1.5-.5-.5-.5-.5-.5-1-.5-1-.5-1.5-.5-1.5 1-1 1-1h1 1l1.5-1 1.5-1-.5-1-.5-1 5.5-9 5.5-9 .5 1 .5 1 .5.5.5.5h1 1l.5 1 .5 1 16.5 12.5 16.5 12.5-16-14.5-16-14.5-1-.5-1-.5-1-1-1-1-1-1-1-1-1.5-1-1.5-1-1-1-1-1-1-1-1-1-.5-1-.5-1h-1.5-1.5l-.5-.5-.5-.5-.5-.5-.5-.5v-1-1h-1.5-1.5l-1-1-1-1v-1-1h-1.5-1.5l-.5-1-.5-1 6.5-2.5 6.5-2.5 1-.5 1-.5h1 1l1-.5 1-.5h1 1 1 1l.5-.5.5-.5.5-1 .5-1v-1-1l-.5-1-.5-1-12 4.5-12 4.5-28 .5-28 .5-4.5.5-4.5.5 8.5 7.5 8.5 7.5 5-1 5-1-12-4.5-12-4.5 28 1 28 1 3 22.5 3 22.5h2 2l.5 1.5.5 1.5.5 2.5.5 2.5.5 1 .5 1 .5 2 .5 2v2 2l-.5 1.5-.5 1.5-7.5 21.5-7.5 21.5-34 7.5-34 7.5-.5-.5-.5-.5-9-34.5-9-34.5v-2-2l.5-1 .5-1 1-2 1-2 5.5 38 5.5 38 .5 2 .5 2 1 1 1 1 .5 1 .5 1 27 .5 27 .5 25-10.5 25-10.5 18.5 6 18.5 6-18.5 10.5-18.5 10.5-17 11.5-17 11.5-16.5 12.5-16.5 12.5-15 12-15 12 17-12 17-12 16-12.5 16-12.5 27.5-17 27.5-17 12.5 6.5 12.5 6.5-21 17-21 17-1 1.5-1 1.5h-1-1l-.5.5-.5.5-.5.5-.5.5-1 .5-1 .5-.5.5-.5.5-1 .5-1 .5-.5.5-.5.5-17 12-17 12-16 12.5-16 12.5-16 12.5-16 12.5-25.5 19-25.5 19v2.5 2.5l17-12.5 17-12.5 16-13 16-13 16.5-12.5 16.5-12.5 17-11.5 17-11.5 10.5-6.5 10.5-6.5-11.5 16.5-11.5 16.5-15.5 13.5-15.5 13.5-16 12.5-16 12.5-16 13-16 13h4 4l19-.5 19-.5 16.5-6.5 16.5-6.5 35.5 15 35.5 15h1.5 1.5l.5-27.5.5-27.5.5-28.5.5-28.5-2 11-2 11-1 27.5-1 27.5-23.5.5-23.5.5-27.5-1.5-27.5-1.5 5-8.5 5-8.5 15-14 15-14 16-13 16-13 15-13.5 15-13.5 8.5 5.5 8.5 5.5-1 29-1 29-.5 33-.5 33h1 1l5-4 5-4 21-4.5 21-4.5 5-18 5-18 18-11 18-11-.5-24.5-.5-24.5v-26.5-26.5l7.5-20.5 7.5-20.5 27.5.5 27.5.5h29 29 31.5 31.5l28.5-8.5 28.5-8.5.5-28.5.5-28.5 1-27.5 1-27.5v-28-28l.5-26.5.5-26.5 1-26 1-26v-29-29" style="fill:#0a0600;stroke:#0a0600"/><g style="fill:#1c0f00;stroke:#1c0f00"><path d="m545 202v-87l-.5-28.5-.5-28.5v-29-29h-2-2-2.5-2.5-2-2-2-2-2.5-2.5-.5-.5l-.5 48-.5 48-.5 28-.5 28 .5 25.5.5 25.5-.5 28.5-.5 28.5v28.5 28.5l9 20 9 20 2-24 2-24 1.5-27 1.5-27 .5-26 .5-26"/><path d="m516 349l1-3v-2-2-1.5-1.5-1-1-2-2-1.5-1.5-1-1-1-1-1-1-1.5-1.5-1-1-1-1-1-1-2-2-1.5-1.5-1-1l-.5-1.5-.5-1.5v2.5 2.5 1 1 1 1 1 1 1.5 1.5 2 2 1 1 1.5 1.5 2 2 1 1 1 1 1 1 1.5 1.5 1 1 1 1 1 1l-.5 1.5-.5 1.5v1.5 1.5l-1 1-1 1h-2.5-2.5-2-2-2.5-2.5l-2.5.5-2.5.5h1.5 1.5 2 2 2.5 2.5 2 2 2.5 2.5l.5-2.5.5-2.5"/></g><path d="m516 125l1-62v-31-31-.5-.5h-.5-.5l-.5 23-.5 23-1 29.5-1 29.5.5 50 .5 50 1-39.5 1-39.5" style="fill:#341e07;stroke:#341e07"/><path d="m515 348l1-3v-1-1-1-1-1-1-1.5-1.5-1-1-1-1-1-1-2-2-1.5-1.5-1-1-2-2-1.5-1.5-1-1-1-1-1-1-2.5-2.5-1.5-1.5-2.5-2.5-2-2-2-2-2.5-2.5-2-2h-.5-.5v-2-2l-.5 6.5-.5 6.5v29 29l-24.5 4.5-24.5 4.5h-29-29l-16.5-12-16.5-12-1.5-20.5-1.5-20.5-5-23-5-23-7.5-21.5-7.5-21.5-3-25.5-3-25.5-2-27-2-27-2.5-40-2.5-40h-1.5-1.5-2-2-2-2-2.5-2.5-2-2-2.5-2.5-2-2-2-2-1.5-1.5l-.5.5-.5.5-13 13-13 13 .5 17.5.5 17.5-2.5 47-2.5 47 .5 2.5.5 2.5 3.5 17.5 3.5 17.5 9.5-7.5 9.5-7.5 10.5-3.5 10.5-3.5 9.5 9.5 9.5 9.5 3 21.5 3 21.5 8.5 20.5 8.5 20.5 5 31 5 31h-1.5-1.5-2.5-2.5l1.5.5 1.5.5h2 2 3.5 3.5 1.5 1.5 2 2 2.5 2.5l1.5.5 1.5.5h2.5 2.5 2 2 2 2 2.5 2.5 2.5 2.5 29 29 3 3l1.5-.5 1.5-.5h2.5 2.5 2 2 2.5 2.5l2.5-.5 2.5-.5 2.5-.5 2.5-.5h2.5 2.5 2 2 2.5 2.5l1-1 1-1v-1.5-1.5" style="fill:#43351c;stroke:#43351c"/><path d="m515 278h1v-1.5-1.5-34.5-34.5-.5-.5h-.5-.5v2 2 1 1 1.5 1.5 2 2 1 1 1.5 1.5 2 2 1.5 1.5 2.5 2.5 2 2 1 1 1.5 1.5 2 2 2 2 1 1 1.5 1.5 2 2 1 1 1.5 1.5 2 2 2 2 2 2" style="fill:#341e07;stroke:#341e07"/><path d="m515 205h1v-40-40l-1 39.5-1 39.5v2.5 2.5 2.5 2.5 2 2 2 2 1 1 1.5 1.5l.5 1.5.5 1.5v-1.5-1.5-2-2-1.5-1.5-1-1-2-2-1.5-1.5-1-1-2-2" style="fill:#1c0f00;stroke:#1c0f00"/><path d="m515 46l1-46h-2-2-2-2-2.5-2.5-2-2v.5.5.5.5l-26 3-26 3-27 2-27 2-31 1.5-31 1.5 2.5 40 2.5 40 2 27 2 27 3 25.5 3 25.5 7.5 21.5 7.5 21.5 5 23 5 23 1.5 20.5 1.5 20.5 16.5 12 16.5 12h29 29l24.5-4.5 24.5-4.5v-29-29l.5-6.5.5-6.5v-2-2-2-2-1.5-1.5-1-1-2-2-1.5-1.5-1-1-2-2-2-2-1.5-1.5-1-1-2-2-2.5-2.5l-.5-1.5-.5-1.5v-1.5-1.5-1-1-2-2-2-2-2.5-2.5-2.5-2.5l-.5-49-.5-49 1-29.5 1-29.5" style="fill:#534223;stroke:#534223"/><g style="fill:#1c0f00;stroke:#1c0f00"><path d="m508 576h1l-24-15.5-24-15.5-13-10-13-10-14.5-1-14.5-1-8.5-10.5-8.5-10.5-9.5-8.5-9.5-8.5-10.5-2.5-10.5-2.5 1.5-13 1.5-13-2-13-2-13 4-7 4-7 1-6 1-6 14-14.5 14-14.5 21.5-6.5 21.5-6.5 30-.5 30-.5h-31.5-31.5-29-29l-27.5-.5-27.5-.5-7.5 20.5-7.5 20.5v26.5 26.5l.5 24.5.5 24.5-18 11-18 11-5 18-5 18-21 4.5-21 4.5-5 4-5 4h2 2 2.5 2.5 2 2 2.5 2.5 2 2 2.5 2.5 2 2 2.5 2.5 2 2 1 1l1.5-1 1.5-1v-1-1l.5-.5.5-.5.5-.5.5-.5 1-.5 1-.5.5-.5.5-.5.5-.5.5-.5.5-.5.5-.5 1-.5 1-.5v-1-1h1 1l.5-.5.5-.5 1-.5 1-.5.5-.5.5-.5.5.5.5.5v1 1l-1.5 1.5-1.5 1.5-1 1-1 1-1 1.5-1 1.5-1 1-1 1-1.5 1.5-1.5 1.5h31 31 29 29 28.5 28.5 29 29 11.5 11.5"/><path d="m499 2v-1h-.5-.5l-26.5 2.5-26.5 2.5-27 1.5-27 1.5-26.5 1.5-26.5 1.5-28.5.5-28.5.5-23.5 4.5-23.5 4.5-3-5.5-3-5.5 1.5 1.5 1.5 1.5v1 1l-5 15-5 15-21.5-7-21.5-7-5 23-5 23v30.5 30.5 1.5 1.5 1 1 1 1 1 1 1.5 1.5 1 1 1 1 1 1 1 1 1 1 1.5 1.5 1 1 1 1 1 1 1.5 1.5 1 1 1 1l-.5.5-.5.5-.5 1-.5 1h-1-1-1.5-1.5l-18 5.5-18 5.5-15.5-15-15.5-15-20 6.5-20 6.5-13.5 22.5-13.5 22.5.5 16 .5 16h2 2l1.5.5 1.5.5 2 .5 2 .5h2 2 2 2 2.5 2.5l.5.5.5.5-13 32.5-13 32.5 3 15 3 15-16.5 11.5-16.5 11.5v3 3 1.5 1.5l15.5-6 15.5-6-1 .5-1 .5-.5.5-.5.5-.5.5-.5.5-1 .5-1 .5h-1-1l-.5.5-.5.5-.5.5-.5.5-1 .5-1 .5h-1-1l-.5.5-.5.5-.5.5-.5.5-1 .5-1 .5-1.5.5-1.5.5h-1-1l-.5.5-.5.5h-1-1l-1 .5-1 .5-.5.5-.5.5-1 1-1 1v1.5 1.5 2 2 2.5 2.5 2 2 1.5 1.5l1-.5 1-.5v-1.5-1.5l.5-.5.5-.5.5-.5.5-.5v-1-1l.5-1 .5-1 .5-.5.5-.5v-1-1-1-1-1.5-1.5l1-1 1-1 .5-.5.5-.5h1.5 1.5l1-1 1-1 1.5-.5 1.5-.5 1.5-.5 1.5-.5 1.5-1 1.5-1 1-1 1-1 1-.5 1-.5 2.5-1 2.5-1 1-1 1-1 1.5-1 1.5-1h2 2l.5 1.5.5 1.5v2.5 2.5 1 1h-.5-.5l1.5.5 1.5.5.5-.5.5-.5h.5.5l-5.5-38-5.5-38h.5.5l1-1.5 1-1.5.5-.5.5-.5.5-.5.5-.5 1-1 1-1 1.5-1 1.5-1 1-1 1-1 .5-1.5.5-1.5 1-.5 1-.5 1-2 1-2 1-1 1-1 .5-1.5.5-1.5.5-1.5.5-1.5.5-1 .5-1 .5-.5.5-.5v-1-1h1 1l2 .5 2 .5 23-3 23-3-21.5-1-21.5-1h25.5 25.5v2 2 2 2l-.5 2-.5 2 .5 1.5.5 1.5v1.5 1.5l.5 2.5.5 2.5.5 1.5.5 1.5.5 1 .5 1 1 1.5 1 1.5-.5 1.5-.5 1.5-1 .5-1 .5-1 1-1 1 1.5-.5 1.5-.5 2 .5 2 .5 1 1.5 1 1.5-3-22.5-3-22.5-28-1-28-1 12 4.5 12 4.5-5 1-5 1-8.5-7.5-8.5-7.5 4.5-.5 4.5-.5 28-.5 28-.5 12-4.5 12-4.5.5-1 .5-1v-2.5-2.5l-1-1-1-1-1.5-2-1.5-2h-.5-.5l-1-.5-1-.5-.5-.5-.5-.5-.5-1-.5-1-.5-1.5-.5-1.5-1-1.5-1-1.5-1-1-1-1-.5-2-.5-2-1-1-1-1-.5-2-.5-2-1-1.5-1-1.5-.5-1-.5-1 1.5-1 1.5-1 1.5-.5 1.5-.5 1-.5 1-.5 32.5-9.5 32.5-9.5.5 1.5.5 1.5v2.5 2.5l-29 3-29 3 6-4 6-4 6-23 6-23v-28.5-28.5l2-17 2-17-.5 28.5-.5 28.5-1 28-1 28 5.5-3 5.5-3 1-27 1-27 5.5-21.5 5.5-21.5 12.5 15 12.5 15v28 28l3.5.5 3.5.5v-25-25l-5-22.5-5-22.5-18.5-7.5-18.5-7.5 21.5 7.5 21.5 7.5 4 25 4 25-.5 28-.5 28 16.5 11.5 16.5 11.5.5 28.5.5 28.5-1.5 26.5-1.5 26.5 21.5 6 21.5 6-1 10-1 10 7.5 17.5 7.5 17.5h26.5 26.5-3.5-3.5-2-2l-1.5-.5-1.5-.5h-1-1-.5-.5l-26.5-.5-26.5-.5 4.5-23 4.5-23-20.5-6.5-20.5-6.5-.5-13.5-.5-13.5-1-43.5-1-43.5v-2-2l-.5-2.5-.5-2.5-1-.5-1-.5-1.5-1-1.5-1-1.5-.5-1.5-.5h-.5-.5l-11.5-16-11.5-16 1.5-39.5 1.5-39.5v-1.5-1.5-2-2-2.5-2.5l.5-1.5.5-1.5v-2.5-2.5-2-2-2.5-2.5l.5-1.5.5-1.5-.5-2-.5-2v-2-2l2-.5 2-.5h27.5 27.5 1.5 1.5 2 2 2 2 2.5 2.5 2 2 2.5 2.5 2 2 2 2 1.5 1.5l31-1.5 31-1.5 27-2 27-2 26-3 26-3"/></g><path d="m498 1h1v-.5-.5h-3-3-2.5-2.5-2-2-1-1l-.5.5-.5.5-27.5 1.5-27.5 1.5-25 1.5-25 1.5-27.5 1.5-27.5 1.5h-28.5-28.5l-22.5-5-22.5-5h-2.5-2.5-2-2l1.5.5 1.5.5 1 1 1 1 1.5 1 1.5 1 1.5.5 1.5.5 1.5 1 1.5 1 1 1 1 1 1 .5 1 .5 3 5.5 3 5.5 23.5-4.5 23.5-4.5 28.5-.5 28.5-.5 26.5-1.5 26.5-1.5 27-1.5 27-1.5 26.5-2.5 26.5-2.5" style="fill:#0a0600;stroke:#0a0600"/><path d="m481 1l1-1h-30-30-28.5-28.5-29-29-29-29-15-15l22.5 5 22.5 5h28.5 28.5l27.5-1.5 27.5-1.5 25-1.5 25-1.5 27.5-1.5 27.5-1.5" style="fill:#1c0f00;stroke:#1c0f00"/><path d="m465 356h1-29-29 28.5 28.5" style="fill:#341e07;stroke:#341e07"/><path d="m364 354l-10-62-8.5-20.5-8.5-20.5-3-21.5-3-21.5-9.5-9.5-9.5-9.5-10.5 3.5-10.5 3.5-9.5 7.5-9.5 7.5-3.5-17.5-3.5-17.5v2 2l1 28.5 1 28.5 12.5 12.5 12.5 12.5h8.5 8.5l12 17 12 17 7 17 7 17 3.5 12 3.5 12h1 1 2.5 2.5 1.5 1.5" style="fill:#3d2d13;stroke:#3d2d13"/><path d="m353 354h1l-3.5-12-3.5-12-7-17-7-17-12-17-12-17h-8.5-8.5l-12.5-12.5-12.5-12.5-1-28.5-1-28.5 1 43.5 1 43.5.5 13.5.5 13.5 20.5 6.5 20.5 6.5-4.5 23-4.5 23 26.5.5 26.5.5" style="fill:#341e07;stroke:#341e07"/><path d="m295 324l-30 14-17.5 7-17.5 7h-4.5-4.5l2 .5 2 .5h1 1 1 1 1 1l1 .5 1 .5 1.5.5 1.5.5.5.5.5.5v1.5 1.5 1 1 2 2 29 29l-1.5 27.5-1.5 27.5-.5 26.5-.5 26.5 4.5-11 4.5-11 4.5 1.5 4.5 1.5 13-16 13-16 3.5-22.5 3.5-22.5 1.5-14 1.5-14 3.5-16.5 3.5-16.5.5-25 .5-25" style="fill:#1c0f00;stroke:#1c0f00"/><path d="m294 16l1-1h-27.5-27.5l-1 1.5-1 1.5.5 1.5.5 1.5 2 .5 2 .5 1.5.5 1.5.5v1 1l-.5 2-.5 2-1 1.5-1 1.5-.5 1.5-.5 1.5-.5 2-.5 2v2 2l-1 1.5-1 1.5-.5 1.5-.5 1.5-1 1-1 1-.5 2.5-.5 2.5 5 23 5 23 5.5 32.5 5.5 32.5 1.5.5 1.5.5 1.5 1 1.5 1 1 .5 1 .5 2.5-47 2.5-47-.5-17.5-.5-17.5 13-13 13-13" style="fill:#3d2d13;stroke:#3d2d13"/><g style="fill:#1c0f00;stroke:#1c0f00"><path d="m293 302l-32 12 1-.5 1-.5h1 1l.5-.5.5-.5.5-.5.5-.5 1-.5 1-.5h1 1 1 1l.5.5.5.5-.5 1.5-.5 1.5-.5 1-.5 1-.5.5-.5.5-.5.5-.5.5-.5.5-.5.5-1 .5-1 .5-1 1-1 1-.5.5-.5.5-1 .5-1 .5-1 1-1 1h-1-1l-.5 1-.5 1-1.5.5-1.5.5-.5 1-.5 1 20-14.5 20-14.5"/><path d="m290 317l-37 19-3 2-3 2h1.5 1.5l1-.5 1-.5 1.5-1 1.5-1 1-1 1-1 .5.5.5.5-1.5 1-1.5 1-1 1.5-1 1.5-1 1-1 1-1.5 2-1.5 2 18-12.5 18-12.5 3-2.5 3-2.5"/></g><path d="m278 466l-13-23 1-27.5 1-27.5-.5-14.5-.5-14.5-2.5 26.5-2.5 26.5-1.5 27.5-1.5 27.5 8 2.5 8 2.5 2-3 2-3" style="fill:#0a0600;stroke:#0a0600"/><path d="m273 314l1-3-.5-.5-.5-.5h-1-1-1-1l-1 .5-1 .5-.5.5-.5.5-.5.5-.5.5h-1-1l-1 .5-1 .5-30.5 7-30.5 7h-.5-.5-1.5-1.5-2.5-2.5-2.5-2.5l27 3.5 27 3.5h-25.5-25.5l2.5.5 2.5.5h2.5 2.5l1.5.5 1.5.5h2.5 2.5l2 .5 2 .5 21-3.5 21-3.5.5-1 .5-1 1.5-.5 1.5-.5.5-1 .5-1h1 1l1-1 1-1 1-.5 1-.5.5-.5.5-.5 1-1 1-1 1-.5 1-.5.5-.5.5-.5.5-.5.5-.5.5-.5.5-.5.5-1 .5-1" style="fill:#341e07;stroke:#341e07"/><path d="m273 301l-50 13 20.5-5 20.5-5-.5 1-.5 1-.5.5-.5.5-.5.5-.5.5-1 .5-1 .5-1.5.5-1.5.5-.5.5-.5.5-1 1.5-1 1.5 1.5-.5 1.5-.5 1-1 1-1 1-.5 1-.5.5-.5.5-.5 1.5-.5 1.5-.5 1-1 1-1 1-.5 1-.5.5-.5.5-.5 1.5-.5 1.5-.5.5-1 .5-1" style="fill:#1c0f00;stroke:#1c0f00"/><path d="m264 304l-41 10-1 .5-1 .5 1 .5 1 .5 1 1 1 1h2.5 2.5l2.5.5 2.5.5 1 .5 1 .5v.5.5l-1.5 1.5-1.5 1.5-1.5.5-1.5.5h-2.5-2.5-2-2-2.5-2.5l-1.5-.5-1.5-.5-1.5-1-1.5-1h-1.5-1.5l-1.5-.5-1.5-.5-1-1.5-1-1.5h-.5-.5-2-2l1.5.5 1.5.5 1 1 1 1v1 1h-2-2l-1-.5-1-.5h-2-2-1-1-1.5-1.5-3-3l1.5.5 1.5.5h1.5 1.5 2 2 1 1 1.5 1.5l1.5.5 1.5.5h1 1 1.5 1.5l1.5.5 1.5.5h1 1 1.5 1.5l1.5.5 1.5.5 18.5-6 18.5-6 1-1.5 1-1.5.5-.5.5-.5 1.5-.5 1.5-.5 1-.5 1-.5.5-.5.5-.5.5-.5.5-.5.5-1 .5-1" style="fill:#341e07;stroke:#341e07"/><path d="m262 563v-2l-.5-.5-.5-.5-.5.5-.5.5-1 .5-1 .5-.5.5-.5.5h-1-1v1 1l-1 .5-1 .5-.5.5-.5.5-.5.5-.5.5-.5.5-.5.5-1 .5-1 .5-.5.5-.5.5-.5.5-.5.5v1 1l-1.5 1-1.5 1h2 2 1.5 1.5l1.5-1.5 1.5-1.5 1-1 1-1 1-1.5 1-1.5 1-1 1-1 1.5-1.5 1.5-1.5" style="fill:#0a0600;stroke:#0a0600"/><g style="fill:#1c0f00;stroke:#1c0f00"><path d="m260 188l-39 5-1 26-1 26-1 14.5-1 14.5v-29-29h-.5-.5l-.5 38.5-.5 38.5 21-25 21-25-9-20-9-20 10.5-7.5 10.5-7.5"/><path d="m260 179l1-4-1-1-1-1-2-.5-2-.5-1.5-.5-1.5-.5h-2.5-2.5-2-2l-2-.5-2-.5h-2-2-1.5-1.5-1-1-2.5-2.5l1 .5 1 .5h2 2l1.5.5 1.5.5 2 .5 2 .5 1 1 1 1 .5 1 .5 1-12 17-12 17 21.5-16 21.5-16"/></g><path d="m258 336l-1-1-1 1-1 1-1.5 1-1.5 1-1 .5-1 .5h-1.5-1.5l-1 .5-1 .5-.5 1.5-.5 1.5v2.5 2.5l1.5-.5 1.5-.5.5-.5.5-.5 1.5-2 1.5-2 1-1 1-1 1-1.5 1-1.5 1.5-1 1.5-1" style="fill:#341e07;stroke:#341e07"/><path d="m258 288v-2l-1-.5-1-.5-1.5.5-1.5.5-1.5 1-1.5 1-1.5.5-1.5.5-1.5.5-1.5.5-1.5 1-1.5 1-2 .5-2 .5h1.5 1.5 1 1l1-.5 1-.5 1.5-.5 1.5-.5.5-.5.5-.5h1.5 1.5l1-1 1-1 .5-.5.5-.5 1-.5 1-.5v1.5 1.5l-1 1-1 1-1 1-1 1-1.5.5-1.5.5-1.5 1-1.5 1-.5 1-.5 1 2-1 2-1 1.5-.5 1.5-.5 1-1.5 1-1.5 1.5-.5 1.5-.5.5-1.5.5-1.5" style="fill:#1c0f00;stroke:#1c0f00"/><path d="m258 27l1-3v-2-2l-.5-2-.5-2h-1-1-2.5-2.5l-.5 1.5-.5 1.5v1.5 1.5l1.5.5 1.5.5 1 1 1 1 1 1.5 1 1.5.5-.5.5-.5" style="fill:#43351c;stroke:#43351c"/><g style="fill:#341e07;stroke:#341e07"><path d="m257 271l-10-50-10.5-11.5-10.5-11.5 12 23 12 23v1.5 1.5h-.5-.5l-1-1-1-1 .5 2 .5 2 .5 2 .5 2 .5 1.5.5 1.5.5 2 .5 2 .5 1.5.5 1.5v2.5 2.5l.5 1.5.5 1.5 1 1 1 1 1-1 1-1"/><path d="m256 289v-3l-1 .5-1 .5-.5.5-.5.5-1 1-1 1h-1.5-1.5l-.5.5-.5.5-1.5.5-1.5.5-1 .5-1 .5h-1-1-1.5-1.5l-1.5 1-1.5 1h1.5 1.5 1.5 1.5l.5-.5.5-.5.5.5.5.5v1 1l-1 .5-1 .5-.5 1-.5 1h1 1l2-1 2-1 .5-1 .5-1 1.5-1 1.5-1 1.5-.5 1.5-.5 1-1 1-1 1-1 1-1"/><path d="m255 167h1l-5.5-32.5-5.5-32.5-5-23-5-23-1.5 39.5-1.5 39.5 11.5 16 11.5 16"/></g><path d="m250 244l-24-46 9 20.5 9 20.5 1.5 3 1.5 3 1 1 1 1h.5.5v-1.5-1.5" style="fill:#3d2d13;stroke:#3d2d13"/><g style="fill:#341e07;stroke:#341e07"><path d="m248 357l-9 39 .5 18 .5 18 1.5-27.5 1.5-27.5 2.5-10 2.5-10"/><path d="m248 279l-13-47-3 1.5-3 1.5 1-1 1-1 .5-.5.5-.5 1 1 1 1 1 1 1 1 4.5 20 4.5 20-.5 1-.5 1-1-1.5-1-1.5.5 2 .5 2 1.5.5 1.5.5 1-.5 1-.5"/><path d="m246 25v-2l-1.5-.5-1.5-.5-2-.5-2-.5-.5-1.5-.5-1.5 1-1.5 1-1.5-2 .5-2 .5v2 2l.5 2 .5 2-.5 1.5-.5 1.5v2.5 2.5 2 2 2.5 2.5l-.5 1.5-.5 1.5v2.5 2.5 2 2 1.5 1.5l.5-2.5.5-2.5 1-1 1-1 .5-1.5.5-1.5 1-1.5 1-1.5v-2-2l.5-2 .5-2 .5-1.5.5-1.5 1-1.5 1-1.5.5-2 .5-2"/></g><g style="fill:#3d2d13;stroke:#3d2d13"><path d="m245 276l-9-40 1 2 1 2 .5 1.5.5 1.5.5 2 .5 2 .5 1.5.5 1.5.5 2 .5 2 .5 1.5.5 1.5-.5 1.5-.5 1.5-.5 2-.5 2-.5-1.5-.5-1.5-.5-1.5-.5-1.5-.5-2-.5-2-1-1-1-1-.5-2-.5-2-.5-1.5-.5-1.5-1-1.5-1-1.5-.5-1.5-.5-1.5.5-2 .5-2 1-.5 1-.5-1-1-1-1-.5.5-.5.5-1 1-1 1 6.5 20 6.5 20 1 1.5 1 1.5.5-1 .5-1"/><path d="m242 297v-2l-.5-.5-.5-.5-.5.5-.5.5h-1.5-1.5-1.5-1.5l2.5 2.5 2.5 2.5.5-1 .5-1 1-.5 1-.5"/></g><path d="m242 260l1-3-.5-1.5-.5-1.5-.5-2-.5-2-.5-1.5-.5-1.5-.5-2-.5-2-.5-1.5-.5-1.5-1-2-1-2-1-1-1-1-1 .5-1 .5-.5 2-.5 2 .5 1.5.5 1.5 1 1.5 1 1.5.5 1.5.5 1.5.5 2 .5 2 1 1 1 1 .5 2 .5 2 .5 1.5.5 1.5.5 1.5.5 1.5.5-2 .5-2" style="fill:#43351c;stroke:#43351c"/><path d="m241 177l-1-2-1-1-1-1-2-.5-2-.5-1.5-.5-1.5-.5h-2-2l-1-.5-1-.5-1-.5-1-.5-2 .5-2 .5-2.5 1-2.5 1h1.5 1.5l2-.5 2-.5 1.5.5 1.5.5 2 .5 2 .5 1 1 1 1v1 1l-1 .5-1 .5h-1.5-1.5l-.5.5-.5.5h-1-1-1-1-1-1l-1 .5-1 .5v1.5 1.5 1.5 1.5 2.5 2.5 2 2 2.5 2.5 2 2 2.5 2.5 2 2 1.5 1.5h.5.5v-2.5-2.5l12-17 12-17" style="fill:#341e07;stroke:#341e07"/><path d="m240 346l-53-7-9.5-.5-9.5-.5 1.5.5 1.5.5h1 1 1.5 1.5 1 1 1 1 1 1l1 .5 1 .5h1 1 1 1l1 .5 1 .5h2 2 1 1 1 1 1 1 1 1 1.5 1.5l1 .5 1 .5h1.5 1.5l2 .5 2 .5h2 2 2.5 2.5 2 2 2.5 2.5 2 2l1.5.5 1.5.5-.5 2-.5 2h-2-2-2-2-2-2-1.5-1.5l1 .5 1 .5h2 2 2 2 2.5 2.5l1-1 1-1v-.5-.5" style="fill:#1c0f00;stroke:#1c0f00"/><path d="m240 335l-54-7-1-.5-1-.5h-2.5-2.5-2-2l-1.5-.5-1.5-.5h-2.5-2.5-2-2-2.5-2.5l-1.5-.5-1.5-.5h-2.5-2.5l-2.5-.5-2.5-.5 22 5.5 22 5.5h25.5 25.5" style="fill:#3d2d13;stroke:#3d2d13"/><path d="m240 301l1-1h-1-1l-2.5-2.5-2.5-2.5 1.5-1 1.5-1-2 .5-2 .5-1.5.5-1.5.5-2 .5-2 .5-1 1-1 1-1.5 1-1.5 1-1 1-1 1h-1.5-1.5v-1-1l-.5-1.5-.5-1.5v-2-2l.5-38.5.5-38.5v-1.5-1.5-2-2-2.5-2.5-2-2-2.5-2.5-2-2-2.5-2.5-1.5-1.5-1.5-1.5l-1-1-1-1-.5-.5-.5-.5-.5-.5-.5-.5v-1.5-1.5l1-.5 1-.5 2.5-1 2.5-1h-2-2l-2 .5-2 .5-1.5.5-1.5.5-1 .5-1 .5v1 1 2 2 1.5 1.5 1 1l-.5 1.5-.5 1.5v2 2l-.5-1-.5-1v-1.5-1.5-2.5-2.5l-.5-1.5-.5-1.5h-.5-.5l-.5 1-.5 1-.5 2-.5 2v2 2l-.5 2-.5 2v2 2 2.5 2.5 2 2l1 1 1 1 .5-1.5.5-1.5.5-1 .5-1 .5 2 .5 2v1 1 1 1l-.5 1.5-.5 1.5v24.5 24.5l.5 1 .5 1v1.5 1.5 2 2 2.5 2.5 2 2 1.5 1.5l18 9 18 9" style="fill:#64583f;stroke:#64583f"/><path d="m238 348l1-4-1.5-.5-1.5-.5h-2-2-2.5-2.5-2-2-2.5-2.5-2-2l-2-.5-2-.5h-1.5-1.5l2 .5 2 .5 1.5.5 1.5.5h2.5 2.5 2 2 2.5 2.5 2 2 2.5 2.5v1 1l-37.5-1-37.5-1 1 .5 1 .5h1 1 1 1 1.5 1.5 1 1 1 1 1 1l1 .5 1 .5 1.5.5 1.5.5h2.5 2.5 2 2 2 2 2.5 2.5l1.5.5 1.5.5h2.5 2.5 2 2 2.5 2.5 2 2 1 1 1.5 1.5 2 2 2 2 2 2" style="fill:#341e07;stroke:#341e07"/><g style="fill:#3d2d13;stroke:#3d2d13"><path d="m237 346v-2h-2.5-2.5-2-2-2.5-2.5-2-2-2.5-2.5l-1.5-.5-1.5-.5-2-.5-2-.5-1-.5-1-.5h-1.5-1.5-1-1-1-1-1-1-1-1-2-2-.5-.5-3-3l-1.5-.5-1.5-.5h-2.5-2.5-2-2-2-2l-2-.5-2-.5h-2-2l-2-.5-2-.5h-2-2l-2-.5-2-.5-2-.5-2-.5h-2-2l-.5 2-.5 2v2 2h2.5 2.5 2 2 2 2 2.5 2.5 3 3l37.5 1 37.5 1"/><path d="m237 321v-1l-1-.5-1-.5-.5.5-.5.5-2 .5-2 .5h-2-2-2.5-2.5l-1.5-.5-1.5-.5h-1.5-1.5l-2 1-2 1 1.5 1 1.5 1 1.5.5 1.5.5h2.5 2.5 2 2 2.5 2.5l1.5-.5 1.5-.5 1.5-1.5 1.5-1.5"/></g><path d="m236 377l1-3v-2-2-2.5-2.5-2-2-1-1-1.5-1.5l-.5-.5-.5-.5-1.5-.5-1.5-.5.5 1 .5 1 .5 1 .5 1v1 1 2.5 2.5 2 2l-.5 1.5-.5 1.5-17.5-1-17.5-1v.5.5h2 2v-.5-.5l16 12 16 12 .5-1 .5-1v-2-2-2.5-2.5-2-2-1-1" style="fill:#341e07;stroke:#341e07"/><path d="m234 407l1-3v-2-2-2.5-2.5-.5-.5l-16-12-16-12 1 24 1 24v28 28l-.5 28.5-.5 28.5 9.5 5 9.5 5 3.5-25.5 3.5-25.5 1.5-27.5 1.5-27.5.5-14 .5-14" style="fill:#1c0f00;stroke:#1c0f00"/><path d="m234 372l1-3v-2-2-2.5-2.5-1-1l-.5-1-.5-1-.5-1-.5-1h-.5-.5l-28-1-28-1-12 4.5-12 4.5 23.5 4.5 23.5 4.5 17.5 1 17.5 1" style="fill:#3d2d13;stroke:#3d2d13"/><path d="m234 320l1-1-2.5-.5-2.5-.5h-2.5-2.5l-1-1-1-1-1-.5-1-.5-2.5 1-2.5 1-1 1-1 1-1.5 1-1.5 1h-1.5-1.5-1.5-1.5l1.5.5 1.5.5h1.5 1.5l2-1 2-1h1.5 1.5l1.5.5 1.5.5h2.5 2.5 2 2l2-.5 2-.5" style="fill:#533211;stroke:#533211"/><g style="fill:#341e07;stroke:#341e07"><path d="m232 354h1l-1-.5-1-.5h-1-1-1-1-1-1l-2-.5-2-.5-28-2-28-2-15.5 6.5-15.5 6.5h6.5 6.5 2.5 2.5l12-4.5 12-4.5 28 1 28 1"/><path d="m231 16v-2l-1.5-1.5-1.5-1.5-1-.5-1-.5-1-1-1-1-1.5-1-1.5-1-1.5-.5-1.5-.5-1.5-1-1.5-1-1-1-1-1-1.5-.5-1.5-.5h-2.5-2.5-2-2-2.5-2.5-2-2-2.5-2.5-2-2-2.5-2.5-2-2-2-2-2.5-2.5l1 .5 1 .5h2.5 2.5 2 2l.5.5.5.5-3.5 9-3.5 9-1.5 22.5-1.5 22.5.5 37 .5 37v-30.5-30.5l5-23 5-23 21.5 7 21.5 7 5-15 5-15"/></g><g style="fill:#3d2d13;stroke:#3d2d13"><path d="m230 177v-2l-1-1-1-1-2-.5-2-.5-1.5-.5-1.5-.5-2 .5-2 .5h-1.5-1.5l-1 .5-1 .5v1.5 1.5l.5.5.5.5.5.5.5.5 1 1 1 1 1-.5 1-.5h1 1 1 1 1 1l.5-.5.5-.5h1.5 1.5l1-.5 1-.5"/><path d="m229 18l1-3-.5-.5-.5-.5-.5.5-.5.5-1 1-1 1-1 1.5-1 1.5h-2-2l-1.5-.5-1.5-.5v-1.5-1.5l1.5.5 1.5.5-.5-2-.5-2 1-1 1-1h1.5 1.5l-11 5-11 5 11.5.5 11.5.5 2-2 2-2"/></g><path d="m228 15l1-1-2-1-2-1-.5-.5-.5-.5h-1.5-1.5l-1 1-1 1 .5 2 .5 2-1.5-.5-1.5-.5v1.5 1.5l1.5.5 1.5.5h2 2l1-1.5 1-1.5 1-1 1-1" style="fill:#43351c;stroke:#43351c"/><g style="fill:#1c0f00;stroke:#1c0f00"><path d="m217 156l-1-59-6.5-16-6.5-16 6 38 6 38v2.5 2.5 1.5 1.5 1.5 1.5l-.5 1.5-.5 1.5-.5 1-.5 1-1 1-1 1v2 2l-1 1-1 1-2 .5-2 .5-1.5.5-1.5.5-1.5 1-1.5 1-1.5.5-1.5.5-2 .5-2 .5-2 .5-2 .5.5-41.5.5-41.5v-1.5-1.5-1-1-1-1-1-1-1.5-1.5-1-1-1-1-1-1-1.5-1.5-1-1-1-1l.5-.5.5-.5 1 .5 1 .5h1.5 1.5 2 2l-6.5 19-6.5 19-.5 28.5-.5 28.5 16 2 16 2v-3.5-3.5"/><path d="m215 326h1l-1.5-.5-1.5-.5h-1.5-1.5-1-1l-1.5-.5-1.5-.5h-1.5-1.5-1-1l-1.5-.5-1.5-.5h-1.5-1.5-1-1-2-2-1.5-1.5l-1.5-.5-1.5-.5h-2-2-2-2-2.5-2.5l-1-.5-1-.5h-.5-.5-2.5-2.5-2.5-2.5-2-2-2-2-2.5-2.5-2-2l36 8.5 36 8.5-2-.5-2-.5h-2.5-2.5l-1.5-.5-1.5-.5h-2.5-2.5l-2.5-.5-2.5-.5-22-5.5-22-5.5 35 1 35 1"/></g><path d="m215 141l-12-76-1-.5-1-.5h-1-1-2-2l1 .5 1 .5 1.5.5 1.5.5 1.5.5 1.5.5 2 .5 2 .5 1.5.5 1.5.5 1 1.5 1 1.5v1.5 1.5l1.5 33 1.5 33" style="fill:#341e07;stroke:#341e07"/><path d="m214 155l1-3v-1.5-1.5h-.5-.5l-7-20-7-20-6 31.5-6 31.5 2-.5 2-.5 2-.5 2-.5 1.5-.5 1.5-.5 1.5-1 1.5-1 1.5-.5 1.5-.5 2-.5 2-.5 1-1 1-1v-2-2l1-1 1-1 .5-1 .5-1" style="fill:#534223;stroke:#534223"/><path d="m214 149h1v-1.5-1.5-2.5-2.5l-1.5-33-1.5-33h-.5-.5l-11 7-11 7-.5 41.5-.5 41.5 6-31.5 6-31.5 7 20 7 20" style="fill:#43351c;stroke:#43351c"/><path d="m213 228l-5-43-1 26.5-1 26.5v28 28l3-2 3-2 .5-27 .5-27v-4-4" style="fill:#6c6148;stroke:#6c6148"/><path d="m211 75h1v-1.5-1.5l-1-1.5-1-1.5-1.5-.5-1.5-.5-2-.5-2-.5-1.5-.5-1.5-.5-1.5-.5-1.5-.5-1-.5-1-.5h-1.5-1.5l-1-.5-1-.5-.5.5-.5.5v1 1 1 1 1.5 1.5 1 1 1 1 1 1 1.5 1.5 1 1 1 1 1 1 1.5 1.5l11-7 11-7" style="fill:#3d2d13;stroke:#3d2d13"/><path d="m203 401l-25-13 2.5-.5 2.5-.5 1.5-1 1.5-1 1.5-.5 1.5-.5 1.5-1 1.5-1 1.5-.5 1.5-.5 2-.5 2-.5 1 1 1 1-.5 1.5-.5 1.5-19.5 25-19.5 25 21-17 21-17" style="fill:#1c0f00;stroke:#1c0f00"/><path d="m203 323v-2l-1-1-1-1-1.5-.5-1.5-.5-24-5-24-5 8.5 6.5 8.5 6.5 1 .5 1 .5h2.5 2.5 2 2 2 2 3 3 1.5 1.5 1 1 2 2l1 .5 1 .5h2 2" style="fill:#3d2d13;stroke:#3d2d13"/><path d="m203 283h1v-1.5-1.5-2-2-2.5-2.5-2-2-1.5-1.5l-.5-1-.5-1v-30-30l-.5 1-.5 1-.5 31.5-.5 31.5v2 2 1 1 1.5 1.5 2 2 1 1 1 1 1 1 2 2h.5.5v-3.5-3.5-2-2-2.5-2.5-2-2l.5 2 .5 2v2 2 2.5 2.5" style="fill:#1c0f00;stroke:#1c0f00"/><path d="m203 213l1-3v-1-1-1-1l-.5-2-.5-2v30 30-24.5-24.5" style="fill:#0a0600;stroke:#0a0600"/><g style="fill:#1c0f00;stroke:#1c0f00"><path d="m202 452l-17-11-15 13.5-15 13.5-16 13-16 13-15 14-15 14-5 8.5-5 8.5 27.5 1.5 27.5 1.5 23.5-.5 23.5-.5 1-27.5 1-27.5 2-11 2-11-.5 28.5-.5 28.5-.5 27.5-.5 27.5h2 2 2 2 1 1l.5-33 .5-33 1-29 1-29"/><path d="m202 318h1l-27-6.5-27-6.5.5 1.5.5 1.5 24 5 24 5h2 2"/></g><g style="fill:#341e07;stroke:#341e07"><path d="m202 178h1l-32.5 9.5-32.5 9.5v2 2l-.5 2-.5 2 .5 1.5.5 1.5.5 1.5.5 1.5 1 1.5 1 1.5 1 1 1 1 1 1.5 1 1.5v1.5 1.5l.5 2 .5 2 .5 1 .5 1 1.5 2 1.5 2 1 1 1 1v2.5 2.5l-.5 1-.5 1 .5 1 .5 1v1 1l-.5 1-.5 1-.5.5-.5.5h-1-1-1-1l-1 .5-1 .5h-1-1l-1 .5-1 .5-.5.5-.5.5h-1.5-1.5-1-1l-1 .5-1 .5-1.5.5-1.5.5-2-.5-2-.5v1 1l1 .5 1 .5.5 1 .5 1h1.5 1.5v1 1l1 1 1 1h1.5 1.5v1 1l.5.5.5.5.5.5.5.5h1.5 1.5l.5 1 .5 1 9-10 9-10 8.5-4.5 8.5-4.5 12 14.5 12 14.5.5-31.5.5-31.5-.5 1.5-.5 1.5-1-1-1-1v-2-2-2.5-2.5-2-2l.5-2 .5-2v-2-2l.5-2 .5-2 .5-1 .5-1"/><path d="m201 314l1-3-.5-1.5-.5-1.5.5-2 .5-2v-2-2-1.5-1.5-1-1-2.5-2.5h-.5-.5v1.5 1.5 1 1l-.5 1.5-.5 1.5-22.5-10-22.5-10 16 14.5 16 14.5-16.5-12.5-16.5-12.5h-.5-.5l-1 .5-1 .5v1.5 1.5l25 14 25 14"/><path d="m200 385l1-3-1-1-1-1-2 .5-2 .5-1.5.5-1.5.5-1.5 1-1.5 1-1.5.5-1.5.5-1.5 1-1.5 1-2.5.5-2.5.5-27.5 17-27.5 17-16 12.5-16 12.5-17 12-17 12 15-12 15-12 16.5-12.5 16.5-12.5 17-11.5 17-11.5 18.5-10.5 18.5-10.5-18.5-6-18.5-6h-.5-.5l-3.5 6.5-3.5 6.5-20.5 7-20.5 7-27.5-3.5-27.5-3.5-.5-1-.5-1-1-1-1-1-.5-2-.5-2h-.5-.5v1.5 1.5 1 1l-.5.5-.5.5-.5.5-.5.5-.5.5-.5.5v1 1 1.5 1.5l.5.5.5.5v1 1l-.5.5-.5.5v1.5 1.5 1 1l.5.5.5.5.5.5.5.5.5 1 .5 1 20-1.5 20-1.5 22-4 22-4 30.5-8.5 30.5-8.5-19.5 11-19.5 11h-.5-.5l-1 .5-1 .5-.5.5-.5.5-.5.5-.5.5-1 .5-1 .5-.5.5-.5.5-.5.5-.5.5-.5.5-.5.5-1 .5-1 .5-.5.5-.5.5-.5.5-.5.5h-1-1l-.5.5-.5.5-.5.5-.5.5-1 .5-1 .5-.5.5-.5.5-.5.5-.5.5-.5.5-.5.5-1 .5-1 .5-.5.5-.5.5-1 .5-1 .5-14 11.5-14 11.5-17.5 11.5-17.5 11.5-30 20.5-30 20.5v2 2 .5.5l15.5-9.5 15.5-9.5-15.5 11.5-15.5 11.5v3 3 2 2 2.5 2.5 2 2 2.5 2.5 2 2 .5.5l11.5-11.5 11.5-11.5 4 3 4 3 14-8 14-8 16.5-12 16.5-12 29-21 29-21 1-.5 1-.5.5-.5.5-.5 1-.5 1-.5.5-.5.5-.5.5-.5.5-.5h1 1l1-1.5 1-1.5 19.5-25 19.5-25"/></g><path d="m200 298l1-3v-1-1-1.5-1.5-2-2-1-1-1-1-1-1-2-2-1.5-1.5-1-1-2-2l-12-14.5-12-14.5-8.5 4.5-8.5 4.5-9 10-9 10 1 1 1 1 1 1 1 1 1.5 1 1.5 1 1 1 1 1 1 1 1 1 1 .5 1 .5 22.5 10 22.5 10" style="fill:#3d2d13;stroke:#3d2d13"/><path d="m199 328h1l-27.5-2-27.5-2 2.5.5 2.5.5h2.5 2.5l1.5.5 1.5.5h2.5 2.5 2 2 2.5 2.5l1.5.5 1.5.5h2 2 2.5 2.5l1 .5 1 .5h2.5 2.5 2.5 2.5 1.5 1.5" style="fill:#1c0f00;stroke:#1c0f00"/><path d="m198 444l-3 15-1.5 27-1.5 27 3 2 3 2-.5-28.5-.5-28.5.5-8 .5-8" style="fill:#341e07;stroke:#341e07"/><path d="m198 371h1v-.5-.5l-23.5-4.5-23.5-4.5h-2.5-2.5l25.5 5 25.5 5" style="fill:#1c0f00;stroke:#1c0f00"/><path d="m195 312l-36-14 7.5 4 7.5 4 10.5 3 10.5 3" style="fill:#3d2d13;stroke:#3d2d13"/><g style="fill:#533211;stroke:#533211"><path d="m192 279l-25-21 12 11.5 12 11.5.5-1 .5-1"/><path d="m190 376l-61 17-22 4-22 4-.5.5-.5.5-19.5 1-19.5 1-.5-1-.5-1-.5-.5-.5-.5-.5-.5-.5-.5v-1-1-1.5-1.5l.5-.5.5-.5v-1-1l-.5-.5-.5-.5v-1.5-1.5-1-1l.5-.5.5-.5.5-.5.5-.5.5-.5.5-.5v-1-1-1.5-1.5l-.5.5-.5.5-1.5-.5-1.5-.5h-.5-.5l-1.5.5-1.5.5-.5.5-.5.5-1 .5-1 .5h-1-1-1-1-1-1-1-1l-1 .5-1 .5h-1-1-1-1-1-1l-1 .5-1 .5.5-1.5.5-1.5-1.5.5-1.5.5-1 1-1 1h-1.5-1.5l-.5.5-.5.5-1 1-1 1v1.5 1.5 1 1 1 1l-.5.5-.5.5-.5 1-.5 1v1 1l-.5.5-.5.5-.5.5-.5.5v1.5 1.5l-1 .5-1 .5v29.5 29.5 20.5 20.5l30-20.5 30-20.5 17.5-11.5 17.5-11.5 14-11.5 14-11.5 14-9.5 14-9.5 19.5-11 19.5-11"/></g><path d="m189 341h1l-1-.5-1-.5h-1-1-1-1l-1-.5-1-.5h-1-1-1-1-1-1-1.5-1.5-1-1l-1.5-.5-1.5-.5-2-.5-2-.5h-2-2-1-1-3.5-3.5-2-2l2 .5 2 .5h2 2l2 .5 2 .5h2 2l2 .5 2 .5h2 2 2 2 2.5 2.5l1.5.5 1.5.5h3 3" style="fill:#341e07;stroke:#341e07"/><g style="fill:#1c0f00;stroke:#1c0f00"><path d="m188 409h-24l3 6.5 3 6.5 9-6.5 9-6.5"/><path d="m185 576h1l-35.5-15-35.5-15-16.5 6.5-16.5 6.5-19 .5-19 .5h-4-4l16-13 16-13 16-12.5 16-12.5 15.5-13.5 15.5-13.5 11.5-16.5 11.5-16.5-10.5 6.5-10.5 6.5-17 11.5-17 11.5-16.5 12.5-16.5 12.5-16 13-16 13-17 12.5-17 12.5v7.5 7.5h22.5 22.5 29 29 29 29 12 12"/><path d="m178 346h1l-1-.5-1-.5h-1-1-1-1-1-1-1.5-1.5-1-1-1-1l-1-.5-1-.5h-3-3-2.5-2.5-2-2-2-2-2.5-2.5v-2-2l.5-2 .5-2h2 2l2 .5 2 .5h2 2 3.5 3.5l1 4 1 4 9 .5 9 .5"/></g><path d="m177 2l-1-1h-2-2-2.5-2.5l-1-.5-1-.5h-3-3-2-2-2.5-2.5-.5-.5l3 26 3 26 5.5 40.5 5.5 40.5-2.5 23.5-2.5 23.5h1.5 1.5 1 1l.5-1 .5-1 .5-.5.5-.5v-1-1-1-1-1.5-1.5-1-1-1-1-1-1-1.5-1.5-1-1-1-1-1-1-1-1-1-1-1.5-1.5-1-1-1-1-1-1-1.5-1.5l-.5-37-.5-37 1.5-22.5 1.5-22.5 3.5-9 3.5-9" style="fill:#3d2d13;stroke:#3d2d13"/><path d="m166 321h1l-8.5-6.5-8.5-6.5-.5-1.5-.5-1.5-.5-1-.5-1-.5-2-.5-2v-2.5-2.5l-1.5.5-1.5.5-2.5 1-2.5 1-1.5 1-1.5 1h-1-1l-1 1-1 1 .5 1.5.5 1.5.5 1 .5 1 .5.5.5.5.5 1.5.5 1.5v1.5 1.5l.5.5.5.5.5 1.5.5 1.5.5 2 .5 2h2 2 2.5 2.5 2 2 2 2 2.5 2.5 2.5 2.5" style="fill:#341e07;stroke:#341e07"/><path d="m166 133l-11-81-3-26-3-26h-30.5-30.5-29-29-.5-.5l3.5 21 3.5 21v18.5 18.5l-2.5 25.5-2.5 25.5v25 25l11-10.5 11-10.5 22.5.5 22.5.5-2 .5-2 .5 15.5 15 15.5 15 18-5.5 18-5.5 2.5-23.5 2.5-23.5" style="fill:#43351c;stroke:#43351c"/><g style="fill:#1c0f00;stroke:#1c0f00"><path d="m153 366h1l-25 10.5-25 10.5-27-.5-27-.5 27.5 3.5 27.5 3.5 20.5-7 20.5-7 3.5-6.5 3.5-6.5"/><path d="m153 282h1l-.5-1-.5-1h-1-1l-.5-.5-.5-.5-.5-1-.5-1 .5 1.5.5 1.5-.5 1.5-.5 1.5v1.5 1.5l-.5 1.5-.5 1.5-1.5 1-1.5 1-1.5.5-1.5.5-1 1-1 1-1 .5-1 .5.5 1 .5 1 2.5-1 2.5-1 1.5-.5 1.5-.5v2.5 2.5l.5 2 .5 2v-1.5-1.5-2-2-2.5-2.5l.5-1.5.5-1.5 1-1 1-1v-1.5-1.5l1-.5 1-.5"/></g><path d="m150 398h1l-14 9.5-14 9.5 1-.5 1-.5.5-.5.5-.5 1-.5 1-.5.5-.5.5-.5.5-.5.5-.5.5-.5.5-.5 1-.5 1-.5.5-.5.5-.5.5-.5.5-.5h1 1l.5-.5.5-.5.5-.5.5-.5 1-.5 1-.5.5-.5.5-.5.5-.5.5-.5.5-.5.5-.5 1-.5 1-.5.5-.5.5-.5.5-.5.5-.5 1-.5 1-.5" style="fill:#5c4c28;stroke:#5c4c28"/><path d="m149 444l1-1-29 21-29 21-16.5 12-16.5 12-14 8-14 8-4-3-4-3-11.5 11.5-11.5 11.5v2 2 2 2 2.5 2.5.5.5l25.5-19 25.5-19 16-12.5 16-12.5 16-12.5 16-12.5 17-12 17-12" style="fill:#1c0f00;stroke:#1c0f00"/><path d="m149 283l1-3-.5-1.5-.5-1.5-5.5 9-5.5 9 1-.5 1-.5 1-1 1-1 1.5-.5 1.5-.5 1.5-1 1.5-1 .5-1.5.5-1.5v-1.5-1.5" style="fill:#341e07;stroke:#341e07"/><path d="m148 438l-20-4-15.5 13-15.5 13 13.5-6.5 13.5-6.5-4.5 5.5-4.5 5.5 13.5-7 13.5-7 3-3 3-3" style="fill:#1c0f00;stroke:#1c0f00"/><path d="m147 284l-24-10 11.5 6 11.5 6 .5-1 .5-1" style="fill:#43351c;stroke:#43351c"/><path d="m146 244l-20-40-10.5-18-10.5-18h-2-2l-.5 1.5-.5 1.5-.5 2-.5 2 1 1 1 1v2.5 2.5 2 2l-.5 1.5-.5 1.5v2 2 1 1l-.5 1-.5 1v2 2l-.5.5-.5.5v1 1 1 1 2.5 2.5l10.5 18 10.5 18h-3-3l1.5.5 1.5.5h2 2 2 2l2-.5 2-.5 1.5-.5 1.5-.5 2-.5 2-.5h2 2l2-.5 2-.5h1.5 1.5" style="fill:#534223;stroke:#534223"/><path d="m146 228h1l-.5-1-.5-1-.5-2-.5-2h-.5-.5l-.5-1-.5-1-.5-1.5-.5-1.5-1-1-1-1-.5-1.5-.5-1.5-1-1.5-1-1.5-.5-1.5-.5-1.5-1-1.5-1-1.5h-1.5-1.5l1 1.5 1 1.5.5 2 .5 2 1 1 1 1 .5 2 .5 2 1 1 1 1 1 1.5 1 1.5.5 1.5.5 1.5.5 1 .5 1 .5.5.5.5 1 .5 1 .5" style="fill:#43351c;stroke:#43351c"/><path d="m144 222h1v-1.5-1.5l-1-1.5-1-1.5-1-1-1-1-1-1.5-1-1.5-.5-1.5-.5-1.5-.5-1.5-.5-1.5.5-2 .5-2v-2-2l-1 .5-1 .5-1.5.5-1.5.5-1.5 1-1.5 1 .5 1 .5 1h1.5 1.5l1 1.5 1 1.5.5 1.5.5 1.5 1 1.5 1 1.5.5 1.5.5 1.5 1 1 1 1 .5 1.5.5 1.5.5 1 .5 1" style="fill:#3d2d13;stroke:#3d2d13"/><g style="fill:#1c0f00;stroke:#1c0f00"><path d="m139 251l1-1-6.5 2.5-6.5 2.5-1-.5-1-.5v-1-1l2 .5 2 .5 1.5-.5 1.5-.5 1-.5 1-.5h1 1 1.5 1.5"/><path d="m134 324l1-3v-2-2l-.5-2-.5-2-.5-1-.5-1v2 2 1 1l-4 18-4 18-37 14.5-37 14.5 34-7.5 34-7.5 7.5-21.5 7.5-21.5"/></g><path d="m133 317v-2-2-2l-.5-2.5-.5-2.5-.5-1.5-.5-1.5h-2-2l-1-1.5-1-1.5-.5 1.5-.5 1.5.5.5.5.5 1 .5 1 .5 1.5.5 1.5.5-.5 1.5-.5 1.5-1.5 1-1.5 1v1 1l-.5 1-.5 1v2.5 2.5l-.5.5-.5.5-27 3.5-27 3.5-17-13-17-13h-.5-.5l-1 2-1 2-.5 1-.5 1v2 2l9 31.5 9 31.5v3 3l.5.5.5.5 37-14.5 37-14.5 4-18 4-18" style="fill:#341e07;stroke:#341e07"/><path d="m129 309l1-3-1.5-.5-1.5-.5-1-.5-1-.5-.5-.5-.5-.5.5-1.5.5-1.5-2-.5-2-.5-1.5.5-1.5.5-.5.5-.5.5-27.5 2.5-27.5 2.5.5 1 .5 1h1 1l.5.5.5.5h-1.5-1.5l-1.5-.5-1.5-.5-.5-.5-.5-.5-.5-.5-.5-.5-.5-.5-.5-.5h-1.5-1.5l-1.5-.5-1.5-.5-.5-.5-.5-.5-1-.5-1-.5-1.5-.5-1.5-.5h-1.5-1.5l9.5 12 9.5 12 32-2.5 32-2.5v-2.5-2.5l.5-1 .5-1v-1-1l1.5-1 1.5-1" style="fill:#533211;stroke:#533211"/><path d="m124 321l1-1-32 2.5-32 2.5-9.5-12-9.5-12v-1.5-1.5-1.5-1.5l-1 1-1 1-.5.5-.5.5-.5.5-.5.5-1 1.5-1 1.5 17 13 17 13 27-3.5 27-3.5" style="fill:#3d2d13;stroke:#3d2d13"/><path d="m122 297l1-3-1-1.5-1-1.5h-.5-.5l-32-8-32-8-.5 1.5-.5 1.5-.5 1.5-.5 1.5-1 1-1 1-1 2-1 2 34 6.5 34 6.5 1-1 1-1 1-.5 1-.5" style="fill:#5c4c28;stroke:#5c4c28"/><path d="m120 291h1l-.5-1-.5-1-.5-1.5-.5-1.5-.5-2.5-.5-2.5-27-5-27-5-2-.5-2-.5h-1-1v1 1l-.5.5-.5.5-.5 1-.5 1 32 8 32 8" style="fill:#534223;stroke:#534223"/><path d="m119 247l-21-36-3.5-11.5-3.5-11.5-12 10-12 10-12 20-12 20h2.5 2.5 2.5 2.5.5.5l9.5-9 9.5-9 15 3 15 3-22 6-22 6 27-.5 27-.5h3 3" style="fill:#64583f;stroke:#64583f"/><path d="m118 263h-51l21.5 1 21.5 1-23 3-23 3 27 5 27 5v-1.5-1.5l-.5-1.5-.5-1.5.5-2 .5-2v-2-2-2-2" style="fill:#533211;stroke:#533211"/><path d="m117 301l1-1-34-6.5-34-6.5-1 .5-1 .5-.5 1.5-.5 1.5-1 1-1 1-.5 1.5-.5 1.5.5 1.5.5 1.5 1.5-.5 1.5-.5h1 1l1 .5 1 .5 1 1 1 1 .5.5.5.5 1 .5 1 .5 1 1 1 1 1.5.5 1.5.5 27.5-2.5 27.5-2.5" style="fill:#534223;stroke:#534223"/><path d="m112 174l-47-9h14.5 14.5l9 4.5 9 4.5" style="fill:#0a0600;stroke:#0a0600"/><path d="m103 236l-30-6-9.5 9-9.5 9h1.5 1.5 1 1l22-6 22-6" style="fill:#6c6148;stroke:#6c6148"/><path d="m101 487l-33 25-9 9.5-9 9.5 15-13 15-13 10.5-9 10.5-9" style="fill:#341e07;stroke:#341e07"/><path d="m100 189l1-3v-2-2-2.5-2.5l-1-1-1-1 .5-2 .5-2 .5-1.5.5-1.5h-2.5-2.5-1-1-2-2-1-1l-1 .5-1 .5h-1.5-1.5l.5 1 .5 1 .5 1.5.5 1.5 1 1.5 1 1.5 1 1 1 1-.5 1.5-.5 1.5-11.5-6.5-11.5-6.5h-2-2l-.5 2-.5 2-.5.5-.5.5-.5 2.5-.5 2.5v2 2l1 1 1 1h1.5 1.5l1-1 1-1 1.5-1 1.5-1h1 1l.5 2 .5 2v2 2 1 1 2 2 1 1l-.5 1-.5 1-.5 1.5-.5 1.5-.5.5-.5.5-.5 1-.5 1v1.5 1.5l12-10 12-10 3.5 11.5 3.5 11.5v-2.5-2.5-1-1-1-1l.5-.5.5-.5v-2-2l.5-1 .5-1v-1-1-2-2" style="fill:#5c4c28;stroke:#5c4c28"/><g style="fill:#534223;stroke:#534223"><path d="m98 160l-45-1-11 10.5-11 10.5v-25-25l2.5-25.5 2.5-25.5v-18.5-18.5l-3.5-21-3.5-21h-1.5-1.5-2.5-2.5-1-1l4 20.5 4 20.5 3 17 3 17-3 26.5-3 26.5v45.5 45.5l13.5-22.5 13.5-22.5 20-6.5 20-6.5 2-.5 2-.5"/><path d="m88 182l1-3-1-1-1-1-1-1.5-1-1.5-.5-1.5-.5-1.5-.5-1-.5-1h1.5 1.5l1-.5 1-.5h-1.5-1.5-2-2-2-2-2.5-2.5-2-2l-1.5.5-1.5.5 11.5 6.5 11.5 6.5"/></g><path d="m84 402l1-1-20 1.5-20 1.5 19.5-1 19.5-1" style="fill:#3d2d13;stroke:#3d2d13"/><path d="m80 348l1-3v-1-1-2.5-2.5l-1.5.5-1.5.5-1-.5-1-.5-1 1-1 1-.5 2-.5 2v2 2h2 2 1.5 1.5" style="fill:#1c0f00;stroke:#1c0f00"/><path d="m71 191v-2-2-2l-.5-2-.5-2h-1-1l-1.5 1-1.5 1-1 1-1 1h-1.5-1.5l-1-1-1-1v-2-2l.5-2.5.5-2.5-10.5 20-10.5 20-3.5 15.5-3.5 15.5 6 1.5 6 1.5 12-20 12-20v-1.5-1.5l.5-1 .5-1 .5-.5.5-.5.5-1.5.5-1.5.5-1 .5-1v-1-1-2-2" style="fill:#534223;stroke:#534223"/><path d="m66 309l-1-1h-1-1l-.5-1-.5-1-1.5-.5-1.5-.5-1-1-1-1-1-.5-1-.5-.5-.5-.5-.5-1-1-1-1-1-.5-1-.5h-1-1l-1.5.5-1.5.5-.5-1.5-.5-1.5.5-1.5.5-1.5-1.5 1-1.5 1v1.5 1.5 1.5 1.5h1.5 1.5l1.5.5 1.5.5 1 .5 1 .5.5.5.5.5 1.5.5 1.5.5h1.5 1.5l.5.5.5.5.5.5.5.5.5.5.5.5 1.5.5 1.5.5h1.5 1.5" style="fill:#43351c;stroke:#43351c"/><path d="m53 254l-1-1h-2.5-2.5-2-2-2-2l-2-.5-2-.5-1.5-.5-1.5-.5h-2-2l-.5 1.5-.5 1.5-1 1-1 1v2 2 1 1l-.5 1-.5 1-1 1-1 1v1 1l-.5 1-.5 1-.5 1.5-.5 1.5 11.5 2.5 11.5 2.5-8 20.5-8 20.5 13-32.5 13-32.5" style="fill:#534223;stroke:#534223"/><path d="m50 375l-18-63 9 34.5 9 34.5v-3-3" style="fill:#1c0f00;stroke:#1c0f00"/><path d="m43 278l-23-5-.5 1-.5 1v1 1l-.5.5-.5.5v1 1l-1 .5-1 .5-.5 1-.5 1-6.5 31.5-6.5 31.5v1.5 1.5l-.5.5-.5.5.5.5.5.5v1 1l-1 .5-1 .5v2 2 2 2 2.5 2.5 2 2 .5.5l16.5-11.5 16.5-11.5-3-15-3-15 8-20.5 8-20.5" style="fill:#43351c;stroke:#43351c"/><path d="m42 378v-2-2.5-2.5l-.5-1.5-.5-1.5h-2-2l-1.5 1-1.5 1-1 1-1 1-2.5 1-2.5 1 1.5 1.5 1.5 1.5h2.5 2.5 2 2l1 .5 1 .5h.5.5" style="fill:#5c4c28;stroke:#5c4c28"/><path d="m40 378h1l-1-.5-1-.5h-2-2-2.5-2.5l-1.5-1.5-1.5-1.5-1 .5-1 .5-1 1-1 1-1.5 1-1.5 1-1.5.5-1.5.5-.5 1.5-.5 1.5 1-.5 1-.5h1 1 1 1 1 1l1-.5 1-.5h1 1 1 1 1 1 1 1l1-.5 1-.5.5-.5.5-.5 1.5-.5 1.5-.5" style="fill:#534223;stroke:#534223"/><path d="m33 75l-6-34-4-20.5-4-20.5h-9.5-9.5v21 21 28.5 28.5 29 29 29 29 28.5 28.5 29 29 12 12l1-.5 1-.5v-1-1l-.5-.5-.5-.5.5-.5.5-.5v-1.5-1.5l7-32.5 7-32.5 1-.5 1-.5v-1-1l.5-.5.5-.5v-1-1l.5-1 .5-1 .5-1.5.5-1.5.5-1 .5-1v-1-1l1-1 1-1 .5-1 .5-1v-1-1-2-2l1-1 1-1 .5-1.5.5-1.5-.5-16-.5-16v-45.5-45.5l3-26.5 3-26.5" style="fill:#5c4c28;stroke:#5c4c28"/><g style="fill:#0a0600;stroke:#0a0600"><path d="m31 490l-31 19v1.5 1.5.5.5l15.5-11.5 15.5-11.5"/><path d="m31 369l-31 12v2 2l1-1 1-1 .5-.5.5-.5 1-.5 1-.5h1 1l.5-.5.5-.5h1 1l1.5-.5 1.5-.5 1-.5 1-.5.5-.5.5-.5.5-.5.5-.5h1 1l1-.5 1-.5.5-.5.5-.5.5-.5.5-.5h1 1l1-.5 1-.5.5-.5.5-.5.5-.5.5-.5 1-.5 1-.5"/></g><path d="m15 283l1-2-7 32.5-7 32.5 6.5-31.5 6.5-31.5" style="fill:#534223;stroke:#534223"/></g></svg>